<svg width="613" height="535" viewBox="0 0 613 535" fill="none" xmlns="http://www.w3.org/2000/svg">
<path d="M612.772 126.056L600.012 187.848L591.804 179.84L577.827 189.802L567.151 176.548L543.196 193.961L522.739 159.733L499.907 173.104L490.857 160.62L461.867 176.953L453.144 158.282L473.464 59.8676L582.403 82.3596L612.772 126.056" fill="#E7E8E5"/>
<path d="M582.402 82.3614L612.774 126.051L574.993 118.251L582.402 82.3614Z" fill="#D4D6D3"/>
<path d="M597.298 200.197L578.582 290.857L431.858 260.571L450.43 170.633L459.153 189.304L488.141 172.971L497.192 185.455L520.025 172.084L540.481 206.312L564.436 188.897L575.113 202.152L589.089 192.191L597.298 200.197" fill="#E7E8E5"/>
<path d="M387.285 189.573L237.752 198.828L225.872 6.87213L336.901 0.00145447L377.671 34.1934L387.285 189.573" fill="#E7E8E5"/>
<path d="M336.901 0.000164941L377.671 34.1922L339.165 36.5762L336.901 0.000164941Z" fill="#D4D6D3"/>
<path d="M293.083 152.772C292.736 146.584 296.672 142.001 302.525 141.673C308.377 141.345 312.636 145.469 312.981 151.657C313.309 157.509 309.717 162.24 303.529 162.588C297.676 162.915 293.411 158.624 293.083 152.772V152.772ZM295.449 129.152L294.871 124.823C293.363 115.848 295.82 105.813 303.619 95.3107C310.648 86.0253 314.465 79.2693 314.043 71.744C313.565 63.2147 307.896 57.828 297.349 58.2507C291.328 58.588 284.752 60.9693 280.749 64.3813L276.144 54.0707C281.44 49.748 290.821 46.5373 299.687 46.0413C318.919 44.964 328.279 56.352 328.989 69.06C329.628 80.4333 323.732 88.9826 316.239 98.9653C309.367 108.073 307.104 115.581 308.084 124.083L308.493 128.423L295.449 129.152" fill="#D4D6D3"/>
<path d="M26.0015 435.5L91.0017 435.256L156.002 435.168L286.002 435L416.001 435.166L481.001 435.254L546.001 435.5L481.001 435.744L416.001 435.832L286.002 436L156.002 435.832L91.0017 435.744L26.0015 435.5" fill="#17282F"/>
<path d="M546.001 493C546.001 516.197 429.595 535 286.002 535C142.408 535 26.0015 516.197 26.0015 493C26.0015 469.804 142.408 451 286.002 451C429.595 451 546.001 469.804 546.001 493" fill="#E7E8E5"/>
<path d="M125.626 469.886C122.085 469.755 118.629 471.448 116.706 473.563C114.858 475.597 113.281 478.451 113.397 481.549L113.577 481.548C114.409 475.701 119.706 470.549 125.628 470.073C125.748 470.063 125.749 469.89 125.626 469.886" fill="#17282F"/>
<path d="M99.5215 456.656C93.5442 456.595 86.6215 458.728 82.9242 463.629C82.7815 463.82 83.0535 464.02 83.2309 463.928C88.6242 461.123 93.7535 459.031 99.6269 457.392C100.042 457.276 99.9495 456.661 99.5215 456.656Z" fill="#17282F"/>
<path d="M104.141 458.439C98.1641 458.378 91.2428 460.511 87.5455 465.412C87.4015 465.603 87.6735 465.803 87.8508 465.711C93.2441 462.906 98.3735 460.814 104.248 459.174C104.661 459.059 104.569 458.445 104.141 458.439" fill="#17282F"/>
<path d="M108.763 460.223C102.785 460.161 95.8628 462.294 92.1654 467.196C92.0228 467.387 92.2948 467.587 92.4721 467.494C97.8654 464.689 102.995 462.597 108.868 460.957C109.281 460.841 109.191 460.228 108.763 460.223Z" fill="#17282F"/>
<path d="M113.383 462.002C107.405 461.942 100.483 464.076 96.7867 468.977C96.6427 469.168 96.9147 469.368 97.092 469.276C102.485 466.471 107.615 464.378 113.488 462.738C113.903 462.622 113.811 462.008 113.383 462.002Z" fill="#17282F"/>
<path d="M98.636 453.414C96.5827 454.919 94.4707 456.315 92.4734 457.896C93.5307 454.914 94.4534 451.902 95.8107 449.029C96.4587 447.658 97.1494 446.26 97.98 444.988C99.272 443.009 105.12 437.994 105.739 444.495C106.079 448.078 101.083 451.618 98.636 453.414V453.414ZM105.924 440.684C102.891 438.186 99.088 440.651 97.2307 443.263C94.2254 447.493 92.1694 453.412 91.8534 458.566C91.8467 458.693 91.9427 458.743 92.0414 458.736C92.1694 459.165 92.6774 459.522 93.1174 459.215C97.3627 456.257 102.268 453.619 105.479 449.447C107.353 447.01 108.795 443.047 105.924 440.684" fill="#17282F"/>
<path d="M12.728 123.444C12.8413 124.516 12.756 125.561 12.6253 126.599C12.4706 127.633 12.2666 128.66 11.8626 129.66C11.7493 128.588 11.8333 127.544 11.9666 126.507C12.124 125.472 12.328 124.446 12.728 123.444Z" fill="white"/>
<path d="M21.5214 155.708C21.6347 156.78 21.5494 157.824 21.4187 158.862C21.2627 159.896 21.0587 160.924 20.656 161.924C20.5414 160.852 20.6254 159.808 20.7587 158.77C20.916 157.736 21.12 156.708 21.5214 155.708Z" fill="white"/>
<path d="M12.5332 99.5562C13.6052 99.4442 14.6492 99.5282 15.6879 99.6602C16.7212 99.8162 17.7492 100.02 18.7492 100.423C17.6772 100.538 16.6332 100.452 15.5945 100.32C14.5612 100.163 13.5332 99.9589 12.5332 99.5562Z" fill="white"/>
<path d="M5.00801 108.064C4.32934 108.901 3.53067 109.58 2.704 110.221C1.86267 110.842 0.992 111.425 0 111.848C0.677333 111.008 1.47467 110.33 2.30267 109.69C3.14534 109.069 4.01601 108.488 5.00801 108.064Z" fill="white"/>
<path d="M15.2078 143.149C14.5305 143.986 13.7318 144.665 12.9052 145.306C12.0638 145.926 11.1932 146.509 10.2012 146.932C10.8785 146.093 11.6758 145.414 12.5038 144.774C13.3465 144.154 14.2172 143.572 15.2078 143.149Z" fill="white"/>
<path d="M27.2347 138.811C26.3974 138.133 25.7187 137.335 25.0773 136.508C24.456 135.667 23.8734 134.796 23.4507 133.804C24.2907 134.48 24.9694 135.28 25.6094 136.107C26.228 136.949 26.8107 137.82 27.2347 138.811Z" fill="white"/>
<path d="M18.2415 175.361C17.4042 174.683 16.7255 173.885 16.0842 173.059C15.4628 172.217 14.8802 171.345 14.4575 170.353C15.2975 171.031 15.9748 171.829 16.6148 172.657C17.2348 173.5 17.8175 174.371 18.2415 175.361" fill="white"/>
<path d="M114.776 195.545C116.501 197.628 118.263 199.726 119.797 201.954C121.332 204.185 122.789 206.469 124.111 208.832C127.348 214.626 128.469 218.761 128.372 218.513C126.076 212.652 120.705 204.585 119.171 202.354C117.64 200.13 116.22 197.828 114.689 195.601L114.776 195.545" fill="#17282F"/>
<path d="M106.624 200.938C109.581 203.282 115.787 212.012 118.179 217.86C118.279 218.105 118.147 218.086 118.001 217.862C116.128 214.973 108.559 203.769 106.555 200.984L106.624 200.938" fill="#17282F"/>
<path d="M98.7961 204.313C102.22 207.701 105.095 212.329 107.356 217.676C107.457 217.919 107.264 217.881 107.124 217.652C104.363 213.156 102.227 209.609 98.6548 204.431L98.7961 204.313Z" fill="#17282F"/>
<path d="M18.9068 116.98C19.3415 117.965 19.5801 118.987 19.7721 120.015C19.9388 121.047 20.0588 122.088 19.9801 123.164C19.5441 122.177 19.3068 121.157 19.1148 120.128C18.9495 119.096 18.8308 118.055 18.9068 116.98Z" fill="white"/>
<path d="M491.931 501.756H85.6934L144.433 168.621H550.671L491.931 501.756Z" fill="#FABB1E"/>
<path d="M283.468 134.121H150.516L144.433 168.621H286.714L283.468 134.121" fill="#FABB1E"/>
<path d="M491.931 501.756H85.6934L144.433 168.621H550.671L544.547 203.356L530.855 281.004L491.931 501.756Z" fill="#F4AC12"/>
<path d="M286.714 168.621H144.433L150.516 134.121H283.468L286.714 168.621" fill="#F4AC12"/>
<path d="M116.301 184.232C114.889 185.655 113.273 186.724 111.611 187.709C109.925 188.66 108.192 189.524 106.252 190.033C107.663 188.609 109.279 187.539 110.944 186.556C112.629 185.608 114.363 184.744 116.301 184.232Z" fill="#17282F"/>
<path d="M125.168 192.755C124.656 194.694 123.791 196.427 122.844 198.114C121.86 199.778 120.791 201.394 119.365 202.805C119.875 200.866 120.74 199.131 121.689 197.447C122.676 195.783 123.745 194.167 125.168 192.755Z" fill="#17282F"/>
<path d="M137.107 195.703C137.633 197.637 137.751 199.571 137.773 201.504C137.753 203.439 137.636 205.372 137.107 207.307C136.579 205.372 136.46 203.439 136.441 201.504C136.463 199.571 136.581 197.637 137.107 195.703Z" fill="#17282F"/>
<path d="M148.921 192.287C150.344 193.699 151.413 195.315 152.399 196.977C153.349 198.663 154.213 200.396 154.723 202.336C153.299 200.925 152.229 199.309 151.245 197.644C150.297 195.959 149.433 194.224 148.921 192.287Z" fill="#17282F"/>
<path d="M157.444 183.421C159.383 183.932 161.116 184.797 162.803 185.744C164.467 186.728 166.082 187.797 167.493 189.223C165.554 188.713 163.82 187.848 162.136 186.899C160.472 185.912 158.856 184.843 157.444 183.421" fill="#17282F"/>
<path d="M491.334 501.756H84.2211L26.4185 180.716H433.533L491.334 501.756Z" fill="#FABB1E"/>
<path d="M184.414 360.049C184.414 369.395 176.838 376.971 167.493 376.971C158.148 376.971 150.572 369.395 150.572 360.049C150.572 350.704 158.148 343.128 167.493 343.128C176.838 343.128 184.414 350.704 184.414 360.049Z" fill="#17282F"/>
<path d="M318.183 360.049C318.183 369.395 310.606 376.971 301.26 376.971C291.916 376.971 284.339 369.395 284.339 360.049C284.339 350.704 291.916 343.128 301.26 343.128C310.606 343.128 318.183 350.704 318.183 360.049Z" fill="#17282F"/>
<path d="M258.681 379.672L257.752 377.9C257.668 377.74 248.927 361.583 231.337 361.583C215.296 361.583 211.385 376.796 211.227 377.444L210.752 379.383L206.872 378.445L207.339 376.504C207.384 376.316 212.105 357.583 231.337 357.583C251.387 357.583 260.9 375.289 261.295 376.044L262.224 377.815L258.681 379.672" fill="#17282F"/>
<path d="M464.456 358.758C465.333 358.57 466.208 358.365 467.077 358.142L466.748 356.85C465.893 357.069 465.036 357.272 464.177 357.456L464.456 358.76" fill="#17282F"/>
<path d="M472.244 356.613C473.949 356.037 475.63 355.399 477.282 354.7L476.762 353.472C475.141 354.157 473.49 354.784 471.817 355.349L472.244 356.613ZM482.165 352.416C483.772 351.589 485.34 350.707 486.864 349.769L486.165 348.633C484.67 349.552 483.132 350.42 481.556 351.231L482.165 352.416ZM491.34 346.764C492.802 345.695 494.21 344.572 495.556 343.4L494.68 342.395C493.364 343.54 491.986 344.64 490.553 345.688L491.34 346.764ZM499.462 339.675C500.718 338.359 501.9 336.993 502.995 335.585L501.942 334.767C500.876 336.139 499.725 337.469 498.498 338.753L499.462 339.675ZM506.074 331.137C507.025 329.581 507.873 327.981 508.608 326.344L507.392 325.797C506.681 327.381 505.86 328.932 504.937 330.443L506.074 331.137ZM510.486 321.252C510.99 319.513 511.366 317.74 511.605 315.94L510.282 315.765C510.054 317.497 509.692 319.204 509.205 320.881L510.486 321.252ZM511.956 310.535C511.957 310.405 511.957 310.276 511.957 310.147C511.957 308.449 511.869 306.783 511.7 305.143L510.373 305.28C510.538 306.875 510.624 308.496 510.624 310.147C510.624 310.272 510.624 310.397 510.622 310.524L511.956 310.535ZM510.858 299.813C510.484 298.045 510.02 296.308 509.478 294.597L508.206 295C508.736 296.672 509.189 298.367 509.554 300.089L510.858 299.813ZM507.633 289.539C506.953 287.885 506.208 286.255 505.409 284.64L504.214 285.231C505.001 286.821 505.733 288.424 506.401 290.045L507.633 289.539ZM502.892 279.893C502.017 278.344 501.102 276.808 500.156 275.279L499.022 275.98C499.96 277.496 500.867 279.017 501.731 280.549L502.892 279.893ZM497.272 270.763C496.297 269.279 495.303 267.797 494.297 266.316L493.194 267.065C494.197 268.543 495.188 270.019 496.157 271.495L497.272 270.763ZM491.289 261.908C490.286 260.443 489.284 258.975 488.289 257.499L487.184 258.244C488.181 259.724 489.186 261.195 490.188 262.66L491.289 261.908ZM485.348 253.057C484.382 251.569 483.434 250.071 482.512 248.557L481.373 249.251C482.304 250.777 483.258 252.287 484.229 253.784L485.348 253.057ZM479.832 243.971C478.97 242.425 478.144 240.863 477.36 239.279L476.165 239.869C476.958 241.476 477.796 243.059 478.667 244.62L479.832 243.971ZM475.153 234.469C474.47 232.851 473.838 231.208 473.268 229.537L472.005 229.969C472.588 231.672 473.23 233.343 473.925 234.988L475.153 234.469ZM471.752 224.481C471.317 222.795 470.948 221.077 470.652 219.325L469.337 219.548C469.64 221.337 470.017 223.092 470.46 224.813L471.752 224.481ZM470 214.097C469.873 212.512 469.806 210.897 469.806 209.253C469.806 209.111 469.806 208.968 469.808 208.827L468.474 208.817C468.473 208.963 468.473 209.108 468.473 209.253C468.473 210.933 468.541 212.583 468.672 214.204L470 214.097ZM470.069 203.552C470.102 203.187 470.14 202.82 470.18 202.451C470.334 201.033 470.53 199.657 470.765 198.323L469.453 198.091C469.212 199.455 469.012 200.86 468.854 202.307C468.813 202.683 468.776 203.057 468.741 203.431L470.069 203.552ZM471.918 193.183C472.398 191.439 472.952 189.776 473.572 188.189L472.331 187.704C471.692 189.335 471.125 191.041 470.633 192.829L471.918 193.183ZM475.756 183.411C476.594 181.828 477.505 180.335 478.484 178.925L477.389 178.165C476.38 179.617 475.44 181.157 474.577 182.788L475.756 183.411ZM481.737 174.808C482.92 173.487 484.168 172.259 485.472 171.117L484.594 170.115C483.25 171.289 481.964 172.556 480.744 173.919L481.737 174.808ZM489.626 167.895C491.08 166.895 492.582 165.984 494.121 165.155L493.489 163.981C491.91 164.831 490.366 165.768 488.87 166.796L489.626 167.895ZM498.884 162.895C500.516 162.216 502.173 161.619 503.845 161.097L503.448 159.824C501.738 160.357 500.042 160.969 498.372 161.664L498.884 162.895ZM508.949 159.737C510.686 159.352 512.425 159.039 514.152 158.795L513.965 157.475C512.205 157.724 510.432 158.043 508.66 158.436L508.949 159.737ZM519.413 158.252C521.001 158.147 522.568 158.097 524.098 158.097C524.3 158.097 524.501 158.099 524.701 158.1L524.713 156.767C524.509 156.765 524.304 156.764 524.098 156.764C522.538 156.764 520.944 156.815 519.325 156.921L519.413 158.252ZM529.981 158.348C531.817 158.507 533.57 158.736 535.216 159.027L535.446 157.713C533.761 157.416 531.969 157.181 530.096 157.019L529.981 158.348ZM540.336 160.221C540.636 160.311 540.928 160.403 541.214 160.497C542.681 160.98 544.005 161.527 545.19 162.123L545.79 160.932C544.54 160.303 543.156 159.732 541.632 159.231C541.333 159.133 541.029 159.037 540.718 158.944L540.336 160.221ZM549.48 164.972C550.896 166.225 551.918 167.572 552.59 168.943L553.788 168.355C553.032 166.815 551.897 165.331 550.364 163.973L549.48 164.972ZM553.588 173.773C553.48 175.416 552.926 177.003 551.968 178.425L553.074 179.171C554.157 177.564 554.796 175.747 554.918 173.86L553.588 173.773ZM548.31 181.847C546.96 182.665 545.37 183.301 543.565 183.685L543.842 184.989C545.785 184.576 547.516 183.888 549.002 182.988L548.31 181.847ZM538.428 184.073C537.727 184.04 537.005 183.973 536.265 183.872C535.246 183.732 534.238 183.563 533.245 183.364L532.982 184.672C534.004 184.876 535.038 185.049 536.084 185.193C536.862 185.3 537.624 185.369 538.365 185.405L538.428 184.073ZM528.148 182.056C526.461 181.525 524.818 180.905 523.222 180.201L522.685 181.421C524.325 182.145 526.013 182.781 527.746 183.328L528.148 182.056ZM518.533 177.816C517.015 176.933 515.548 175.968 514.138 174.925L513.345 175.997C514.794 177.069 516.301 178.061 517.864 178.968L518.533 177.816ZM510.086 171.572C508.802 170.384 507.58 169.125 506.422 167.799L505.417 168.675C506.606 170.037 507.862 171.331 509.182 172.551L510.086 171.572ZM503.173 163.655C502.17 162.228 501.234 160.741 500.368 159.197L499.205 159.849C500.093 161.432 501.053 162.959 502.082 164.423L503.173 163.655ZM498.021 154.48C497.324 152.885 496.694 151.243 496.14 149.555L494.873 149.972C495.441 151.699 496.085 153.381 496.8 155.015L498.021 154.48ZM494.724 144.475C494.334 142.781 494.014 141.049 493.768 139.285L492.446 139.469C492.698 141.272 493.025 143.041 493.425 144.773L494.724 144.475ZM493.258 134.029C493.194 132.848 493.161 131.652 493.161 130.445C493.161 129.881 493.168 129.316 493.182 128.748L491.85 128.713C491.834 129.293 491.828 129.871 491.828 130.445C491.828 131.677 491.861 132.896 491.928 134.103L493.258 134.029ZM493.52 123.473C493.696 121.747 493.938 120 494.249 118.236L492.936 118.004C492.62 119.8 492.373 121.579 492.193 123.339L493.52 123.473ZM495.346 113.06C495.765 111.375 496.245 109.676 496.789 107.967L495.518 107.561C494.965 109.299 494.477 111.024 494.053 112.739L495.346 113.06ZM498.552 102.972C499.201 101.3 499.904 99.6853 500.654 98.1266L499.452 97.5493C498.688 99.1386 497.972 100.784 497.309 102.489L498.552 102.972ZM503.129 93.4613C504.03 91.9146 504.977 90.4293 505.965 89.0053L504.869 88.2453C503.862 89.6986 502.896 91.2133 501.977 92.7906L503.129 93.4613ZM509.141 84.7813C510.27 83.3946 511.437 82.072 512.632 80.8106L511.664 79.8933C510.447 81.1786 509.258 82.5266 508.108 83.94L509.141 84.7813ZM516.405 77.1053C517.729 75.8946 519.074 74.7506 520.432 73.672L519.602 72.6279C518.222 73.7266 516.853 74.8893 515.505 76.1213L516.405 77.1053ZM524.682 70.512C526.166 69.4813 527.652 68.5199 529.125 67.6253L528.433 66.4866C526.939 67.3933 525.429 68.3693 523.921 69.4173L524.682 70.512ZM533.736 65.0093C535.361 64.148 536.953 63.3679 538.49 62.6599L537.933 61.4493C536.375 62.1653 534.761 62.9573 533.112 63.832L533.736 65.0093ZM543.369 60.5773C545.173 59.8653 546.849 59.2666 548.357 58.7666L547.938 57.5013C546.408 58.008 544.708 58.616 542.88 59.3373L543.369 60.5773" fill="#17282F"/>
<path d="M553.695 57.1875C554.512 56.9768 555.152 56.8275 555.587 56.7315C555.804 56.6835 555.969 56.6501 556.08 56.6275L556.243 56.5955L555.997 55.2848C555.984 55.2875 555.029 55.4661 553.363 55.8955L553.695 57.1875" fill="#17282F"/>
<path d="M577.267 48.5743C573.863 38.0356 551.091 41.8223 555.536 55.5903C559.983 69.3596 580.669 59.1129 577.267 48.5743Z" fill="#17282F"/>
<path d="M543.149 44.3265C543.32 39.7038 549.751 36.1478 558.839 37.7892C567.927 39.4305 576.487 45.5518 576.487 45.5518C576.487 45.5518 567.5 51.0492 558.315 52.0185C549.132 52.9878 542.979 48.9691 543.149 44.3265" fill="#E7E8E5"/>
<path d="M576.487 45.5505C571.768 45.5825 567.056 45.4239 562.343 45.2799C557.633 45.0785 552.921 44.8919 548.217 44.5119C552.937 44.4759 557.648 44.6372 562.363 44.7812C567.072 44.9825 571.783 45.1705 576.487 45.5505" fill="#17282F"/>
<path d="M552.285 40.2345C553.649 40.8452 554.913 41.6185 556.184 42.3799C557.424 43.1905 558.673 43.9879 559.817 44.9492C558.452 44.3386 557.19 43.5639 555.918 42.8025C554.678 41.9919 553.43 41.1932 552.285 40.2345Z" fill="#17282F"/>
<path d="M564.64 45.1148C563.444 46.1282 562.145 46.9815 560.856 47.8468C559.532 48.6642 558.22 49.4935 556.801 50.1602C557.995 49.1442 559.295 48.2922 560.585 47.4268C561.908 46.6108 563.221 45.7828 564.64 45.1148" fill="#17282F"/>
<path d="M566.011 42.513C566.715 42.8157 567.299 43.2676 567.891 43.7076C568.448 44.193 569.015 44.6676 569.459 45.293C568.752 44.9916 568.171 44.5383 567.579 44.097C567.021 43.6116 566.456 43.1357 566.011 42.513Z" fill="#17282F"/>
<path d="M551.809 71.7551C554.651 75.4044 561.947 74.5284 568.36 67.8817C574.772 61.2364 578.136 51.2644 578.136 51.2644C578.136 51.2644 567.631 52.0617 559.613 56.6457C551.596 61.231 548.956 68.0884 551.809 71.7551Z" fill="#E7E8E5"/>
<path d="M578.136 51.2646C574.288 53.998 570.559 56.8833 566.82 59.7553C563.117 62.674 559.405 65.5806 555.812 68.6406C559.66 65.9086 563.389 63.0233 567.127 60.15C570.829 57.23 574.541 54.3233 578.136 51.2646" fill="#17282F"/>
<path d="M561.613 69.7305C562.363 68.4371 562.935 67.0705 563.521 65.7105C564.053 64.3278 564.6 62.9518 564.967 61.5011C564.215 62.7945 563.643 64.1612 563.059 65.5225C562.527 66.9052 561.981 68.2825 561.613 69.7305" fill="#17282F"/>
<path d="M568.78 58.5469C567.217 58.4229 565.665 58.4909 564.112 58.5429C562.563 58.6535 561.012 58.7495 559.471 59.0389C561.032 59.1642 562.585 59.0949 564.139 59.0415C565.689 58.9309 567.24 58.8349 568.78 58.5469" fill="#17282F"/>
<path d="M571.415 59.8574C571.807 59.1988 572.017 58.4921 572.241 57.7868C572.408 57.0681 572.589 56.3521 572.585 55.5868C572.189 56.2428 571.981 56.9508 571.759 57.6548C571.591 58.3748 571.411 59.0908 571.415 59.8574Z" fill="#17282F"/>
<path d="M577.267 48.5749C575.167 49.2536 572.916 48.1002 572.238 46.0016C571.559 43.9016 572.712 41.6496 574.811 40.9723C576.911 40.2936 579.163 41.4469 579.84 43.5456C580.519 45.6456 579.366 47.8976 577.267 48.5749Z" fill="#33535F"/>
<path d="M579.721 56.177C577.623 56.8543 575.369 55.7023 574.693 53.6023C574.015 51.5037 575.167 49.2517 577.267 48.573C579.365 47.8957 581.617 49.0477 582.296 51.1477C582.973 53.2463 581.821 55.4983 579.721 56.177Z" fill="#33535F"/>
</svg>
