<svg width="152" height="140" viewBox="0 0 152 140" fill="none" xmlns="http://www.w3.org/2000/svg">
<g clip-path="url(#clip0)">
<path d="M96.4958 31.4855H55.5385C54.6051 31.4865 53.7103 31.8369 53.0503 32.4596C52.3904 33.0823 52.0191 33.9266 52.018 34.8073V120.7L51.5486 120.835L41.5011 123.738C41.0249 123.875 40.5105 123.828 40.071 123.608C39.6314 123.387 39.3025 123.011 39.1565 122.562L9.26973 30.4468C9.12429 29.9975 9.17386 29.5121 9.40755 29.0972C9.64125 28.6824 10.0399 28.3721 10.516 28.2345L25.9992 23.761L70.8855 10.7968L86.3686 6.32339C86.6042 6.25497 86.8518 6.23106 87.0973 6.25303C87.3427 6.275 87.5811 6.34243 87.7989 6.45145C88.0167 6.56047 88.2095 6.70894 88.3664 6.88837C88.5233 7.0678 88.6412 7.27466 88.7133 7.49712L96.3527 31.0425L96.4958 31.4855Z" fill="#F2F2F2"/>
<path d="M105.434 31.0435L96.2265 2.66587C96.0734 2.19305 95.8229 1.75334 95.4896 1.37187C95.1562 0.990404 94.7465 0.674657 94.2838 0.442671C93.821 0.210684 93.3144 0.0670029 92.7928 0.0198437C92.2712 -0.0273155 91.7449 0.0229711 91.2439 0.167825L69.4755 6.45502L24.5916 19.4214L2.82321 25.7108C1.81196 26.0038 0.965233 26.6634 0.468876 27.5449C-0.0274809 28.4263 -0.132914 29.4576 0.175724 30.4124L31.6443 127.396C31.895 128.166 32.4009 128.841 33.0877 129.32C33.7746 129.8 34.6062 130.059 35.4605 130.06C35.856 130.06 36.2492 130.004 36.6269 129.894L51.5492 125.584L52.0186 125.447V124.984L51.5492 125.119L36.4885 129.471C35.5959 129.727 34.6318 129.64 33.8077 129.226C32.9836 128.813 32.3668 128.109 32.0926 127.267L0.626443 30.2817C0.490573 29.8647 0.443219 29.4265 0.48709 28.9921C0.530962 28.5578 0.665193 28.1359 0.882107 27.7506C1.09902 27.3653 1.39436 27.0242 1.75119 26.7468C2.10803 26.4693 2.51936 26.261 2.96164 26.1338L24.73 19.8444L69.614 6.88022L91.3824 0.590814C91.7179 0.494214 92.0666 0.444959 92.4174 0.444651C93.1701 0.446246 93.9025 0.675224 94.5073 1.09805C95.1121 1.52087 95.5575 2.11532 95.7783 2.79432L104.943 31.0435L105.089 31.4864H105.577L105.434 31.0435Z" fill="#3F3D56"/>
<path d="M28.7932 28.307C28.3408 28.3067 27.9005 28.1696 27.5367 27.9158C27.173 27.6621 26.905 27.305 26.7721 26.897L23.7491 17.5799C23.6679 17.3296 23.6397 17.0667 23.6661 16.8061C23.6926 16.5456 23.7732 16.2925 23.9033 16.0613C24.0335 15.8302 24.2106 15.6255 24.4246 15.4589C24.6386 15.2924 24.8853 15.1672 25.1505 15.0906L66.4434 3.16206C66.979 3.00782 67.5577 3.06043 68.0523 3.30833C68.5469 3.55623 68.9171 3.97917 69.0815 4.48432L72.1046 13.8016C72.2679 14.307 72.2121 14.853 71.9494 15.3197C71.6867 15.7863 71.2385 16.1356 70.7032 16.2909L29.4103 28.2195C29.2103 28.2774 29.0023 28.3069 28.7932 28.307Z" fill="#6C63FF"/>
<path d="M44.629 9.95549C47.2214 9.95549 49.323 7.97249 49.323 5.52633C49.323 3.08017 47.2214 1.09717 44.629 1.09717C42.0365 1.09717 39.935 3.08017 39.935 5.52633C39.935 7.97249 42.0365 9.95549 44.629 9.95549Z" fill="#6C63FF"/>
<path d="M44.629 8.33105C46.2706 8.33105 47.6013 7.07535 47.6013 5.52636C47.6013 3.97738 46.2706 2.72168 44.629 2.72168C42.9874 2.72168 41.6566 3.97738 41.6566 5.52636C41.6566 7.07535 42.9874 8.33105 44.629 8.33105Z" fill="white"/>
<path d="M141.439 128.927H62.1101C61.5812 128.926 61.0741 128.728 60.7001 128.375C60.3261 128.022 60.1158 127.544 60.1151 127.045V37.3541C60.1157 36.855 60.3261 36.3765 60.7001 36.0236C61.0741 35.6707 61.5812 35.4722 62.1101 35.4717H141.439C141.967 35.4723 142.475 35.6708 142.849 36.0237C143.223 36.3765 143.433 36.855 143.434 37.3541V127.045C143.433 127.544 143.223 128.022 142.849 128.375C142.475 128.728 141.967 128.926 141.439 128.927Z" fill="#E6E6E6"/>
<path d="M129.917 88.7273C129.917 93.1496 125.467 96.7334 119.977 96.7334C114.487 96.7334 110.037 93.1496 110.037 88.7273C110.037 84.3051 114.487 80.7202 119.977 80.7202C125.467 80.7202 129.917 84.3051 129.917 88.7273Z" fill="white" fill-opacity="0.8"/>
<path d="M97.2871 88.7273C97.2871 93.1496 92.8367 96.7334 87.347 96.7334C81.8572 96.7334 77.4068 93.1496 77.4068 88.7273C77.4068 84.3051 81.8572 80.7202 87.347 80.7202C92.8367 80.7202 97.2871 84.3051 97.2871 88.7273Z" fill="white" fill-opacity="0.8"/>
<path d="M93.214 82.2262C94.2296 83.486 94.822 84.988 94.822 86.6037C94.822 91.0361 90.3769 94.6299 84.8935 94.6299C82.7033 94.6299 80.68 94.0559 79.0381 93.0847C80.8098 95.2809 83.8733 96.7334 87.3585 96.7334C92.8419 96.7334 97.2869 93.1406 97.2869 88.7072C97.2869 86.0444 95.6825 83.6861 93.214 82.2262Z" fill="#EFEFEF" fill-opacity="0.8"/>
<path d="M125.845 82.2262C126.86 83.486 127.453 84.988 127.453 86.6037C127.453 91.0361 123.008 94.6299 117.524 94.6299C115.334 94.6299 113.311 94.0559 111.669 93.0847C113.441 95.2809 116.504 96.7334 119.989 96.7334C125.473 96.7334 129.918 93.1406 129.918 88.7072C129.918 86.0444 128.313 83.6861 125.845 82.2262Z" fill="#EFEFEF" fill-opacity="0.8"/>
<path d="M87.347 81.103C82.1346 81.103 77.894 84.5236 77.894 88.7275C77.894 92.9314 82.1346 96.3509 87.347 96.3509C92.5594 96.3509 96.8 92.9314 96.8 88.7275C96.8 84.5236 92.5594 81.103 87.347 81.103ZM87.347 97.085C81.6327 97.085 76.9839 93.3362 76.9839 88.7275C76.9839 84.1188 81.6327 80.369 87.347 80.369C93.0613 80.369 97.7101 84.1188 97.7101 88.7275C97.7101 93.3362 93.0613 97.085 87.347 97.085Z" fill="#231F20" fill-opacity="0.8"/>
<path d="M92.1515 92.2911C92.1515 94.4396 90.0006 96.1814 87.3476 96.1814C84.6945 96.1814 82.5437 94.4396 82.5437 92.2911C82.5437 90.1425 84.6945 88.4007 87.3476 88.4007C90.0006 88.4007 92.1515 90.1425 92.1515 92.2911Z" fill="#231F20" fill-opacity="0.8"/>
<path d="M88.1625 91.5882C88.1625 92.461 87.2833 93.1694 86.1987 93.1694C85.1141 93.1694 84.2348 92.461 84.2348 91.5882C84.2348 90.7144 85.1141 90.007 86.1987 90.007C87.2833 90.007 88.1625 90.7144 88.1625 91.5882Z" fill="white" fill-opacity="0.8"/>
<path d="M119.977 81.103C114.765 81.103 110.524 84.5236 110.524 88.7275C110.524 92.9314 114.765 96.3509 119.977 96.3509C125.19 96.3509 129.43 92.9314 129.43 88.7275C129.43 84.5236 125.19 81.103 119.977 81.103ZM119.977 97.085C114.263 97.085 109.614 93.3362 109.614 88.7275C109.614 84.1188 114.263 80.369 119.977 80.369C125.691 80.369 130.34 84.1188 130.34 88.7275C130.34 93.3362 125.691 97.085 119.977 97.085Z" fill="#231F20" fill-opacity="0.8"/>
<path d="M124.782 92.2911C124.782 94.4396 122.631 96.1814 119.978 96.1814C117.325 96.1814 115.174 94.4396 115.174 92.2911C115.174 90.1425 117.325 88.4007 119.978 88.4007C122.631 88.4007 124.782 90.1425 124.782 92.2911Z" fill="#231F20" fill-opacity="0.8"/>
<path d="M120.793 91.5882C120.793 92.461 119.913 93.1694 118.829 93.1694C117.744 93.1694 116.865 92.461 116.865 91.5882C116.865 90.7144 117.744 90.007 118.829 90.007C119.913 90.007 120.793 90.7144 120.793 91.5882Z" fill="white" fill-opacity="0.8"/>
<path d="M75.6654 72.6179C77.7537 73.8117 78.3931 70.7882 83.1889 68.9386C87.1878 67.3969 90.3359 68.5833 90.6798 67.152C91.0237 65.7206 87.1258 64.5867 81.1593 66.594C76.7198 68.0873 73.2412 71.2317 75.6654 72.6179Z" fill="#231F20" fill-opacity="0.8"/>
<path d="M133.438 72.5449C131.225 73.825 130.482 70.6288 125.31 68.7085C120.998 67.1078 117.65 68.388 117.254 66.8752C116.858 65.3636 121.011 64.1316 127.439 66.2111C132.222 67.7573 136.008 71.0583 133.438 72.5449Z" fill="#231F20" fill-opacity="0.8"/>
<path d="M118.814 109.584C118.594 109.584 118.38 109.494 118.258 109.332C118.248 109.32 117.233 108.007 115.022 106.655C112.988 105.411 109.492 103.877 104.386 103.631C94.5854 103.157 88.728 109.312 88.6698 109.374C88.4539 109.606 88.0459 109.652 87.7585 109.478C87.4712 109.305 87.4133 108.976 87.6293 108.744C87.6932 108.676 89.229 107.046 92.0696 105.466C94.696 104.005 98.9779 102.319 104.464 102.584C109.929 102.848 113.679 104.507 115.863 105.853C118.246 107.322 119.324 108.727 119.369 108.787C119.556 109.033 119.459 109.356 119.152 109.507C119.046 109.559 118.929 109.584 118.814 109.584Z" fill="#231F20" fill-opacity="0.8"/>
<path d="M85.9041 106.947C84.8549 108.276 84.661 110.001 85.4212 111.45C85.4899 111.58 85.6424 111.674 85.8311 111.633C85.9883 111.599 86.133 111.442 86.0638 111.31C85.3663 109.981 85.514 108.436 86.4796 107.212C86.7066 106.924 86.1303 106.66 85.9041 106.947Z" fill="#231F20" fill-opacity="0.8"/>
<path d="M119.865 107.324C121.117 108.303 121.595 109.828 121.074 111.166C120.948 111.492 121.583 111.632 121.709 111.307C122.297 109.794 121.744 108.054 120.33 106.95C120.026 106.712 119.56 107.086 119.865 107.324Z" fill="#231F20" fill-opacity="0.8"/>
<path d="M104.943 31.0427H55.5384C54.4807 31.0441 53.4667 31.4412 52.7188 32.147C51.9709 32.8527 51.5501 33.8095 51.5486 34.8075V125.118L52.018 124.983V34.8075C52.0191 33.9268 52.3904 33.0825 53.0503 32.4598C53.7103 31.837 54.6051 31.4867 55.5384 31.4856H105.088L104.943 31.0427ZM148.01 31.0427H55.5384C54.4807 31.0441 53.4667 31.4412 52.7188 32.147C51.9709 32.8527 51.5501 33.8095 51.5486 34.8075V136.235C51.55 137.233 51.9709 138.19 52.7188 138.896C53.4667 139.602 54.4807 139.999 55.5384 140H148.01C149.068 139.999 150.082 139.602 150.83 138.896C151.578 138.19 151.999 137.233 152 136.235V34.8075C151.999 33.8095 151.578 32.8527 150.83 32.147C150.082 31.4412 149.068 31.0441 148.01 31.0427ZM151.531 136.235C151.529 137.116 151.158 137.96 150.498 138.583C149.838 139.206 148.943 139.556 148.01 139.557H55.5384C54.6051 139.556 53.7103 139.206 53.0503 138.583C52.3904 137.96 52.0191 137.116 52.018 136.235V34.8075C52.0191 33.9268 52.3904 33.0825 53.0503 32.4598C53.7103 31.837 54.6051 31.4867 55.5384 31.4856H148.01C148.943 31.4867 149.838 31.837 150.498 32.4598C151.158 33.0825 151.529 33.9268 151.531 34.8075V136.235Z" fill="#3F3D56"/>
<path d="M123.367 40.7868H80.182C79.6219 40.7862 79.085 40.576 78.689 40.2024C78.293 39.8287 78.0703 39.3221 78.0697 38.7937V29.0495C78.0703 28.5211 78.2931 28.0145 78.6891 27.6408C79.085 27.2672 79.6219 27.057 80.182 27.0564H123.367C123.927 27.057 124.464 27.2672 124.86 27.6408C125.256 28.0145 125.478 28.5211 125.479 29.0495V38.7937C125.478 39.3221 125.256 39.8287 124.86 40.2024C124.464 40.576 123.927 40.7862 123.367 40.7868Z" fill="#6C63FF"/>
<path d="M101.774 27.7209C104.367 27.7209 106.468 25.7379 106.468 23.2917C106.468 20.8456 104.367 18.8625 101.774 18.8625C99.1819 18.8625 97.0803 20.8456 97.0803 23.2917C97.0803 25.7379 99.1819 27.7209 101.774 27.7209Z" fill="#6C63FF"/>
<path d="M101.774 25.9893C103.353 25.9893 104.633 24.7815 104.633 23.2915C104.633 21.8016 103.353 20.5938 101.774 20.5938C100.195 20.5938 98.9152 21.8016 98.9152 23.2915C98.9152 24.7815 100.195 25.9893 101.774 25.9893Z" fill="white"/>
</g>
<defs>
<clipPath id="clip0">
<rect width="152" height="140" fill="white"/>
</clipPath>
</defs>
</svg>
