<svg width="35" height="35" viewBox="0 0 35 35" fill="none" xmlns="http://www.w3.org/2000/svg">
<circle cx="17.5" cy="17.5" r="17" fill="#7E53C4" stroke="white"/>
<path d="M17.9976 14.9987C16.345 14.9987 14.9964 16.3474 14.9964 18C14.9964 19.6526 16.345 21.0013 17.9976 21.0013C19.6502 21.0013 20.9988 19.6526 20.9988 18C20.9988 16.3474 19.6502 14.9987 17.9976 14.9987ZM26.999 18C26.999 16.7572 27.0103 15.5256 26.9405 14.285C26.8707 12.844 26.5419 11.5652 25.4883 10.5114C24.4323 9.45548 23.1557 9.12901 21.7148 9.05921C20.472 8.98941 19.2404 9.00067 17.9998 9.00067C16.757 9.00067 15.5255 8.98941 14.2849 9.05921C12.8439 9.12901 11.5651 9.45773 10.5114 10.5114C9.45547 11.5674 9.129 12.844 9.05921 14.285C8.98941 15.5278 9.00067 16.7594 9.00067 18C9.00067 19.2406 8.98941 20.4744 9.05921 21.715C9.129 23.156 9.45772 24.4348 10.5114 25.4886C11.5674 26.5445 12.8439 26.871 14.2849 26.9408C15.5277 27.0106 16.7593 26.9993 17.9998 26.9993C19.2426 26.9993 20.4742 27.0106 21.7148 26.9408C23.1557 26.871 24.4346 26.5423 25.4883 25.4886C26.5442 24.4326 26.8707 23.156 26.9405 21.715C27.0125 20.4744 26.999 19.2428 26.999 18V18ZM17.9976 22.6179C15.4422 22.6179 13.3798 20.5555 13.3798 18C13.3798 15.4445 15.4422 13.3821 17.9976 13.3821C20.553 13.3821 22.6154 15.4445 22.6154 18C22.6154 20.5555 20.553 22.6179 17.9976 22.6179ZM22.8045 14.2715C22.2078 14.2715 21.726 13.7897 21.726 13.193C21.726 12.5963 22.2078 12.1145 22.8045 12.1145C23.4011 12.1145 23.8829 12.5963 23.8829 13.193C23.8831 13.3347 23.8554 13.475 23.8012 13.6059C23.7471 13.7369 23.6677 13.8558 23.5675 13.956C23.4673 14.0562 23.3483 14.1356 23.2174 14.1897C23.0865 14.2439 22.9462 14.2717 22.8045 14.2715V14.2715Z" fill="white"/>
</svg>
