<svg width="35" height="35" viewBox="0 0 35 35" fill="none" xmlns="http://www.w3.org/2000/svg">
<circle cx="17.5" cy="17.5" r="17" fill="#7E53C4" stroke="white"/>
<path d="M23.5221 16.3178C23.5856 16.3155 23.6489 16.3267 23.7083 16.3506C23.7676 16.3746 23.8217 16.4108 23.8675 16.4572C23.9132 16.5036 23.9495 16.5591 23.9744 16.6206C23.9992 16.682 24.012 16.7481 24.012 16.8148C24.012 16.8816 23.9992 16.9476 23.9744 17.0091C23.9495 17.0705 23.9132 17.1261 23.8675 17.1724C23.8217 17.2188 23.7676 17.255 23.7083 17.279C23.6489 17.3029 23.5856 17.3141 23.5221 17.3118H22.2064V18.1976H23.5221C23.586 18.1944 23.6499 18.2048 23.7098 18.2282C23.7698 18.2516 23.8246 18.2876 23.871 18.3339C23.9173 18.3802 23.9542 18.436 23.9794 18.4977C24.0046 18.5595 24.0176 18.626 24.0176 18.6931C24.0176 18.7603 24.0046 18.8268 23.9794 18.8886C23.9542 18.9503 23.9173 19.006 23.871 19.0524C23.8246 19.0987 23.7698 19.1347 23.7098 19.1581C23.6499 19.1815 23.586 19.1919 23.5221 19.1886H21.735C21.6101 19.1882 21.4904 19.1358 21.4022 19.0429C21.314 18.9501 21.2643 18.8243 21.2642 18.6931V14.9371C21.2642 14.6636 21.4751 14.4392 21.735 14.4392H23.5254C23.6469 14.4458 23.7613 14.5012 23.8449 14.5939C23.9285 14.6867 23.975 14.8096 23.9746 14.9373C23.9743 15.065 23.9271 15.1876 23.843 15.2798C23.7588 15.3721 23.6441 15.4267 23.5226 15.4326H22.2069V16.3184L23.5221 16.3178ZM20.6342 18.6925C20.6332 18.8241 20.5827 18.9499 20.4938 19.0425C20.4049 19.1352 20.2847 19.1873 20.1594 19.1875C20.0853 19.1882 20.0119 19.1708 19.9452 19.1367C19.8786 19.1026 19.8204 19.0526 19.7752 18.9908L17.9443 16.3763V18.692C17.9443 18.8234 17.8946 18.9494 17.8061 19.0423C17.7176 19.1352 17.5975 19.1875 17.4724 19.1875C17.3472 19.1875 17.2272 19.1352 17.1387 19.0423C17.0502 18.9494 17.0004 18.8234 17.0004 18.692V14.9359C17.0004 14.7239 17.1326 14.5337 17.3227 14.4658C17.3697 14.4484 17.4192 14.4398 17.469 14.4404C17.6153 14.4404 17.7503 14.5237 17.8408 14.6406L19.6864 17.261V14.9359C19.6864 14.6625 19.8973 14.438 20.1583 14.438C20.4193 14.438 20.6331 14.6625 20.6331 14.9359L20.6342 18.6925ZM16.3277 18.6925C16.3271 18.8243 16.2768 18.9504 16.1878 19.0433C16.0988 19.1361 15.9784 19.1882 15.8529 19.188C15.7284 19.187 15.6093 19.1343 15.5216 19.0415C15.4338 18.9487 15.3845 18.8233 15.3844 18.6925V14.9365C15.3844 14.663 15.5953 14.4386 15.8563 14.4386C16.1168 14.4386 16.3282 14.663 16.3282 14.9365L16.3277 18.6925ZM14.4787 19.188H12.6883C12.563 19.1877 12.4428 19.1355 12.3539 19.0428C12.265 18.95 12.2146 18.8241 12.2136 18.6925V14.9365C12.2136 14.663 12.4273 14.4386 12.6883 14.4386C12.9493 14.4386 13.1603 14.663 13.1603 14.9365V18.1971H14.4787C14.6039 18.1971 14.724 18.2493 14.8125 18.3422C14.901 18.4351 14.9507 18.5611 14.9507 18.6925C14.9507 18.824 14.901 18.95 14.8125 19.0429C14.724 19.1358 14.6039 19.188 14.4787 19.188ZM27 16.671C27 12.4419 22.9596 9 18 9C13.0404 9 9 12.4419 9 16.671C9 20.4607 12.2023 23.6351 16.5263 24.2381C16.8193 24.3024 17.2176 24.4412 17.3205 24.7028C17.4111 24.9391 17.379 25.3052 17.3498 25.5551L17.2266 26.3576C17.1911 26.5945 17.0449 27.2902 18.0118 26.8655C18.9816 26.4409 23.2003 23.6546 25.0898 21.3714C26.3818 19.8861 27 18.3601 27 16.671Z" fill="white"/>
</svg>
