<svg width="35" height="35" viewBox="0 0 35 35" fill="none" xmlns="http://www.w3.org/2000/svg">
<circle cx="17.5" cy="17.5" r="17" fill="#7E53C4" stroke="white"/>
<path d="M13.92 25.9998C15.6091 26.0093 17.2836 25.7185 18.8462 25.1444C20.4088 24.5702 21.8285 23.7241 23.0229 22.6551C24.2174 21.5861 25.1627 20.3155 25.8043 18.9169C26.4458 17.5184 26.7706 16.0197 26.76 14.508V13.9799C27.6356 13.4058 28.3935 12.7002 29 11.8946C28.1755 12.2173 27.3031 12.4313 26.41 12.53C27.3569 12.025 28.0674 11.2302 28.41 10.2925C27.5275 10.7664 26.5598 11.0995 25.55 11.277C24.8699 10.6285 23.97 10.1986 22.9895 10.0539C22.0089 9.9092 21.0024 10.0578 20.1257 10.4766C19.249 10.8954 18.551 11.5611 18.1396 12.3708C17.7282 13.1804 17.6264 14.0888 17.85 14.9555C16.056 14.8767 14.3007 14.4606 12.6984 13.7342C11.096 13.0079 9.68254 11.9877 8.55 10.74C7.97892 11.6271 7.80583 12.6753 8.06576 13.6723C8.32569 14.6694 8.99923 15.5407 9.95 16.11C9.24861 16.0858 8.56345 15.9141 7.95 15.6088V15.6536C7.94377 16.5806 8.29272 17.4816 8.9387 18.2064C9.58469 18.9311 10.4887 19.4358 11.5 19.6363C10.8476 19.7934 10.1643 19.8178 9.5 19.7079C9.79278 20.4986 10.3517 21.1888 11.1 21.6839C11.8484 22.179 12.7496 22.4548 13.68 22.4735C12.0892 23.6195 10.1121 24.2504 8.07 24.2635C7.71195 24.2542 7.35475 24.2273 7 24.1829C9.06696 25.3615 11.4692 25.9829 13.92 25.9729" fill="white"/>
</svg>
