<svg width="35" height="35" viewBox="0 0 35 35" fill="none" xmlns="http://www.w3.org/2000/svg">
<circle cx="17.5" cy="17.5" r="17" fill="#7E53C4" stroke="white"/>
<path d="M25.6538 12.1624C22.9613 7.99986 17.4639 6.76235 13.2007 9.34987C9.0496 11.9374 7.70331 17.5624 10.3959 21.725L10.6203 22.0625L9.72275 25.4375L13.0885 24.5375L13.425 24.7625C14.8835 25.55 16.4542 26 18.0249 26C19.7077 26 21.3906 25.55 22.8491 24.65C27.0001 21.95 28.2342 16.4374 25.6538 12.1624V12.1624ZM23.2978 20.825C22.8491 21.5 22.2881 21.95 21.5028 22.0625C21.054 22.0625 20.4931 22.2875 18.2493 21.3875C16.342 20.4875 14.7713 19.0249 13.6494 17.3374C12.9763 16.5499 12.6397 15.5374 12.5275 14.5249C12.5275 13.6249 12.8641 12.8374 13.425 12.2749C13.6494 12.0499 13.8738 11.9374 14.0982 11.9374H14.6591C14.8835 11.9374 15.1079 11.9374 15.2201 12.3874C15.4445 12.9499 16.0054 14.2999 16.0054 14.4124C16.1176 14.5249 16.1176 14.7499 16.0054 14.8624C16.1176 15.0874 16.0054 15.3124 15.8932 15.4249C15.7811 15.5374 15.6689 15.7624 15.5567 15.8749C15.3323 15.9874 15.2201 16.2124 15.3323 16.4374C15.7811 17.1124 16.342 17.7874 16.903 18.3499C17.5761 18.9124 18.2493 19.3624 19.0346 19.7C19.259 19.8125 19.4834 19.8125 19.5955 19.5875C19.7077 19.3624 20.2687 18.7999 20.4931 18.5749C20.7175 18.3499 20.8296 18.3499 21.054 18.4624L22.8491 19.3624C23.0735 19.475 23.2978 19.5875 23.41 19.7C23.5222 20.0375 23.5222 20.4875 23.2978 20.825V20.825Z" fill="white"/>
</svg>
