<svg width="880" height="570" viewBox="0 0 880 570" fill="none" xmlns="http://www.w3.org/2000/svg">
<rect width="440" height="285" fill="#DB5D5D"/>
<path d="M62.82 51.154C61.7493 51.154 60.7813 50.9707 59.916 50.604C59.0653 50.2373 58.3907 49.7093 57.892 49.02C57.3933 48.3307 57.1367 47.5167 57.122 46.578H60.422C60.466 47.2087 60.686 47.7073 61.082 48.074C61.4927 48.4407 62.05 48.624 62.754 48.624C63.4727 48.624 64.0373 48.4553 64.448 48.118C64.8587 47.766 65.064 47.3113 65.064 46.754C65.064 46.2993 64.9247 45.9253 64.646 45.632C64.3673 45.3387 64.0153 45.1113 63.59 44.95C63.1793 44.774 62.6073 44.5833 61.874 44.378C60.8767 44.0847 60.0627 43.7987 59.432 43.52C58.816 43.2267 58.2807 42.794 57.826 42.222C57.386 41.6353 57.166 40.858 57.166 39.89C57.166 38.9807 57.3933 38.1887 57.848 37.514C58.3027 36.8393 58.9407 36.326 59.762 35.974C60.5833 35.6073 61.522 35.424 62.578 35.424C64.162 35.424 65.4453 35.8127 66.428 36.59C67.4253 37.3527 67.9753 38.4233 68.078 39.802H64.69C64.6607 39.274 64.4333 38.8413 64.008 38.504C63.5973 38.152 63.0473 37.976 62.358 37.976C61.7567 37.976 61.2727 38.13 60.906 38.438C60.554 38.746 60.378 39.1933 60.378 39.78C60.378 40.1907 60.51 40.5353 60.774 40.814C61.0527 41.078 61.39 41.298 61.786 41.474C62.1967 41.6353 62.7687 41.826 63.502 42.046C64.4993 42.3393 65.3133 42.6327 65.944 42.926C66.5747 43.2193 67.1173 43.6593 67.572 44.246C68.0267 44.8327 68.254 45.6027 68.254 46.556C68.254 47.3773 68.0413 48.14 67.616 48.844C67.1907 49.548 66.5673 50.1127 65.746 50.538C64.9247 50.9487 63.9493 51.154 62.82 51.154ZM74.5103 41.342V47.238C74.5103 47.6487 74.6056 47.9493 74.7963 48.14C75.0016 48.316 75.3389 48.404 75.8083 48.404H77.2383V51H75.3023C72.7063 51 71.4083 49.7387 71.4083 47.216V41.342H69.9563V38.812H71.4083V35.798H74.5103V38.812H77.2383V41.342H74.5103ZM82.5335 40.704C82.9295 40.0587 83.4429 39.5527 84.0735 39.186C84.7189 38.8193 85.4522 38.636 86.2735 38.636V41.87H85.4595C84.4915 41.87 83.7582 42.0973 83.2595 42.552C82.7755 43.0067 82.5335 43.7987 82.5335 44.928V51H79.4535V38.812H82.5335V40.704ZM99.6781 44.642C99.6781 45.082 99.6487 45.478 99.5901 45.83H90.6801C90.7534 46.71 91.0614 47.3993 91.6041 47.898C92.1467 48.3967 92.8141 48.646 93.6061 48.646C94.7501 48.646 95.5641 48.1547 96.0481 47.172H99.3701C99.0181 48.3453 98.3434 49.3133 97.3461 50.076C96.3487 50.824 95.1241 51.198 93.6721 51.198C92.4987 51.198 91.4427 50.9413 90.5041 50.428C89.5801 49.9 88.8541 49.1593 88.3261 48.206C87.8127 47.2527 87.5561 46.1527 87.5561 44.906C87.5561 43.6447 87.8127 42.5373 88.3261 41.584C88.8394 40.6307 89.5581 39.8973 90.4821 39.384C91.4061 38.8707 92.4694 38.614 93.6721 38.614C94.8307 38.614 95.8647 38.8633 96.7741 39.362C97.6981 39.8607 98.4094 40.572 98.9081 41.496C99.4214 42.4053 99.6781 43.454 99.6781 44.642ZM96.4881 43.762C96.4734 42.97 96.1874 42.3393 95.6301 41.87C95.0727 41.386 94.3907 41.144 93.5841 41.144C92.8214 41.144 92.1761 41.3787 91.6481 41.848C91.1347 42.3027 90.8194 42.9407 90.7021 43.762H96.4881ZM108.68 38.636C110.132 38.636 111.306 39.098 112.2 40.022C113.095 40.9313 113.542 42.2073 113.542 43.85V51H110.462V44.268C110.462 43.3 110.22 42.5593 109.736 42.046C109.252 41.518 108.592 41.254 107.756 41.254C106.906 41.254 106.231 41.518 105.732 42.046C105.248 42.5593 105.006 43.3 105.006 44.268V51H101.926V38.812H105.006V40.33C105.417 39.802 105.938 39.3913 106.568 39.098C107.214 38.79 107.918 38.636 108.68 38.636ZM121.245 38.614C122.154 38.614 122.954 38.7973 123.643 39.164C124.332 39.516 124.875 39.978 125.271 40.55V38.812H128.373V51.088C128.373 52.2173 128.146 53.222 127.691 54.102C127.236 54.9967 126.554 55.7007 125.645 56.214C124.736 56.742 123.636 57.006 122.345 57.006C120.614 57.006 119.192 56.6027 118.077 55.796C116.977 54.9893 116.354 53.8893 116.207 52.496H119.265C119.426 53.0533 119.771 53.4933 120.299 53.816C120.842 54.1533 121.494 54.322 122.257 54.322C123.152 54.322 123.878 54.0507 124.435 53.508C124.992 52.98 125.271 52.1733 125.271 51.088V49.196C124.875 49.768 124.325 50.2447 123.621 50.626C122.932 51.0073 122.14 51.198 121.245 51.198C120.218 51.198 119.28 50.934 118.429 50.406C117.578 49.878 116.904 49.1373 116.405 48.184C115.921 47.216 115.679 46.1087 115.679 44.862C115.679 43.63 115.921 42.5373 116.405 41.584C116.904 40.6307 117.571 39.8973 118.407 39.384C119.258 38.8707 120.204 38.614 121.245 38.614ZM125.271 44.906C125.271 44.158 125.124 43.52 124.831 42.992C124.538 42.4493 124.142 42.0387 123.643 41.76C123.144 41.4667 122.609 41.32 122.037 41.32C121.465 41.32 120.937 41.4593 120.453 41.738C119.969 42.0167 119.573 42.4273 119.265 42.97C118.972 43.498 118.825 44.1287 118.825 44.862C118.825 45.5953 118.972 46.2407 119.265 46.798C119.573 47.3407 119.969 47.7587 120.453 48.052C120.952 48.3453 121.48 48.492 122.037 48.492C122.609 48.492 123.144 48.3527 123.643 48.074C124.142 47.7807 124.538 47.37 124.831 46.842C125.124 46.2993 125.271 45.654 125.271 44.906ZM134.967 41.342V47.238C134.967 47.6487 135.063 47.9493 135.253 48.14C135.459 48.316 135.796 48.404 136.265 48.404H137.695V51H135.759C133.163 51 131.865 49.7387 131.865 47.216V41.342H130.413V38.812H131.865V35.798H134.967V38.812H137.695V41.342H134.967ZM146.775 38.636C147.699 38.636 148.52 38.8413 149.239 39.252C149.957 39.648 150.515 40.242 150.911 41.034C151.321 41.8113 151.527 42.75 151.527 43.85V51H148.447V44.268C148.447 43.3 148.205 42.5593 147.721 42.046C147.237 41.518 146.577 41.254 145.741 41.254C144.89 41.254 144.215 41.518 143.717 42.046C143.233 42.5593 142.991 43.3 142.991 44.268V51H139.911V34.72H142.991V40.33C143.387 39.802 143.915 39.3913 144.575 39.098C145.235 38.79 145.968 38.636 146.775 38.636Z" fill="#FCFCFC"/>
<g clip-path="url(#clip0)">
<path d="M36.9051 39.661C40.8163 41.4295 43.7328 45.5123 45.4475 52.9999H48.4924C49.1697 52.9999 49.7188 52.4356 49.7188 51.7395V41.7369C49.7188 41.307 49.5045 40.907 49.1513 40.677C47.1263 39.3409 44.7782 38.6134 42.3722 38.5762C40.8308 38.5942 39.313 38.9671 37.9301 39.6675C37.6041 39.8191 37.2295 39.8168 36.9051 39.661Z" fill="#F5A585"/>
<path d="M14.5608 45.5558C15.6529 47.5374 19.6129 52.9997 30.1323 52.9997C32.5059 53.0054 34.8658 52.6265 37.1248 51.877C37.3451 51.8011 37.5884 51.8593 37.7532 52.0278L38.1622 52.4478C38.508 52.8001 38.9749 52.9983 39.4616 52.9997H45.4475C43.7328 45.512 40.8162 41.4293 36.9051 39.6608C36.899 39.6608 36.893 39.6546 36.8867 39.6546C36.7038 39.5668 36.5145 39.4917 36.3256 39.4163C36.2959 39.4098 36.2671 39.3991 36.2401 39.385C35.8301 39.2328 35.4126 39.103 34.9891 38.9963L34.9037 38.9774C34.7023 38.9271 34.501 38.8834 34.2997 38.8393C34.2813 38.8393 34.2692 38.8331 34.2571 38.8331C34.0679 38.7956 33.8726 38.7642 33.6833 38.7391C33.6103 38.7264 33.5309 38.714 33.4576 38.7078C33.3112 38.6826 33.1588 38.6699 33.006 38.6513L32.8047 38.6324C32.5913 38.6135 32.3716 38.6011 32.1519 38.5949C31.908 38.5822 31.6638 38.5759 31.4136 38.5759C31.0667 38.5768 30.7203 38.5999 30.3762 38.6451C30.2422 38.6575 30.1078 38.6764 29.9735 38.7013C29.8332 38.7202 29.6868 38.7453 29.5404 38.7766C29.2781 38.8269 29.0034 38.8958 28.7167 38.9711C28.564 39.0149 28.4055 39.0589 28.2407 39.1089C28.2149 39.1182 28.1885 39.1247 28.1613 39.1278C28.1457 39.1343 28.1292 39.1385 28.1125 39.1405C27.7082 39.2111 27.2962 39.0683 27.016 38.7603C26.7361 38.4523 26.6255 38.0201 26.7213 37.6102C26.9388 36.6939 27.0575 35.7562 27.0753 34.8133C27.0753 31.7466 25.9037 28.078 28.7167 24.9863C28.856 24.8342 29.0301 24.7199 29.2232 24.6541C30.5138 24.2753 31.8539 24.1062 33.1953 24.1522C34.9344 24.1522 36.0753 22.7351 36.7466 21.5122C37.2383 20.6202 37.2613 19.534 36.8076 18.621C36.1652 17.3928 34.9182 16.6267 33.5614 16.627H33.0794C32.3559 16.6255 31.6484 16.846 31.0475 17.2601L26.8251 20.1451C25.4093 21.1097 24.2362 22.4057 23.4021 23.9266C22.9566 24.7292 22.4869 25.5571 22.1757 26.0336C20.9554 27.9151 17.2821 32.3049 16.0555 37.3217L14.3837 44.1762C14.2694 44.6423 14.3329 45.136 14.5608 45.5558Z" fill="#FEDEBB"/>
<path d="M19.2103 19.7626C19.5473 19.7626 19.8203 19.482 19.8203 19.1357V16.6272C19.8203 16.2809 19.5473 16 19.2103 16C18.8733 16 18.6 16.2809 18.6 16.6272V19.1357C18.6 19.482 18.8733 19.7626 19.2103 19.7626Z" fill="#F6AB27"/>
<path d="M17.9901 18.5081H20.4307C20.7677 18.5081 21.041 18.2275 21.041 17.8811C21.041 17.5348 20.7677 17.2539 20.4307 17.2539H17.9901C17.6531 17.2539 17.3798 17.5348 17.3798 17.8811C17.3798 18.2275 17.6531 18.5081 17.9901 18.5081Z" fill="#F6AB27"/>
<path d="M39.9561 31.6781C40.2931 31.6781 40.5664 31.3973 40.5664 31.0509V28.5425C40.5664 28.1961 40.2931 27.9155 39.9561 27.9155C39.6191 27.9155 39.3458 28.1961 39.3458 28.5425V31.0509C39.3458 31.3973 39.6191 31.6781 39.9561 31.6781Z" fill="#D77EB0"/>
<path d="M38.7357 30.4236H41.1763C41.5133 30.4236 41.7866 30.1428 41.7866 29.7964C41.7866 29.45 41.5133 29.1694 41.1763 29.1694H38.7357C38.3987 29.1694 38.1254 29.45 38.1254 29.7964C38.1254 30.1428 38.3987 30.4236 38.7357 30.4236Z" fill="#D77EB0"/>
<path d="M23.4814 42.1007C23.6031 42.1007 23.722 42.0631 23.8231 41.9934C25.1928 41.0238 26.6936 40.2655 28.2773 39.7433C28.3033 39.7379 28.3292 39.7309 28.3542 39.7221C28.5201 39.6668 28.6947 39.6216 28.8571 39.581C29.1449 39.4994 29.4061 39.4404 29.6503 39.393C29.7936 39.3622 29.9249 39.3402 30.0504 39.3233C30.1977 39.2962 30.3136 39.2801 30.43 39.2693C30.9906 39.2005 31.5561 39.1841 32.1194 39.2205C32.3405 39.2273 32.5468 39.2391 32.7512 39.2569L32.9481 39.2756C33.0909 39.2874 33.2258 39.3038 33.3551 39.3258C33.462 39.3371 33.5254 39.3478 33.5839 39.3577C33.7877 39.3842 33.9635 39.4136 34.1398 39.4486C34.1527 39.4486 34.1667 39.4537 34.1802 39.4551L34.2027 39.4588C34.3857 39.4926 34.5609 39.5316 34.7408 39.5841C34.7507 39.5872 34.8018 39.5985 34.8105 39.601L34.8715 39.6143C35.2536 39.7083 35.6301 39.8255 35.999 39.9649C36.0438 39.9861 36.0902 40.0036 36.1374 40.0174C36.3022 40.0801 36.4659 40.1487 36.6258 40.2252C36.6513 40.2376 36.6779 40.248 36.7049 40.2565C36.8919 40.3186 37.0963 40.2861 37.2561 40.1687C37.416 40.0516 37.5121 39.863 37.5154 39.6612C37.5154 39.3961 37.3531 39.1595 37.1103 39.0706C36.9271 38.9834 36.7362 38.9075 36.545 38.8315C36.5263 38.8242 36.5074 38.8177 36.4871 38.8115L36.4566 38.7991C36.0251 38.6342 35.5837 38.497 35.1357 38.3883L35.066 38.3745C34.8471 38.3118 34.6342 38.2641 34.4076 38.2232C34.3942 38.2232 34.3802 38.219 34.3667 38.2175C34.1678 38.178 33.969 38.1456 33.7641 38.1193C33.6974 38.1072 33.6023 38.0928 33.5144 38.0846C33.4005 38.0634 33.2302 38.0428 33.0599 38.029L32.8671 38.0101C32.6364 37.99 32.4054 37.9768 32.1738 37.97C31.5506 37.9319 30.9255 37.9502 30.3056 38.025C30.1738 38.0372 30.0219 38.0583 29.8692 38.088C29.7472 38.1035 29.583 38.1317 29.4215 38.1662C29.1548 38.217 28.8636 38.2836 28.5585 38.37C28.391 38.4115 28.1924 38.464 27.9924 38.53C27.9735 38.5343 27.9551 38.5393 27.937 38.545C26.2327 39.1031 24.6177 39.9161 23.1439 40.9574C22.9255 41.1124 22.8294 41.3947 22.9066 41.6558C22.9838 41.9169 23.2161 42.0967 23.4814 42.1007Z" fill="#F5A585"/>
</g>
<rect x="56.5" y="69.5" width="341" height="29" rx="9.5" fill="#FCFCFC" stroke="#EF7FA9"/>
<path d="M79.936 79.636L79.78 80.488H77.5L76.18 88H75.088L76.408 80.488H74.128L74.284 79.636H79.936ZM81.4002 81.424L82.5162 86.728L85.5042 81.424H86.6322L80.9682 91.096H79.8282L81.6882 87.928L80.1882 81.424H81.4002ZM88.6059 82.636C88.8939 82.26 89.2739 81.948 89.7459 81.7C90.2179 81.444 90.7339 81.316 91.2939 81.316C91.8059 81.316 92.2579 81.424 92.6499 81.64C93.0499 81.848 93.3579 82.152 93.5739 82.552C93.7899 82.944 93.8979 83.408 93.8979 83.944C93.8979 84.176 93.8739 84.424 93.8259 84.688C93.7059 85.352 93.4619 85.944 93.0939 86.464C92.7339 86.984 92.2899 87.388 91.7619 87.676C91.2419 87.964 90.6899 88.108 90.1059 88.108C89.5459 88.108 89.0739 87.984 88.6899 87.736C88.3139 87.48 88.0419 87.164 87.8739 86.788L87.1179 91.12H86.0259L87.7299 81.424H88.8219L88.6059 82.636ZM92.7099 84.688C92.7419 84.52 92.7579 84.336 92.7579 84.136C92.7579 83.552 92.5859 83.096 92.2419 82.768C91.8979 82.432 91.4539 82.264 90.9099 82.264C90.5099 82.264 90.1219 82.364 89.7459 82.564C89.3699 82.756 89.0459 83.04 88.7739 83.416C88.5099 83.784 88.3339 84.212 88.2459 84.7C88.2139 84.868 88.1979 85.052 88.1979 85.252C88.1979 85.836 88.3699 86.3 88.7139 86.644C89.0659 86.98 89.5099 87.148 90.0459 87.148C90.4539 87.148 90.8419 87.052 91.2099 86.86C91.5859 86.66 91.9059 86.376 92.1699 86.008C92.4419 85.632 92.6219 85.192 92.7099 84.688ZM98.6953 81.316C99.2473 81.316 99.7233 81.424 100.123 81.64C100.531 81.848 100.839 82.144 101.047 82.528C101.263 82.904 101.371 83.336 101.371 83.824C101.371 83.992 101.351 84.196 101.311 84.436C101.279 84.644 101.227 84.86 101.155 85.084H95.8993C95.8833 85.244 95.8753 85.36 95.8753 85.432C95.8753 85.984 96.0393 86.416 96.3673 86.728C96.7033 87.032 97.1393 87.184 97.6753 87.184C98.1473 87.184 98.5593 87.076 98.9113 86.86C99.2713 86.636 99.5433 86.34 99.7273 85.972H100.903C100.615 86.604 100.171 87.12 99.5713 87.52C98.9793 87.912 98.2913 88.108 97.5073 88.108C96.6833 88.108 96.0193 87.872 95.5153 87.4C95.0193 86.92 94.7713 86.268 94.7713 85.444C94.7713 85.212 94.7953 84.964 94.8433 84.7C94.9633 84.02 95.2073 83.424 95.5753 82.912C95.9433 82.4 96.3953 82.008 96.9313 81.736C97.4753 81.456 98.0633 81.316 98.6953 81.316ZM100.207 84.292C100.231 84.132 100.243 83.984 100.243 83.848C100.243 83.336 100.079 82.94 99.7513 82.66C99.4313 82.38 99.0113 82.24 98.4913 82.24C97.9313 82.24 97.4233 82.424 96.9673 82.792C96.5113 83.152 96.2033 83.652 96.0433 84.292H100.207ZM110.143 81.304C110.799 81.304 111.327 81.488 111.727 81.856C112.127 82.216 112.327 82.74 112.327 83.428C112.327 83.684 112.307 83.916 112.267 84.124L111.583 88H110.503L111.163 84.28C111.195 84.112 111.211 83.936 111.211 83.752C111.211 83.264 111.075 82.892 110.803 82.636C110.539 82.38 110.167 82.252 109.687 82.252C109.111 82.252 108.619 82.432 108.211 82.792C107.811 83.152 107.551 83.676 107.431 84.364V84.34L106.783 88H105.691L107.263 79.12H108.355L107.779 82.372C108.051 82.036 108.395 81.776 108.811 81.592C109.235 81.4 109.679 81.304 110.143 81.304ZM117.387 81.316C117.939 81.316 118.415 81.424 118.815 81.64C119.223 81.848 119.531 82.144 119.739 82.528C119.955 82.904 120.063 83.336 120.063 83.824C120.063 83.992 120.043 84.196 120.003 84.436C119.971 84.644 119.919 84.86 119.847 85.084H114.591C114.575 85.244 114.567 85.36 114.567 85.432C114.567 85.984 114.731 86.416 115.059 86.728C115.395 87.032 115.831 87.184 116.367 87.184C116.839 87.184 117.251 87.076 117.603 86.86C117.963 86.636 118.235 86.34 118.419 85.972H119.595C119.307 86.604 118.863 87.12 118.263 87.52C117.671 87.912 116.983 88.108 116.199 88.108C115.375 88.108 114.711 87.872 114.207 87.4C113.711 86.92 113.463 86.268 113.463 85.444C113.463 85.212 113.487 84.964 113.535 84.7C113.655 84.02 113.899 83.424 114.267 82.912C114.635 82.4 115.087 82.008 115.623 81.736C116.167 81.456 116.755 81.316 117.387 81.316ZM118.899 84.292C118.923 84.132 118.935 83.984 118.935 83.848C118.935 83.336 118.771 82.94 118.443 82.66C118.123 82.38 117.703 82.24 117.183 82.24C116.623 82.24 116.115 82.424 115.659 82.792C115.203 83.152 114.895 83.652 114.735 84.292H118.899ZM122.848 82.672C123.112 82.24 123.444 81.904 123.844 81.664C124.244 81.424 124.7 81.304 125.212 81.304L125.008 82.432H124.72C124.152 82.432 123.676 82.584 123.292 82.888C122.916 83.192 122.664 83.704 122.536 84.424L121.9 88H120.808L121.972 81.424H123.064L122.848 82.672ZM129.305 81.316C129.857 81.316 130.333 81.424 130.733 81.64C131.141 81.848 131.449 82.144 131.657 82.528C131.873 82.904 131.981 83.336 131.981 83.824C131.981 83.992 131.961 84.196 131.921 84.436C131.889 84.644 131.837 84.86 131.765 85.084H126.509C126.493 85.244 126.485 85.36 126.485 85.432C126.485 85.984 126.649 86.416 126.977 86.728C127.313 87.032 127.749 87.184 128.285 87.184C128.757 87.184 129.169 87.076 129.521 86.86C129.881 86.636 130.153 86.34 130.337 85.972H131.513C131.225 86.604 130.781 87.12 130.181 87.52C129.589 87.912 128.901 88.108 128.117 88.108C127.293 88.108 126.629 87.872 126.125 87.4C125.629 86.92 125.381 86.268 125.381 85.444C125.381 85.212 125.405 84.964 125.453 84.7C125.573 84.02 125.817 83.424 126.185 82.912C126.553 82.4 127.005 82.008 127.541 81.736C128.085 81.456 128.673 81.316 129.305 81.316ZM130.817 84.292C130.841 84.132 130.853 83.984 130.853 83.848C130.853 83.336 130.689 82.94 130.361 82.66C130.041 82.38 129.621 82.24 129.101 82.24C128.541 82.24 128.033 82.424 127.577 82.792C127.121 83.152 126.813 83.652 126.653 84.292H130.817Z" fill="#918994"/>
<path d="M369 69H388C393.523 69 398 73.4772 398 79V89C398 94.5228 393.523 99 388 99H369V69Z" fill="#4C12AB"/>
<path d="M391 84H385V78H383V84H377V86H383V92H385V86H391V84Z" fill="white"/>
<rect x="440" width="440" height="285" fill="#7E5DDB"/>
<path d="M514.044 35.644L509.754 51H506.124L503.242 40.066L500.228 51L496.62 51.022L492.484 35.644H495.784L498.49 47.568L501.614 35.644H505.046L507.994 47.502L510.722 35.644H514.044ZM527.385 44.642C527.385 45.082 527.356 45.478 527.297 45.83H518.387C518.46 46.71 518.768 47.3993 519.311 47.898C519.854 48.3967 520.521 48.646 521.313 48.646C522.457 48.646 523.271 48.1547 523.755 47.172H527.077C526.725 48.3453 526.05 49.3133 525.053 50.076C524.056 50.824 522.831 51.198 521.379 51.198C520.206 51.198 519.15 50.9413 518.211 50.428C517.287 49.9 516.561 49.1593 516.033 48.206C515.52 47.2527 515.263 46.1527 515.263 44.906C515.263 43.6447 515.52 42.5373 516.033 41.584C516.546 40.6307 517.265 39.8973 518.189 39.384C519.113 38.8707 520.176 38.614 521.379 38.614C522.538 38.614 523.572 38.8633 524.481 39.362C525.405 39.8607 526.116 40.572 526.615 41.496C527.128 42.4053 527.385 43.454 527.385 44.642ZM524.195 43.762C524.18 42.97 523.894 42.3393 523.337 41.87C522.78 41.386 522.098 41.144 521.291 41.144C520.528 41.144 519.883 41.3787 519.355 41.848C518.842 42.3027 518.526 42.9407 518.409 43.762H524.195ZM528.841 44.862C528.841 43.63 529.083 42.5373 529.567 41.584C530.066 40.6307 530.733 39.8973 531.569 39.384C532.42 38.8707 533.366 38.614 534.407 38.614C535.317 38.614 536.109 38.7973 536.783 39.164C537.473 39.5307 538.023 39.9927 538.433 40.55V38.812H541.535V51H538.433V49.218C538.037 49.79 537.487 50.2667 536.783 50.648C536.094 51.0147 535.295 51.198 534.385 51.198C533.359 51.198 532.42 50.934 531.569 50.406C530.733 49.878 530.066 49.1373 529.567 48.184C529.083 47.216 528.841 46.1087 528.841 44.862ZM538.433 44.906C538.433 44.158 538.287 43.52 537.993 42.992C537.7 42.4493 537.304 42.0387 536.805 41.76C536.307 41.4667 535.771 41.32 535.199 41.32C534.627 41.32 534.099 41.4593 533.615 41.738C533.131 42.0167 532.735 42.4273 532.427 42.97C532.134 43.498 531.987 44.1287 531.987 44.862C531.987 45.5953 532.134 46.2407 532.427 46.798C532.735 47.3407 533.131 47.7587 533.615 48.052C534.114 48.3453 534.642 48.492 535.199 48.492C535.771 48.492 536.307 48.3527 536.805 48.074C537.304 47.7807 537.7 47.37 537.993 46.842C538.287 46.2993 538.433 45.654 538.433 44.906ZM551.759 51L547.623 45.808V51H544.543V34.72H547.623V43.982L551.715 38.812H555.719L550.351 44.928L555.763 51H551.759ZM564.145 38.636C565.597 38.636 566.77 39.098 567.665 40.022C568.56 40.9313 569.007 42.2073 569.007 43.85V51H565.927V44.268C565.927 43.3 565.685 42.5593 565.201 42.046C564.717 41.518 564.057 41.254 563.221 41.254C562.37 41.254 561.696 41.518 561.197 42.046C560.713 42.5593 560.471 43.3 560.471 44.268V51H557.391V38.812H560.471V40.33C560.882 39.802 561.402 39.3913 562.033 39.098C562.678 38.79 563.382 38.636 564.145 38.636ZM583.266 44.642C583.266 45.082 583.237 45.478 583.178 45.83H574.268C574.341 46.71 574.649 47.3993 575.192 47.898C575.735 48.3967 576.402 48.646 577.194 48.646C578.338 48.646 579.152 48.1547 579.636 47.172H582.958C582.606 48.3453 581.931 49.3133 580.934 50.076C579.937 50.824 578.712 51.198 577.26 51.198C576.087 51.198 575.031 50.9413 574.092 50.428C573.168 49.9 572.442 49.1593 571.914 48.206C571.401 47.2527 571.144 46.1527 571.144 44.906C571.144 43.6447 571.401 42.5373 571.914 41.584C572.427 40.6307 573.146 39.8973 574.07 39.384C574.994 38.8707 576.057 38.614 577.26 38.614C578.419 38.614 579.453 38.8633 580.362 39.362C581.286 39.8607 581.997 40.572 582.496 41.496C583.009 42.4053 583.266 43.454 583.266 44.642ZM580.076 43.762C580.061 42.97 579.775 42.3393 579.218 41.87C578.661 41.386 577.979 41.144 577.172 41.144C576.409 41.144 575.764 41.3787 575.236 41.848C574.723 42.3027 574.407 42.9407 574.29 43.762H580.076ZM590.178 51.198C589.181 51.198 588.286 51.022 587.494 50.67C586.702 50.3033 586.071 49.812 585.602 49.196C585.147 48.58 584.898 47.898 584.854 47.15H587.956C588.015 47.6193 588.242 48.008 588.638 48.316C589.049 48.624 589.555 48.778 590.156 48.778C590.743 48.778 591.197 48.6607 591.52 48.426C591.857 48.1913 592.026 47.8907 592.026 47.524C592.026 47.128 591.821 46.8347 591.41 46.644C591.014 46.4387 590.376 46.2187 589.496 45.984C588.587 45.764 587.839 45.5367 587.252 45.302C586.68 45.0673 586.181 44.708 585.756 44.224C585.345 43.74 585.14 43.0873 585.14 42.266C585.14 41.5913 585.331 40.9753 585.712 40.418C586.108 39.8607 586.665 39.4207 587.384 39.098C588.117 38.7753 588.975 38.614 589.958 38.614C591.41 38.614 592.569 38.9807 593.434 39.714C594.299 40.4327 594.776 41.408 594.864 42.64H591.916C591.872 42.156 591.667 41.7747 591.3 41.496C590.948 41.2027 590.471 41.056 589.87 41.056C589.313 41.056 588.88 41.1587 588.572 41.364C588.279 41.5693 588.132 41.8553 588.132 42.222C588.132 42.6327 588.337 42.948 588.748 43.168C589.159 43.3733 589.797 43.586 590.662 43.806C591.542 44.026 592.268 44.2533 592.84 44.488C593.412 44.7227 593.903 45.0893 594.314 45.588C594.739 46.072 594.959 46.7173 594.974 47.524C594.974 48.228 594.776 48.8587 594.38 49.416C593.999 49.9733 593.441 50.4133 592.708 50.736C591.989 51.044 591.146 51.198 590.178 51.198ZM602.166 51.198C601.169 51.198 600.274 51.022 599.482 50.67C598.69 50.3033 598.06 49.812 597.59 49.196C597.136 48.58 596.886 47.898 596.842 47.15H599.944C600.003 47.6193 600.23 48.008 600.626 48.316C601.037 48.624 601.543 48.778 602.144 48.778C602.731 48.778 603.186 48.6607 603.508 48.426C603.846 48.1913 604.014 47.8907 604.014 47.524C604.014 47.128 603.809 46.8347 603.398 46.644C603.002 46.4387 602.364 46.2187 601.484 45.984C600.575 45.764 599.827 45.5367 599.24 45.302C598.668 45.0673 598.17 44.708 597.744 44.224C597.334 43.74 597.128 43.0873 597.128 42.266C597.128 41.5913 597.319 40.9753 597.7 40.418C598.096 39.8607 598.654 39.4207 599.372 39.098C600.106 38.7753 600.964 38.614 601.946 38.614C603.398 38.614 604.557 38.9807 605.422 39.714C606.288 40.4327 606.764 41.408 606.852 42.64H603.904C603.86 42.156 603.655 41.7747 603.288 41.496C602.936 41.2027 602.46 41.056 601.858 41.056C601.301 41.056 600.868 41.1587 600.56 41.364C600.267 41.5693 600.12 41.8553 600.12 42.222C600.12 42.6327 600.326 42.948 600.736 43.168C601.147 43.3733 601.785 43.586 602.65 43.806C603.53 44.026 604.256 44.2533 604.828 44.488C605.4 44.7227 605.892 45.0893 606.302 45.588C606.728 46.072 606.948 46.7173 606.962 47.524C606.962 48.228 606.764 48.8587 606.368 49.416C605.987 49.9733 605.43 50.4133 604.696 50.736C603.978 51.044 603.134 51.198 602.166 51.198Z" fill="#FCFCFC"/>
<g clip-path="url(#clip1)">
<path d="M482.4 44.3076C482.4 44.3076 480.154 43.4212 477.748 42.7147C475.342 42.0079 470.529 45.5413 470.529 45.5413C470.529 45.5413 462.535 45.5413 461.848 45.5413C461.16 45.5413 463.31 35.6486 462.622 30.3486L464.513 30.5254C464.513 30.5254 466.576 30.5254 466.919 29.8186L468.294 30.8786L472.42 26.6387L469.326 22.7524L460.044 26.6387C460.044 26.6387 454.629 38.4621 453.598 50.4749C453.598 50.4749 453.857 53.0471 461.075 53.4007C468.295 53.7539 477.32 53.1459 481.083 56.4069L482.4 44.3076Z" fill="#FFD578"/>
<path d="M482.615 43.7322C482.606 43.7286 480.351 42.8376 477.913 42.122C477.629 42.0387 477.335 42.0048 477.037 42.0048C476.293 42.0069 475.516 42.2112 474.747 42.4985C472.452 43.3645 470.204 45.0258 470.18 45.0392L470.529 45.5414V44.9245C470.529 44.9245 462.535 44.9245 461.848 44.9245V45.4708L462.111 44.9958C462.035 44.9507 461.935 44.9231 461.848 44.9245V45.4708L462.111 44.9958L461.876 45.4204L462.309 45.2093C462.291 45.1712 462.246 45.0781 462.111 44.9958L461.876 45.4204L462.31 45.2093L462.119 45.3021L462.326 45.252L462.309 45.2093L462.119 45.3021L462.325 45.252C462.323 45.246 462.309 45.1395 462.31 44.9916C462.309 44.5995 462.372 43.9022 462.47 43.0402C462.763 40.4398 463.359 36.2877 463.36 32.8242C463.36 31.9155 463.319 31.052 463.218 30.2676L462.623 30.3487L462.568 30.9631L464.459 31.1399L464.513 31.1424C464.531 31.1416 465.067 31.1427 465.679 31.0467C465.986 30.9973 466.312 30.926 466.622 30.7997C466.777 30.7358 466.929 30.6575 467.074 30.5484C467.217 30.4394 467.359 30.2944 467.457 30.0943L466.92 29.8187L466.56 30.312L467.935 31.3721C468.174 31.5563 468.508 31.5319 468.719 31.3146L472.844 27.0747C473.062 26.8509 473.08 26.4931 472.885 26.2482L469.791 22.3619C469.624 22.1527 469.343 22.0793 469.1 22.1812L459.818 26.0679C459.678 26.1265 459.566 26.2359 459.502 26.3763C459.49 26.4105 454.049 38.2625 453 50.4207L453.001 50.5382C453.008 50.6106 453.047 50.859 453.23 51.1882C453.504 51.6844 454.099 52.3397 455.294 52.8831C456.49 53.429 458.289 53.8811 461.047 54.0169C464.683 54.1941 468.739 54.1309 472.327 54.428C474.121 54.5759 475.795 54.8141 477.23 55.2072C478.666 55.5989 479.855 56.1473 480.696 56.8785C480.95 57.098 481.328 57.0648 481.542 56.8044C481.755 56.5439 481.723 56.1551 481.47 55.9356C480.43 55.0361 479.079 54.4376 477.539 54.0152C475.228 53.3842 472.47 53.1495 469.61 53.031C466.751 52.9138 463.791 52.9163 461.104 52.7847C457.561 52.6128 455.8 51.8908 454.971 51.298C454.554 51.0012 454.364 50.7404 454.272 50.5763C454.226 50.4941 454.206 50.4348 454.197 50.4052L454.191 50.3836L453.903 50.4422L454.195 50.4112L454.191 50.3836L453.903 50.4422L454.195 50.4112L453.598 50.4747L454.196 50.529C454.704 44.5985 456.302 38.6785 457.776 34.2516C458.512 32.038 459.217 30.1966 459.736 28.9104C459.996 28.2674 460.21 27.7635 460.358 27.4208C460.432 27.2497 460.49 27.1188 460.529 27.0313C460.568 26.9437 460.587 26.9014 460.587 26.9014L460.044 26.6389L460.271 27.2098L469.142 23.495L471.612 26.5972L468.238 30.0643L467.28 29.3254C467.137 29.2156 466.955 29.1764 466.782 29.2184C466.609 29.2608 466.462 29.3793 466.383 29.5431L466.464 29.5847L466.389 29.5314L466.383 29.5431L466.464 29.5844L466.389 29.5314L466.397 29.5371L466.39 29.5304L466.389 29.5314L466.397 29.5371L466.39 29.5304C466.386 29.5431 466.262 29.6327 466.072 29.6934C465.787 29.7912 465.382 29.8526 465.063 29.8801C464.903 29.8942 464.762 29.9013 464.663 29.9048L464.549 29.908L464.513 29.9083V30.5252L464.568 29.9108L462.677 29.7343C462.495 29.7174 462.316 29.7862 462.189 29.9217C462.063 30.0569 462.004 30.2443 462.028 30.4299C462.12 31.1399 462.16 31.9536 462.16 32.8238C462.16 35.0399 461.901 37.6153 461.639 39.8582C461.508 40.9804 461.377 42.02 461.278 42.8976C461.179 43.7773 461.111 44.4845 461.11 44.9909C461.112 45.1938 461.118 45.3607 461.16 45.5453C461.184 45.6381 461.212 45.7418 461.305 45.8738C461.352 45.9387 461.421 46.0111 461.517 46.0679C461.613 46.1254 461.737 46.1589 461.848 46.1575H470.529C470.655 46.1575 470.776 46.1176 470.878 46.0428L470.919 46.0135C471.128 45.8625 472.135 45.1525 473.362 44.4905C473.976 44.1595 474.645 43.8405 475.288 43.609C475.93 43.3765 476.549 43.236 477.038 43.2378C477.246 43.2378 477.429 43.2621 477.583 43.3076C478.77 43.6559 479.924 44.0508 480.778 44.3582C481.206 44.5117 481.558 44.6433 481.803 44.7365C482.049 44.8296 482.184 44.8829 482.184 44.8833C482.494 45.0054 482.841 44.8466 482.96 44.5286C483.078 44.211 482.924 43.8543 482.615 43.7322Z" fill="#54596E"/>
<path d="M473.398 46.7744C473.293 46.7744 473.187 46.803 473.09 46.8626C472.806 47.038 472.714 47.4167 472.884 47.7088C472.906 47.7452 473.4 48.5847 474.437 49.57C475.473 50.5541 477.059 51.6862 479.248 52.2727C479.299 52.2861 479.35 52.2928 479.4 52.2928C479.666 52.2928 479.91 52.1089 479.98 51.8316C480.064 51.5016 479.872 51.165 479.551 51.0792C477.592 50.5545 476.178 49.5442 475.251 48.6641C474.788 48.2244 474.448 47.8179 474.227 47.5257C474.116 47.3796 474.035 47.2621 473.983 47.1838L473.927 47.0959L473.915 47.0761L473.913 47.073C473.8 46.881 473.602 46.7744 473.398 46.7744Z" fill="#DDBC76"/>
<path d="M488.4 31.3571C488.4 35.1036 485.445 38.1409 481.799 38.1409C478.154 38.1409 475.199 35.1036 475.199 31.3571C475.199 27.6105 478.154 24.5732 481.799 24.5732C485.445 24.5732 488.4 27.6105 488.4 31.3571Z" fill="#ADF2A2"/>
<path d="M488.4 31.3569H489C488.999 27.2694 485.776 23.9569 481.799 23.9565C477.822 23.9569 474.599 27.2694 474.599 31.3569C474.599 35.4443 477.822 38.7568 481.799 38.7575C485.776 38.7568 488.999 35.4443 489 31.3569H487.8C487.799 33.062 487.129 34.5998 486.042 35.7178C484.955 36.8347 483.458 37.5238 481.799 37.5238C480.14 37.5238 478.644 36.8347 477.557 35.7178C476.47 34.5998 475.799 33.062 475.799 31.3569C475.799 29.6517 476.47 28.1142 477.557 26.9963C478.644 25.879 480.141 25.1902 481.799 25.1899C483.458 25.1902 484.955 25.879 486.042 26.9963C487.129 28.1142 487.799 29.6521 487.8 31.3569H488.4Z" fill="#54596E"/>
<path d="M461.398 48.6245C461.084 48.6245 460.819 48.8761 460.8 49.2029C460.779 49.5431 461.03 49.8356 461.361 49.8568L470.962 50.4736C470.974 50.4743 470.987 50.475 471 50.475C471.314 50.475 471.578 50.2234 471.598 49.8967C471.619 49.5565 471.367 49.2639 471.036 49.2424L461.436 48.6259C461.423 48.6252 461.41 48.6245 461.398 48.6245Z" fill="#DDBC76"/>
<path d="M480.643 34.855C480.812 34.6528 481.259 34.4351 481.795 34.4404C482.325 34.4351 482.77 34.6479 482.941 34.849C483.167 35.0985 483.547 35.113 483.789 34.8808C484.032 34.6489 484.046 34.2586 483.821 34.0091C483.335 33.4833 482.604 33.212 481.795 33.207C480.977 33.212 480.24 33.4883 479.755 34.0257C479.532 34.2777 479.55 34.668 479.795 34.897C480.041 35.126 480.421 35.1073 480.643 34.855Z" fill="#54596E"/>
<path d="M479.999 30.4321C479.999 30.9431 479.597 31.357 479.099 31.357C478.602 31.357 478.199 30.9431 478.199 30.4321C478.199 29.9211 478.602 29.5068 479.099 29.5068C479.597 29.5068 479.999 29.9211 479.999 30.4321Z" fill="#54596E"/>
<path d="M485.4 30.4321C485.4 30.9431 484.997 31.357 484.5 31.357C484.003 31.357 483.6 30.9431 483.6 30.4321C483.6 29.9211 484.003 29.5068 484.5 29.5068C484.997 29.5068 485.4 29.9211 485.4 30.4321Z" fill="#54596E"/>
</g>
<rect x="492.5" y="69.5" width="341" height="29" rx="9.5" fill="#FCFCFC" stroke="#EF7FA9"/>
<path d="M515.936 79.636L515.78 80.488H513.5L512.18 88H511.088L512.408 80.488H510.128L510.284 79.636H515.936ZM517.4 81.424L518.516 86.728L521.504 81.424H522.632L516.968 91.096H515.828L517.688 87.928L516.188 81.424H517.4ZM524.606 82.636C524.894 82.26 525.274 81.948 525.746 81.7C526.218 81.444 526.734 81.316 527.294 81.316C527.806 81.316 528.258 81.424 528.65 81.64C529.05 81.848 529.358 82.152 529.574 82.552C529.79 82.944 529.898 83.408 529.898 83.944C529.898 84.176 529.874 84.424 529.826 84.688C529.706 85.352 529.462 85.944 529.094 86.464C528.734 86.984 528.29 87.388 527.762 87.676C527.242 87.964 526.69 88.108 526.106 88.108C525.546 88.108 525.074 87.984 524.69 87.736C524.314 87.48 524.042 87.164 523.874 86.788L523.118 91.12H522.026L523.73 81.424H524.822L524.606 82.636ZM528.71 84.688C528.742 84.52 528.758 84.336 528.758 84.136C528.758 83.552 528.586 83.096 528.242 82.768C527.898 82.432 527.454 82.264 526.91 82.264C526.51 82.264 526.122 82.364 525.746 82.564C525.37 82.756 525.046 83.04 524.774 83.416C524.51 83.784 524.334 84.212 524.246 84.7C524.214 84.868 524.198 85.052 524.198 85.252C524.198 85.836 524.37 86.3 524.714 86.644C525.066 86.98 525.51 87.148 526.046 87.148C526.454 87.148 526.842 87.052 527.21 86.86C527.586 86.66 527.906 86.376 528.17 86.008C528.442 85.632 528.622 85.192 528.71 84.688ZM534.695 81.316C535.247 81.316 535.723 81.424 536.123 81.64C536.531 81.848 536.839 82.144 537.047 82.528C537.263 82.904 537.371 83.336 537.371 83.824C537.371 83.992 537.351 84.196 537.311 84.436C537.279 84.644 537.227 84.86 537.155 85.084H531.899C531.883 85.244 531.875 85.36 531.875 85.432C531.875 85.984 532.039 86.416 532.367 86.728C532.703 87.032 533.139 87.184 533.675 87.184C534.147 87.184 534.559 87.076 534.911 86.86C535.271 86.636 535.543 86.34 535.727 85.972H536.903C536.615 86.604 536.171 87.12 535.571 87.52C534.979 87.912 534.291 88.108 533.507 88.108C532.683 88.108 532.019 87.872 531.515 87.4C531.019 86.92 530.771 86.268 530.771 85.444C530.771 85.212 530.795 84.964 530.843 84.7C530.963 84.02 531.207 83.424 531.575 82.912C531.943 82.4 532.395 82.008 532.931 81.736C533.475 81.456 534.063 81.316 534.695 81.316ZM536.207 84.292C536.231 84.132 536.243 83.984 536.243 83.848C536.243 83.336 536.079 82.94 535.751 82.66C535.431 82.38 535.011 82.24 534.491 82.24C533.931 82.24 533.423 82.424 532.967 82.792C532.511 83.152 532.203 83.652 532.043 84.292H536.207ZM546.143 81.304C546.799 81.304 547.327 81.488 547.727 81.856C548.127 82.216 548.327 82.74 548.327 83.428C548.327 83.684 548.307 83.916 548.267 84.124L547.583 88H546.503L547.163 84.28C547.195 84.112 547.211 83.936 547.211 83.752C547.211 83.264 547.075 82.892 546.803 82.636C546.539 82.38 546.167 82.252 545.687 82.252C545.111 82.252 544.619 82.432 544.211 82.792C543.811 83.152 543.551 83.676 543.431 84.364V84.34L542.783 88H541.691L543.263 79.12H544.355L543.779 82.372C544.051 82.036 544.395 81.776 544.811 81.592C545.235 81.4 545.679 81.304 546.143 81.304ZM553.387 81.316C553.939 81.316 554.415 81.424 554.815 81.64C555.223 81.848 555.531 82.144 555.739 82.528C555.955 82.904 556.063 83.336 556.063 83.824C556.063 83.992 556.043 84.196 556.003 84.436C555.971 84.644 555.919 84.86 555.847 85.084H550.591C550.575 85.244 550.567 85.36 550.567 85.432C550.567 85.984 550.731 86.416 551.059 86.728C551.395 87.032 551.831 87.184 552.367 87.184C552.839 87.184 553.251 87.076 553.603 86.86C553.963 86.636 554.235 86.34 554.419 85.972H555.595C555.307 86.604 554.863 87.12 554.263 87.52C553.671 87.912 552.983 88.108 552.199 88.108C551.375 88.108 550.711 87.872 550.207 87.4C549.711 86.92 549.463 86.268 549.463 85.444C549.463 85.212 549.487 84.964 549.535 84.7C549.655 84.02 549.899 83.424 550.267 82.912C550.635 82.4 551.087 82.008 551.623 81.736C552.167 81.456 552.755 81.316 553.387 81.316ZM554.899 84.292C554.923 84.132 554.935 83.984 554.935 83.848C554.935 83.336 554.771 82.94 554.443 82.66C554.123 82.38 553.703 82.24 553.183 82.24C552.623 82.24 552.115 82.424 551.659 82.792C551.203 83.152 550.895 83.652 550.735 84.292H554.899ZM558.848 82.672C559.112 82.24 559.444 81.904 559.844 81.664C560.244 81.424 560.7 81.304 561.212 81.304L561.008 82.432H560.72C560.152 82.432 559.676 82.584 559.292 82.888C558.916 83.192 558.664 83.704 558.536 84.424L557.9 88H556.808L557.972 81.424H559.064L558.848 82.672ZM565.305 81.316C565.857 81.316 566.333 81.424 566.733 81.64C567.141 81.848 567.449 82.144 567.657 82.528C567.873 82.904 567.981 83.336 567.981 83.824C567.981 83.992 567.961 84.196 567.921 84.436C567.889 84.644 567.837 84.86 567.765 85.084H562.509C562.493 85.244 562.485 85.36 562.485 85.432C562.485 85.984 562.649 86.416 562.977 86.728C563.313 87.032 563.749 87.184 564.285 87.184C564.757 87.184 565.169 87.076 565.521 86.86C565.881 86.636 566.153 86.34 566.337 85.972H567.513C567.225 86.604 566.781 87.12 566.181 87.52C565.589 87.912 564.901 88.108 564.117 88.108C563.293 88.108 562.629 87.872 562.125 87.4C561.629 86.92 561.381 86.268 561.381 85.444C561.381 85.212 561.405 84.964 561.453 84.7C561.573 84.02 561.817 83.424 562.185 82.912C562.553 82.4 563.005 82.008 563.541 81.736C564.085 81.456 564.673 81.316 565.305 81.316ZM566.817 84.292C566.841 84.132 566.853 83.984 566.853 83.848C566.853 83.336 566.689 82.94 566.361 82.66C566.041 82.38 565.621 82.24 565.101 82.24C564.541 82.24 564.033 82.424 563.577 82.792C563.121 83.152 562.813 83.652 562.653 84.292H566.817Z" fill="#918994"/>
<path d="M805 69H824C829.523 69 834 73.4772 834 79V89C834 94.5228 829.523 99 824 99H805V69Z" fill="#4C12AB"/>
<path d="M827 84H821V78H819V84H813V86H819V92H821V86H827V84Z" fill="white"/>
<rect y="285" width="440" height="285" fill="#AB5DDB"/>
<path d="M64.646 343.154C63.2087 343.154 61.8887 342.817 60.686 342.142C59.4833 341.467 58.53 340.536 57.826 339.348C57.122 338.145 56.77 336.789 56.77 335.278C56.77 333.782 57.122 332.44 57.826 331.252C58.53 330.049 59.4833 329.111 60.686 328.436C61.8887 327.761 63.2087 327.424 64.646 327.424C66.098 327.424 67.418 327.761 68.606 328.436C69.8087 329.111 70.7547 330.049 71.444 331.252C72.148 332.44 72.5 333.782 72.5 335.278C72.5 336.789 72.148 338.145 71.444 339.348C70.7547 340.536 69.8087 341.467 68.606 342.142C67.4033 342.817 66.0833 343.154 64.646 343.154ZM64.646 340.404C65.57 340.404 66.384 340.199 67.088 339.788C67.792 339.363 68.342 338.761 68.738 337.984C69.134 337.207 69.332 336.305 69.332 335.278C69.332 334.251 69.134 333.357 68.738 332.594C68.342 331.817 67.792 331.223 67.088 330.812C66.384 330.401 65.57 330.196 64.646 330.196C63.722 330.196 62.9007 330.401 62.182 330.812C61.478 331.223 60.928 331.817 60.532 332.594C60.136 333.357 59.938 334.251 59.938 335.278C59.938 336.305 60.136 337.207 60.532 337.984C60.928 338.761 61.478 339.363 62.182 339.788C62.9007 340.199 63.722 340.404 64.646 340.404ZM77.8714 332.572C78.2674 332.015 78.8101 331.553 79.4994 331.186C80.2034 330.805 81.0028 330.614 81.8974 330.614C82.9388 330.614 83.8774 330.871 84.7134 331.384C85.5641 331.897 86.2314 332.631 86.7154 333.584C87.2141 334.523 87.4634 335.615 87.4634 336.862C87.4634 338.109 87.2141 339.216 86.7154 340.184C86.2314 341.137 85.5641 341.878 84.7134 342.406C83.8774 342.934 82.9388 343.198 81.8974 343.198C81.0028 343.198 80.2108 343.015 79.5214 342.648C78.8468 342.281 78.2968 341.819 77.8714 341.262V348.808H74.7914V330.812H77.8714V332.572ZM84.3174 336.862C84.3174 336.129 84.1634 335.498 83.8554 334.97C83.5621 334.427 83.1661 334.017 82.6674 333.738C82.1834 333.459 81.6554 333.32 81.0834 333.32C80.5261 333.32 79.9981 333.467 79.4994 333.76C79.0154 334.039 78.6194 334.449 78.3114 334.992C78.0181 335.535 77.8714 336.173 77.8714 336.906C77.8714 337.639 78.0181 338.277 78.3114 338.82C78.6194 339.363 79.0154 339.781 79.4994 340.074C79.9981 340.353 80.5261 340.492 81.0834 340.492C81.6554 340.492 82.1834 340.345 82.6674 340.052C83.1661 339.759 83.5621 339.341 83.8554 338.798C84.1634 338.255 84.3174 337.61 84.3174 336.862ZM92.7816 332.572C93.1776 332.015 93.7203 331.553 94.4096 331.186C95.1136 330.805 95.9129 330.614 96.8076 330.614C97.8489 330.614 98.7876 330.871 99.6236 331.384C100.474 331.897 101.142 332.631 101.626 333.584C102.124 334.523 102.374 335.615 102.374 336.862C102.374 338.109 102.124 339.216 101.626 340.184C101.142 341.137 100.474 341.878 99.6236 342.406C98.7876 342.934 97.8489 343.198 96.8076 343.198C95.9129 343.198 95.1209 343.015 94.4316 342.648C93.7569 342.281 93.2069 341.819 92.7816 341.262V348.808H89.7016V330.812H92.7816V332.572ZM99.2276 336.862C99.2276 336.129 99.0736 335.498 98.7656 334.97C98.4723 334.427 98.0763 334.017 97.5776 333.738C97.0936 333.459 96.5656 333.32 95.9936 333.32C95.4363 333.32 94.9083 333.467 94.4096 333.76C93.9256 334.039 93.5296 334.449 93.2216 334.992C92.9283 335.535 92.7816 336.173 92.7816 336.906C92.7816 337.639 92.9283 338.277 93.2216 338.82C93.5296 339.363 93.9256 339.781 94.4096 340.074C94.9083 340.353 95.4363 340.492 95.9936 340.492C96.5656 340.492 97.0936 340.345 97.5776 340.052C98.0763 339.759 98.4723 339.341 98.7656 338.798C99.0736 338.255 99.2276 337.61 99.2276 336.862ZM110.024 343.198C108.85 343.198 107.794 342.941 106.856 342.428C105.917 341.9 105.176 341.159 104.634 340.206C104.106 339.253 103.842 338.153 103.842 336.906C103.842 335.659 104.113 334.559 104.656 333.606C105.213 332.653 105.968 331.919 106.922 331.406C107.875 330.878 108.938 330.614 110.112 330.614C111.285 330.614 112.348 330.878 113.302 331.406C114.255 331.919 115.003 332.653 115.546 333.606C116.103 334.559 116.382 335.659 116.382 336.906C116.382 338.153 116.096 339.253 115.524 340.206C114.966 341.159 114.204 341.9 113.236 342.428C112.282 342.941 111.212 343.198 110.024 343.198ZM110.024 340.514C110.581 340.514 111.102 340.382 111.586 340.118C112.084 339.839 112.48 339.429 112.774 338.886C113.067 338.343 113.214 337.683 113.214 336.906C113.214 335.747 112.906 334.86 112.29 334.244C111.688 333.613 110.948 333.298 110.068 333.298C109.188 333.298 108.447 333.613 107.846 334.244C107.259 334.86 106.966 335.747 106.966 336.906C106.966 338.065 107.252 338.959 107.824 339.59C108.41 340.206 109.144 340.514 110.024 340.514ZM121.721 332.704C122.117 332.059 122.63 331.553 123.261 331.186C123.906 330.819 124.64 330.636 125.461 330.636V333.87H124.647C123.679 333.87 122.946 334.097 122.447 334.552C121.963 335.007 121.721 335.799 121.721 336.928V343H118.641V330.812H121.721V332.704ZM131.122 333.342V339.238C131.122 339.649 131.217 339.949 131.408 340.14C131.613 340.316 131.95 340.404 132.42 340.404H133.85V343H131.914C129.318 343 128.02 341.739 128.02 339.216V333.342H126.568V330.812H128.02V327.798H131.122V330.812H133.85V333.342H131.122ZM147.571 330.812V343H144.469V341.46C144.073 341.988 143.552 342.406 142.907 342.714C142.276 343.007 141.587 343.154 140.839 343.154C139.886 343.154 139.042 342.956 138.309 342.56C137.576 342.149 136.996 341.555 136.571 340.778C136.16 339.986 135.955 339.047 135.955 337.962V330.812H139.035V337.522C139.035 338.49 139.277 339.238 139.761 339.766C140.245 340.279 140.905 340.536 141.741 340.536C142.592 340.536 143.259 340.279 143.743 339.766C144.227 339.238 144.469 338.49 144.469 337.522V330.812H147.571ZM157.364 330.636C158.816 330.636 159.989 331.098 160.884 332.022C161.778 332.931 162.226 334.207 162.226 335.85V343H159.146V336.268C159.146 335.3 158.904 334.559 158.42 334.046C157.936 333.518 157.276 333.254 156.44 333.254C155.589 333.254 154.914 333.518 154.416 334.046C153.932 334.559 153.69 335.3 153.69 336.268V343H150.61V330.812H153.69V332.33C154.1 331.802 154.621 331.391 155.252 331.098C155.897 330.79 156.601 330.636 157.364 330.636ZM166.717 329.36C166.174 329.36 165.719 329.191 165.353 328.854C165.001 328.502 164.825 328.069 164.825 327.556C164.825 327.043 165.001 326.617 165.353 326.28C165.719 325.928 166.174 325.752 166.717 325.752C167.259 325.752 167.707 325.928 168.059 326.28C168.425 326.617 168.609 327.043 168.609 327.556C168.609 328.069 168.425 328.502 168.059 328.854C167.707 329.191 167.259 329.36 166.717 329.36ZM168.235 330.812V343H165.155V330.812H168.235ZM174.864 333.342V339.238C174.864 339.649 174.959 339.949 175.15 340.14C175.355 340.316 175.692 340.404 176.162 340.404H177.592V343H175.656C173.06 343 171.762 341.739 171.762 339.216V333.342H170.31V330.812H171.762V327.798H174.864V330.812H177.592V333.342H174.864ZM191.467 330.812L183.921 348.764H180.643L183.283 342.692L178.399 330.812H181.853L184.999 339.326L188.189 330.812H191.467Z" fill="#FCFCFC"/>
<g clip-path="url(#clip2)">
<path d="M32 353C41.9411 353 50 344.941 50 335C50 325.059 41.9411 317 32 317C22.0589 317 14 325.059 14 335C14 344.941 22.0589 353 32 353Z" fill="#54C0EB"/>
<path d="M32 348.5C24.575 348.5 18.5 342.425 18.5 335C18.5 327.575 24.575 321.5 32 321.5C39.425 321.5 45.5 327.575 45.5 335C45.5 342.425 39.425 348.5 32 348.5Z" fill="#F2F2F2"/>
<path d="M32 344C27.05 344 23 339.95 23 335C23 330.05 27.05 326 32 326C36.95 326 41 330.05 41 335C41 339.95 36.95 344 32 344Z" fill="#FF7058"/>
<path d="M32 339.5C29.525 339.5 27.5 337.475 27.5 335C27.5 332.525 29.525 330.5 32 330.5C34.475 330.5 36.5 332.525 36.5 335C36.5 337.475 34.475 339.5 32 339.5Z" fill="#CDD6E0"/>
<path d="M32 339.5C29.525 339.5 27.5 337.475 27.5 335C27.5 332.525 29.525 330.5 32 330.5C34.475 330.5 36.5 332.525 36.5 335C36.5 337.475 34.475 339.5 32 339.5Z" fill="#FFD15C"/>
<path opacity="0.2" d="M49.8501 337.25C49.5501 339.5 48.8751 341.6 47.8251 343.55L46.8501 343.175L45.5751 340.475L32.0751 335.6C31.4752 335.375 31.1751 334.7 31.4001 334.1C31.6251 333.5 32.3001 333.2 32.9001 333.425L46.4001 338.3L49.1001 337.025L49.8501 337.25Z" fill="#334A5E"/>
<path d="M44.3001 324.275L33.2751 335.3C32.8251 335.75 32.0751 335.75 31.6251 335.3C31.1751 334.85 31.1751 334.1 31.6251 333.65L42.7251 322.7C43.1751 322.25 43.9251 322.25 44.3751 322.7C44.7501 323.15 44.7501 323.825 44.3001 324.275Z" fill="#40596B"/>
<path d="M45.35 321.65L41.825 325.175V320.525L45.35 317V321.65Z" fill="#FF7058"/>
<path d="M46.475 325.175L50 321.65H45.35L41.825 325.175H46.475Z" fill="#F1543F"/>
</g>
<rect x="55.5" y="362.5" width="341" height="29" rx="9.5" fill="#FCFCFC" stroke="#EF7FA9"/>
<path d="M78.936 372.636L78.78 373.488H76.5L75.18 381H74.088L75.408 373.488H73.128L73.284 372.636H78.936ZM80.4002 374.424L81.5162 379.728L84.5042 374.424H85.6322L79.9682 384.096H78.8282L80.6882 380.928L79.1882 374.424H80.4002ZM87.6059 375.636C87.8939 375.26 88.2739 374.948 88.7459 374.7C89.2179 374.444 89.7339 374.316 90.2939 374.316C90.8059 374.316 91.2579 374.424 91.6499 374.64C92.0499 374.848 92.3579 375.152 92.5739 375.552C92.7899 375.944 92.8979 376.408 92.8979 376.944C92.8979 377.176 92.8739 377.424 92.8259 377.688C92.7059 378.352 92.4619 378.944 92.0939 379.464C91.7339 379.984 91.2899 380.388 90.7619 380.676C90.2419 380.964 89.6899 381.108 89.1059 381.108C88.5459 381.108 88.0739 380.984 87.6899 380.736C87.3139 380.48 87.0419 380.164 86.8739 379.788L86.1179 384.12H85.0259L86.7299 374.424H87.8219L87.6059 375.636ZM91.7099 377.688C91.7419 377.52 91.7579 377.336 91.7579 377.136C91.7579 376.552 91.5859 376.096 91.2419 375.768C90.8979 375.432 90.4539 375.264 89.9099 375.264C89.5099 375.264 89.1219 375.364 88.7459 375.564C88.3699 375.756 88.0459 376.04 87.7739 376.416C87.5099 376.784 87.3339 377.212 87.2459 377.7C87.2139 377.868 87.1979 378.052 87.1979 378.252C87.1979 378.836 87.3699 379.3 87.7139 379.644C88.0659 379.98 88.5099 380.148 89.0459 380.148C89.4539 380.148 89.8419 380.052 90.2099 379.86C90.5859 379.66 90.9059 379.376 91.1699 379.008C91.4419 378.632 91.6219 378.192 91.7099 377.688ZM97.6953 374.316C98.2473 374.316 98.7233 374.424 99.1233 374.64C99.5313 374.848 99.8393 375.144 100.047 375.528C100.263 375.904 100.371 376.336 100.371 376.824C100.371 376.992 100.351 377.196 100.311 377.436C100.279 377.644 100.227 377.86 100.155 378.084H94.8993C94.8833 378.244 94.8753 378.36 94.8753 378.432C94.8753 378.984 95.0393 379.416 95.3673 379.728C95.7033 380.032 96.1393 380.184 96.6753 380.184C97.1473 380.184 97.5593 380.076 97.9113 379.86C98.2713 379.636 98.5433 379.34 98.7273 378.972H99.9033C99.6153 379.604 99.1713 380.12 98.5713 380.52C97.9793 380.912 97.2913 381.108 96.5073 381.108C95.6833 381.108 95.0193 380.872 94.5153 380.4C94.0193 379.92 93.7713 379.268 93.7713 378.444C93.7713 378.212 93.7953 377.964 93.8433 377.7C93.9633 377.02 94.2073 376.424 94.5753 375.912C94.9433 375.4 95.3953 375.008 95.9313 374.736C96.4753 374.456 97.0633 374.316 97.6953 374.316ZM99.2073 377.292C99.2313 377.132 99.2433 376.984 99.2433 376.848C99.2433 376.336 99.0793 375.94 98.7513 375.66C98.4313 375.38 98.0113 375.24 97.4913 375.24C96.9313 375.24 96.4233 375.424 95.9673 375.792C95.5113 376.152 95.2033 376.652 95.0433 377.292H99.2073ZM109.143 374.304C109.799 374.304 110.327 374.488 110.727 374.856C111.127 375.216 111.327 375.74 111.327 376.428C111.327 376.684 111.307 376.916 111.267 377.124L110.583 381H109.503L110.163 377.28C110.195 377.112 110.211 376.936 110.211 376.752C110.211 376.264 110.075 375.892 109.803 375.636C109.539 375.38 109.167 375.252 108.687 375.252C108.111 375.252 107.619 375.432 107.211 375.792C106.811 376.152 106.551 376.676 106.431 377.364V377.34L105.783 381H104.691L106.263 372.12H107.355L106.779 375.372C107.051 375.036 107.395 374.776 107.811 374.592C108.235 374.4 108.679 374.304 109.143 374.304ZM116.387 374.316C116.939 374.316 117.415 374.424 117.815 374.64C118.223 374.848 118.531 375.144 118.739 375.528C118.955 375.904 119.063 376.336 119.063 376.824C119.063 376.992 119.043 377.196 119.003 377.436C118.971 377.644 118.919 377.86 118.847 378.084H113.591C113.575 378.244 113.567 378.36 113.567 378.432C113.567 378.984 113.731 379.416 114.059 379.728C114.395 380.032 114.831 380.184 115.367 380.184C115.839 380.184 116.251 380.076 116.603 379.86C116.963 379.636 117.235 379.34 117.419 378.972H118.595C118.307 379.604 117.863 380.12 117.263 380.52C116.671 380.912 115.983 381.108 115.199 381.108C114.375 381.108 113.711 380.872 113.207 380.4C112.711 379.92 112.463 379.268 112.463 378.444C112.463 378.212 112.487 377.964 112.535 377.7C112.655 377.02 112.899 376.424 113.267 375.912C113.635 375.4 114.087 375.008 114.623 374.736C115.167 374.456 115.755 374.316 116.387 374.316ZM117.899 377.292C117.923 377.132 117.935 376.984 117.935 376.848C117.935 376.336 117.771 375.94 117.443 375.66C117.123 375.38 116.703 375.24 116.183 375.24C115.623 375.24 115.115 375.424 114.659 375.792C114.203 376.152 113.895 376.652 113.735 377.292H117.899ZM121.848 375.672C122.112 375.24 122.444 374.904 122.844 374.664C123.244 374.424 123.7 374.304 124.212 374.304L124.008 375.432H123.72C123.152 375.432 122.676 375.584 122.292 375.888C121.916 376.192 121.664 376.704 121.536 377.424L120.9 381H119.808L120.972 374.424H122.064L121.848 375.672ZM128.305 374.316C128.857 374.316 129.333 374.424 129.733 374.64C130.141 374.848 130.449 375.144 130.657 375.528C130.873 375.904 130.981 376.336 130.981 376.824C130.981 376.992 130.961 377.196 130.921 377.436C130.889 377.644 130.837 377.86 130.765 378.084H125.509C125.493 378.244 125.485 378.36 125.485 378.432C125.485 378.984 125.649 379.416 125.977 379.728C126.313 380.032 126.749 380.184 127.285 380.184C127.757 380.184 128.169 380.076 128.521 379.86C128.881 379.636 129.153 379.34 129.337 378.972H130.513C130.225 379.604 129.781 380.12 129.181 380.52C128.589 380.912 127.901 381.108 127.117 381.108C126.293 381.108 125.629 380.872 125.125 380.4C124.629 379.92 124.381 379.268 124.381 378.444C124.381 378.212 124.405 377.964 124.453 377.7C124.573 377.02 124.817 376.424 125.185 375.912C125.553 375.4 126.005 375.008 126.541 374.736C127.085 374.456 127.673 374.316 128.305 374.316ZM129.817 377.292C129.841 377.132 129.853 376.984 129.853 376.848C129.853 376.336 129.689 375.94 129.361 375.66C129.041 375.38 128.621 375.24 128.101 375.24C127.541 375.24 127.033 375.424 126.577 375.792C126.121 376.152 125.813 376.652 125.653 377.292H129.817Z" fill="#918994"/>
<path d="M368 362H387C392.523 362 397 366.477 397 372V382C397 387.523 392.523 392 387 392H368V362Z" fill="#4C12AB"/>
<path d="M390 377H384V371H382V377H376V379H382V385H384V379H390V377Z" fill="white"/>
<rect x="440" y="285" width="440" height="285" fill="#605DDB"/>
<path d="M503.968 327.644V330.13H499.876V343H496.796V330.13H492.704V327.644H503.968ZM513.079 330.636C514.003 330.636 514.825 330.841 515.543 331.252C516.262 331.648 516.819 332.242 517.215 333.034C517.626 333.811 517.831 334.75 517.831 335.85V343H514.751V336.268C514.751 335.3 514.509 334.559 514.025 334.046C513.541 333.518 512.881 333.254 512.045 333.254C511.195 333.254 510.52 333.518 510.021 334.046C509.537 334.559 509.295 335.3 509.295 336.268V343H506.215V326.72H509.295V332.33C509.691 331.802 510.219 331.391 510.879 331.098C511.539 330.79 512.273 330.636 513.079 330.636ZM523.84 332.704C524.236 332.059 524.75 331.553 525.38 331.186C526.026 330.819 526.759 330.636 527.58 330.636V333.87H526.766C525.798 333.87 525.065 334.097 524.566 334.552C524.082 335.007 523.84 335.799 523.84 336.928V343H520.76V330.812H523.84V332.704ZM540.985 336.642C540.985 337.082 540.955 337.478 540.897 337.83H531.987C532.06 338.71 532.368 339.399 532.911 339.898C533.453 340.397 534.121 340.646 534.913 340.646C536.057 340.646 536.871 340.155 537.355 339.172H540.677C540.325 340.345 539.65 341.313 538.653 342.076C537.655 342.824 536.431 343.198 534.979 343.198C533.805 343.198 532.749 342.941 531.811 342.428C530.887 341.9 530.161 341.159 529.633 340.206C529.119 339.253 528.863 338.153 528.863 336.906C528.863 335.645 529.119 334.537 529.633 333.584C530.146 332.631 530.865 331.897 531.789 331.384C532.713 330.871 533.776 330.614 534.979 330.614C536.137 330.614 537.171 330.863 538.081 331.362C539.005 331.861 539.716 332.572 540.215 333.496C540.728 334.405 540.985 335.454 540.985 336.642ZM537.795 335.762C537.78 334.97 537.494 334.339 536.937 333.87C536.379 333.386 535.697 333.144 534.891 333.144C534.128 333.144 533.483 333.379 532.955 333.848C532.441 334.303 532.126 334.941 532.009 335.762H537.795ZM542.441 336.862C542.441 335.63 542.683 334.537 543.167 333.584C543.666 332.631 544.333 331.897 545.169 331.384C546.02 330.871 546.966 330.614 548.007 330.614C548.916 330.614 549.708 330.797 550.383 331.164C551.072 331.531 551.622 331.993 552.033 332.55V330.812H555.135V343H552.033V341.218C551.637 341.79 551.087 342.267 550.383 342.648C549.694 343.015 548.894 343.198 547.985 343.198C546.958 343.198 546.02 342.934 545.169 342.406C544.333 341.878 543.666 341.137 543.167 340.184C542.683 339.216 542.441 338.109 542.441 336.862ZM552.033 336.906C552.033 336.158 551.886 335.52 551.593 334.992C551.3 334.449 550.904 334.039 550.405 333.76C549.906 333.467 549.371 333.32 548.799 333.32C548.227 333.32 547.699 333.459 547.215 333.738C546.731 334.017 546.335 334.427 546.027 334.97C545.734 335.498 545.587 336.129 545.587 336.862C545.587 337.595 545.734 338.241 546.027 338.798C546.335 339.341 546.731 339.759 547.215 340.052C547.714 340.345 548.242 340.492 548.799 340.492C549.371 340.492 549.906 340.353 550.405 340.074C550.904 339.781 551.3 339.37 551.593 338.842C551.886 338.299 552.033 337.654 552.033 336.906ZM561.729 333.342V339.238C561.729 339.649 561.824 339.949 562.015 340.14C562.22 340.316 562.558 340.404 563.027 340.404H564.457V343H562.521C559.925 343 558.627 341.739 558.627 339.216V333.342H557.175V330.812H558.627V327.798H561.729V330.812H564.457V333.342H561.729Z" fill="#FCFCFC"/>
<g clip-path="url(#clip3)">
<path d="M484.259 339.939L471.54 318.655C470.569 317.05 468.88 316.079 467 316.079C465.121 316.079 463.432 317.05 462.461 318.655L449.742 339.939C448.771 341.608 448.75 343.592 449.7 345.26C450.65 346.928 452.36 347.921 454.282 347.921H479.719C481.64 347.921 483.351 346.928 484.301 345.26C485.251 343.592 485.23 341.608 484.259 339.939Z" fill="#E50027"/>
<path d="M484.3 345.26C483.35 346.928 481.64 347.921 479.718 347.921H467V316.079C468.879 316.079 470.569 317.05 471.54 318.655L484.258 339.939C485.229 341.607 485.251 343.592 484.3 345.26Z" fill="#C1001F"/>
<path d="M454.281 345.809C453.112 345.809 452.112 345.228 451.535 344.215C450.957 343.202 450.967 342.03 451.568 341.001L464.274 319.734C464.856 318.773 465.878 318.19 467 318.19C468.122 318.19 469.145 318.773 469.734 319.748L482.443 341.017C483.033 342.03 483.043 343.202 482.466 344.215C481.888 345.228 480.888 345.809 479.719 345.809H454.281V345.809Z" fill="#FD003A"/>
<path d="M479.719 345.809C480.888 345.809 481.888 345.228 482.466 344.216C483.043 343.202 483.033 342.03 482.443 341.017L469.734 319.748C469.144 318.773 468.122 318.19 467 318.19V345.809H479.719Z" fill="#E50027"/>
<path d="M469.111 324.694V333.14C469.111 334.302 468.161 335.252 467 335.252C465.839 335.252 464.888 334.301 464.888 333.14V324.694C464.888 323.533 465.839 322.583 467 322.583C468.161 322.583 469.111 323.533 469.111 324.694Z" fill="#E1E4FB"/>
<path d="M469.111 324.694V333.14C469.111 334.302 468.161 335.252 467 335.252V322.583C468.161 322.583 469.111 323.533 469.111 324.694Z" fill="#C5C9F7"/>
<path d="M467 337.363C465.247 337.363 463.833 338.778 463.833 340.531C463.833 342.283 465.247 343.698 467 343.698C468.752 343.698 470.167 342.283 470.167 340.531C470.167 338.778 468.752 337.363 467 337.363Z" fill="#E1E4FB"/>
<path d="M470.167 340.531C470.167 342.283 468.753 343.698 467 343.698V337.363C468.753 337.363 470.167 338.778 470.167 340.531Z" fill="#C5C9F7"/>
</g>
<rect x="492.5" y="362.5" width="341" height="29" rx="9.5" fill="#FCFCFC" stroke="#EF7FA9"/>
<path d="M515.936 372.636L515.78 373.488H513.5L512.18 381H511.088L512.408 373.488H510.128L510.284 372.636H515.936ZM517.4 374.424L518.516 379.728L521.504 374.424H522.632L516.968 384.096H515.828L517.688 380.928L516.188 374.424H517.4ZM524.606 375.636C524.894 375.26 525.274 374.948 525.746 374.7C526.218 374.444 526.734 374.316 527.294 374.316C527.806 374.316 528.258 374.424 528.65 374.64C529.05 374.848 529.358 375.152 529.574 375.552C529.79 375.944 529.898 376.408 529.898 376.944C529.898 377.176 529.874 377.424 529.826 377.688C529.706 378.352 529.462 378.944 529.094 379.464C528.734 379.984 528.29 380.388 527.762 380.676C527.242 380.964 526.69 381.108 526.106 381.108C525.546 381.108 525.074 380.984 524.69 380.736C524.314 380.48 524.042 380.164 523.874 379.788L523.118 384.12H522.026L523.73 374.424H524.822L524.606 375.636ZM528.71 377.688C528.742 377.52 528.758 377.336 528.758 377.136C528.758 376.552 528.586 376.096 528.242 375.768C527.898 375.432 527.454 375.264 526.91 375.264C526.51 375.264 526.122 375.364 525.746 375.564C525.37 375.756 525.046 376.04 524.774 376.416C524.51 376.784 524.334 377.212 524.246 377.7C524.214 377.868 524.198 378.052 524.198 378.252C524.198 378.836 524.37 379.3 524.714 379.644C525.066 379.98 525.51 380.148 526.046 380.148C526.454 380.148 526.842 380.052 527.21 379.86C527.586 379.66 527.906 379.376 528.17 379.008C528.442 378.632 528.622 378.192 528.71 377.688ZM534.695 374.316C535.247 374.316 535.723 374.424 536.123 374.64C536.531 374.848 536.839 375.144 537.047 375.528C537.263 375.904 537.371 376.336 537.371 376.824C537.371 376.992 537.351 377.196 537.311 377.436C537.279 377.644 537.227 377.86 537.155 378.084H531.899C531.883 378.244 531.875 378.36 531.875 378.432C531.875 378.984 532.039 379.416 532.367 379.728C532.703 380.032 533.139 380.184 533.675 380.184C534.147 380.184 534.559 380.076 534.911 379.86C535.271 379.636 535.543 379.34 535.727 378.972H536.903C536.615 379.604 536.171 380.12 535.571 380.52C534.979 380.912 534.291 381.108 533.507 381.108C532.683 381.108 532.019 380.872 531.515 380.4C531.019 379.92 530.771 379.268 530.771 378.444C530.771 378.212 530.795 377.964 530.843 377.7C530.963 377.02 531.207 376.424 531.575 375.912C531.943 375.4 532.395 375.008 532.931 374.736C533.475 374.456 534.063 374.316 534.695 374.316ZM536.207 377.292C536.231 377.132 536.243 376.984 536.243 376.848C536.243 376.336 536.079 375.94 535.751 375.66C535.431 375.38 535.011 375.24 534.491 375.24C533.931 375.24 533.423 375.424 532.967 375.792C532.511 376.152 532.203 376.652 532.043 377.292H536.207ZM546.143 374.304C546.799 374.304 547.327 374.488 547.727 374.856C548.127 375.216 548.327 375.74 548.327 376.428C548.327 376.684 548.307 376.916 548.267 377.124L547.583 381H546.503L547.163 377.28C547.195 377.112 547.211 376.936 547.211 376.752C547.211 376.264 547.075 375.892 546.803 375.636C546.539 375.38 546.167 375.252 545.687 375.252C545.111 375.252 544.619 375.432 544.211 375.792C543.811 376.152 543.551 376.676 543.431 377.364V377.34L542.783 381H541.691L543.263 372.12H544.355L543.779 375.372C544.051 375.036 544.395 374.776 544.811 374.592C545.235 374.4 545.679 374.304 546.143 374.304ZM553.387 374.316C553.939 374.316 554.415 374.424 554.815 374.64C555.223 374.848 555.531 375.144 555.739 375.528C555.955 375.904 556.063 376.336 556.063 376.824C556.063 376.992 556.043 377.196 556.003 377.436C555.971 377.644 555.919 377.86 555.847 378.084H550.591C550.575 378.244 550.567 378.36 550.567 378.432C550.567 378.984 550.731 379.416 551.059 379.728C551.395 380.032 551.831 380.184 552.367 380.184C552.839 380.184 553.251 380.076 553.603 379.86C553.963 379.636 554.235 379.34 554.419 378.972H555.595C555.307 379.604 554.863 380.12 554.263 380.52C553.671 380.912 552.983 381.108 552.199 381.108C551.375 381.108 550.711 380.872 550.207 380.4C549.711 379.92 549.463 379.268 549.463 378.444C549.463 378.212 549.487 377.964 549.535 377.7C549.655 377.02 549.899 376.424 550.267 375.912C550.635 375.4 551.087 375.008 551.623 374.736C552.167 374.456 552.755 374.316 553.387 374.316ZM554.899 377.292C554.923 377.132 554.935 376.984 554.935 376.848C554.935 376.336 554.771 375.94 554.443 375.66C554.123 375.38 553.703 375.24 553.183 375.24C552.623 375.24 552.115 375.424 551.659 375.792C551.203 376.152 550.895 376.652 550.735 377.292H554.899ZM558.848 375.672C559.112 375.24 559.444 374.904 559.844 374.664C560.244 374.424 560.7 374.304 561.212 374.304L561.008 375.432H560.72C560.152 375.432 559.676 375.584 559.292 375.888C558.916 376.192 558.664 376.704 558.536 377.424L557.9 381H556.808L557.972 374.424H559.064L558.848 375.672ZM565.305 374.316C565.857 374.316 566.333 374.424 566.733 374.64C567.141 374.848 567.449 375.144 567.657 375.528C567.873 375.904 567.981 376.336 567.981 376.824C567.981 376.992 567.961 377.196 567.921 377.436C567.889 377.644 567.837 377.86 567.765 378.084H562.509C562.493 378.244 562.485 378.36 562.485 378.432C562.485 378.984 562.649 379.416 562.977 379.728C563.313 380.032 563.749 380.184 564.285 380.184C564.757 380.184 565.169 380.076 565.521 379.86C565.881 379.636 566.153 379.34 566.337 378.972H567.513C567.225 379.604 566.781 380.12 566.181 380.52C565.589 380.912 564.901 381.108 564.117 381.108C563.293 381.108 562.629 380.872 562.125 380.4C561.629 379.92 561.381 379.268 561.381 378.444C561.381 378.212 561.405 377.964 561.453 377.7C561.573 377.02 561.817 376.424 562.185 375.912C562.553 375.4 563.005 375.008 563.541 374.736C564.085 374.456 564.673 374.316 565.305 374.316ZM566.817 377.292C566.841 377.132 566.853 376.984 566.853 376.848C566.853 376.336 566.689 375.94 566.361 375.66C566.041 375.38 565.621 375.24 565.101 375.24C564.541 375.24 564.033 375.424 563.577 375.792C563.121 376.152 562.813 376.652 562.653 377.292H566.817Z" fill="#918994"/>
<path d="M805 362H824C829.523 362 834 366.477 834 372V382C834 387.523 829.523 392 824 392H805V362Z" fill="#4C12AB"/>
<path d="M827 377H821V371H819V377H813V379H819V385H821V379H827V377Z" fill="white"/>
<defs>
<clipPath id="clip0">
<rect width="36" height="37" fill="white" transform="matrix(-1 0 0 1 50 16)"/>
</clipPath>
<clipPath id="clip1">
<rect width="36" height="37" fill="white" transform="translate(453 21)"/>
</clipPath>
<clipPath id="clip2">
<rect width="36" height="36" fill="white" transform="translate(14 317)"/>
</clipPath>
<clipPath id="clip3">
<rect width="36" height="36" fill="white" transform="translate(449 314)"/>
</clipPath>
</defs>
</svg>
