<svg width="60" height="46" viewBox="0 0 60 46" fill="none" xmlns="http://www.w3.org/2000/svg">
<path d="M3 40.25H57C57.7956 40.25 58.5587 40.5529 59.1213 41.0921C59.6839 41.6312 60 42.3625 60 43.125C60 43.8875 59.6839 44.6188 59.1213 45.1579C58.5587 45.6971 57.7956 46 57 46H3C2.20435 46 1.44129 45.6971 0.87868 45.1579C0.31607 44.6188 0 43.8875 0 43.125C0 42.3625 0.31607 41.6312 0.87868 41.0921C1.44129 40.5529 2.20435 40.25 3 40.25V40.25ZM6 0H54C55.5913 0 57.1174 0.605802 58.2426 1.68414C59.3679 2.76247 60 4.22501 60 5.75V34.5C60 35.2625 59.6839 35.9938 59.1213 36.5329C58.5587 37.0721 57.7956 37.375 57 37.375H3C2.20435 37.375 1.44129 37.0721 0.87868 36.5329C0.31607 35.9938 0 35.2625 0 34.5V5.75C0 4.22501 0.632141 2.76247 1.75736 1.68414C2.88258 0.605802 4.4087 0 6 0V0ZM54 31.625V5.75H6V31.625H54Z" fill="#7E53C4"/>
</svg>
