<svg width="64" height="46" viewBox="0 0 64 46" fill="none" xmlns="http://www.w3.org/2000/svg">
<path d="M53.3333 40.5882C56.2667 40.5882 58.64 38.1529 58.64 35.1765L58.6667 5.41176C58.6667 2.43529 56.2667 0 53.3333 0H10.6667C7.73333 0 5.33333 2.43529 5.33333 5.41176V35.1765C5.33333 38.1529 7.73333 40.5882 10.6667 40.5882H0C0 43.5647 2.4 46 5.33333 46H58.6667C61.6 46 64 43.5647 64 40.5882H53.3333ZM10.6667 5.41176H53.3333V35.1765H10.6667V5.41176ZM32 43.2941C30.5333 43.2941 29.3333 42.0765 29.3333 40.5882C29.3333 39.1 30.5333 37.8824 32 37.8824C33.4667 37.8824 34.6667 39.1 34.6667 40.5882C34.6667 42.0765 33.4667 43.2941 32 43.2941Z" fill="#7E53C4"/>
</svg>
