<svg width="25" height="36" viewBox="0 0 25 36" fill="none" xmlns="http://www.w3.org/2000/svg">
<path d="M21.25 0H3.75C1.67969 0 0 1.51172 0 3.375V32.625C0 34.4883 1.67969 36 3.75 36H21.25C23.3203 36 25 34.4883 25 32.625V3.375C25 1.51172 23.3203 0 21.25 0ZM12.5 33.75C11.1172 33.75 10 32.7445 10 31.5C10 30.2555 11.1172 29.25 12.5 29.25C13.8828 29.25 15 30.2555 15 31.5C15 32.7445 13.8828 33.75 12.5 33.75ZM21.25 26.1562C21.25 26.6203 20.8281 27 20.3125 27H4.6875C4.17188 27 3.75 26.6203 3.75 26.1562V4.21875C3.75 3.75469 4.17188 3.375 4.6875 3.375H20.3125C20.8281 3.375 21.25 3.75469 21.25 4.21875V26.1562Z" fill="#7E53C4"/>
</svg>
