<svg width="44" height="46" viewBox="0 0 44 46" fill="none" xmlns="http://www.w3.org/2000/svg">
<path d="M39.2857 0H4.71429C2.11161 0 0 1.93164 0 4.3125V41.6875C0 44.0684 2.11161 46 4.71429 46H39.2857C41.8884 46 44 44.0684 44 41.6875V4.3125C44 1.93164 41.8884 0 39.2857 0ZM22 43.125C20.2616 43.125 18.8571 41.8402 18.8571 40.25C18.8571 38.6598 20.2616 37.375 22 37.375C23.7384 37.375 25.1429 38.6598 25.1429 40.25C25.1429 41.8402 23.7384 43.125 22 43.125ZM39.2857 33.4219C39.2857 34.0148 38.7554 34.5 38.1071 34.5H5.89286C5.24464 34.5 4.71429 34.0148 4.71429 33.4219V5.39062C4.71429 4.79766 5.24464 4.3125 5.89286 4.3125H38.1071C38.7554 4.3125 39.2857 4.79766 39.2857 5.39062V33.4219Z" fill="#7E53C4"/>
</svg>
