<svg width="44" height="44" viewBox="0 0 44 44" fill="none" xmlns="http://www.w3.org/2000/svg">
<g clip-path="url(#clip0)">
<path d="M5.61691 35.6276C-1.11435 27.3208 0.174841 15.1472 8.4813 8.41591C15.571 2.68712 25.7393 2.68712 32.8286 8.41591L5.61691 35.6276Z" fill="#4A3A89"/>
<path d="M21.5144 19.6584L19.1514 18.4413V15.5769L19.8675 14.5027C20.2969 13.8583 20.5119 12.9989 20.3686 12.2111L20.2969 11.2803C20.0105 9.49006 18.3636 8.20087 16.5734 8.48759C15.1412 8.70228 13.9954 9.84811 13.7807 11.2803L13.6373 12.2111C13.494 12.9989 13.709 13.8583 14.1387 14.5027L14.8548 15.5769V18.4413L9.26905 21.234C8.33827 21.7354 7.69385 22.7379 7.69385 23.812V33.4794L21.5144 19.6584Z" fill="#EFCCBF"/>
<path d="M9.26905 21.234C8.33827 21.7354 7.69385 22.7379 7.69385 23.812V33.4793L21.5144 19.5871L19.1514 18.4413H14.8548L9.26905 21.234Z" fill="#F0A521"/>
<path d="M11.2739 37.0598C19.5804 43.7911 31.7541 42.5023 38.4857 34.1954C44.2145 27.1061 44.2145 16.9374 38.4857 9.8481L11.2739 37.0598Z" fill="#4A3A89"/>
<path d="M35.6216 32.0472V29.1828L36.7671 27.4642C36.9821 27.1775 37.0538 26.8194 36.9821 26.4614L36.5524 23.2389C36.4807 22.5228 35.8363 22.0218 35.1202 22.0218H31.8978C31.1817 22.0218 30.6089 22.5228 30.4656 23.2389L30.0359 26.4614C29.9642 26.8194 30.0359 27.1775 30.2509 27.4642L31.325 29.1828V32.0472L24.9515 35.1979C24.4504 35.4126 24.1641 35.914 24.1641 36.4868V41.3564C27.7446 41.2131 31.2534 40.0673 34.2608 38.0623C36.051 36.8448 37.5549 35.4126 38.8441 33.694L35.6216 32.0472Z" fill="#EFCCBF"/>
<path d="M35.6216 32.0472L33.4733 34.1955L31.325 32.0472L24.9515 35.1979C24.4504 35.4126 24.1641 35.914 24.1641 36.4868V41.3564C27.7446 41.2131 31.2534 40.0673 34.2608 38.0623C36.051 36.8448 37.5549 35.4126 38.8441 33.694L35.6216 32.0472Z" fill="#C54B42"/>
<path d="M35.1294 18.6367L38.0155 15.7503L39.0281 16.7633L36.142 19.6493L35.1294 18.6367Z" fill="#D6D7D8"/>
<path d="M17.2231 37.2584L19.3498 35.1318L20.3627 36.1444L18.2361 38.2714L17.2231 37.2584Z" fill="#D6D7D8"/>
<path d="M20.8149 32.2353L25.1189 27.931L26.1318 28.9439L21.8275 33.2479L20.8149 32.2353Z" fill="#D6D7D8"/>
<path d="M34.4097 6.46656L36.5363 4.33994L37.5489 5.35255L35.4223 7.47951L34.4097 6.46656Z" fill="#D6D7D8"/>
<path d="M31.5527 3.59517L35.1479 -7.62939e-06L36.1605 1.0126L32.5653 4.60778L31.5527 3.59517Z" fill="#D6D7D8"/>
<path d="M4.34424 42.9764L8.64817 38.6725L9.66113 39.6851L5.35685 43.9893L4.34424 42.9764Z" fill="#D6D7D8"/>
<path d="M9.34619 42.9872L11.4728 40.8606L12.4858 41.8732L10.3591 43.9998L9.34619 42.9872Z" fill="#D6D7D8"/>
<path d="M24.3843 10.047L26.5109 7.92042L27.5235 8.93303L25.3969 11.0596L24.3843 10.047Z" fill="#D6D7D8"/>
<path d="M4.72607 18.2982L8.6758 14.3489L9.68841 15.3615L5.73868 19.3112L4.72607 18.2982Z" fill="#D6D7D8"/>
<path d="M27.7446 36.3437H30.609V37.7759H27.7446V36.3437Z" fill="#F78B7C"/>
<path d="M32.7573 38.9931C33.2584 38.7067 33.7598 38.4203 34.1895 38.134V33.4793L33.4734 34.1954L32.7573 33.4793V38.9931Z" fill="#F78B7C"/>
<path d="M36.4807 23.2389C36.409 22.5228 35.7646 22.0218 35.0485 22.0218H31.8261C31.11 22.0218 30.5372 22.5228 30.3939 23.2389L30.1792 24.8862H36.6958L36.4807 23.2389Z" fill="#704D4D"/>
<path d="M20.297 11.2803C20.0106 9.49006 18.3637 8.20087 16.5735 8.48759C15.1413 8.70228 13.9955 9.84811 13.7808 11.2803H20.297Z" fill="#704D4D"/>
<path d="M17.7188 23.454V18.4413H16.2866V24.8862L17.7188 23.454Z" fill="#DDAD6F"/>
<path d="M12.7061 28.4667V24.1701H11.2739V29.8989L12.7061 28.4667Z" fill="#DDAD6F"/>
</g>
<defs>
<clipPath id="clip0">
<rect width="44" height="44" fill="white"/>
</clipPath>
</defs>
</svg>
