<svg width="43" height="40" viewBox="0 0 43 40" fill="none" xmlns="http://www.w3.org/2000/svg">
<path d="M21.5 3.44828V1.37932H0V36.5517H20.7586V38.6207H43V3.44828H21.5Z" fill="#CFDFE8"/>
<path d="M31.8794 31.0345H27.4311C27.0217 31.0345 26.6898 30.7257 26.6898 30.3448V20.6897H8.89665C8.48723 20.6897 8.15527 20.3809 8.15527 20V15.1724C8.15527 14.7916 8.48723 14.4828 8.89665 14.4828C9.30608 14.4828 9.63803 14.7916 9.63803 15.1724V19.3103H27.4311C27.8406 19.3103 28.1725 19.6191 28.1725 20V29.6552H31.8794C32.2888 29.6552 32.6208 29.964 32.6208 30.3448C32.6208 30.7257 32.2888 31.0345 31.8794 31.0345Z" fill="#394D5C"/>
<path d="M25.9482 10.3448V17.2414H15.5688V10.3448H25.9482Z" fill="#E97424"/>
<path d="M40.0348 6.20688V17.2414H28.9141V6.20688H40.0348Z" fill="#E97424"/>
<path d="M40.0344 20V24.1379H30.3965V20H40.0344Z" fill="#E97424"/>
<path d="M25.9482 10.3448H15.5688L20.7585 6.20688L25.9482 10.3448Z" fill="#B11E48"/>
<path d="M19.2759 13.7931H22.2414V17.2414H19.2759V13.7931Z" fill="#B11E48"/>
<path d="M12.6036 26.2069V32.4138H3.70703V26.2069H12.6036Z" fill="#E97424"/>
<path d="M12.6036 26.2069H3.70703L8.15531 22.7586L12.6036 26.2069Z" fill="#B11E48"/>
<path d="M6.67236 28.9655H9.63788V32.4138H6.67236V28.9655Z" fill="#B11E48"/>
<path d="M31.8794 14.4828H37.069V17.2414H31.8794V14.4828Z" fill="#B11E48"/>
<path d="M31.8794 8.27588H33.3622V9.65519H31.8794V8.27588Z" fill="white"/>
<path d="M35.5864 8.27588H37.0692V9.65519H35.5864V8.27588Z" fill="white"/>
<path d="M31.8794 11.0345H33.3622V12.4138H31.8794V11.0345Z" fill="white"/>
<path d="M35.5864 11.0345H37.0692V12.4138H35.5864V11.0345Z" fill="white"/>
<path d="M15.5688 22.7586H24.4654V32.4138H15.5688V22.7586Z" fill="#E97424"/>
<path d="M17.793 28.9655H19.2757V30.3448H17.793V28.9655Z" fill="white"/>
<path d="M20.7588 28.9655H22.2416V30.3448H20.7588V28.9655Z" fill="white"/>
<path d="M20.7588 24.8276H22.2416V26.2069H20.7588V24.8276Z" fill="white"/>
<path d="M17.793 24.8276H19.2757V26.2069H17.793V24.8276Z" fill="white"/>
<path d="M8.89678 15.8621L5.50411 9.25039C4.43439 7.16425 6.22775 4.82758 8.89678 4.82758C11.5658 4.82758 13.3592 7.16425 12.2895 9.25039L8.89678 15.8621Z" fill="#DA1C4B"/>
<path d="M10.3796 8.27586C10.3796 9.03757 9.71567 9.65517 8.89682 9.65517C8.07797 9.65517 7.41406 9.03757 7.41406 8.27586C7.41406 7.51414 8.07797 6.89655 8.89682 6.89655C9.71567 6.89655 10.3796 7.51414 10.3796 8.27586Z" fill="white"/>
<path d="M39.2932 30.3448C39.2932 32.2491 37.6334 33.7931 35.5863 33.7931C33.5392 33.7931 31.8794 32.2491 31.8794 30.3448C31.8794 28.4405 33.5392 26.8965 35.5863 26.8965C37.6334 26.8965 39.2932 28.4405 39.2932 30.3448Z" fill="#2D75BB"/>
</svg>
