<svg width="44" height="44" viewBox="0 0 44 44" fill="none" xmlns="http://www.w3.org/2000/svg">
<path d="M34.4667 1.10001C29.6067 1.10001 25.6667 5.03993 25.6667 9.90001V10.6333L22.7334 18.7H27.1334V23.8333H35.2001V27.5H43.2667V9.90001C43.2667 5.03993 39.3268 1.10001 34.4667 1.10001ZM28.6001 10.34C29.9632 11.709 32.178 11.7136 33.5469 10.3505C33.5504 10.347 33.5539 10.3435 33.5574 10.34C32.1942 11.709 29.9795 11.7136 28.6105 10.3505C28.607 10.347 28.6035 10.3435 28.6001 10.34Z" fill="#63C8CD"/>
<path d="M8.80007 39.2333H16.8667V34.1H21.2667L18.3334 26.0333V25.3C18.3334 20.4399 14.3935 16.5 9.5334 16.5C4.67332 16.5 0.733398 20.4399 0.733398 25.3V42.9H8.80007V39.2333ZM15.4001 25.74C14.0369 27.1089 11.8221 27.1136 10.4532 25.7505C10.4497 25.747 10.4462 25.7435 10.4427 25.74C11.8059 27.1089 14.0207 27.1136 15.3896 25.7505C15.3931 25.747 15.3966 25.7435 15.4001 25.74Z" fill="#EF9F35"/>
<path d="M34.4665 0.366669C29.2014 0.366669 24.9332 4.63485 24.9332 9.9V10.5013L22.0439 18.4507C21.9634 18.6742 21.9961 18.9229 22.1319 19.118C22.2686 19.3152 22.4932 19.433 22.7332 19.4333H26.3999V23.8333C26.3999 24.2383 26.7282 24.5667 27.1332 24.5667H34.4665V27.5C34.4665 27.905 34.7949 28.2333 35.1999 28.2333H43.2665C43.6715 28.2333 43.9998 27.905 43.9998 27.5V9.9C43.9998 4.63485 39.7317 0.366669 34.4665 0.366669ZM42.5332 26.7667H35.9332V23.8333C35.9332 23.4284 35.6048 23.1 35.1999 23.1H27.8665V18.7C27.8665 18.295 27.5382 17.9667 27.1332 17.9667H23.7819L26.3559 10.8827C26.3848 10.8027 26.3998 10.7184 26.3999 10.6333V9.9C26.3999 5.44491 30.0114 1.83334 34.4665 1.83334C38.9216 1.83334 42.5332 5.44491 42.5332 9.9V26.7667Z" fill="#3C3C48"/>
<path d="M29.1209 9.81934L28.0796 10.8607C29.737 12.5148 32.4208 12.5148 34.0783 10.8607L33.0369 9.81934C31.9549 10.8991 30.203 10.8991 29.1209 9.81934Z" fill="#3C3C48"/>
<path d="M0.733333 43.6333H8.8C9.20498 43.6333 9.53333 43.305 9.53333 42.9V39.9667H16.8667C17.2717 39.9667 17.6 39.6383 17.6 39.2333V34.8333H21.2667C21.5067 34.833 21.7312 34.7152 21.868 34.518C22.0038 34.3229 22.0365 34.0742 21.956 33.8507L19.0667 25.9013V25.3C19.0667 20.0348 14.7985 15.7667 9.53333 15.7667C4.26818 15.7667 0 20.0348 0 25.3V42.9C0 43.305 0.32835 43.6333 0.733333 43.6333ZM1.46667 25.3C1.46667 20.8449 5.07824 17.2333 9.53333 17.2333C13.9884 17.2333 17.6 20.8449 17.6 25.3V26.0333C17.6001 26.1184 17.615 26.2027 17.644 26.2827L20.218 33.3667H16.8667C16.4617 33.3667 16.1333 33.695 16.1333 34.1V38.5H8.8C8.39502 38.5 8.06667 38.8283 8.06667 39.2333V42.1667H1.46667V25.3Z" fill="#3C3C48"/>
<path d="M15.9205 26.2607L14.8792 25.2193C13.7972 26.2991 12.0452 26.2991 10.9632 25.2193L9.92188 26.2607C11.5793 27.9148 14.2631 27.9148 15.9205 26.2607Z" fill="#3C3C48"/>
<path d="M11.7336 7.7H20.5336V6.23334H11.7336C9.70858 6.23334 8.06692 7.875 8.06692 9.9V11.7993L7.12092 10.846L6.07959 11.8873L8.27959 14.0873C8.56476 14.3749 9.02915 14.3768 9.31671 14.0916C9.31817 14.0902 9.31955 14.0887 9.32092 14.0873L11.5209 11.8873L10.4796 10.846L9.53359 11.7993V9.9C9.53359 8.68496 10.5185 7.7 11.7336 7.7Z" fill="#3C3C48"/>
<path d="M22 6.23334H23.4667V7.7H22V6.23334Z" fill="#3C3C48"/>
<path d="M36.6667 37.7667H22V39.2333H36.6667C38.6917 39.2333 40.3333 37.5917 40.3333 35.5667V32.2007L41.2793 33.154L42.3207 32.1127L40.1207 29.9127C39.8355 29.6251 39.3711 29.6232 39.0835 29.9084C39.0821 29.9098 39.0807 29.9113 39.0793 29.9127L36.8793 32.1127L37.9207 33.154L38.8667 32.2007V35.5667C38.8667 36.7817 37.8817 37.7667 36.6667 37.7667Z" fill="#3C3C48"/>
<path d="M19.0669 37.7667H20.5336V39.2333H19.0669V37.7667Z" fill="#3C3C48"/>
</svg>
