<?xml version="1.0" encoding="UTF-8"?>
<svg width="318px" height="314px" viewBox="0 0 318 314" version="1.1" xmlns="http://www.w3.org/2000/svg" xmlns:xlink="http://www.w3.org/1999/xlink">
    <!-- Generator: Sketch 52.5 (67469) - http://www.bohemiancoding.com/sketch -->
    <title>Group 3</title>
    <desc>Created with Sketch.</desc>
    <defs>
        <filter x="-5.2%" y="-5.6%" width="111.4%" height="111.9%" filterUnits="objectBoundingBox" id="filter-1">
            <feOffset dx="8" dy="8" in="SourceAlpha" result="shadowOffsetOuter1"></feOffset>
            <feColorMatrix values="0 0 0 0 0.239215686   0 0 0 0 0.278431373   0 0 0 0 0.301960784  0 0 0 0.2 0" type="matrix" in="shadowOffsetOuter1" result="shadowMatrixOuter1"></feColorMatrix>
            <feMerge>
                <feMergeNode in="shadowMatrixOuter1"></feMergeNode>
                <feMergeNode in="SourceGraphic"></feMergeNode>
            </feMerge>
        </filter>
        <linearGradient x1="50%" y1="100%" x2="50%" y2="0%" id="linearGradient-2">
            <stop stop-color="#ADC2CC" offset="0%"></stop>
            <stop stop-color="#B8CED9" offset="100%"></stop>
        </linearGradient>
        <linearGradient x1="50%" y1="29.2857143%" x2="50%" y2="90.7142857%" id="linearGradient-3">
            <stop stop-color="#FFFFFF" offset="0%"></stop>
            <stop stop-color="#FCD27E" offset="100%"></stop>
        </linearGradient>
    </defs>
    <g id="Homepage-/-Content" stroke="none" stroke-width="1" fill="none" fill-rule="evenodd">
        <g id="Idea-Management" transform="translate(-813.000000, -173.000000)">
            <g id="Group-3" transform="translate(813.000000, 174.000000)">
                <g id="Group-2" filter="url(#filter-1)">
                    <g id="iconSettings-Copy-2">
                        <path d="M175.373494,16.1361249 L175.373494,25.1191953 C175.373494,31.2733217 180.301038,37.67278 186.268987,39.2650246 L188.285025,39.8029023 C194.24857,41.3939719 201.734028,38.3043215 204.815119,32.9785157 L209.313646,25.2026059 C213.305631,18.3022784 222.152602,15.9443088 229.074274,19.9324504 L235.826596,23.8230155 C242.758674,27.817153 245.129051,36.6429489 241.131037,43.5536972 L236.629062,51.3355671 C233.544502,56.6673686 234.601463,64.669185 238.966636,69.025523 L240.441746,70.4976482 C244.803864,74.8509375 252.834679,75.9092569 258.17734,72.8309126 L265.974991,68.3380479 C272.892094,64.352539 281.739045,66.7224236 285.736343,73.631934 L289.634797,80.3705905 C293.637797,87.2899568 291.272937,96.1140608 284.354134,100.100549 L276.562455,104.589973 C271.222938,107.666505 268.129857,115.125271 269.724798,121.079153 L270.263766,123.091112 C271.857068,129.038875 278.275875,133.963604 284.442295,133.963604 L293.443582,133.963604 C301.42914,133.963604 307.903614,140.432557 307.903614,148.413006 L307.903614,156.194137 C307.903614,164.183801 301.433671,170.643538 293.443582,170.643538 L284.442295,170.643538 C278.27227,170.643538 271.858766,175.561928 270.263766,181.516031 L269.724798,183.52799 C268.131555,189.475533 271.22606,196.942436 276.562455,200.01717 L284.354134,204.506594 C291.269016,208.490823 293.63318,217.325167 289.634797,224.236552 L285.736343,230.975209 C281.734428,237.892699 272.896019,240.256866 265.974991,236.269095 L258.17734,231.77623 C252.831555,228.696086 244.808512,229.751567 240.441746,234.109495 L238.966636,235.58162 C234.606111,239.933319 233.546306,247.942892 236.629062,253.271576 L241.131037,261.053446 C245.126786,267.960278 242.750677,276.794597 235.826596,280.784127 L229.074274,284.674693 C222.144607,288.667441 213.307895,286.308778 209.313646,279.404537 L204.815119,271.628627 C201.732225,266.299706 194.254924,263.211476 188.285025,264.804241 L186.268987,265.342118 C180.30739,266.932668 175.373494,273.337421 175.373494,279.487948 L175.373494,288.471018 C175.373494,296.444075 168.891426,302.905443 160.898455,302.905443 L153.101545,302.905443 C145.099342,302.905443 138.626506,296.448595 138.626506,288.471018 L138.626506,279.487948 C138.626506,273.333821 133.698962,266.934363 127.731013,265.342118 L125.714975,264.804241 C119.75143,263.213171 112.265972,266.302821 109.184881,271.628627 L104.686354,279.404537 C100.694369,286.304864 91.8473982,288.662834 84.9257264,284.674693 L78.1734044,280.784127 C71.2413261,276.78999 68.8709489,267.964194 72.8689625,261.053446 L77.3709383,253.271576 C80.455498,247.939774 79.3985366,239.937958 75.0333644,235.58162 L73.5582538,234.109495 C69.1961364,229.756205 61.1653214,228.697886 55.8226601,231.77623 L48.0250093,236.269095 C41.1079064,240.254604 32.2609549,237.884719 28.2636575,230.975209 L24.3652026,224.236552 C20.3622033,217.317186 22.7270633,208.493082 29.6458658,204.506594 L37.4375445,200.01717 C42.7770616,196.940637 45.8701431,189.481872 44.2752022,183.52799 L43.7362337,181.516031 C42.142932,175.568268 35.7241248,170.643538 29.557705,170.643538 L20.5564177,170.643538 C12.5708599,170.643538 6.09638554,164.174586 6.09638554,156.194137 L6.09638554,148.413006 C6.09638554,140.423341 12.5663287,133.963604 20.5564177,133.963604 L29.557705,133.963604 C35.7277303,133.963604 42.1412338,129.045215 43.7362337,123.091112 L44.2752022,121.079153 C45.8684449,115.13161 42.7739402,107.664707 37.4375445,104.589973 L29.6458658,100.100549 C22.7309843,96.11632 20.3668204,87.2819759 24.3652026,80.3705905 L28.2636575,73.631934 C32.2655715,66.7144436 41.1039808,64.3502771 48.0250093,68.3380479 L55.8226601,72.8309126 C61.1684446,75.9110564 69.1914882,74.8555763 73.5582538,70.4976482 L75.0333644,69.025523 C79.3938888,64.6738234 80.4536942,56.6642507 77.3709383,51.3355671 L72.8689625,43.5536972 C68.8732142,36.6468645 71.2493226,27.8125456 78.1734044,23.8230155 L84.9257264,19.9324504 C91.8553933,15.9397022 100.692105,18.2983649 104.686354,25.2026059 L109.184881,32.9785157 C112.267775,38.3074367 119.745076,41.395667 125.714975,39.8029023 L127.731013,39.2650246 C133.69261,37.6744749 138.626506,31.2697222 138.626506,25.1191953 L138.626506,16.1361249 C138.626506,8.16306779 145.108574,1.70169966 153.101545,1.70169966 L160.898455,1.70169966 C168.900658,1.70169966 175.373494,8.15854768 175.373494,16.1361249 Z M157,235.978113 C203.30873,235.978113 240.847892,198.514924 240.847892,152.303571 C240.847892,106.092218 203.30873,68.6290295 157,68.6290295 C110.69127,68.6290295 73.1521084,106.092218 73.1521084,152.303571 C73.1521084,198.514924 110.69127,235.978113 157,235.978113 Z" id="Shape" stroke="#3D474D" stroke-width="3.61445783" fill="url(#linearGradient-2)"></path>
                        <path d="M216.068595,21.1844848 C219.76238,19.3048075 224.309414,19.2727778 228.172032,21.4983482 L234.924354,25.3889134 C238.011136,27.1674612 240.062714,30.0378432 240.874282,33.2240971 C232.923322,28.3942622 224.614412,24.3810581 216.068595,21.1844848 Z M37.6763436,236.003681 C34.4828278,235.192185 31.6066314,233.144718 29.82797,230.070221 L25.929515,223.331565 C22.4246293,217.27321 24.4992102,209.557756 30.5481076,206.072492 L38.3397864,201.583068 C42.2985642,199.302092 45.1395407,194.961666 46.1236223,190.343778 C48.5092026,194.840974 44.5383474,203.223999 36.6826852,209.802342 C33.6052785,212.379367 30.3580986,214.32237 27.3045374,215.544721 C30.1963904,222.564937 33.6536591,229.407719 37.6763436,236.003681 Z M16.4730008,168.163451 C11.4888217,166.466343 7.90361446,161.748556 7.90361446,156.194137 L7.90361446,148.413006 C7.90361446,141.417421 13.5684674,135.770833 20.5564177,135.770833 L29.557705,135.770833 C34.3722037,135.770833 39.2541238,133.175321 42.4159938,129.35491 C42.9172429,134.489296 35.6995374,140.558645 25.6372145,143.249379 C22.6164406,144.057155 19.6651323,144.473307 16.9559718,144.5331 C16.1656803,152.385885 16.0046899,160.289825 16.4730008,168.163451 Z M29.5930842,97.9267342 C24.2901556,94.2105989 22.6224153,86.9920506 25.929515,81.2755783 L29.82797,74.5369217 C33.3328558,68.4785673 41.0692337,66.4160097 47.1227674,69.9039458 L54.9204183,74.3968104 C60.9737503,77.8846303 69.8899524,76.7117484 74.8348626,71.7768458 L76.3099731,70.3047206 C76.8874651,69.7283973 77.4135934,69.0976603 77.8868812,68.4234561 C78.7226786,69.6538858 79.1284788,70.9553255 79.0130644,72.2718479 C78.5346162,77.7294681 69.2802625,81.3795956 58.3428868,80.4246358 C51.7916147,79.8526337 46.1224828,77.7581731 42.7319887,74.997475 C37.6106062,82.3154026 33.2309714,89.9932403 29.5930842,97.9267342 Z M74.1774647,42.1847157 C71.0466478,36.217384 73.1707863,28.7911863 79.0756462,25.3889134 L85.8279682,21.4983482 C91.8986085,18.0005556 99.6297085,20.070938 103.122041,26.1075936 L107.620569,33.8835035 C111.112785,39.919958 119.422621,43.3521422 126.180846,41.5490524 L127.152153,41.2899083 C123.390301,44.7018252 114.286127,43.0341256 105.917621,37.1862931 C101.916502,34.3903492 98.7576169,31.109877 96.7607363,27.9342217 C88.9142103,31.9388849 81.3512598,36.6890495 74.1774647,42.1847157 Z M140.679525,13.648427 C141.8386,7.86612059 146.959619,3.50892857 153.101545,3.50892857 L160.898455,3.50892857 C166.474968,3.50892857 171.196004,7.08681534 172.893451,12.0610537 C162.14305,11.4241206 151.336224,11.9532442 140.679525,13.648427 Z" id="Shape" fill="#FFFFFF" opacity="0.701892671"></path>
                        <path d="M176.477912,18.4149302 L176.477912,26.8305692 C176.477912,33.000133 181.399499,39.4069058 187.359596,40.9970553 L189.001892,41.4352188 C194.965623,43.026338 202.439584,39.9286351 205.530366,34.5860781 L209.744736,27.3013472 C213.743574,20.389174 222.592517,18.0200419 229.512968,22.0074796 L235.839709,25.652833 C242.764178,29.6425861 245.132992,38.4780529 241.13338,45.3915644 L236.903753,52.7026674 C233.816856,58.0385077 234.872729,66.0497313 239.238994,70.4071605 L240.412729,71.5785194 C244.77994,75.9368921 252.807755,76.9949873 258.152475,73.9154564 L265.499232,69.6823888 C272.422231,65.6934828 281.260685,68.0615777 285.258236,74.9715258 L288.910982,81.285463 C292.909395,88.1969025 290.543527,97.0260551 283.627372,101.011018 L276.286242,105.240843 C270.95164,108.314544 267.854784,115.781692 269.449692,121.735452 L269.878545,123.336352 C271.473708,129.291063 277.890031,134.2141 284.058828,134.2141 L292.539622,134.2141 C300.532731,134.2141 307,140.688441 307,148.681533 L307,155.92561 C307,163.912729 300.524758,170.393042 292.539622,170.393042 L284.058828,170.393042 C277.882309,170.393042 271.47529,175.310174 269.878545,181.27079 L269.449692,182.871691 C267.854588,188.826182 270.947788,196.29038 276.286242,199.366299 L283.627372,203.596125 C290.536987,207.57732 292.906537,216.415181 288.910982,223.32168 L285.258236,229.635617 C281.260908,236.545181 272.417611,238.910998 265.499232,234.924754 L258.152475,230.691686 C252.801065,227.608301 244.784269,228.66593 240.412729,233.028623 L239.238994,234.199982 C234.873567,238.556574 233.816352,246.567763 236.903753,251.904475 L241.13338,259.215578 C245.131035,266.125706 242.760734,274.966541 235.839709,278.95431 L229.512968,282.599663 C222.59058,286.588217 213.743711,284.218204 209.744736,277.305796 L205.530366,270.021065 C202.439744,264.678784 194.963941,261.581254 189.001892,263.171924 L187.359596,263.610088 C181.397818,265.200686 176.477912,271.606691 176.477912,277.776574 L176.477912,286.192213 C176.477912,294.178578 170.005331,300.650979 162.019846,300.650979 L154.690997,300.650979 C146.706814,300.650979 140.232932,294.17716 140.232932,286.192213 L140.232932,277.776574 C140.232932,271.60701 135.311344,265.200237 129.351248,263.610088 L127.708951,263.171924 C121.745221,261.580805 114.271259,264.678508 111.180477,270.021065 L106.966107,277.305796 C102.967269,284.217969 94.1183261,286.587101 87.1978758,282.599663 L80.8711345,278.95431 C73.9466656,274.964557 71.5778514,266.12909 75.5774636,259.215578 L79.8070909,251.904475 C82.893987,246.568635 81.8381148,238.557412 77.4718492,234.199982 L76.2981149,233.028623 C71.9309038,228.670251 63.9030888,227.612156 58.5583681,230.691686 L51.2116115,234.924754 C44.2886128,238.91366 35.450158,236.545565 31.4526073,229.635617 L27.7998615,223.32168 C23.801448,216.41024 26.1673167,207.581088 33.0834718,203.596125 L40.4246016,199.366299 C45.7592038,196.292599 48.8560591,188.82545 47.2611511,182.871691 L46.832298,181.27079 C45.2371352,175.31608 38.8208124,170.393042 32.6520152,170.393042 L24.1712217,170.393042 C16.178112,170.393042 9.71084337,163.918702 9.71084337,155.92561 L9.71084337,148.681533 C9.71084337,140.694413 16.186085,134.2141 24.1712217,134.2141 L32.6520152,134.2141 C38.8285345,134.2141 45.2355531,129.296969 46.832298,123.336352 L47.2611511,121.735452 C48.8562549,115.780961 45.7630551,108.316763 40.4246016,105.240843 L33.0834718,101.011018 C26.1738563,97.0298231 23.8043065,88.1919615 27.7998615,81.285463 L31.4526073,74.9715258 C35.4499356,68.0619621 44.2932326,65.6961446 51.2116115,69.6823888 L58.5583681,73.9154564 C63.9097785,76.9988418 71.926574,75.9412131 76.2981149,71.5785194 L77.4718492,70.4071605 C81.837276,66.0505685 82.8944913,58.0393794 79.8070909,52.7026674 L75.5774636,45.3915644 C71.5798089,38.4814364 73.9501092,29.6406019 80.8711345,25.652833 L87.1978758,22.0074796 C94.1202633,18.0189258 102.967133,20.3889386 106.966107,27.3013472 L111.180477,34.5860781 C114.271099,39.928359 121.746902,43.0258893 127.708951,41.4352188 L129.351248,40.9970553 C135.313025,39.4064572 140.232932,33.0004524 140.232932,26.8305692 L140.232932,18.4149302 C140.232932,10.4285646 146.705513,3.95616394 154.690997,3.95616394 L162.019846,3.95616394 C170.00403,3.95616394 176.477912,10.4299824 176.477912,18.4149302 Z M157,235.978113 C203.30873,235.978113 240.847892,198.514924 240.847892,152.303571 C240.847892,106.092218 203.30873,68.6290295 157,68.6290295 C110.69127,68.6290295 73.1521084,106.092218 73.1521084,152.303571 C73.1521084,198.514924 110.69127,235.978113 157,235.978113 Z" id="Combined-Shape" stroke="#3D474D" stroke-width="3.61445783" opacity="0.698493304"></path>
                        <polygon id="Star-Copy-2" fill="#FFFFFF" points="14.6958939 141.814367 -2.78923427e-12 152.332305 10.5392674 137.666152 -2.79412899e-12 123 14.6958939 133.517938 29.3917879 123 18.8525205 137.666152 29.3917879 152.332305"></polygon>
                        <polygon id="Star-Copy-3" fill="#FFFFFF" points="94.6506024 22.9448376 76.9110892 35.6411118 89.6331104 17.9375 76.9110892 0.233888158 94.6506024 12.9301624 112.390116 0.233888158 99.6680945 17.9375 112.390116 35.6411118"></polygon>
                    </g>
                </g>
                <g id="Icons/Tip" transform="translate(68.000000, 61.000000)">
                    <g id="Group" transform="translate(0.187038, 0.000000)">
                        <ellipse id="Oval" fill="#FCD363" opacity="0.209999993" cx="88.8428607" cy="88.7178576" rx="79.4909806" ry="79.3791357"></ellipse>
                        <g id="Group-2" fill="#FCD363">
                            <path d="M31.2614115,26.5456238 C31.2595931,23.9627009 33.355387,21.8703047 35.9307695,21.8721177 L35.9307695,21.8721177 C38.5114031,21.8739345 40.6048954,23.971191 40.6067125,26.5522029 L40.6198648,45.2345145 C40.6216832,47.8174375 38.5258894,49.9098337 35.9505068,49.9080206 L35.9505068,49.9080206 C33.3698732,49.9062039 31.2763809,47.8089474 31.2745639,45.2279354 L31.2614115,26.5456238 Z" id="Rectangle" transform="translate(35.940638, 35.890069) rotate(-45.000000) translate(-35.940638, -35.890069) "></path>
                            <path d="M137.065857,132.201201 C137.064038,129.618278 139.159832,127.525881 141.735215,127.527694 L141.735215,127.527694 C144.315848,127.529511 146.40934,129.626768 146.411158,132.20778 L146.42431,150.890091 C146.426128,153.473014 144.330334,155.56541 141.754952,155.563597 L141.754952,155.563597 C139.174318,155.561781 137.080826,153.464524 137.079009,150.883512 L137.065857,132.201201 Z" id="Rectangle" transform="translate(141.745083, 141.545646) rotate(-45.000000) translate(-141.745083, -141.545646) "></path>
                            <path d="M127.727132,35.8802005 C127.725315,33.2995669 129.819626,31.2090255 132.400638,31.2108425 L151.082949,31.2239949 C153.665872,31.2258133 155.761222,33.3245553 155.763035,35.8999379 L155.763035,35.8999379 C155.764851,38.4805715 153.670541,40.5711129 151.089529,40.5692959 L132.407217,40.5561435 C129.824294,40.5543251 127.728945,38.455583 127.727132,35.8802005 L127.727132,35.8802005 Z" id="Rectangle" transform="translate(141.745083, 35.890069) rotate(-45.000000) translate(-141.745083, -35.890069) "></path>
                            <path d="M21.9226867,141.535777 C21.92087,138.955144 24.0151809,136.864602 26.5961928,136.866419 L45.2785044,136.879572 C47.8614273,136.88139 49.9567765,138.980132 49.9585896,141.555515 L49.9585896,141.555515 C49.9604064,144.136148 47.8660954,146.22669 45.2850835,146.224873 L26.6027719,146.21172 C24.019849,146.209902 21.9244998,144.11116 21.9226867,141.535777 L21.9226867,141.535777 Z" id="Rectangle" transform="translate(35.940638, 141.545646) rotate(-45.000000) translate(-35.940638, -141.545646) "></path>
                            <rect id="Rectangle" x="84.1669207" y="0" width="9.35188007" height="28.0161655" rx="4.67594004"></rect>
                            <rect id="Rectangle" x="84.1669207" y="149.41955" width="9.35188007" height="28.0161655" rx="4.67594004"></rect>
                            <rect id="Rectangle" x="149.630081" y="84.0484966" width="28.0556402" height="9.33872185" rx="4.66936092"></rect>
                            <rect id="Rectangle" x="0" y="84.0484966" width="28.0556402" height="9.33872185" rx="4.66936092"></rect>
                        </g>
                        <g id="Group-28" transform="translate(37.407520, 37.354887)">
                            <path d="M25.7176702,108.216731 C25.7176702,94.3159394 0,83.4925149 0,51.2381209 C1.44952023e-15,22.9400881 23.0283863,0 51.4353404,0 C79.8422945,0 102.870681,22.9400881 102.870681,51.2381209 C102.870681,83.4925149 77.1530106,95.1699081 77.1530106,108.216731 L77.1530106,122.97149 L25.7176702,128.664615 L25.7176702,108.216731 Z" id="Combined-Shape" stroke="#E6B045" stroke-width="2.24445122" fill="#FFD426" stroke-linecap="round" stroke-linejoin="round"></path>
                            <ellipse id="Oval" fill="#FFEE99" opacity="0.800000012" cx="51.4353404" cy="51.2381209" rx="40.0052648" ry="39.8518718"></ellipse>
                            <ellipse id="Oval" fill="#FFF2B3" cx="51.4353404" cy="51.2381209" rx="20.9551387" ry="20.87479"></ellipse>
                            <ellipse id="Oval" fill="#FFFFFF" opacity="0.5" cx="34.2902269" cy="26.5679146" rx="13.3350883" ry="13.2839573"></ellipse>
                            <ellipse id="Oval" fill="#FFFFFF" cx="30.4802017" cy="22.7724982" rx="5.71503782" ry="5.69312455"></ellipse>
                            <polygon id="Rectangle" stroke="url(#linearGradient-3)" stroke-width="2.99260162" points="32.3852143 49.3404128 41.9102774 53.1358291 51.4353404 49.3404128 60.9604034 53.1358291 70.4854665 49.3404128 55.2453656 86.3457223 55.2453656 119.555616 47.6253152 119.555616 47.6253152 86.3457223"></polygon>
                            <path d="M42.0834603,145.04304 C42.0834603,139.875364 46.269304,135.686135 51.4353404,135.686135 L51.4353404,135.686135 C56.6002412,135.686135 60.7872205,139.867629 60.7872205,145.04304 L60.7872205,163.409449 C60.7872205,168.577125 56.6013768,172.766354 51.4353404,172.766354 L51.4353404,172.766354 C46.2704397,172.766354 42.0834603,168.584861 42.0834603,163.409449 L42.0834603,145.04304 Z" id="Rectangle" stroke="#323B40" stroke-width="2.99260162" fill="#50585C"></path>
                            <path d="M77.7432621,127.519628 C78.9330908,128.903957 79.6018177,130.735028 79.6018177,132.761738 L79.6018177,132.917407 C79.6018177,136.42991 77.596602,139.838809 74.6191461,141.764285 C75.380717,142.984218 75.7917925,144.452689 75.7917925,146.045696 L75.7917925,146.201365 C75.7917925,151.062051 72.003716,155.71817 67.241098,156.706577 L36.2376931,163.140854 C31.2466763,164.176662 27.0788883,160.7841 27.0788883,155.689905 L27.0788883,155.534237 C27.0788883,153.585382 27.6911304,151.636646 28.7680486,149.939019 C25.5427403,149.05775 23.2688631,146.157197 23.2688631,142.405948 L23.2688631,142.250279 C23.2688631,140.067871 24.0422899,137.903446 25.3784462,136.105884 C22.930453,134.807516 21.3638505,132.218462 21.3638505,129.121991 L21.3638505,128.966322 C21.3638505,124.085431 25.212607,119.545968 30.0279031,118.746495 L72.3526327,111.719422 C77.3566166,110.888622 81.5068303,114.408043 81.5068303,119.477781 L81.5068303,119.63345 C81.5068303,122.622515 80.0528005,125.54147 77.7432621,127.519628 Z" id="Combined-Shape" stroke="#5C6366" stroke-width="2.99260162" fill="#A1ADB3"></path>
                            <path d="M62.2138015,146.712098 L30.4802017,148.970092 L62.7934263,142.981381 C65.0740432,141.200591 66.6119408,138.397475 66.6119408,135.505981 C66.6119408,133.864067 66.1168011,132.425851 65.2698679,131.312979 L30.4802017,133.788427 L66.7746095,127.06187 C67.9026605,125.504644 68.5804539,123.628412 68.5804539,121.70441 C68.5804539,117.620894 65.5059253,114.762796 61.5705777,115.026324 L72.4803472,113.215001 C76.6391521,112.524525 80.0105295,115.371845 80.0105295,119.555616 C80.0105295,122.757628 78.0494558,125.822174 75.2656287,127.39967 C76.9959488,128.483927 78.1055169,130.434752 78.1055169,132.839573 C78.1055169,136.468702 75.5747656,139.953186 72.219612,141.299756 C73.5052456,142.398069 74.2954917,144.086758 74.2954917,146.12353 C74.2954917,150.315831 70.9705721,154.404398 66.8479793,155.259979 L58.8605042,156.917655 C61.1447066,155.07319 62.6749148,152.214372 62.6749148,149.307553 C62.6749148,148.362862 62.5121745,147.490245 62.2138015,146.712098 Z" id="Combined-Shape" fill="#323B40" opacity="0.300000012"></path>
                            <path d="M42.4497204,159.234545 L38.206217,160.080903 C37.0705671,158.942918 36.3857408,157.308306 36.3857408,155.370402 C36.3857408,152.653747 37.7222857,149.979018 39.7617523,148.135047 C35.6847395,148.632583 32.4487148,145.766348 32.4487148,141.56883 C32.4487148,138.828543 33.8299743,136.167631 35.9156528,134.381055 C32.7646202,133.896596 30.4802017,131.28718 30.4802017,127.767259 C30.4802017,124.666405 32.2407532,121.689634 34.8093309,119.972408 L39.9884381,119.146038 C37.7140514,121.033966 36.1952395,124.015032 36.1952395,127.111172 C36.1952395,130.895115 38.4796581,133.700259 41.6306906,134.221056 C39.5450121,136.141639 38.1637526,139.002141 38.1637526,141.947972 C38.1637526,146.460337 41.3997773,149.541562 45.4767902,149.006707 C43.4373235,150.988991 42.1007786,153.864346 42.1007786,156.784772 C42.1007786,157.66476 42.2229715,158.486573 42.4497204,159.234545 Z" id="Combined-Shape" fill="#FFFFFF" opacity="0.600000024"></path>
                        </g>
                    </g>
                </g>
            </g>
        </g>
    </g>
</svg>
