<svg width="34" height="34" viewBox="0 0 34 34" fill="none" xmlns="http://www.w3.org/2000/svg">
<path d="M23.7651 34H18.3661C18.0038 34 17.6563 33.8561 17.4001 33.5999C17.1439 33.3437 17 32.9963 17 32.634V30.531C17.001 30.208 16.9362 29.8882 16.8095 29.5911C16.6828 29.294 16.4969 29.0258 16.2631 28.803C15.6726 28.227 14.815 27.9075 13.9187 27.9295C12.2977 27.9674 10.9286 29.3942 10.9286 31.0456V32.634C10.9286 32.9963 10.7846 33.3437 10.5285 33.5999C10.2723 33.8561 9.9248 34 9.5625 34H4.22116C3.66683 34 3.11793 33.8908 2.60579 33.6787C2.09366 33.4666 1.62832 33.1556 1.23635 32.7637C0.444728 31.9721 0 30.8984 0 29.7789V24.4377C0 24.0754 0.143925 23.728 0.400113 23.4718C0.656301 23.2156 1.00377 23.0717 1.36607 23.0717H3.46906C4.16424 23.0717 4.84045 22.7742 5.37321 22.2369C5.66962 21.9381 5.90401 21.5837 6.06291 21.194C6.22181 20.8043 6.30208 20.387 6.29911 19.9662C6.27634 18.3581 4.95277 17.0004 3.40835 17.0004H1.36607C1.00377 17.0004 0.656301 16.8565 0.400113 16.6003C0.143925 16.3441 0 15.9966 0 15.6343V10.2931C0 9.7388 0.109184 9.18991 0.321317 8.67779C0.53345 8.16567 0.844378 7.70034 1.23635 7.30838C2.02797 6.51678 3.10164 6.07206 4.22116 6.07206H8.41348C8.57451 6.07206 8.72894 6.00809 8.8428 5.89423C8.95666 5.78037 9.02063 5.62595 9.02063 5.46493V4.97315C9.02062 4.31273 9.15217 3.65891 9.40758 3.04987C9.663 2.44083 10.0372 1.88876 10.5082 1.42588C10.9793 0.963004 11.5379 0.59859 12.1513 0.353907C12.7648 0.109225 13.4208 -0.0108241 14.0812 0.000765918C16.7746 0.0478184 18.9656 2.30634 18.9656 5.03463V5.46493C18.9656 5.62595 19.0296 5.78037 19.1435 5.89423C19.2573 6.00809 19.4117 6.07206 19.5728 6.07206H23.7651C24.3118 6.07206 24.8532 6.17975 25.3584 6.38898C25.8635 6.59821 26.3225 6.90488 26.7091 7.29149C27.0957 7.67809 27.4024 8.13706 27.6116 8.64219C27.8209 9.14731 27.9286 9.6887 27.9286 10.2354V14.4277C27.9286 14.5887 27.9925 14.7431 28.1064 14.857C28.2203 14.9708 28.3747 15.0348 28.5357 15.0348H28.9653C31.7414 15.0348 34 17.2356 34 19.9404C34 22.7188 31.7695 24.9796 29.0275 24.9796H28.5357C28.3747 24.9796 28.2203 25.0435 28.1064 25.1574C27.9925 25.2713 27.9286 25.4257 27.9286 25.5867V29.8366C27.9286 30.3834 27.8209 30.9247 27.6116 31.4299C27.4024 31.935 27.0957 32.394 26.7091 32.7806C26.3225 33.1672 25.8635 33.4739 25.3584 33.6831C24.8532 33.8923 24.3118 34 23.7651 34Z" fill="#DB0353"/>
</svg>
