<svg width="41" height="41" viewBox="0 0 41 41" fill="none" xmlns="http://www.w3.org/2000/svg">
<g clip-path="url(#clip0)">
<path d="M41 20.5C41 23.5323 40.3415 26.4108 39.1601 29.0005C37.1403 33.4276 33.5915 37.0095 29.1894 39.0731C28.3921 39.4463 27.5663 39.7701 26.7161 40.0394C25.7598 40.345 24.7732 40.5799 23.7607 40.7413C23.7566 40.7422 23.7516 40.7432 23.7472 40.7432C23.2505 40.8226 22.7491 40.8836 22.2414 40.9265C22.1332 40.9356 22.0246 40.944 21.9158 40.9515C21.7625 40.9615 21.6086 40.9706 21.4537 40.9775C21.1375 40.9925 20.8197 41 20.5 41C20.1719 41 19.8465 40.9925 19.5228 40.9765C19.3764 40.97 19.2297 40.9615 19.0833 40.9506C18.9738 40.9431 18.865 40.9356 18.7561 40.9265C18.2365 40.883 17.722 40.8192 17.2143 40.7372C16.9716 40.6978 16.7298 40.6553 16.4905 40.6074C15.452 40.4016 14.4428 40.1182 13.4681 39.7616C12.9032 39.5558 12.3502 39.3256 11.8096 39.0722C11.6257 38.9858 11.4424 38.8964 11.2607 38.8035C10.794 38.5676 10.3379 38.3139 9.89278 38.0437C7.66279 36.6933 5.71151 34.9294 4.14342 32.8586C3.20219 31.6152 2.39984 30.2614 1.7589 28.8187C0.628426 26.2769 0 23.462 0 20.5C0 9.17802 9.17802 0 20.5 0C31.822 0 41 9.17802 41 20.5Z" fill="#FFE152"/>
<path d="M16.4903 26.6031V40.6074C15.4518 40.4016 14.4427 40.1182 13.468 39.7616C12.9031 39.5558 12.3501 39.3255 11.8095 39.0722C11.6256 38.9858 11.4423 38.8964 11.2606 38.8035C10.7939 38.5676 10.3378 38.3139 9.89266 38.0437C7.66267 36.6933 5.7114 34.9294 4.1433 32.8586C3.20207 31.6152 2.39973 30.2614 1.75879 28.8187V26.6031C1.75879 24.0328 3.50424 21.8698 5.87468 21.2363C5.96164 21.2129 6.0486 21.191 6.13744 21.1728C6.37235 21.1209 6.61415 21.0856 6.86033 21.0655C7.01016 21.054 7.16156 21.0471 7.31452 21.0471H10.9334C11.3375 21.0471 11.7316 21.0899 12.1117 21.1728C12.1333 21.1769 12.1552 21.1819 12.1768 21.1869C12.2406 21.2013 12.305 21.2169 12.3676 21.2338C12.3695 21.2348 12.371 21.2348 12.3726 21.2354C12.9985 21.4027 13.58 21.6765 14.098 22.0362C15.5438 23.0393 16.4903 24.7104 16.4903 26.6031Z" fill="#2BA1CF"/>
<path d="M16.4906 26.6031V40.6074C15.4521 40.4016 14.443 40.1182 13.4683 39.7616C12.9034 39.5558 12.3503 39.3255 11.8098 39.0722C11.6259 38.9858 11.4426 38.8964 11.2608 38.8035C10.7941 38.5676 10.338 38.3139 9.89291 38.0437C7.66293 36.6933 5.71165 34.9294 4.14355 32.8586V26.6031C4.14355 24.0328 5.88901 21.8698 8.25945 21.2363C8.34672 21.2129 8.43368 21.191 8.5222 21.1728C8.75743 21.1209 8.99923 21.0856 9.24509 21.0655C9.39493 21.054 9.54633 21.0471 9.6996 21.0471H10.9336C11.3378 21.0471 11.7319 21.0899 12.112 21.1728C12.1335 21.1769 12.1554 21.1819 12.177 21.1869C12.2408 21.2013 12.3053 21.2169 12.3678 21.2338C12.3697 21.2348 12.3713 21.2348 12.3728 21.2354C12.9988 21.4027 13.5803 21.6765 14.0983 22.0362C15.5441 23.0393 16.4906 24.7104 16.4906 26.6031Z" fill="#66BAED"/>
<path d="M12.3863 21.1725L12.3732 21.2354L10.7109 28.9664C10.5514 29.7093 9.89763 30.248 9.13814 30.2486C9.13345 30.2486 9.12907 30.2486 9.12469 30.2486C9.11968 30.2486 9.11499 30.2486 9.10999 30.2486C8.35018 30.248 7.69673 29.7093 7.5372 28.9664L5.87495 21.236L5.86182 21.1725H12.3863Z" fill="#F2F0EC"/>
<path d="M9.12406 23.3218L6.62256 24.7119L5.86182 21.1725L7.41615 20.2573" fill="#D8D5D0"/>
<path d="M9.12402 23.3218L11.6255 24.7119L12.3863 21.1725L10.8319 20.2573" fill="#D8D5D0"/>
<path d="M1.65576 19.708V11.3285C1.65576 10.4771 1.79778 9.64284 2.07805 8.84894C3.12688 5.86478 5.95871 3.85907 9.12461 3.85907C9.51687 3.85907 9.90819 3.88941 10.2886 3.94947C12.0278 4.2213 13.6237 5.10904 14.7808 6.44941C15.95 7.80417 16.5941 9.5368 16.5941 11.3285V19.708" fill="#CC7A3B"/>
<path d="M4.72796 11.6558C4.72796 14.6196 6.46371 18.0486 7.41683 19.708H1.65527V11.3286C1.65527 10.4774 1.7976 9.64317 2.07756 8.84895C3.12014 5.882 5.926 3.88223 9.07001 3.85971C6.7737 3.91695 4.72796 7.60117 4.72796 11.6558Z" fill="#A35418"/>
<path d="M11.1071 18.9069V21.3399C11.1071 22.2304 10.5199 22.9834 9.71102 23.2333C9.52584 23.2909 9.32846 23.3218 9.12451 23.3218C8.02969 23.3218 7.14258 22.4347 7.14258 21.3399V18.9069H11.1071Z" fill="#EAB599"/>
<path d="M11.1069 21.1857V21.3399C11.1069 22.2304 10.5198 22.9834 9.71084 23.2333C8.98106 23.009 8.4324 22.3743 8.33105 21.5979C8.46337 21.6061 8.59663 21.6101 8.73019 21.6101C9.10525 21.6101 9.47311 21.5804 9.83096 21.5216C10.2723 21.4506 10.699 21.3371 11.1069 21.1857Z" fill="#F6CAAE"/>
<path d="M3.68703 14.9199C3.68703 15.8376 3.01669 16.5987 2.13865 16.7398C2.04293 16.7554 1.94408 16.7635 1.84336 16.7635C0.82518 16.7635 0 15.9384 0 14.9199C0 13.9017 0.82518 13.0765 1.84336 13.0765C1.94408 13.0765 2.04293 13.0846 2.13865 13.1003C3.01669 13.2414 3.68703 14.0021 3.68703 14.9199Z" fill="#F6CAAE"/>
<path d="M3.68704 14.9199C3.68704 15.8376 3.0167 16.5987 2.13866 16.7398C1.97944 16.1601 1.89404 15.5499 1.89404 14.9199C1.89404 14.2902 1.97944 13.6799 2.13866 13.1003C3.0167 13.2414 3.68704 14.0021 3.68704 14.9199Z" fill="#EAB599"/>
<path d="M2.50242 14.9199C2.50242 15.284 2.20744 15.579 1.84334 15.579C1.47955 15.579 1.18457 15.284 1.18457 14.9199C1.18457 14.5561 1.47955 14.2611 1.84334 14.2611C2.20744 14.2611 2.50242 14.5561 2.50242 14.9199Z" fill="#EAB599"/>
<path d="M13.8584 12.566V18.9028C12.879 19.8378 11.6231 20.4853 10.2258 20.7105C10.2148 20.7124 10.2029 20.7143 10.192 20.7162C9.84476 20.7715 9.48847 20.799 9.12468 20.799C5.33692 20.799 2.26611 17.7282 2.26611 13.9405V11.3286C2.26611 10.9942 2.28989 10.6651 2.33618 10.3435C3.96809 11.5172 6.30787 11.4011 7.7987 9.99226C8.2923 9.52586 8.63545 8.97063 8.82939 8.38162C8.93731 9.41294 9.40902 10.4167 10.2451 11.2072C11.2405 12.1469 12.5555 12.6001 13.8584 12.566Z" fill="#EAB599"/>
<path d="M13.8583 12.566V18.9028C12.8789 19.8378 11.623 20.4853 10.2257 20.7105C10.2147 20.7124 10.2028 20.7143 10.1919 20.7162C6.91118 20.2035 4.40186 17.3644 4.40186 13.9405V11.3286C4.40186 11.2591 4.40311 11.19 4.40561 11.1212C5.61491 11.245 6.87114 10.869 7.79861 9.99194C8.29221 9.52586 8.63536 8.97032 8.8293 8.38162C8.93722 9.41294 9.40893 10.4167 10.2451 11.2072C11.2404 12.1469 12.5554 12.6001 13.8583 12.566Z" fill="#F6CAAE"/>
<path d="M12.8083 13.3612C12.8083 12.7318 12.2981 12.2219 11.669 12.2219C11.04 12.2219 10.5298 12.7318 10.5298 13.3612" fill="#EAB599"/>
<path d="M7.72054 13.3612C7.72054 12.7318 7.21036 12.2219 6.58131 12.2219C5.95226 12.2219 5.44238 12.7318 5.44238 13.3612" fill="#EAB599"/>
<path d="M7.35943 13.846C7.35943 14.2758 7.01096 14.6243 6.58117 14.6243C6.15137 14.6243 5.80322 14.2758 5.80322 13.846C5.80322 13.4162 6.15137 13.0681 6.58117 13.0681C7.01096 13.0681 7.35943 13.4162 7.35943 13.846Z" fill="#3D4159"/>
<path d="M12.447 13.846C12.447 14.2758 12.0989 14.6243 11.6691 14.6243C11.2393 14.6243 10.8911 14.2758 10.8911 13.846C10.8911 13.4162 11.2393 13.0681 11.6691 13.0681C12.0989 13.0681 12.447 13.4162 12.447 13.846Z" fill="#3D4159"/>
<path d="M9.90356 15.8051H8.34736C8.16187 15.8051 8.01172 15.6546 8.01172 15.4695C8.01172 15.2843 8.16187 15.1338 8.34736 15.1338H9.90356C10.0887 15.1338 10.2389 15.2843 10.2389 15.4695C10.2389 15.6546 10.0887 15.8051 9.90356 15.8051Z" fill="#EAB599"/>
<path d="M9.12483 17.9288C8.55052 17.9288 7.97621 17.7849 7.45257 17.4968C7.30493 17.4158 7.25113 17.2303 7.33214 17.0826C7.41347 16.935 7.59897 16.8812 7.74661 16.9622C8.60964 17.4367 9.64002 17.4367 10.5031 16.9622C10.6507 16.8809 10.8362 16.935 10.9175 17.0826C10.9985 17.2303 10.9447 17.4158 10.7971 17.4968C10.2735 17.7849 9.69914 17.9288 9.12483 17.9288Z" fill="#EAB599"/>
<path d="M7.20059 13.7087C7.20059 13.8929 7.05107 14.0421 6.86714 14.0421C6.6829 14.0421 6.53369 13.8929 6.53369 13.7087C6.53369 13.5245 6.6829 13.3752 6.86714 13.3752C7.05107 13.3752 7.20059 13.5245 7.20059 13.7087Z" fill="white"/>
<path d="M12.3267 13.7087C12.3267 13.8929 12.1775 14.0421 11.9936 14.0421C11.8094 14.0421 11.6602 13.8929 11.6602 13.7087C11.6602 13.5245 11.8094 13.3752 11.9936 13.3752C12.1775 13.3752 12.3267 13.5245 12.3267 13.7087Z" fill="white"/>
<path d="M13.7933 15.7413C13.7933 16.213 13.4108 16.5956 12.9387 16.5956C12.467 16.5956 12.0845 16.213 12.0845 15.7413C12.0845 15.2693 12.467 14.8867 12.9387 14.8867C13.4108 14.8867 13.7933 15.2693 13.7933 15.7413Z" fill="#EAB599"/>
<path d="M6.16508 15.7413C6.16508 16.213 5.78284 16.5956 5.31081 16.5956C4.8391 16.5956 4.45654 16.213 4.45654 15.7413C4.45654 15.2693 4.8391 14.8867 5.31081 14.8867C5.78284 14.8867 6.16508 15.2693 6.16508 15.7413Z" fill="#EAB599"/>
<path d="M39.1599 26.4342V29.0005C37.1401 33.4276 33.5914 37.0096 29.1893 39.0731C28.3919 39.4463 27.5661 39.7701 26.7159 40.0394C25.7597 40.345 24.7731 40.5799 23.7605 40.7413C23.7565 40.7423 23.7514 40.7432 23.7471 40.7432V26.4342C23.7471 23.3844 26.0959 20.8823 29.0848 20.6414C29.2421 20.6279 29.4001 20.6223 29.5599 20.6223H33.3455C33.7931 20.6223 34.2289 20.6714 34.6474 20.7678C37.2312 21.3583 39.1599 23.6722 39.1599 26.4342Z" fill="#BFD5DE"/>
<path d="M39.1598 26.4342V29.0005C37.1401 33.4276 33.5913 37.0096 29.1892 39.0731C28.3918 39.4463 27.566 39.7701 26.7158 40.0394V26.4342C26.7158 23.2245 29.319 20.6223 32.5296 20.6223H33.346C36.5576 20.6223 39.1598 23.2245 39.1598 26.4342Z" fill="#DDE8ED"/>
<path d="M25.7638 14.211C25.7638 15.1714 25.0625 15.9674 24.1441 16.1151C24.0436 16.1314 23.9404 16.1398 23.835 16.1398C22.7696 16.1398 21.9062 15.2765 21.9062 14.211C21.9062 13.1456 22.7696 12.2823 23.835 12.2823C23.9404 12.2823 24.0436 12.2907 24.1441 12.307C25.0625 12.455 25.7638 13.251 25.7638 14.211Z" fill="#D3A489"/>
<path d="M33.0142 22.7191L31.4537 25.2221L29.8931 22.7191" fill="#F74F4F"/>
<path d="M33.5529 32.2928L31.4534 34.9422L29.3535 32.2928L31.4537 24.5709L33.5529 32.2928Z" fill="#F74F4F"/>
<path d="M25.7638 14.2111C25.7638 15.1714 25.0625 15.9675 24.1441 16.1151C23.9773 15.5086 23.8882 14.8701 23.8882 14.2111C23.8882 13.5523 23.9773 12.9138 24.1441 12.307C25.0625 12.455 25.7638 13.2511 25.7638 14.2111Z" fill="#BF8E75"/>
<path d="M24.5245 14.2111C24.5245 14.5917 24.2158 14.9005 23.8351 14.9005C23.4544 14.9005 23.146 14.5917 23.146 14.2111C23.146 13.8304 23.4544 13.5219 23.8351 13.5219C24.2158 13.5219 24.5245 13.8304 24.5245 14.2111Z" fill="#BF8E75"/>
<path d="M31.4531 23.0015L28.8361 24.456L28.04 20.7527L29.666 19.7949" fill="#BFD5DE"/>
<path d="M31.4526 23.0015L34.0699 24.456L34.866 20.7527L33.2397 19.7949" fill="#BFD5DE"/>
<path d="M37.1426 14.211C37.1426 15.1714 37.8439 15.9674 38.7623 16.1151C38.8627 16.1314 38.9659 16.1398 39.0713 16.1398C40.1367 16.1398 41.0001 15.2765 41.0001 14.211C41.0001 13.1456 40.1367 12.2823 39.0713 12.2823C38.9659 12.2823 38.8627 12.2907 38.7623 12.307C37.8439 12.455 37.1426 13.251 37.1426 14.211Z" fill="#D3A489"/>
<path d="M37.1426 14.2111C37.1426 15.1714 37.8439 15.9675 38.7623 16.1151C38.9293 15.5086 39.0182 14.8701 39.0182 14.2111C39.0182 13.5523 38.9293 12.9138 38.7623 12.307C37.8439 12.455 37.1426 13.2511 37.1426 14.2111Z" fill="#BF8E75"/>
<path d="M39.7607 14.2111C39.7607 14.5917 39.4519 14.9005 39.0713 14.9005C38.6906 14.9005 38.3818 14.5917 38.3818 14.2111C38.3818 13.8304 38.6906 13.5219 39.0713 13.5219C39.4519 13.5219 39.7607 13.8304 39.7607 14.2111Z" fill="#BF8E75"/>
<path d="M38.6298 13.186C38.6298 16.757 36.021 19.7196 32.6052 20.2695C32.2307 20.3311 31.846 20.3621 31.4534 20.3621C27.4899 20.3621 24.2773 17.1496 24.2773 13.186C24.2773 11.3108 24.9286 8.49552 26.1063 7.21708C27.4176 5.7935 29.3651 6.00965 31.4534 6.00965C31.846 6.00965 32.2304 6.04093 32.6052 6.10256C36.021 6.65247 38.6298 9.61473 38.6298 13.186Z" fill="#BF8E75"/>
<path d="M33.5275 18.3826V20.9279C33.5275 21.8598 32.9132 22.6474 32.0667 22.9089C31.8731 22.969 31.6666 23.0015 31.453 23.0015C30.3078 23.0015 29.3794 22.0731 29.3794 20.9279V18.3826H33.5275Z" fill="#BF8E75"/>
<path d="M33.5274 20.7665V20.9279C33.5274 21.8598 32.9131 22.6474 32.0666 22.9089C31.3031 22.6743 30.7291 22.0102 30.623 21.1979C30.7616 21.2063 30.9008 21.2107 31.041 21.2107C31.4332 21.2107 31.818 21.1794 32.1927 21.1181C32.6544 21.0437 33.1005 20.9251 33.5274 20.7665Z" fill="#D3A489"/>
<path d="M38.6295 13.186C38.6295 16.757 36.0207 19.7196 32.6049 20.2695C29.1894 19.7196 26.5806 16.757 26.5806 13.186C26.5806 10.987 27.5697 9.0188 29.1277 7.7022C30.0993 6.88078 31.2927 6.31366 32.6049 6.1022C35.7892 6.61489 38.2732 9.22525 38.5942 12.4703C38.6176 12.7058 38.6295 12.9448 38.6295 13.186Z" fill="#D3A489"/>
<path d="M31.4533 16.7204C30.8521 16.7204 30.2515 16.5699 29.7038 16.2687C29.549 16.1839 29.4927 15.9897 29.5777 15.8352C29.6625 15.6806 29.8568 15.6243 30.0113 15.7094C30.914 16.2055 31.9923 16.2055 32.8954 15.7094C33.0496 15.6243 33.2438 15.6806 33.3286 15.8352C33.4137 15.9897 33.3574 16.1839 33.2028 16.2687C32.6551 16.5699 32.0539 16.7204 31.4533 16.7204Z" fill="#BF8E75"/>
<path d="M29.925 12.7684C29.925 13.2179 29.5606 13.5823 29.1108 13.5823C28.6613 13.5823 28.2969 13.2179 28.2969 12.7684C28.2969 12.3186 28.6613 11.9542 29.1108 11.9542C29.5606 11.9542 29.925 12.3186 29.925 12.7684Z" fill="#3D4159"/>
<path d="M34.6096 12.7684C34.6096 13.2179 34.2452 13.5823 33.7957 13.5823C33.3459 13.5823 32.9814 13.2179 32.9814 12.7684C32.9814 12.3186 33.3459 11.9542 33.7957 11.9542C34.2452 11.9542 34.6096 12.3186 34.6096 12.7684Z" fill="#3D4159"/>
<path d="M29.7591 12.6245C29.7591 12.8172 29.603 12.9736 29.4103 12.9736C29.2176 12.9736 29.0615 12.8172 29.0615 12.6245C29.0615 12.4321 29.2176 12.2757 29.4103 12.2757C29.603 12.2757 29.7591 12.4321 29.7591 12.6245Z" fill="white"/>
<path d="M34.4837 12.6245C34.4837 12.8172 34.3276 12.9736 34.1349 12.9736C33.9422 12.9736 33.7861 12.8172 33.7861 12.6245C33.7861 12.4321 33.9422 12.2757 34.1349 12.2757C34.3276 12.2757 34.4837 12.4321 34.4837 12.6245Z" fill="white"/>
<path d="M32.2675 14.8179H30.6394C30.4454 14.8179 30.2881 14.6606 30.2881 14.4666C30.2881 14.2727 30.4454 14.1157 30.6394 14.1157H32.2675C32.4615 14.1157 32.6188 14.2727 32.6188 14.4666C32.6185 14.6606 32.4615 14.8179 32.2675 14.8179Z" fill="#BF8E75"/>
<path d="M33.8159 26.2437H36.9443V27.2012H33.8159V26.2437Z" fill="#BFD5DE"/>
<path d="M31.0332 3.95978C33.2072 4.11493 34.9527 5.87102 35.0631 8.08161L35.0837 8.49671H36.3343L37.0078 12.9755L38.6391 12.4706L38.4201 8.08193C38.3044 5.75966 36.3837 3.93976 34.0596 3.94852L31.0332 3.95978Z" fill="#2A2F4F"/>
<path d="M38.2821 2.22748C40.0132 3.95854 40.0132 6.76534 38.2821 8.49641C36.551 10.2275 33.7442 10.2275 32.0132 8.49641L38.2821 2.22748Z" fill="#3D4159"/>
<path d="M32.0129 8.49639H26.5726L25.8989 12.9754L24.2676 12.4706L24.4862 8.08161C24.602 5.75997 26.5226 3.93944 28.847 3.9482L36.7044 3.97791L37.7432 5.84755" fill="#3D4159"/>
<path d="M31.8734 3.95978C29.6994 4.11493 27.954 5.87102 27.8436 8.08161L27.8229 8.49671H26.5726L25.8989 12.9755L24.2676 12.4706L24.4865 8.08193C24.6023 5.75966 26.5229 3.93976 28.847 3.94852L31.8734 3.95978Z" fill="#2A2F4F"/>
<path d="M29.1893 37.536V39.0731C26.5511 40.309 23.6067 41 20.4999 41C17.3931 41 14.4478 40.309 11.8096 39.0722V37.536C11.8096 34.5027 13.8688 31.9515 16.6659 31.2036C16.7682 31.176 16.8711 31.1507 16.9755 31.1282C17.2533 31.0678 17.5386 31.0262 17.8283 31.0027C18.0056 30.9883 18.1839 30.9808 18.3647 30.9808H22.6336C23.1112 30.9808 23.5757 31.0312 24.0243 31.1282C24.0503 31.1332 24.0762 31.1391 24.1012 31.1451C24.1766 31.1626 24.2517 31.181 24.3262 31.201C24.329 31.2017 24.3296 31.2017 24.3321 31.2026C25.0703 31.4 25.7572 31.7231 26.3672 32.1473C28.0732 33.3306 29.1893 35.3026 29.1893 37.536Z" fill="#3D4159"/>
<path d="M24.3482 31.1282L24.3323 31.2026L22.2415 40.9265C22.1332 40.9356 22.0247 40.944 21.9158 40.9515C21.7626 40.9615 21.6087 40.9706 21.4538 40.9775C21.1376 40.9925 20.8198 41 20.5001 41C20.172 41 19.8466 40.9925 19.5229 40.9765C19.3765 40.97 19.2298 40.9615 19.0834 40.9506C18.9739 40.9431 18.8651 40.9356 18.7562 40.9265L16.666 31.2036L16.6504 31.1282H24.3482Z" fill="#66BAED"/>
<path d="M22.2591 33.3463L20.4993 36.1684L18.7397 33.3463" fill="#3D4159"/>
<path d="M21.9159 40.9515C21.7627 40.9615 21.6088 40.9706 21.4539 40.9775C21.1377 40.9925 20.8199 41 20.5002 41C20.1721 41 19.8467 40.9925 19.523 40.9766C19.3766 40.97 19.2299 40.9615 19.0835 40.9506L20.5002 35.434L21.9159 40.9515Z" fill="#3D4159"/>
<path d="M20.499 33.6644L17.5477 35.3045L16.6499 31.1288L18.4836 30.0487" fill="#2BA1CF"/>
<path d="M20.499 33.6644L23.45 35.3045L24.3478 31.1288L22.5141 30.0487" fill="#2BA1CF"/>
<path d="M24.4594 36.7637H25.3956L23.7606 40.7413C23.0042 40.8627 22.2344 40.9421 21.4536 40.9775L24.3261 31.2011L24.348 31.1282L26.3672 31.7876L24.4594 36.7637Z" fill="#2A2F4F"/>
<path d="M19.5226 40.9765C18.7409 40.9406 17.9704 40.8595 17.2141 40.7372L15.5806 36.7637H16.5168L14.6084 31.7876L16.6282 31.1282L16.6501 31.2011L19.5226 40.9765Z" fill="#2A2F4F"/>
<path d="M22.8383 28.4559V31.3259C22.8383 32.3769 22.1455 33.2649 21.1911 33.5599C20.9725 33.6278 20.7397 33.6644 20.4989 33.6644C19.2073 33.6644 18.1606 32.6174 18.1606 31.3259V28.4559H22.8383Z" fill="#EAB599"/>
<path d="M22.8384 31.1441V31.3262C22.8384 32.3769 22.1455 33.265 21.1911 33.5602C20.33 33.2953 19.6825 32.5468 19.563 31.6305C19.7194 31.6402 19.8764 31.6449 20.0341 31.6449C20.4767 31.6449 20.9106 31.6099 21.3328 31.5408C21.8537 31.4569 22.3567 31.3227 22.8384 31.1441Z" fill="#F6CAAE"/>
<path d="M14.0836 23.7519C14.0836 24.8345 13.2925 25.7323 12.2568 25.899C12.1436 25.9171 12.0272 25.9268 11.9086 25.9268C10.7072 25.9268 9.7334 24.9534 9.7334 23.7519C9.7334 22.5504 10.7068 21.5767 11.9086 21.5767C12.0272 21.5767 12.1436 21.5864 12.2568 21.6048C13.2925 21.7715 14.0836 22.6693 14.0836 23.7519Z" fill="#F6CAAE"/>
<path d="M14.0839 23.7519C14.0839 24.8345 13.2929 25.7323 12.2572 25.899C12.0692 25.2149 11.9688 24.4948 11.9688 23.7519C11.9688 23.0087 12.0692 22.2889 12.2572 21.6048C13.2929 21.7716 14.0839 22.6693 14.0839 23.7519Z" fill="#EAB599"/>
<path d="M12.686 23.7519C12.686 24.1811 12.3378 24.5293 11.9087 24.5293C11.4792 24.5293 11.1313 24.1811 11.1313 23.7519C11.1313 23.3224 11.4792 22.9746 11.9087 22.9746C12.3378 22.9746 12.686 23.3224 12.686 23.7519Z" fill="#EAB599"/>
<path d="M26.9146 23.7519C26.9146 24.8345 27.7056 25.7323 28.7413 25.899C28.8543 25.9171 28.9709 25.9268 29.0895 25.9268C30.291 25.9268 31.2647 24.9534 31.2647 23.7519C31.2647 22.5504 30.2913 21.5767 29.0895 21.5767C28.9709 21.5767 28.8543 21.5864 28.7413 21.6048C27.7056 21.7715 26.9146 22.6693 26.9146 23.7519Z" fill="#F6CAAE"/>
<path d="M26.9146 23.7519C26.9146 24.8345 27.7056 25.7323 28.7413 25.899C28.9293 25.2149 29.0297 24.4948 29.0297 23.7519C29.0297 23.0087 28.9293 22.2889 28.7413 21.6048C27.7056 21.7716 26.9146 22.6693 26.9146 23.7519Z" fill="#EAB599"/>
<path d="M28.5915 19.5147V22.5961C28.5915 26.6232 25.6495 29.9636 21.7976 30.5836C21.7848 30.5858 21.771 30.588 21.7582 30.5902C21.3484 30.6559 20.928 30.6881 20.4989 30.6881C16.0298 30.6881 12.4072 27.0652 12.4072 22.5964V19.5147C12.4072 18.5738 12.5677 17.6694 12.8642 16.8292C13.9709 13.6799 16.9717 11.4221 20.4989 11.4221H20.4995C20.928 11.4221 21.3491 11.4552 21.7595 11.52C25.6301 12.1246 28.5915 15.4742 28.5915 19.5147Z" fill="#EAB599"/>
<path d="M29.8671 23.7519C29.8671 24.1811 29.5193 24.5293 29.0898 24.5293C28.6607 24.5293 28.3125 24.1811 28.3125 23.7519C28.3125 23.3224 28.6607 22.9746 29.0898 22.9746C29.5193 22.9746 29.8671 23.3224 29.8671 23.7519Z" fill="#EAB599"/>
<path d="M28.5915 19.5147V22.5961C28.5915 26.6228 25.6499 29.9636 21.798 30.5836C21.7849 30.5858 21.7714 30.588 21.7583 30.5902C17.8879 29.9852 14.9272 26.636 14.9272 22.5961V19.5147C14.9272 15.4742 17.8886 12.1246 21.7598 11.52C25.6305 12.1246 28.5915 15.4742 28.5915 19.5147Z" fill="#F6CAAE"/>
<path d="M18.7758 22.1247C18.7758 22.6318 18.3648 23.0428 17.858 23.0428C17.351 23.0428 16.9399 22.6318 16.9399 22.1247C16.9399 21.618 17.351 21.2069 17.858 21.2069C18.3648 21.2069 18.7758 21.618 18.7758 22.1247Z" fill="#3D4159"/>
<path d="M24.0588 22.1247C24.0588 22.6318 23.6478 23.0428 23.1407 23.0428C22.6337 23.0428 22.2227 22.6318 22.2227 22.1247C22.2227 21.618 22.6337 21.2069 23.1407 21.2069C23.6478 21.2069 24.0588 21.618 24.0588 22.1247Z" fill="#3D4159"/>
<path d="M18.589 21.963C18.589 22.1801 18.4128 22.3562 18.1954 22.3562C17.9784 22.3562 17.8022 22.1801 17.8022 21.963C17.8022 21.7456 17.9784 21.5695 18.1954 21.5695C18.4128 21.5695 18.589 21.7456 18.589 21.963Z" fill="white"/>
<path d="M23.9166 21.963C23.9166 22.1801 23.7405 22.3562 23.5234 22.3562C23.306 22.3562 23.1299 22.1801 23.1299 21.963C23.1299 21.7456 23.306 21.5695 23.5234 21.5695C23.7405 21.5695 23.9166 21.7456 23.9166 21.963Z" fill="white"/>
<path d="M21.4172 24.0763H19.5811C19.3624 24.0763 19.1851 23.8989 19.1851 23.6803C19.1851 23.4613 19.3624 23.2843 19.5811 23.2843H21.4172C21.6359 23.2843 21.8132 23.4613 21.8132 23.6803C21.8129 23.8989 21.6356 24.0763 21.4172 24.0763Z" fill="#EAB599"/>
<path d="M20.4994 26.5816C19.8219 26.5816 19.144 26.4117 18.5266 26.072C18.3523 25.9763 18.2885 25.7573 18.3846 25.5834C18.4803 25.4092 18.6992 25.3457 18.8735 25.4411C19.8917 26.001 21.1072 26.001 22.1254 25.4411C22.2996 25.3454 22.5186 25.4089 22.6143 25.5834C22.7103 25.7573 22.6465 25.9763 22.4723 26.072C21.8545 26.4117 21.177 26.5816 20.4994 26.5816Z" fill="#EAB599"/>
<path d="M28.5918 16.7182V19.8747H27.0856V17.4026L16.2138 15.3825L13.9134 14.9549V19.8747H12.4072V16.7179C12.4072 13.1194 15.3238 10.2028 18.9217 10.2028H22.0773C22.163 10.2028 22.2487 10.2043 22.3344 10.2087C25.8125 10.3426 28.5918 13.2054 28.5918 16.7182Z" fill="#2A2F4F"/>
<path d="M28.5919 16.7182V19.8747H27.0857V17.4026L16.2139 15.3825C16.8129 12.5053 19.3091 10.3254 22.3345 10.2087C25.8126 10.3426 28.5919 13.2054 28.5919 16.7182Z" fill="#3D4159"/>
</g>
<defs>
<clipPath id="clip0">
<rect width="41" height="41" fill="white"/>
</clipPath>
</defs>
</svg>
