<svg width="36" height="36" viewBox="0 0 36 36" fill="none" xmlns="http://www.w3.org/2000/svg">
<path d="M29.1725 36H3.10352V2.48276H20.4828L29.1725 11.1724V36Z" fill="#FCF05A"/>
<path d="M32.8966 32.2759H6.82764V0H24.2069L32.8966 8.68966V32.2759Z" fill="#FDBD40"/>
<path d="M24.207 8.68966H32.8967L24.207 0V8.68966Z" fill="#F49E21"/>
<path d="M11.7932 27.3103H10.5518C10.2091 27.3103 9.93115 27.0324 9.93115 26.6897C9.93115 26.3469 10.2091 26.069 10.5518 26.069H11.7932C12.136 26.069 12.4139 26.3469 12.4139 26.6897C12.4139 27.0324 12.136 27.3103 11.7932 27.3103Z" fill="#E9686A"/>
<path d="M29.1725 27.3103H14.276C13.9332 27.3103 13.6553 27.0324 13.6553 26.6897C13.6553 26.3469 13.9332 26.069 14.276 26.069H29.1725C29.5153 26.069 29.7932 26.3469 29.7932 26.6897C29.7932 27.0324 29.5153 27.3103 29.1725 27.3103Z" fill="#E9686A"/>
<path d="M11.7932 23.5862H10.5518C10.2091 23.5862 9.93115 23.3083 9.93115 22.9655C9.93115 22.6227 10.2091 22.3448 10.5518 22.3448H11.7932C12.136 22.3448 12.4139 22.6227 12.4139 22.9655C12.4139 23.3083 12.136 23.5862 11.7932 23.5862Z" fill="#E9686A"/>
<path d="M29.1725 23.5862H14.276C13.9332 23.5862 13.6553 23.3083 13.6553 22.9655C13.6553 22.6227 13.9332 22.3448 14.276 22.3448H29.1725C29.5153 22.3448 29.7932 22.6227 29.7932 22.9655C29.7932 23.3083 29.5153 23.5862 29.1725 23.5862Z" fill="#E9686A"/>
<path d="M11.7932 19.8621H10.5518C10.2091 19.8621 9.93115 19.5842 9.93115 19.2414C9.93115 18.8986 10.2091 18.6207 10.5518 18.6207H11.7932C12.136 18.6207 12.4139 18.8986 12.4139 19.2414C12.4139 19.5842 12.136 19.8621 11.7932 19.8621Z" fill="#E9686A"/>
<path d="M29.1725 19.8621H14.276C13.9332 19.8621 13.6553 19.5842 13.6553 19.2414C13.6553 18.8986 13.9332 18.6207 14.276 18.6207H29.1725C29.5153 18.6207 29.7932 18.8986 29.7932 19.2414C29.7932 19.5842 29.5153 19.8621 29.1725 19.8621Z" fill="#E9686A"/>
<path d="M11.7932 16.1379H10.5518C10.2091 16.1379 9.93115 15.86 9.93115 15.5172C9.93115 15.1745 10.2091 14.8966 10.5518 14.8966H11.7932C12.136 14.8966 12.4139 15.1745 12.4139 15.5172C12.4139 15.86 12.136 16.1379 11.7932 16.1379Z" fill="#E9686A"/>
<path d="M29.1725 16.1379H14.276C13.9332 16.1379 13.6553 15.86 13.6553 15.5172C13.6553 15.1745 13.9332 14.8966 14.276 14.8966H29.1725C29.5153 14.8966 29.7932 15.1745 29.7932 15.5172C29.7932 15.86 29.5153 16.1379 29.1725 16.1379Z" fill="#E9686A"/>
<path d="M11.7932 12.4138H10.5518C10.2091 12.4138 9.93115 12.1359 9.93115 11.7931C9.93115 11.4503 10.2091 11.1724 10.5518 11.1724H11.7932C12.136 11.1724 12.4139 11.4503 12.4139 11.7931C12.4139 12.1359 12.136 12.4138 11.7932 12.4138Z" fill="#E9686A"/>
<path d="M29.1725 12.4138H14.276C13.9332 12.4138 13.6553 12.1359 13.6553 11.7931C13.6553 11.4503 13.9332 11.1724 14.276 11.1724H29.1725C29.5153 11.1724 29.7932 11.4503 29.7932 11.7931C29.7932 12.1359 29.5153 12.4138 29.1725 12.4138Z" fill="#E9686A"/>
<path d="M10.5518 5.58621H14.2759V9.31035H10.5518V5.58621Z" fill="#E9686A"/>
</svg>
