<svg width="41" height="41" viewBox="0 0 41 41" fill="none" xmlns="http://www.w3.org/2000/svg">
<g clip-path="url(#clip0)">
<path d="M41.0191 20.5303C41.0191 26.4392 38.516 31.7629 34.5115 35.499C33.371 36.5644 32.1085 37.4994 30.7469 38.282C29.9204 38.7584 29.0583 39.1779 28.165 39.5361C25.8114 40.4804 23.2414 41 20.5497 41C15.7913 41 11.4127 39.3765 7.93712 36.6539C6.57673 35.5879 5.35522 34.3545 4.30264 32.9834C1.65411 29.5338 0.0800781 25.2159 0.0800781 20.5303C0.0800781 14.5517 2.64352 9.17114 6.73157 5.42999C7.57614 4.65549 8.48672 3.95105 9.45329 3.327C12.6502 1.25999 16.4598 0.0610046 20.5497 0.0610046C31.8545 0.0610046 41.0191 9.22557 41.0191 20.5303Z" fill="#FF806D"/>
<path d="M28.1651 31.2514V39.5361C25.8115 40.4804 23.2415 41 20.5498 41C15.7914 41 11.4128 39.3766 7.93722 36.6539C6.57683 35.5879 5.35532 34.3545 4.30273 32.9834V31.2514C4.30273 28.7093 6.36381 26.6479 8.90535 26.6479H23.5625C26.104 26.6479 28.1651 28.7093 28.1651 31.2514Z" fill="#394852"/>
<path d="M28.1649 31.2514V39.5361C25.8113 40.4804 23.2413 41 20.5496 41C15.7912 41 11.4126 39.3766 7.93701 36.6539V31.2514C7.93701 28.7093 9.99715 26.6479 12.5396 26.6479H23.5623C26.1038 26.6479 28.1649 28.7093 28.1649 31.2514Z" fill="#4F5F68"/>
<path d="M21.2555 26.6479L17.6804 32.8389L16.2334 35.3454L14.787 32.8405L11.2119 26.6479H21.2555Z" fill="#E8F1F5"/>
<path d="M18.361 26.6479L16.2333 30.3334L14.106 26.6479H18.361Z" fill="#1E7FCA"/>
<path d="M17.6806 32.8389L16.2335 35.3454L14.7871 32.8405L16.2351 30.3333L17.6806 32.8389Z" fill="#1E7FCA"/>
<path d="M16.2334 35.3454V38.5811L21.3105 33.504L19.9968 32.1902L23.6309 30.4356L23.5621 26.6479H21.2555L16.2334 35.3454Z" fill="#394852"/>
<path d="M16.2333 35.3454V38.5811L11.1558 33.504L12.4696 32.1902L8.83545 30.4356L8.90427 26.6479H11.2109L16.2333 35.3454Z" fill="#394852"/>
<path d="M20.4979 38.644C20.4979 39.232 20.0212 39.7091 19.4328 39.7091C18.8444 39.7091 18.3677 39.232 18.3677 38.644C18.3677 38.0556 18.8444 37.5786 19.4328 37.5786C20.0212 37.5786 20.4979 38.0556 20.4979 38.644Z" fill="#394852"/>
<path d="M26.1394 8.89962V16.3219H26.1194C25.7697 16.0463 25.327 16.8336 24.8134 16.8336C24.698 16.8336 24.5869 16.8414 24.4809 16.858H7.98637C7.88033 16.8414 7.76929 16.8336 7.65386 16.8336C7.1931 16.8336 6.78896 16.0147 6.45801 16.2412V6.59988C6.45801 5.03085 7.97636 3.911 9.47501 4.37302C10.319 1.69071 12.792 0 15.433 0C16.1572 0 16.8932 0.126686 17.6117 0.395386C17.6433 0.40696 17.6749 0.419159 17.7062 0.431358L21.3234 1.84555C24.2278 2.98103 26.1394 5.78095 26.1394 8.89962Z" fill="#4F5F68"/>
<path d="M12.4126 5.41998C12.4126 7.92742 14.4477 10.7158 14.4477 10.7158L12.5693 15.9086L7.98637 16.858C7.88033 16.8414 7.76929 16.8336 7.65386 16.8336C7.1931 16.8336 6.78896 16.0147 6.45801 16.2412V6.59988C6.45801 5.03085 7.97636 3.911 9.47501 4.37302C10.319 1.69071 12.792 0 15.433 0C16.1572 0 16.8932 0.126686 17.6117 0.395386C14.8634 -0.589012 12.4126 2.94099 12.4126 5.41998Z" fill="#394852"/>
<path d="M18.5988 23.4416V26.1233C18.5988 27.1465 17.9494 28.017 17.0404 28.3467C16.7889 28.4384 16.5174 28.4878 16.2343 28.4878H16.2337C14.9283 28.4878 13.8701 27.4296 13.8701 26.1233V23.4426L18.5988 23.4416Z" fill="#E5C7AF"/>
<path d="M18.5987 25.1348V26.1233C18.5987 27.1465 17.9493 28.017 17.0403 28.3467C16.131 28.0176 15.4819 27.1465 15.4819 26.1233V25.4442C15.729 25.467 15.9799 25.4786 16.2336 25.4786C17.0553 25.4786 17.8492 25.3582 18.5987 25.1348Z" fill="#F2D6BC"/>
<path d="M24.4811 15.909C24.5871 15.8924 24.6982 15.8846 24.8136 15.8846C26.1318 15.8846 26.9857 16.9528 26.9857 18.2709C26.9857 19.5891 25.757 21.3902 24.4389 21.3902C24.1423 21.3902 23.8958 21.2995 23.6916 21.1431H8.77608C8.57214 21.2995 8.32565 21.3902 8.02911 21.3902C6.71063 21.3902 5.48193 19.5891 5.48193 18.2709C5.48193 16.9528 6.33589 15.8846 7.65437 15.8846C7.76948 15.8846 7.88052 15.8924 7.98656 15.909" fill="#E5C7AF"/>
<path d="M8.22571 20.1368C7.98172 20.1368 7.76088 19.9695 7.70301 19.7217C7.60385 19.3035 7.2654 18.5231 6.89597 18.5231C6.59943 18.5231 6.35889 18.2825 6.35889 17.986C6.35889 17.6891 6.59943 17.4486 6.89597 17.4486C8.23947 17.4486 8.70148 19.27 8.74966 19.4777C8.8166 19.7668 8.63705 20.0555 8.34801 20.1227C8.30704 20.1321 8.26606 20.1368 8.22571 20.1368Z" fill="#DDBCA2"/>
<path d="M24.242 20.1368C24.2017 20.1368 24.161 20.1321 24.12 20.1227C23.831 20.0555 23.6511 19.7668 23.7181 19.4777C23.7666 19.27 24.2283 17.4486 25.5718 17.4486C25.8686 17.4486 26.1092 17.6891 26.1092 17.986C26.1092 18.2825 25.8686 18.5231 25.5718 18.5231C25.203 18.5231 24.8589 19.3163 24.765 19.7208C24.7072 19.9692 24.4863 20.1368 24.242 20.1368Z" fill="#DDBCA2"/>
<path d="M9.98421 7.61462C14.7054 12.7559 24.4812 12.9708 24.4812 12.9708V17.6197C24.4812 19.8972 23.5578 21.9586 22.0654 23.451C20.573 24.944 18.511 25.8668 16.2334 25.8668C11.679 25.8668 7.98633 22.1741 7.98633 17.6197V12.9958C7.98633 10.9388 8.73862 9.05885 9.9839 7.61462H9.98421Z" fill="#F2D6BC"/>
<path d="M10.7683 17.6197V12.9958C10.7683 11.6057 11.1124 10.2966 11.7195 9.14799C11.0927 8.69318 10.5074 8.18424 9.98439 7.61462C9.98408 7.61462 9.98408 7.61462 9.98408 7.61462C8.7388 9.05885 7.98682 10.9388 7.98682 12.9958V17.6197C7.98682 22.1741 11.6792 25.8668 16.2336 25.8668C16.7078 25.8668 17.1723 25.8261 17.6247 25.7492C13.7324 25.0882 10.7683 21.7002 10.7683 17.6197Z" fill="#E5C7AF"/>
<path d="M11.5128 14.8933C11.2729 14.8933 11.0543 14.7316 10.9923 14.4885C10.9191 14.2011 11.0927 13.9086 11.3805 13.8351L13.8163 13.2142C14.1038 13.141 14.3963 13.3146 14.4698 13.6024C14.543 13.8898 14.3694 14.1823 14.0819 14.2558L11.6458 14.8767C11.6014 14.888 11.5566 14.8933 11.5128 14.8933Z" fill="#DDBCA2"/>
<path d="M20.9552 14.8933C20.9111 14.8933 20.8667 14.888 20.822 14.8767L18.3862 14.2558C18.0987 14.1823 17.9248 13.8898 17.9983 13.6024C18.0715 13.3146 18.364 13.141 18.6517 13.2142L21.0875 13.8351C21.375 13.9086 21.5489 14.2011 21.4754 14.4885C21.4135 14.7316 21.1948 14.8933 20.9552 14.8933Z" fill="#DDBCA2"/>
<path d="M13.0337 17.2096C12.7371 17.2096 12.4966 16.969 12.4966 16.6725V16.0754C12.4966 15.7785 12.7371 15.538 13.0337 15.538C13.3305 15.538 13.5711 15.7785 13.5711 16.0754V16.6725C13.5711 16.969 13.3305 17.2096 13.0337 17.2096Z" fill="#3D474F"/>
<path d="M19.4339 17.2096C19.137 17.2096 18.8965 16.969 18.8965 16.6725V16.0754C18.8965 15.7785 19.137 15.538 19.4339 15.538C19.7307 15.538 19.9713 15.7785 19.9713 16.0754V16.6725C19.9713 16.969 19.7307 17.2096 19.4339 17.2096Z" fill="#3D474F"/>
<path d="M16.2338 19.3789C15.785 19.3789 15.3364 19.2081 14.9948 18.8665C14.7849 18.6566 14.7849 18.3163 14.9948 18.1067C15.2047 17.8968 15.545 17.8968 15.7549 18.1067C16.0189 18.3707 16.4484 18.3707 16.7127 18.1067C16.9223 17.8968 17.2627 17.8968 17.4726 18.1067C17.6824 18.3166 17.6824 18.6566 17.4726 18.8665C17.131 19.2081 16.6824 19.3789 16.2338 19.3789Z" fill="#E5C7AF"/>
<path d="M16.2342 22.2564C15.4263 22.2564 14.6183 22.0537 13.8819 21.6489C13.672 21.5338 13.5957 21.2701 13.7108 21.0605C13.8263 20.851 14.0896 20.7743 14.2992 20.8898C15.5107 21.5557 16.9574 21.5557 18.1692 20.8898C18.3791 20.7743 18.6422 20.851 18.7576 21.0605C18.8727 21.2701 18.7961 21.5338 18.5865 21.6489C17.8502 22.0537 17.0422 22.2564 16.2342 22.2564Z" fill="#DDBCA2"/>
<path d="M38.0003 0.412598H24.7032C23.1724 0.412598 21.9312 1.65381 21.9312 3.18468V11.8431C21.9312 13.374 23.1724 14.6149 24.7032 14.6149H26.8556V17.1308C26.8556 17.7035 27.5482 17.9904 27.9533 17.5853L30.9237 14.6149H38.0006C39.5314 14.6149 40.7723 13.374 40.7723 11.8431V3.18468C40.7723 1.65381 39.5311 0.412598 38.0003 0.412598Z" fill="#BFECF5"/>
<path d="M36.9541 4.83753H25.7491C25.1973 4.83753 24.75 4.39022 24.75 3.83843C24.75 3.28633 25.1973 2.83902 25.7491 2.83902H36.9538C37.5059 2.83902 37.9532 3.28633 37.9532 3.83843C37.9532 4.39022 37.5059 4.83753 36.9541 4.83753Z" fill="#394852"/>
<path d="M35.5264 8.69128H25.7491C25.1973 8.69128 24.75 8.24397 24.75 7.69218C24.75 7.1404 25.1973 6.69308 25.7491 6.69308H35.5264C36.0782 6.69308 36.5255 7.1404 36.5255 7.69218C36.5255 8.24397 36.0782 8.69128 35.5264 8.69128Z" fill="#394852"/>
</g>
<defs>
<clipPath id="clip0">
<rect width="41" height="41" fill="white"/>
</clipPath>
</defs>
</svg>
