<svg width="34" height="34" viewBox="0 0 34 34" fill="none" xmlns="http://www.w3.org/2000/svg">
<path d="M22.528 9.47055C22.0593 9.47081 21.6053 9.63354 21.2432 9.93102C20.8811 10.2285 20.6333 10.6423 20.5421 11.102C20.451 11.5616 20.522 12.0387 20.7431 12.4519C20.9642 12.865 21.3217 13.1888 21.7548 13.3679C22.1878 13.547 22.6696 13.5705 23.118 13.4343C23.5663 13.298 23.9536 13.0105 24.2138 12.6208C24.474 12.231 24.591 11.7631 24.5449 11.2968C24.4988 10.8304 24.2924 10.3945 23.9609 10.0633C23.7729 9.87492 23.5495 9.72558 23.3036 9.62386C23.0577 9.52214 22.7941 9.47004 22.528 9.47055Z" fill="#CA74D6"/>
<path d="M33.8056 1.37046C33.8053 1.3682 33.8053 1.36589 33.8056 1.36363C33.7414 1.08231 33.5999 0.824514 33.397 0.619341C33.1941 0.414168 32.9379 0.269778 32.6573 0.202463C30.3956 -0.349281 26.8377 0.238892 22.8949 1.81747C18.921 3.41123 15.1976 5.76392 12.6809 8.28509C11.8742 9.08745 11.1248 9.94537 10.4382 10.8526C8.74341 10.7767 7.25055 11.018 5.99296 11.5667C1.61075 13.4952 0.359235 18.4305 0.0260533 20.4569C-0.0221589 20.7448 -0.00328129 21.0399 0.0812173 21.3194C0.165716 21.5988 0.313556 21.855 0.513232 22.0679C0.712909 22.2809 0.959035 22.4449 1.23246 22.5472C1.50588 22.6495 1.79922 22.6873 2.08965 22.6578H2.09952L6.98112 22.125C6.98719 22.1872 6.99402 22.2441 6.99933 22.2965C7.06203 22.8913 7.32731 23.4465 7.7507 23.869L10.1331 26.2528C10.5549 26.6768 11.11 26.9424 11.7049 27.0049L11.868 27.0224L11.3368 31.8978V31.9076C11.3096 32.1702 11.3375 32.4356 11.4188 32.6867C11.5 32.9379 11.6328 33.1693 11.8086 33.3662C11.9844 33.5632 12.1993 33.7213 12.4397 33.8304C12.6801 33.9395 12.9406 33.9973 13.2045 34C13.3101 34.0001 13.4154 33.9915 13.5195 33.9742C15.5573 33.6463 20.4905 32.41 22.4137 28.0044C22.9579 26.7552 23.1985 25.2685 23.1309 23.5768C24.0422 22.8917 24.9033 22.1422 25.7076 21.3342C28.2448 18.81 30.6051 15.117 32.1822 11.2009C33.7525 7.30303 34.3437 3.7186 33.8056 1.37046ZM25.6803 14.6427C25.0566 15.2669 24.2619 15.6922 23.3965 15.8646C22.5312 16.0371 21.6341 15.9491 20.8188 15.6116C20.0035 15.2742 19.3066 14.7025 18.8163 13.9689C18.326 13.2353 18.0643 12.3728 18.0643 11.4904C18.0643 10.6081 18.326 9.74557 18.8163 9.01198C19.3066 8.2784 20.0035 7.70672 20.8188 7.36927C21.6341 7.03182 22.5312 6.94376 23.3965 7.11624C24.2619 7.28872 25.0566 7.71398 25.6803 8.33822C26.0982 8.74991 26.4302 9.24062 26.6567 9.78178C26.8833 10.3229 27 10.9038 27 11.4904C27 12.0771 26.8833 12.6579 26.6567 13.1991C26.4302 13.7403 26.0982 14.231 25.6803 14.6427Z" fill="#CA74D6"/>
<path d="M9.86006 26.8994C9.56639 26.863 9.26951 26.935 9.02521 27.1021C8.54024 27.4337 8.05299 27.7616 7.56119 28.0811C6.5662 28.7277 5.37616 27.5923 5.96738 26.5632L6.88951 24.9695C7.02135 24.7766 7.09476 24.5498 7.10094 24.3163C7.10712 24.0828 7.04581 23.8524 6.92436 23.6529C6.80291 23.4533 6.62648 23.2931 6.41622 23.1913C6.20596 23.0895 5.9708 23.0505 5.73894 23.079C4.71549 23.2084 3.76416 23.6746 3.03478 24.4041C2.757 24.6826 1.91229 25.528 1.45767 28.7497C1.32827 29.6751 1.2467 30.6065 1.21329 31.5403C1.20914 31.7024 1.23748 31.8636 1.29664 32.0145C1.3558 32.1655 1.44459 32.303 1.55777 32.4191C1.67094 32.5352 1.80622 32.6274 1.95561 32.6904C2.10501 32.7533 2.2655 32.7858 2.42762 32.7857H2.45798C3.3925 32.7526 4.32472 32.6716 5.25093 32.5428C8.47421 32.0875 9.31969 31.242 9.59747 30.9643C10.3304 30.2346 10.7954 29.2788 10.9173 28.2518C10.9563 27.9323 10.8669 27.6104 10.6686 27.3568C10.4704 27.1032 10.1796 26.9387 9.86006 26.8994Z" fill="#CA74D6"/>
</svg>
