<svg width="24" height="24" viewBox="0 0 24 24" fill="none" xmlns="http://www.w3.org/2000/svg">
<path d="M18.6094 17.9062H17.4375V16.7344C17.4375 16.3461 17.1227 16.0312 16.7344 16.0312C16.3461 16.0312 16.0312 16.3461 16.0312 16.7344V17.9062H14.8594C14.4711 17.9062 14.1562 18.2211 14.1562 18.6094C14.1562 18.9977 14.4711 19.3125 14.8594 19.3125H16.0312V20.4844C16.0312 20.8727 16.3461 21.1875 16.7344 21.1875C17.1227 21.1875 17.4375 20.8727 17.4375 20.4844V19.3125H18.6094C18.9977 19.3125 19.3125 18.9977 19.3125 18.6094C19.3125 18.2211 18.9977 17.9062 18.6094 17.9062Z" fill="#5F499F"/>
<path d="M19.41 8.01052C20.4887 7.19709 21.1875 5.90522 21.1875 4.45312C21.1875 1.99767 19.1898 0 16.7344 0C14.2789 0 12.2812 1.99767 12.2812 4.45312C12.2812 5.90522 12.98 7.19709 14.0588 8.01052C13.3032 8.31084 12.6097 8.7345 12.0028 9.25641C11.3843 8.72213 10.6907 8.30189 9.94594 8.00686C11.022 7.19325 11.7188 5.90306 11.7188 4.45312C11.7188 1.99767 9.72108 0 7.26562 0C4.81017 0 2.8125 1.99767 2.8125 4.45312C2.8125 5.90522 3.51127 7.19714 4.59009 8.01056C1.90397 9.07823 0 11.7037 0 14.7656V18.6094C0 18.9977 0.314812 19.3125 0.703125 19.3125H11.3896C11.7352 21.9539 14.0002 24 16.7344 24C19.4685 24 21.7335 21.9539 22.0792 19.3125H23.2969C23.6852 19.3125 24 18.9977 24 18.6094V14.7656C24 11.7037 22.0961 9.07819 19.41 8.01052ZM13.6875 4.45312C13.6875 2.77308 15.0543 1.40625 16.7344 1.40625C18.4144 1.40625 19.7812 2.77308 19.7812 4.45312C19.7812 6.13317 18.4144 7.5 16.7344 7.5C15.0543 7.5 13.6875 6.13317 13.6875 4.45312ZM4.21875 4.45312C4.21875 2.77308 5.58558 1.40625 7.26562 1.40625C8.94567 1.40625 10.3125 2.77308 10.3125 4.45312C10.3125 6.13317 8.94567 7.5 7.26562 7.5C5.58558 7.5 4.21875 6.13317 4.21875 4.45312ZM9.46875 17.9062H1.40625V14.7656C1.40625 11.5348 4.03477 8.90625 7.26562 8.90625C8.66072 8.90625 9.97388 9.38658 11.0255 10.2708C11.0254 10.2728 11.0251 10.2749 11.025 10.2769C10.0507 11.5135 9.46875 13.0729 9.46875 14.7656V17.9062ZM16.7344 22.5938C14.5374 22.5938 12.75 20.8064 12.75 18.6094C12.75 16.4124 14.5374 14.625 16.7344 14.625C18.9314 14.625 20.7188 16.4124 20.7188 18.6094C20.7188 20.8064 18.9314 22.5938 16.7344 22.5938ZM22.5938 17.9062H22.0792C21.7335 15.2649 19.4685 13.2188 16.7344 13.2188C14.0002 13.2188 11.7352 15.2649 11.3896 17.9062H10.875V14.7656C10.875 11.5348 13.5035 8.90625 16.7344 8.90625C19.9652 8.90625 22.5938 11.5348 22.5938 14.7656V17.9062Z" fill="#5F499F"/>
</svg>
