<svg width="26" height="26" viewBox="0 0 26 26" fill="none" xmlns="http://www.w3.org/2000/svg">
<path fill-rule="evenodd" clip-rule="evenodd" d="M26 13C26 16.4478 24.6304 19.7544 22.1924 22.1924C19.7544 24.6304 16.4478 26 13 26C9.55219 26 6.24558 24.6304 3.80761 22.1924C1.36964 19.7544 0 16.4478 0 13C0 9.55219 1.36964 6.24558 3.80761 3.80761C6.24558 1.36964 9.55219 0 13 0C16.4478 0 19.7544 1.36964 22.1924 3.80761C24.6304 6.24558 26 9.55219 26 13ZM13.8125 6.5C13.8125 6.28451 13.7269 6.07785 13.5745 5.92548C13.4222 5.7731 13.2155 5.6875 13 5.6875C12.7845 5.6875 12.5778 5.7731 12.4255 5.92548C12.2731 6.07785 12.1875 6.28451 12.1875 6.5V12.1875H6.5C6.28451 12.1875 6.07785 12.2731 5.92548 12.4255C5.7731 12.5778 5.6875 12.7845 5.6875 13C5.6875 13.2155 5.7731 13.4222 5.92548 13.5745C6.07785 13.7269 6.28451 13.8125 6.5 13.8125H12.1875V19.5C12.1875 19.7155 12.2731 19.9222 12.4255 20.0745C12.5778 20.2269 12.7845 20.3125 13 20.3125C13.2155 20.3125 13.4222 20.2269 13.5745 20.0745C13.7269 19.9222 13.8125 19.7155 13.8125 19.5V13.8125H19.5C19.7155 13.8125 19.9222 13.7269 20.0745 13.5745C20.2269 13.4222 20.3125 13.2155 20.3125 13C20.3125 12.7845 20.2269 12.5778 20.0745 12.4255C19.9222 12.2731 19.7155 12.1875 19.5 12.1875H13.8125V6.5Z" fill="#4C12AB"/>
</svg>
