<svg width="260" height="262" viewBox="0 0 260 262" fill="none" xmlns="http://www.w3.org/2000/svg">
<rect y="2" width="260" height="260" fill="#C4C4C4"/>
<path d="M231.291 182.981C218.433 169.838 202.83 159.349 185.464 152.175C168.098 145.001 149.345 141.297 130.388 141.297C111.43 141.297 92.6774 145.001 75.3114 152.175C57.9455 159.349 42.3422 169.838 29.4845 182.981C27.4994 185.052 26.3889 187.738 26.3638 190.531V235.827C26.4058 238.804 27.689 241.646 29.9354 243.737C32.1818 245.828 35.2107 247 38.3665 247H222.409C225.592 247 228.645 245.807 230.896 243.683C233.147 241.559 234.411 238.679 234.411 235.676V190.38C234.348 187.64 233.24 185.013 231.291 182.981Z" fill="white"/>
<path d="M130.388 126.196C161.417 126.196 186.572 102.534 186.572 73.3449C186.572 44.1558 161.417 20.4934 130.388 20.4934C99.358 20.4934 74.2036 44.1558 74.2036 73.3449C74.2036 102.534 99.358 126.196 130.388 126.196Z" fill="white"/>
</svg>
