<svg width="326" height="240" viewBox="0 0 326 240" fill="none" xmlns="http://www.w3.org/2000/svg">
<path d="M307.077 239.443C307.077 239.443 15.9948 239.984 12.0515 240C12.0515 240 -23.3374 118.836 47.8243 83.5775C100.227 57.6132 80.1578 38.6622 103.602 14.6493C104.61 13.6177 105.704 12.608 106.893 11.6227C108.307 10.4506 109.857 9.31468 111.557 8.2162C122.441 1.19106 132.906 -0.913223 142.769 0.345963C143.633 0.455566 144.493 0.592209 145.348 0.753204C145.94 0.864304 146.53 0.987579 147.118 1.12451C147.452 1.19788 147.784 1.27837 148.114 1.36392C168.915 6.61629 186.753 26.2068 199.771 44.4466C209.498 58.0748 221.711 55.0361 235.491 51.9976C250.257 48.7416 266.824 45.4851 284.062 62.74C317.39 96.0965 282.469 140.615 305.269 145.871C337.834 153.378 327.004 209.131 307.077 239.443Z" fill="#EBF3FA"/>
<path d="M257.516 239.115C258.464 238.33 257.923 232.482 257.923 232.482C257.923 232.482 253.509 227.694 252.9 231.36C252.293 235.026 248.707 236.673 246.663 237.121C245.254 237.43 244.817 238.49 244.683 239.115H257.516Z" fill="#132642"/>
<path d="M276.709 239.115C277.656 238.33 277.117 232.481 277.117 232.481C277.117 232.481 272.701 227.694 272.095 231.36C271.488 235.026 267.9 236.673 265.857 237.121C264.447 237.43 264.011 238.49 263.876 239.115H276.709Z" fill="#1D3356"/>
<path d="M273.628 155.343C273.628 161.106 271.978 169.224 271.978 169.224C270.72 177.484 259.805 233.784 258.754 234.322C257.001 235.217 252.531 233.337 252.601 232.492C256.003 191.108 257.201 156.764 257.398 155.435C257.959 154.848 271.516 148.923 273.628 155.343Z" fill="#163560"/>
<path d="M261.093 84.6303C261.093 84.6303 264.075 80.2205 264.997 80.0734C265.919 79.9266 269.714 82.3912 269.931 83.3636C270.148 84.3361 265.755 82.3912 265.512 83.3636C265.269 84.3361 264.997 84.9977 263.75 85.0713C262.503 85.1448 261.418 86.1001 261.418 86.1001L261.093 84.6303Z" fill="#FFB27D"/>
<path d="M266.917 103.595L266.919 104.634C266.919 104.634 266.75 107.882 269.17 108.356C271.591 108.832 273.425 107.09 273.359 104.583C273.141 102.642 272.902 101.31 272.886 99.7039C272.879 99.1071 272.904 98.4738 272.972 97.7589L268.281 97.6043L266.899 97.9771L266.917 103.595Z" fill="#FFB27D"/>
<path d="M266.899 97.9775L266.911 102.159C272.224 101.62 272.905 98.4744 272.972 97.7594L268.28 97.6048L266.899 97.9775Z" fill="#E8945B"/>
<path d="M265.857 100.708C265.857 100.708 273.179 102.713 274.03 96.5125C274.883 90.3119 276.4 86.3947 271.762 84.8523C267.122 83.3099 265.884 85.4461 265.231 87.4221C264.574 89.3981 263.973 100.027 265.857 100.708Z" fill="#FFB27D"/>
<path d="M261.471 150.152C269.442 199.352 270.463 233.65 270.463 233.65C270.463 233.65 272.854 234.596 277.617 233.791C277.617 233.791 278.708 211.997 279.263 195.669C279.427 190.883 281.09 162.622 278.797 148.921C277.873 143.4 260.566 144.567 261.471 150.152Z" fill="#1C468A"/>
<path d="M257.179 155.681C257.179 155.681 259.545 158.6 265.798 158.548C269.728 158.514 275.041 157.274 277.417 156.608C280.615 155.709 280.106 154.141 279.848 150.931C279.514 146.818 279.382 139.36 281.089 126.72C281.34 124.854 281.633 122.877 281.97 120.781C283.407 111.859 275.132 106.69 274.064 104.584C267.986 112.141 266.288 105.131 266.288 105.131V105.129C266.229 105.129 263.407 105.684 260.831 103.596C258.369 101.6 258.579 114.364 258.576 118.484C258.57 122.909 257.892 133.822 257.797 138.63C257.677 144.871 257.179 155.681 257.179 155.681Z" fill="#AEC3FF"/>
<path d="M247.102 96.482C247.154 96.8406 247.225 97.215 247.316 97.6056L247.317 97.6091C249.118 105.352 256.627 114.215 257.624 117.106C258.21 118.804 258.452 123.807 258.432 123.651L263.935 106.82C263.935 106.82 256.013 98.7506 255.681 97.6056C255.175 95.8714 262.925 86.3444 262.925 86.3444C262.925 86.3444 263.313 85.5189 262.838 84.0066C262.468 82.8244 261.851 82.4854 261.851 82.4854C261.851 82.4854 246.556 92.6708 247.102 96.482Z" fill="#AEC3FF"/>
<path d="M279.725 141.505C280.284 136.298 280.31 135.115 281.694 122.478C281.173 122.621 280.218 123.522 278.483 123.458C276.112 123.371 275.094 133.854 279.725 141.505Z" fill="#91B0F2"/>
<path d="M281.716 144.019C281.716 144.019 277.914 140.905 276.736 141.3C275.557 141.695 273.002 143.2 273.161 144.122C273.319 145.041 276.288 145.67 276.804 145.561C277.32 145.453 278.155 145.581 278.493 145.976C278.832 146.372 281.525 146.52 281.855 145.451C282.184 144.382 281.716 144.019 281.716 144.019Z" fill="#FFB27D"/>
<path d="M274.065 104.585C274.065 104.585 279.876 106.123 282.138 108.658C284.447 111.248 292.923 126.568 292.387 131.876C291.844 137.263 282.42 145.598 282.42 145.598C282.42 145.598 280.569 146.432 280.504 142.437C280.504 142.437 285.476 132.474 285.213 131.32C285.051 130.595 277.72 122.626 277.72 122.626L274.065 104.585Z" fill="#AEC3FF"/>
<path d="M261.49 147.182C261.528 148.526 261.931 149.803 262.626 150.766L263.718 152.278C263.992 152.659 264.445 152.641 264.704 152.241L266.218 149.898C266.623 149.269 266.835 148.453 266.808 147.619C266.747 145.76 266.637 142.18 266.57 138.727C266.517 135.93 266.493 133.214 266.547 131.566C266.718 126.307 268.133 109.596 268.133 109.596H267.202C267.202 109.596 264.641 115.94 263.09 124.709C262.708 126.868 262.388 129.172 262.182 131.566C262.182 131.566 261.328 141.107 261.49 147.182Z" fill="#1C468A"/>
<path d="M269.43 108.29L266.841 107.448C266.841 107.448 266.502 107.488 266.511 108.06C266.52 108.632 267.241 110.304 267.56 110.437C267.878 110.571 270.044 109.448 269.43 108.29Z" fill="#1C468A"/>
<path d="M275.133 104.736C275.153 104.189 273.205 103.314 273.205 103.314C273.205 103.314 271.741 107.763 268.135 107.834C268.135 107.834 269.161 110.546 270.372 111.248C270.372 111.248 275.014 107.986 275.133 104.736Z" fill="#91B0F2"/>
<path d="M268.135 107.835C268.135 107.835 266.923 105.261 266.916 103.596C266.916 103.596 265.516 104.13 264.443 105.236C264.443 105.236 264.591 108.435 265.516 110.043C265.516 110.043 266.706 108.595 268.135 107.835Z" fill="#91B0F2"/>
<path d="M277.132 92.6708C276.018 97.7515 273.441 98.459 273.441 98.459C273.441 98.459 273.66 97.8662 273.78 96.3264C273.795 96.1306 273.756 95.8545 273.696 95.5764C273.55 94.926 273.565 94.2363 273.727 93.5936C273.837 93.1565 273.835 92.7373 273.567 92.5306C273.138 92.1983 272.618 92.8052 272.294 93.2959C272.079 93.6195 271.745 93.7448 271.438 93.6094L271.433 93.6069C270.169 93.0381 271.32 89.1459 269.939 89.2275C265.378 89.4979 264.972 88.5358 264.231 87.5042C263.697 86.7597 263.919 84.2162 264.658 83.9401C265.429 83.6521 266.547 83.1782 267.724 82.2994C271.167 79.724 274.189 82.2947 274.178 82.309C277.181 83.9166 277.894 89.1993 277.132 92.6708Z" fill="#2A4E96"/>
<path d="M84 149.725C84 125.404 100.342 105.688 120.5 105.688C140.658 105.688 157 125.404 157 149.725C157 174.046 140.658 193.761 120.5 193.761C100.342 193.761 84 174.046 84 149.725Z" fill="#E5355F"/>
<path d="M84 144.771C84 120.146 100.342 100.184 120.5 100.184C140.658 100.184 157 120.146 157 144.771C157 169.397 140.658 189.358 120.5 189.358C100.342 189.358 84 169.397 84 144.771Z" fill="#F7485D"/>
<path d="M103.133 146.749L97 135.413H100.198L104.522 143.702L108.889 135.413H112L105.867 146.669V154.128H103.133V146.749Z" fill="white"/>
<path d="M114 135.413H125.885V138.353H116.817V143.219H124.856V146.161H116.817V151.187H126V154.128H114V135.413Z" fill="white"/>
<path d="M128 151.217L129.502 148.93C130.861 150.437 132.222 151.295 133.987 151.295C135.529 151.295 136.504 150.385 136.504 148.956C136.504 147.656 135.935 146.954 133.297 146.149C130.273 145.239 128.568 144.095 128.568 140.689C128.568 137.57 130.598 135.413 133.419 135.413C135.489 135.413 137.132 136.219 138.573 137.7L137.234 140.118C135.955 138.897 134.677 138.247 133.378 138.247C131.917 138.247 131.064 139.208 131.064 140.455C131.064 141.859 131.714 142.482 134.433 143.315C137.437 144.251 139 145.629 139 148.696C139 152.101 136.91 154.128 133.926 154.128C131.754 154.128 129.705 153.166 128 151.217Z" fill="white"/>
<path d="M138.206 175.046C138.142 175.046 138.078 175.008 138.038 174.938C137.972 174.822 137.994 174.663 138.086 174.58C141.869 171.237 145.012 166.777 147.175 161.681C149.408 156.417 150.589 150.469 150.589 144.476C150.589 144.336 150.68 144.22 150.794 144.22C150.908 144.22 151 144.336 151 144.476C151 150.552 149.804 156.584 147.539 161.92C145.347 167.087 142.161 171.609 138.325 174.999C138.288 175.03 138.247 175.046 138.206 175.046Z" fill="white"/>
<path d="M119.82 182.752C111.588 182.752 103.848 178.858 98.0271 171.789C92.2059 164.719 89 155.319 89 145.321C89 137.171 91.1189 129.424 95.1276 122.918C97.9389 118.355 101.627 114.574 105.792 111.983C110.159 109.267 114.88 107.89 119.82 107.89C128.665 107.89 137.094 112.515 142.947 120.578C143.024 120.685 143.016 120.848 142.929 120.941C142.841 121.035 142.708 121.025 142.63 120.918C136.857 112.965 128.543 108.403 119.82 108.403C114.947 108.403 110.292 109.761 105.985 112.439C101.876 114.995 98.2388 118.725 95.4659 123.225C91.5124 129.642 89.4227 137.284 89.4227 145.321C89.4227 155.183 92.5845 164.453 98.3259 171.426C104.067 178.399 111.701 182.239 119.82 182.239C119.937 182.239 120.031 182.355 120.031 182.496C120.031 182.637 119.937 182.752 119.82 182.752Z" fill="white"/>
<path d="M173.959 148.669C173.959 124.981 190.086 105.779 209.981 105.779C229.873 105.779 246 124.981 246 148.669C246 172.358 229.873 191.56 209.981 191.56C190.086 191.56 173.959 172.358 173.959 148.669Z" fill="#6385DB"/>
<path d="M173.959 144.179C173.959 120.492 190.086 101.289 209.981 101.289C229.873 101.289 246 120.492 246 144.179C246 167.868 229.873 187.07 209.981 187.07C190.086 187.07 173.959 167.868 173.959 144.179Z" fill="#739AF0"/>
<path d="M227.529 173.909C227.464 173.909 227.399 173.872 227.358 173.804C227.291 173.692 227.313 173.537 227.408 173.456C231.252 170.204 234.446 165.867 236.644 160.911C238.913 155.792 240.113 150.007 240.113 144.179C240.113 144.042 240.209 143.93 240.325 143.93C240.439 143.93 240.533 144.042 240.533 144.179C240.533 150.088 239.317 155.955 237.015 161.144C234.788 166.169 231.548 170.566 227.65 173.864C227.613 173.894 227.571 173.909 227.529 173.909Z" fill="white"/>
<path d="M179.635 144.43C179.519 144.43 179.425 144.317 179.425 144.18C179.425 136.259 181.526 128.729 185.498 122.405C188.287 117.969 191.942 114.294 196.072 111.776C200.403 109.136 205.082 107.798 209.979 107.798C218.747 107.798 227.103 112.293 232.906 120.131C232.983 120.234 232.976 120.392 232.888 120.483C232.801 120.574 232.67 120.564 232.593 120.461C226.87 112.73 218.627 108.297 209.979 108.297C205.149 108.297 200.534 109.617 196.263 112.22C192.191 114.704 188.585 118.329 185.835 122.703C181.916 128.941 179.844 136.367 179.844 144.18C179.844 144.317 179.749 144.43 179.635 144.43Z" fill="white"/>
<path d="M194.138 135.02H196.56L204.528 147.266V135.02H207.099V152.731H204.91L196.708 140.131V152.731H194.138V135.02Z" fill="white"/>
<path d="M223.08 143.876C223.08 140.435 220.976 137.576 218.022 137.576C215.07 137.576 213.007 140.384 213.007 143.876C213.007 147.317 215.112 150.176 218.066 150.176C221.018 150.176 223.08 147.368 223.08 143.876ZM210.267 143.876C210.267 138.891 213.497 134.716 218.066 134.716C222.634 134.716 225.821 138.84 225.821 143.876C225.821 148.861 222.591 153.035 218.022 153.035C213.453 153.035 210.267 148.91 210.267 143.876Z" fill="white"/>
<path d="M174.345 121.203V121.204C174.303 121.533 174.211 121.849 174.073 122.135C174.026 122.233 173.974 122.332 173.918 122.431L173.916 122.435C173.368 123.387 172.378 124.311 170.758 123.375C166.162 120.722 162.334 105.338 162.334 105.338L150.237 76.3429L150.236 76.3412L140.292 65.0259C140.295 65.0418 140.296 65.0559 140.297 65.07C140.407 65.9734 142.172 80.4558 143.22 82.7072C144.3 85.0292 151.538 95.9562 151.338 99.6015C151.138 103.294 149.394 104.244 149.335 104.274L149.333 104.277L149.205 104.141C148.756 103.67 147.164 102.001 145.176 99.8821C145.162 99.8697 145.148 99.8538 145.133 99.838L145.129 99.8344C144.993 99.6897 144.853 99.5398 144.714 99.3916L144.658 99.3316H144.657C141.466 95.9245 137.473 91.5981 135.506 89.2003C134.953 88.5263 134.561 88.0058 134.389 87.6987C133.9 86.8201 131.939 82.6913 129.694 77.7968L129.681 77.7686C129.512 77.4016 129.341 77.0293 129.171 76.6552C129.07 76.4347 128.969 76.2141 128.867 75.9918C128.624 75.4572 128.379 74.919 128.133 74.3756C127.847 73.7422 127.56 73.1087 127.275 72.4736L127.266 72.4524C127.097 72.0748 126.928 71.6972 126.759 71.3214C126.643 71.0602 126.525 70.8009 126.412 70.5397C126.302 70.2945 126.191 70.0475 126.083 69.8022L126.076 69.7846C125.912 69.414 125.748 69.047 125.588 68.6818C124.764 66.8098 124.002 65.0436 123.364 63.5173C123.288 63.3321 123.214 63.1521 123.141 62.9757C122.981 62.5893 122.831 62.2223 122.692 61.8747C122.622 61.7035 122.557 61.5359 122.493 61.3753C122.234 60.719 122.019 60.1491 121.859 59.6885C121.826 59.5933 121.796 59.5068 121.768 59.4221C121.64 59.0357 121.56 58.7428 121.533 58.5593C120.358 50.2507 121.76 33.9174 121.76 33.9174L121.761 33.9156L125.823 27.4261L130.477 19.9873L142.769 0.345757C143.634 0.455154 144.493 0.592773 145.348 0.753334C145.883 1.55261 146.547 2.54423 147.312 3.69463C147.604 4.13044 147.91 4.58743 148.229 5.06559C156.061 16.8166 171.845 40.7245 173.113 44.3557C173.407 45.2027 173.544 46.3672 173.57 47.7187V47.7205C173.571 47.8757 173.573 48.0328 173.573 48.1916C173.573 54.5135 171.385 64.3925 171.446 65.7829L171.447 65.8146L171.45 65.8252L171.451 65.834L171.452 65.8411C171.576 66.9403 171.908 75.1467 172.055 78.9455C172.103 80.1823 171.823 81.4051 171.265 82.3861L167.74 88.5862C167.74 88.5862 171.002 101.024 171.798 105.17C172.154 107.023 174.302 120.13 174.302 120.13C174.376 120.484 174.39 120.849 174.345 121.203Z" fill="#FFB27D"/>
<path d="M167.741 88.5879C167.741 88.5879 164.495 75.4341 164.649 74.3566C164.802 73.2791 166.15 69.9444 167.075 70.44C168 70.9357 167.741 88.5879 167.741 88.5879Z" fill="#EFA26F"/>
<path d="M173.57 47.7191C173.542 47.802 171.916 52.5929 171.139 54.6064C170.376 56.5891 171.402 65.4152 171.45 65.8247C171.337 64.5669 173.687 54.0718 173.57 47.7191Z" fill="#EFA26F"/>
<path d="M140.293 65.0254L150.237 76.3428C150.237 76.3428 148.269 68.6429 146.253 65.9322C144.238 63.2215 139.754 60.8033 140.293 65.0254Z" fill="#EFA26F"/>
<path d="M169.587 118.17C169.889 119.313 170.444 121.373 170.866 122.345C170.986 122.62 171.333 122.997 171.87 123.125C172.192 123.203 172.582 123.192 173.034 123.018C173.246 122.935 173.449 122.838 173.633 122.695C173.849 122.526 174.04 122.314 174.203 122.057C174.35 121.825 174.401 121.466 174.326 121.097L174.325 121.092C174.072 119.857 173.694 118.227 173.254 116.912C172.951 116.002 172.299 115.438 171.743 115.628L171.481 115.715L170.146 116.161C169.592 116.347 169.34 117.237 169.587 118.17Z" fill="#FFD3B6"/>
<path d="M169.587 118.17C169.889 119.313 170.444 121.374 170.866 122.345C170.986 122.62 171.333 122.997 171.87 123.125C171.962 123.103 172.057 123.072 172.155 123.034C172.367 122.952 172.57 122.856 172.754 122.713C172.97 122.542 173.161 122.331 173.325 122.074C173.471 121.842 173.522 121.484 173.447 121.115L173.446 121.109C173.193 119.874 172.816 118.245 172.376 116.929C172.181 116.347 171.844 115.907 171.481 115.715L170.146 116.162C169.592 116.347 169.34 117.238 169.587 118.17Z" fill="#FFC197"/>
<path d="M136.838 21.2056L125.822 27.4241L121.761 33.9159C121.761 33.9159 120.359 50.2475 121.534 58.5574C121.76 60.1464 126.095 69.9536 129.692 77.7922L129.694 77.7954C129.217 76.7546 123.381 59.662 123.368 56.6689C123.355 53.6775 122.656 37.2575 124.288 34.7995C125.907 32.3612 136.67 21.3774 136.838 21.2056Z" fill="#EFA26F"/>
<path d="M148.25 5.13844C147.087 10.0916 142.145 16.0195 136.837 21.2048C136.827 21.2155 136.818 21.2261 136.805 21.2385L136.803 21.242C129.666 28.2102 121.883 33.8279 121.762 33.9147L121.76 33.9165L118.477 28.9917L106.894 11.621C108.307 10.4496 109.858 9.31188 111.557 8.21491C122.441 1.18831 132.907 -0.915253 142.77 0.344753C143.634 0.452854 144.493 0.591091 145.348 0.750584C145.941 0.862228 146.53 0.986282 147.12 1.12274L147.717 3.24578V3.24756L148.23 5.06402L148.25 5.13844Z" fill="#D2E3FC"/>
<path d="M145.176 99.8823L145.178 99.8807C145.756 99.4322 146.437 98.6521 146.165 97.586C145.741 95.9268 136.649 89.9528 135.506 89.1987L145.176 99.8823Z" fill="#EFA26F"/>
<path d="M149.333 104.275L144.657 99.3301C144.657 99.3301 145.304 97.861 146.165 97.5864C147.025 97.3117 150.722 102.182 149.333 104.275Z" fill="#FFC197"/>
<path d="M150.436 209.559C151.974 210.404 157.474 209.72 157.651 209.125C157.83 208.529 154.233 202.849 152.694 202.004C151.156 201.159 149.402 202.165 148.778 204.252C148.155 206.337 148.897 208.714 150.436 209.559Z" fill="#A8D29F"/>
<path d="M164.307 213.117C163.443 215.04 163.053 222.505 163.458 222.84C163.863 223.173 168.579 219.28 169.443 217.359C170.306 215.436 169.858 212.929 168.439 211.757C167.021 210.587 165.171 211.195 164.307 213.117Z" fill="#A8D29F"/>
<path d="M156.896 227.729C158.479 228.413 163.923 227.163 164.067 226.55C164.211 225.939 160.306 220.646 158.725 219.962C157.142 219.278 155.45 220.463 154.945 222.606C154.441 224.75 155.315 227.044 156.896 227.729Z" fill="#A8D29F"/>
<path d="M164.905 234.954C164.899 234.783 164.291 217.887 157.466 209.162L157.611 208.954C164.5 217.759 165.111 234.77 165.116 234.941L164.905 234.954Z" fill="#A8D29F"/>
<path d="M187.69 209.923C186.73 210.786 182.928 211.353 182.745 210.983C182.565 210.611 184.426 206.08 185.384 205.218C186.343 204.356 187.636 204.71 188.273 206.008C188.909 207.309 188.647 209.06 187.69 209.923Z" fill="#A8D29F"/>
<path d="M178.635 214.94C179.418 216.084 180.445 221.08 180.204 221.382C179.963 221.686 176.364 219.926 175.581 218.783C174.798 217.641 174.848 215.853 175.69 214.792C176.535 213.731 177.852 213.797 178.635 214.94Z" fill="#A8D29F"/>
<path d="M185.158 223.471C184.154 224.233 180.33 224.405 180.169 224.017C180.01 223.628 182.12 219.302 183.124 218.542C184.127 217.779 185.398 218.267 185.96 219.627C186.521 220.989 186.162 222.71 185.158 223.471Z" fill="#A8D29F"/>
<path d="M180.458 229.878C180.444 229.763 179.133 218.176 182.876 210.971L182.756 210.858C178.979 218.129 180.3 229.794 180.314 229.909L180.458 229.878Z" fill="#A8D29F"/>
<path d="M173.7 233.969L173.265 233.875C171.555 203.878 164.797 182.352 164.702 182.059L165.098 181.829C165.193 182.124 171.999 203.792 173.7 233.969Z" fill="#A8D29F"/>
<path d="M160.118 179.039C160.951 180.32 164.854 182.377 165.123 182.056C165.393 181.734 164.37 176.23 163.537 174.949C162.704 173.67 161.263 173.548 160.318 174.678C159.374 175.807 159.284 177.76 160.118 179.039Z" fill="white"/>
<path d="M166.098 174.578C165.345 175.947 164.662 181.547 164.951 181.838C165.239 182.13 169.002 179.64 169.755 178.272C170.508 176.904 170.299 174.967 169.289 173.948C168.279 172.927 166.851 173.21 166.098 174.578Z" fill="white"/>
<path d="M170.587 180.533C169.372 180.084 165.277 181.269 165.182 181.74C165.087 182.21 168.173 186.049 169.388 186.497C170.602 186.946 171.856 185.974 172.187 184.328C172.518 182.68 171.801 180.981 170.587 180.533Z" fill="white"/>
<path d="M167.821 187.956C167.699 186.258 165.429 181.488 165.072 181.534C164.713 181.581 163.161 186.853 163.282 188.551C163.403 190.251 164.517 191.494 165.77 191.33C167.024 191.166 167.941 189.656 167.821 187.956Z" fill="white"/>
<path d="M161.609 187.591C162.724 186.798 165.126 182.149 164.958 181.718C164.791 181.286 160.603 181.326 159.489 182.119C158.374 182.912 157.944 184.781 158.53 186.293C159.115 187.804 160.494 188.386 161.609 187.591Z" fill="white"/>
<path d="M164.217 181.557C164.281 181.002 164.666 180.624 165.076 180.711C165.486 180.801 165.764 181.323 165.7 181.877C165.634 182.433 165.249 182.811 164.84 182.722C164.43 182.634 164.151 182.112 164.217 181.557Z" fill="#F77D48"/>
<path d="M173.577 203.3C172.338 205.364 171 214.029 171.435 214.508C171.87 214.988 177.855 211.446 179.094 209.381C180.334 207.315 180.102 204.28 178.578 202.601C177.056 200.92 174.817 201.234 173.577 203.3Z" fill="#A8D29F"/>
<path d="M138.748 209.017C138.835 209.194 142.798 218.274 146.518 232.871C146.365 232.812 146.234 232.781 146.081 232.723C142.403 218.361 138.53 209.461 138.442 209.283L138.748 209.017Z" fill="#A8D29F"/>
<path d="M134.185 207.359C135.019 208.344 138.591 209.527 138.798 209.203C139.006 208.882 137.648 204.248 136.814 203.265C135.979 202.28 134.715 202.399 133.989 203.53C133.263 204.661 133.351 206.376 134.185 207.359Z" fill="white"/>
<path d="M139.011 202.542C138.473 203.852 138.353 208.833 138.629 209.041C138.905 209.251 141.97 206.496 142.509 205.188C143.048 203.878 142.702 202.225 141.737 201.495C140.77 200.764 139.551 201.234 139.011 202.542Z" fill="white"/>
<path d="M143.426 207.026C142.33 206.824 138.865 208.495 138.823 208.919C138.781 209.343 141.793 212.203 142.889 212.403C143.985 212.605 144.993 211.565 145.142 210.078C145.289 208.592 144.522 207.226 143.426 207.026Z" fill="white"/>
<path d="M141.648 213.92C141.398 212.46 139.017 208.661 138.71 208.758C138.401 208.854 137.497 213.686 137.747 215.147C137.996 216.606 139.073 217.516 140.149 217.176C141.227 216.838 141.898 215.381 141.648 213.92Z" fill="white"/>
<path d="M136.21 214.571C137.113 213.707 138.809 209.283 138.627 208.934C138.445 208.584 134.802 209.274 133.899 210.138C132.995 211.003 132.781 212.696 133.419 213.92C134.056 215.145 135.306 215.436 136.21 214.571Z" fill="white"/>
<path d="M137.967 208.911C137.977 208.417 138.28 208.029 138.644 208.042C139.008 208.055 139.295 208.464 139.285 208.958C139.275 209.452 138.973 209.841 138.609 209.828C138.244 209.815 137.958 209.405 137.967 208.911Z" fill="#F77D48"/>
<path d="M145.381 218.8C144.685 220.332 144.355 226.298 144.679 226.568C145.002 226.836 148.781 223.745 149.475 222.213C150.17 220.679 149.818 218.673 148.687 217.731C147.555 216.788 146.076 217.267 145.381 218.8Z" fill="#A8D29F"/>
<path d="M196 234.432L196.387 234.349C197.911 207.634 203.929 188.462 204.014 188.202L203.661 187.996C203.578 188.261 197.515 207.557 196 234.432Z" fill="#A8D29F"/>
<path d="M208.095 185.514C207.355 186.653 203.878 188.486 203.639 188.199C203.398 187.913 204.309 183.01 205.051 181.871C205.793 180.731 207.076 180.622 207.917 181.628C208.759 182.634 208.839 184.373 208.095 185.514Z" fill="white"/>
<path d="M202.77 181.541C203.44 182.76 204.049 187.747 203.792 188.005C203.536 188.265 200.183 186.049 199.513 184.83C198.843 183.611 199.029 181.887 199.928 180.978C200.827 180.07 202.099 180.322 202.77 181.541Z" fill="white"/>
<path d="M198.772 186.844C199.853 186.444 203.5 187.5 203.586 187.918C203.67 188.337 200.922 191.755 199.839 192.155C198.757 192.555 197.642 191.69 197.346 190.223C197.051 188.757 197.69 187.244 198.772 186.844Z" fill="white"/>
<path d="M201.237 193.454C201.345 191.941 203.366 187.693 203.685 187.735C204.004 187.777 205.388 192.471 205.28 193.984C205.171 195.497 204.18 196.605 203.063 196.459C201.947 196.313 201.129 194.967 201.237 193.454Z" fill="white"/>
<path d="M206.769 193.129C205.777 192.422 203.638 188.281 203.787 187.898C203.934 187.513 207.665 187.548 208.658 188.255C209.65 188.962 210.033 190.626 209.511 191.972C208.99 193.318 207.763 193.836 206.769 193.129Z" fill="white"/>
<path d="M204.447 187.754C204.387 187.261 204.045 186.924 203.68 187.002C203.316 187.08 203.068 187.545 203.125 188.041C203.184 188.535 203.526 188.871 203.892 188.793C204.256 188.713 204.504 188.249 204.447 187.754Z" fill="#F77D48"/>
<path d="M195.103 214.272C196.206 216.11 197.397 223.828 197.01 224.254C196.623 224.681 191.291 221.527 190.189 219.689C189.085 217.849 189.291 215.145 190.648 213.65C192.005 212.153 193.999 212.432 195.103 214.272Z" fill="#A8D29F"/>
<path d="M133.476 239.101C133.476 239.101 135.663 231.31 143.6 230.821C151.538 230.332 157.004 236.691 163.562 233.756C170.12 230.821 180.975 224.195 191.243 228.609C201.512 233.023 203.244 239.101 203.244 239.101H133.476Z" fill="#A8D29F"/>
<path d="M83.3911 238.921H98.3024C99.1015 238.003 97.7495 235.916 96.3368 235.776C95.7232 235.713 94.9473 235.887 94.0609 236.14C93.8557 232.446 92.6839 215.839 88.2675 216.505C83.3017 217.253 88.2675 223.82 89.6713 227.707C90.7112 230.587 91.8081 234.717 92.3093 236.665C91.9063 236.784 91.4889 236.899 91.0624 237.006C90.4043 234.267 87.9554 225.054 84.841 225.59C81.1845 226.219 82.6543 229.913 85.2459 232.105C87.1473 233.717 89.4822 236.01 90.5916 237.117C89.6516 237.325 88.6706 237.465 87.6753 237.434C85.1211 237.351 83.8744 238.372 83.3911 238.921Z" fill="#A8D29F"/>
<path d="M299.907 238.858H288.672C288.071 238.166 289.089 236.592 290.154 236.487C290.615 236.44 291.202 236.571 291.869 236.761C292.023 233.979 292.905 221.466 296.235 221.968C299.976 222.532 296.235 227.479 295.177 230.409C294.392 232.578 293.567 235.689 293.189 237.158C293.492 237.247 293.807 237.333 294.128 237.415C294.624 235.351 296.469 228.408 298.816 228.813C301.57 229.286 300.462 232.07 298.511 233.722C297.077 234.936 295.319 236.664 294.482 237.498C295.191 237.655 295.929 237.761 296.68 237.736C298.605 237.675 299.544 238.443 299.907 238.858Z" fill="#A8D29F"/>
<path d="M43.502 126.413C43.1074 125.381 52.1101 121.666 52.2528 131.846C52.2528 131.846 69.1172 131.285 61.0648 118.544C58.2772 114.132 58.564 110.485 58.6475 107.09C58.7323 103.695 56.9111 93.8274 50.6689 94.8203C50.6689 94.8203 49.0342 93.9184 46.994 95.3534C42.3546 98.6166 31.9614 130.167 43.502 126.413Z" fill="#163560"/>
<path d="M71.0734 136.164C71.0734 136.164 72.1711 133.899 73.0558 133.855C73.9405 133.811 75.5788 133.188 75.4478 133.632C75.3168 134.077 74.301 134.121 74.2026 134.388C74.1044 134.654 75.71 135.054 76.1687 135.098C76.6274 135.143 77.7088 135.098 77.676 135.41C77.6433 135.72 75.727 137.007 74.375 136.83C73.023 136.653 71.3519 137.363 71.3519 137.363L71.0734 136.164Z" fill="#FFB27D"/>
<path d="M55.1975 136.896C55.1975 136.896 55.7941 138.499 56.8765 140.338C58.1809 142.554 60.1923 145.111 62.7176 145.617C63.9238 145.857 65.1035 145.506 66.1878 144.853L66.1916 144.851C69.2587 143.005 71.5649 138.762 71.5649 138.762C72.1056 136.763 71.2209 135.408 71.2209 135.408C71.2209 135.408 65.0277 137.296 64.4379 136.896C63.8482 136.497 60.4075 123.062 59.5886 121.373C58.7688 119.685 55.9771 118.809 55.9771 118.809L55.1975 136.896Z" fill="#23569E"/>
<path d="M56.8765 140.338C58.1809 142.554 60.1923 145.111 62.7176 145.617C63.9238 145.857 65.1034 145.506 66.1878 144.853C66.0677 144.874 63.0046 145.388 61.7837 142.427C60.5383 139.406 59.1915 134.608 57.3414 136.207C56.5432 136.898 56.5785 138.613 56.8765 140.338Z" fill="#163560"/>
<path d="M32.0921 227.512C32.0921 227.512 30.2023 229.849 30.571 231.512C30.9398 233.173 32.6452 234.279 32.8756 236.309C33.106 238.339 34.0279 239.447 34.8576 239.447C35.6872 239.447 38.813 239.447 38.813 239.447C38.813 239.447 39.4236 238.019 37.9488 237.588C36.4737 237.157 35.9177 234.772 36.0099 232.557C36.1021 230.342 35.8715 227.389 35.8715 227.389L32.7374 226.406L32.0921 227.512Z" fill="#294A7F"/>
<path d="M48.0869 228.505C48.0869 228.505 47.4071 238.407 48.2368 238.961L58.8543 238.932C58.8543 238.932 58.8543 237.271 57.1489 236.902C55.4436 236.533 52.4475 235.179 51.9405 232.165C51.4336 229.15 48.0869 228.505 48.0869 228.505Z" fill="#294A7F"/>
<path d="M39.9193 130.217C39.9193 130.217 39.7609 133.24 39.9193 136.869C40.0244 139.274 41.8192 142.495 42.0739 143.293C42.7129 145.292 43.4335 145.617 43.4335 145.617L49.0082 147.468L50.9683 148.118L57.1496 145.617C57.1496 145.617 59.9651 134.964 58.8346 128.969C57.704 122.972 55.977 118.809 55.977 118.809C55.977 118.809 51.2311 117.47 44.3654 118.24L39.9193 130.217Z" fill="#23569E"/>
<path d="M56.7565 147.234C56.7565 147.234 59.8176 160.149 60.0142 164.545C60.2109 168.943 54.1627 227.012 53.9195 229.038C53.6901 230.948 51.9404 232.165 51.9404 232.165C51.9404 232.165 51.1357 232.809 49.9873 232.368C48.3938 231.759 47.8901 231.029 47.8901 231.029C47.8901 231.029 45.5075 189.614 46.9819 174.821C48.4565 160.027 48.4739 147.234 48.4739 147.234H56.7565Z" fill="#ED2B5A"/>
<path d="M43.7873 146.849C43.7873 146.849 39.1179 155.34 38.6826 161.082C38.2473 166.822 37.9997 186.987 37.0723 192.583C36.1449 198.18 32.7374 208.95 32.7374 226.406C32.7374 226.406 33.0916 227.405 34.1851 227.938C34.5349 228.109 35.0035 228.275 35.4584 228.416C36.3603 228.696 37.2856 228.099 37.6972 226.975C40.0008 220.688 47.3389 200.412 47.7151 196.201C47.9814 193.224 50.2983 173.509 55.3523 161.94C56.5657 159.164 54.6077 148.118 54.6077 148.118L43.7873 146.849Z" fill="#F9465B"/>
<path d="M57.2456 145.24C57.2456 145.24 56.0166 146.558 53.5754 146.625C50.6594 146.703 43.4339 145.617 43.4339 145.617C43.4339 145.617 43.1127 146.833 43.1259 148.117C43.1259 148.117 51.9508 151.133 57.0639 148.557C57.0639 148.557 57.7234 146.875 57.2456 145.24Z" fill="#233862"/>
<path d="M53.3854 147.989C53.3854 148.785 53.7846 149.433 54.2749 149.433C54.7655 149.433 55.1646 148.785 55.1646 147.989C55.1646 147.194 54.7655 146.546 54.2749 146.546C53.7846 146.546 53.3854 147.194 53.3854 147.989ZM52.9445 147.989C52.9445 146.864 53.5413 145.947 54.2749 145.947C55.0088 145.947 55.6056 146.864 55.6056 147.989C55.6056 149.115 55.0088 150.03 54.2749 150.03C53.5413 150.03 52.9445 149.115 52.9445 147.989Z" fill="white"/>
<path d="M33.9335 147.575L42.9748 158.248L53.7514 141.471L44.7101 130.801L33.9335 147.575Z" fill="#6385DB"/>
<path d="M45.473 147.614C45.473 147.614 48.7857 148.141 48.7753 149.205C48.765 150.272 47.9498 152.462 47.5407 152.56C47.1316 152.657 44.8447 149.597 44.8447 149.597L45.473 147.614Z" fill="#FFB27D"/>
<path d="M44.3655 118.241C44.3655 118.241 39.9427 118.662 38.2472 124.249C36.5519 129.834 33.3352 139.215 33.3352 140.793C33.3352 142.369 35.132 147.235 44.782 150.03C44.782 150.03 45.7801 148.608 45.7197 147.482C45.7197 147.482 39.6958 140.469 39.712 139.648C39.7427 138.098 40.6995 136.052 45.9883 128.88C47.426 126.93 44.3655 118.241 44.3655 118.241Z" fill="#23569E"/>
<path d="M47.1987 118.895C47.5706 117.483 48.0428 113.787 48.0359 111.176L48.3157 111.25L53.0218 112.513C53.0218 112.513 52.9147 114.522 52.9115 116.412C52.9115 116.428 52.9115 116.443 52.9114 116.459C52.9057 118.102 52.9163 119.423 52.7892 119.87C52.3414 121.447 46.8899 120.067 47.1987 118.895Z" fill="#FFB27D"/>
<path d="M53.0217 112.513C53.0217 112.513 52.9147 114.522 52.9114 116.412C50.2781 116.311 48.8861 113.056 48.3158 111.25L53.0217 112.513Z" fill="#E8945B"/>
<path d="M53.9014 114.304C53.9014 114.304 47.6708 114.444 47.6666 109.183C47.6622 103.922 46.8552 100.396 50.8331 100.086C54.811 99.7735 55.5855 101.781 55.902 103.536C56.2186 105.291 55.522 114.132 53.9014 114.304Z" fill="#FFB27D"/>
<path d="M53.6707 99.9573C53.6707 99.9573 51.9648 106.128 49.3468 107.041C46.7288 107.953 45.593 107.002 45.593 107.002C45.593 107.002 47.6012 104.841 48.018 101.066C48.018 101.066 52.3839 97.019 53.6707 99.9573Z" fill="#163560"/>
<path d="M53.248 100.458C53.248 100.458 54.513 101.098 55.0336 102.349C55.5428 103.571 55.9766 105.192 55.8759 107.179C55.8759 107.179 57.1611 102.983 55.7168 100.61C54.1851 98.0947 53.248 100.458 53.248 100.458Z" fill="#163560"/>
<path d="M52.6841 111.182C52.6841 111.182 52.7917 111.801 53.9297 111.705C53.9297 111.705 54.8849 111.626 54.8557 110.945C54.8557 110.945 53.9294 110.459 52.6841 111.182Z" fill="white"/>
<path d="M105.251 92.9839H95.9811V79.8935H105.251V92.9839ZM105.251 77.5906H95.9811V75.3577C95.9811 70.8805 97.1461 68.121 99.4739 64.2386C100.738 62.069 101.125 60.6877 101.125 58.4482C101.125 56.6053 100.833 56.017 100.106 56.017C99.1852 56.017 99.0392 57.66 99.0392 60.6877H90.595C90.6893 53.8475 92.7284 47.7955 100.833 47.7955C108.305 47.7955 110.683 53.0544 110.683 59.2413C110.683 64.0403 109.471 65.8832 107.432 69.5674C105.638 72.985 105.251 74.4363 105.251 76.4709V77.5906Z" fill="#C0D1FD"/>
<path d="M189.4 84.1914V70.6444H198.993V84.1914H189.4ZM189.4 68.2602V65.9487C189.4 61.3144 190.606 58.4608 193.015 54.4412C194.323 52.1968 194.723 50.7662 194.723 48.4491C194.723 46.5418 194.421 45.9327 193.668 45.9327C192.717 45.9327 192.566 47.6351 192.566 50.7662H183.826C183.923 43.6882 186.033 37.4241 194.421 37.4241C202.154 37.4241 204.616 42.8668 204.616 49.2705C204.616 54.2364 203.361 56.1437 201.25 59.9565C199.394 63.4937 198.993 64.995 198.993 67.1016V68.2602H189.4Z" fill="#F74872"/>
<path d="M210.292 93.271V87.1668H214.615V93.271H210.292ZM210.292 86.0929V85.0505C210.292 82.9636 210.836 81.6773 211.922 79.8658C212.511 78.8549 212.691 78.2097 212.691 77.1653C212.691 76.3058 212.556 76.0324 212.216 76.0324C211.787 76.0324 211.718 76.7975 211.718 78.2097H207.78C207.824 75.0195 208.774 72.197 212.556 72.197C216.04 72.197 217.148 74.6497 217.148 77.5351C217.148 79.7734 216.584 80.6329 215.632 82.35C214.796 83.9451 214.615 84.6217 214.615 85.5697V86.0929H210.292Z" fill="#AEC3FF"/>
<path d="M147.12 1.1227C146.53 0.986246 145.941 0.862196 145.349 0.750549C144.493 0.591055 143.635 0.45282 142.77 0.344719C132.907 -0.915285 122.442 1.18828 111.557 8.21488C109.858 9.31184 108.307 10.4496 106.894 11.621C105.705 12.6063 104.611 13.6164 103.603 14.6478L115.65 30.6504C116.583 30.1418 117.527 29.5853 118.477 28.9916C122.495 26.4823 126.629 23.2764 130.478 19.9856C138.695 12.9625 145.609 5.54955 147.314 3.69233C147.579 3.40347 147.718 3.24753 147.718 3.24753V3.24574L147.12 1.1227Z" fill="#1C468A"/>
<path d="M115.312 21.2057C115.312 19.8882 116.099 18.8216 117.071 18.8216C118.042 18.8216 118.83 19.8882 118.83 21.2057C118.83 22.5216 118.042 23.5898 117.071 23.5898C116.099 23.5898 115.312 22.5216 115.312 21.2057Z" fill="#14386D"/>
<path d="M316.078 240H0.358513C0.161395 240 0 239.781 0 239.514V239.348C0 239.08 0.161395 238.862 0.358513 238.862H316.078C316.274 238.862 316.437 239.08 316.437 239.348V239.514C316.437 239.781 316.274 240 316.078 240Z" fill="#233862"/>
<path d="M227.105 237.05L226.83 236.99C225.741 217.914 221.444 204.225 221.383 204.04L221.636 203.892C221.696 204.081 226.024 217.859 227.105 237.05Z" fill="#A8D29F"/>
<path d="M218.468 202.119C218.998 202.933 221.48 204.243 221.651 204.039C221.823 203.832 221.172 200.333 220.642 199.519C220.112 198.705 219.196 198.627 218.596 199.345C217.996 200.064 217.939 201.307 218.468 202.119Z" fill="white"/>
<path d="M222.27 199.284C221.791 200.154 221.357 203.716 221.54 203.9C221.723 204.085 224.116 202.504 224.594 201.633C225.073 200.763 224.941 199.531 224.299 198.883C223.657 198.235 222.748 198.413 222.27 199.284Z" fill="white"/>
<path d="M225.126 203.07C224.352 202.784 221.747 203.538 221.687 203.837C221.628 204.136 223.59 206.577 224.363 206.862C225.135 207.148 225.932 206.53 226.143 205.482C226.353 204.435 225.898 203.355 225.126 203.07Z" fill="white"/>
<path d="M223.365 207.791C223.288 206.711 221.844 203.677 221.616 203.708C221.39 203.737 220.402 207.089 220.478 208.169C220.556 209.249 221.265 210.041 222.062 209.937C222.859 209.831 223.443 208.87 223.365 207.791Z" fill="white"/>
<path d="M219.417 207.559C220.125 207.053 221.653 204.097 221.546 203.822C221.44 203.548 218.778 203.574 218.069 204.078C217.359 204.583 217.087 205.771 217.459 206.732C217.831 207.692 218.707 208.062 219.417 207.559Z" fill="white"/>
<path d="M221.072 203.721C221.115 203.368 221.36 203.128 221.62 203.185C221.88 203.24 222.057 203.571 222.016 203.926C221.974 204.278 221.73 204.519 221.469 204.462C221.209 204.407 221.031 204.075 221.072 203.721Z" fill="#F78248"/>
<path d="M225.803 209.33C225.017 210.644 224.166 216.154 224.443 216.458C224.718 216.764 228.526 214.511 229.313 213.198C230.101 211.885 229.954 209.954 228.985 208.887C228.016 207.817 226.593 208.017 225.803 209.33Z" fill="#A8D29F"/>
<path d="M223.866 225.156C224.685 225.696 226.494 228.985 226.379 229.302C226.266 229.618 223.24 229.713 222.421 229.172C221.603 228.631 221.263 227.293 221.662 226.185C222.06 225.075 223.048 224.615 223.866 225.156Z" fill="#A8D29F"/>
<path d="M234.989 237.05L235.308 236.98C236.556 215.08 241.49 199.364 241.559 199.15L241.269 198.981C241.202 199.198 236.231 215.017 234.989 237.05Z" fill="#A8D29F"/>
<path d="M244.907 196.947C244.299 197.881 241.449 199.384 241.252 199.149C241.055 198.913 241.803 194.894 242.411 193.96C243.02 193.025 244.072 192.937 244.761 193.761C245.45 194.585 245.516 196.012 244.907 196.947Z" fill="white"/>
<path d="M240.539 193.69C241.089 194.69 241.588 198.777 241.377 198.99C241.167 199.203 238.42 197.386 237.871 196.386C237.322 195.387 237.472 193.973 238.21 193.228C238.947 192.484 239.99 192.691 240.539 193.69Z" fill="white"/>
<path d="M237.262 198.037C238.15 197.709 241.14 198.575 241.209 198.918C241.278 199.261 239.024 202.062 238.137 202.391C237.251 202.717 236.335 202.009 236.093 200.806C235.852 199.604 236.375 198.364 237.262 198.037Z" fill="white"/>
<path d="M239.282 203.457C239.371 202.215 241.028 198.734 241.291 198.769C241.551 198.803 242.684 202.651 242.598 203.891C242.508 205.131 241.694 206.039 240.779 205.919C239.864 205.8 239.194 204.697 239.282 203.457Z" fill="white"/>
<path d="M243.819 203.19C243.005 202.61 241.251 199.215 241.374 198.902C241.496 198.587 244.552 198.616 245.366 199.194C246.18 199.773 246.493 201.138 246.066 202.241C245.639 203.345 244.632 203.769 243.819 203.19Z" fill="white"/>
<path d="M241.913 198.784C241.865 198.378 241.585 198.102 241.285 198.167C240.987 198.232 240.783 198.612 240.831 199.017C240.879 199.423 241.16 199.7 241.458 199.635C241.758 199.569 241.961 199.189 241.913 198.784Z" fill="#F78248"/>
<path d="M235.082 214.657C235.986 216.165 236.963 222.492 236.645 222.841C236.327 223.191 231.957 220.605 231.053 219.099C230.148 217.591 230.317 215.374 231.43 214.147C232.54 212.922 234.176 213.149 235.082 214.657Z" fill="#A8D29F"/>
<path d="M238.709 223.392C237.768 224.013 235.691 227.79 235.822 228.154C235.952 228.518 239.428 228.625 240.366 228.004C241.306 227.384 241.696 225.848 241.238 224.574C240.779 223.301 239.647 222.771 238.709 223.392Z" fill="#A8D29F"/>
<path d="M220.048 238.886C220.048 238.886 222.719 234.942 228.468 236.369C234.216 237.796 237.373 233.613 238.426 238.886H220.048Z" fill="#A8D29F"/>
</svg>
