<svg width="20" height="20" viewBox="0 0 20 20" fill="none" xmlns="http://www.w3.org/2000/svg">
<circle cx="10" cy="10" r="10" fill="#EEEEEE"/>
<path d="M11.875 10.4167C11.875 10.9692 11.6775 11.4991 11.3258 11.8898C10.9742 12.2805 10.4973 12.5 10 12.5C9.50272 12.5 9.02581 12.2805 8.67417 11.8898C8.32254 11.4991 8.125 10.9692 8.125 10.4167C8.125 9.86413 8.32254 9.33423 8.67417 8.94353C9.02581 8.55283 9.50272 8.33334 10 8.33334C10.4973 8.33334 10.9742 8.55283 11.3258 8.94353C11.6775 9.33423 11.875 9.86413 11.875 10.4167V10.4167Z" fill="#4C12AB"/>
<path d="M5.5 6.66667C5.10218 6.66667 4.72064 6.84226 4.43934 7.15482C4.15804 7.46738 4 7.89131 4 8.33333V13.3333C4 13.7754 4.15804 14.1993 4.43934 14.5118C4.72064 14.8244 5.10218 15 5.5 15H14.5C14.8978 15 15.2794 14.8244 15.5607 14.5118C15.842 14.1993 16 13.7754 16 13.3333V8.33333C16 7.89131 15.842 7.46738 15.5607 7.15482C15.2794 6.84226 14.8978 6.66667 14.5 6.66667H13.621C13.2232 6.66657 12.8417 6.49092 12.5605 6.17833L11.9395 5.48833C11.6583 5.17575 11.2768 5.00009 10.879 5H9.121C8.72321 5.00009 8.34174 5.17575 8.0605 5.48833L7.4395 6.17833C7.15826 6.49092 6.77679 6.66657 6.379 6.66667H5.5ZM5.875 8.33333C5.77554 8.33333 5.68016 8.28943 5.60984 8.21129C5.53951 8.13315 5.5 8.02717 5.5 7.91667C5.5 7.80616 5.53951 7.70018 5.60984 7.62204C5.68016 7.5439 5.77554 7.5 5.875 7.5C5.97446 7.5 6.06984 7.5439 6.14016 7.62204C6.21049 7.70018 6.25 7.80616 6.25 7.91667C6.25 8.02717 6.21049 8.13315 6.14016 8.21129C6.06984 8.28943 5.97446 8.33333 5.875 8.33333ZM12.625 10.4167C12.625 11.1902 12.3484 11.9321 11.8562 12.4791C11.3639 13.026 10.6962 13.3333 10 13.3333C9.30381 13.3333 8.63613 13.026 8.14384 12.4791C7.65156 11.9321 7.375 11.1902 7.375 10.4167C7.375 9.64312 7.65156 8.90125 8.14384 8.35427C8.63613 7.80729 9.30381 7.5 10 7.5C10.6962 7.5 11.3639 7.80729 11.8562 8.35427C12.3484 8.90125 12.625 9.64312 12.625 10.4167V10.4167Z" fill="#4C12AB"/>
</svg>
