<svg width="30" height="30" viewBox="0 0 30 30" fill="none" xmlns="http://www.w3.org/2000/svg">
<path d="M15 0C6.71652 0 0 6.71652 0 15C0 23.2835 6.71652 30 15 30C23.2835 30 30 23.2835 30 15C30 6.71652 23.2835 0 15 0ZM15 27.4554C8.12277 27.4554 2.54464 21.8772 2.54464 15C2.54464 8.12277 8.12277 2.54464 15 2.54464C21.8772 2.54464 27.4554 8.12277 27.4554 15C27.4554 21.8772 21.8772 27.4554 15 27.4554Z" fill="#795CC2"/>
<path d="M18.7364 8.46136C17.732 7.58078 16.4061 7.09863 14.9998 7.09863C13.5936 7.09863 12.2677 7.58412 11.2632 8.46136C10.2186 9.37542 9.6427 10.6042 9.6427 11.9201V12.1745C9.6427 12.3218 9.76324 12.4424 9.91056 12.4424H11.5177C11.665 12.4424 11.7856 12.3218 11.7856 12.1745V11.9201C11.7856 10.4435 13.2286 9.24149 14.9998 9.24149C16.771 9.24149 18.2141 10.4435 18.2141 11.9201C18.2141 12.9614 17.4775 13.9156 16.3358 14.3542C15.626 14.6254 15.0233 15.1009 14.5914 15.7236C14.1527 16.3598 13.9251 17.1232 13.9251 17.8966V18.6165C13.9251 18.7638 14.0456 18.8843 14.1929 18.8843H15.8001C15.9474 18.8843 16.0679 18.7638 16.0679 18.6165V17.8564C16.0697 17.5314 16.1693 17.2144 16.3538 16.9469C16.5384 16.6793 16.7993 16.4735 17.1025 16.3564C19.078 15.5964 20.3536 13.8553 20.3536 11.9201C20.357 10.6042 19.7811 9.37542 18.7364 8.46136ZM13.6606 22.3665C13.6606 22.7217 13.8017 23.0623 14.0528 23.3135C14.304 23.5647 14.6446 23.7058 14.9998 23.7058C15.355 23.7058 15.6957 23.5647 15.9469 23.3135C16.198 23.0623 16.3391 22.7217 16.3391 22.3665C16.3391 22.0113 16.198 21.6706 15.9469 21.4195C15.6957 21.1683 15.355 21.0272 14.9998 21.0272C14.6446 21.0272 14.304 21.1683 14.0528 21.4195C13.8017 21.6706 13.6606 22.0113 13.6606 22.3665Z" fill="#795CC2"/>
</svg>
