<svg id="Capa_1" enable-background="new 0 0 503.824 503.824" height="512" viewBox="0 0 503.824 503.824" width="512" xmlns="http://www.w3.org/2000/svg"><g><path d="m411.216 348.512c-1.461-2.065-1.804-4.715-.874-7.182l.129-.343c12.03-31.915 17.085-66.034 14.823-100.066-2.884-43.386-6.882-103.576-9.123-137.43-.976-14.741-12.784-26.439-27.66-27.289l-.649-.037c-14.32-.819-27.003 9.168-29.565 23.281l-12.53 69.031c-.23 1.266-1.332 2.186-2.619 2.186-5.339 3.242-10.393 6.842-15.15 10.749l-.445-.609-112.851-159.569c-9.712-13.733-28.69-17.727-42.684-8.394-14.519 9.683-18.105 29.364-8.094 43.519l-14.848-20.994c-9.844-13.92-29.109-17.223-43.028-7.379-13.92 9.844-17.223 29.109-7.379 43.028l19.902 28.141c-9.844-13.919-29.109-17.223-43.028-7.379-13.92 9.844-17.223 29.109-7.379 43.028l30.15 42.631c-9.844-13.919-29.108-17.222-43.028-7.378-13.92 9.844-17.223 29.109-7.379 43.029l149.438 211.302c9.744 13.778 22.838 24.887 38.192 32.403l14.231 6.966 25.486 36.037c2.006 2.836 5.395 4.357 8.847 3.97l209.607-23.506c4.448-.499 6.731-5.586 4.147-9.241z" fill="#ffefe7"/><g><g id="XMLID_145_"><g><path d="m189.14 45.351c-3.83-5.41-5.67-11.63-5.67-17.79 0-7.157 2.484-14.223 7.208-19.851-6.669-.338-13.496 1.468-19.372 5.625-8.51 6.01-13.05 15.54-13.05 25.23 0 6.16 1.84 12.38 5.67 17.79l92.08 130.21c12.585-7.232 16.219-23.724 7.838-35.576z" fill="#ffe0d1"/><path d="m203.296 218.966c12.649-7.959 16.028-24.904 7.398-37.106l-88.748-125.493c-3.83-5.41-5.67-11.64-5.67-17.8 0-5.635 1.55-11.225 4.514-16.096-5.141.511-10.225 2.321-14.744 5.515-8.51 6.01-13.05 15.55-13.05 25.23 0 6.16 1.84 12.39 5.67 17.8z" fill="#ffe0d1"/><g id="XMLID_146_"><g><path d="m346.158 369.174 53.848-31.089v-43.254l-71.647-113.719c-.11.089-.224.174-.333.263l-.47-.57-11.139-15.751c-.007-.001-.01-.001-.018-.002-13.27 10.704-24.561 23.477-33.55 37.953-12.45 20.077-20.096 43.137-22.11 66.685l-1.509 17.626 2.394 36.502c.018.28.038.559.058.839 2.986 41.415 48.516 65.278 84.476 44.517z" fill="#ffe0d1"/><path d="m425.296 240.926c2.2 33.15-2.53 66.39-13.9 97.59l-101.8 50.77-.187-.211c-16.419-18.478-26.211-41.9-27.828-66.566l-2.295-34.994 1.38-16.12c1.78-20.81 8.47-40.58 19.18-57.85 7.52-12.11 17.02-23 28.18-32.17 4.75-3.89 9.79-7.48 15.12-10.71 1.59-.97 2.69-2.56 3.02-4.39l12.13-66.83c2.56-14.11 15.25-24.1 29.57-23.28l.65.04c14.87.85 26.68 12.54 27.66 27.29 2.24 33.851 6.23 94.041 9.12 137.431z" fill="#ffefe7"/></g><path d="m93.526 124.679c-3.83-5.41-5.67-11.63-5.67-17.8 0-7.505 2.73-14.916 7.922-20.675-6.943-.55-14.1 1.237-20.232 5.571-8.51 6.02-13.05 15.55-13.05 25.23 0 6.17 1.84 12.39 5.67 17.8l87.84 124.21c11.509-9.747 13.658-26.674 4.95-38.988z" fill="#ffe0d1"/></g></g></g><g><path d="m106.945 454.108c-.212 0-.425-.009-.64-.026-60.847-5.144-106.167-58.83-101.024-119.678l.332-3.924c.349-4.127 3.977-7.178 8.105-6.841 4.127.35 7.19 3.979 6.841 8.106l-.332 3.923c-4.445 52.604 34.736 99.02 87.342 103.466 4.127.35 7.19 3.978 6.841 8.105-.33 3.913-3.608 6.869-7.465 6.869z" fill="#97c9f9"/></g><g><path d="m110.651 410.265c-.211 0-.425-.009-.64-.026-36.672-3.1-63.986-35.457-60.887-72.129l.332-3.92c.349-4.128 3.969-7.187 8.105-6.842 4.127.35 7.19 3.979 6.841 8.105l-.332 3.92c-2.402 28.43 18.773 53.515 47.204 55.918 4.127.35 7.19 3.978 6.841 8.105-.329 3.913-3.607 6.869-7.464 6.869z" fill="#97c9f9"/></g><g><path d="m339.735 83.482c-4.142 0-7.5-3.357-7.5-7.5v-1.166c0-32.982-26.834-59.816-59.817-59.816-4.142 0-7.5-3.357-7.5-7.5s3.358-7.5 7.5-7.5c41.254 0 74.817 33.562 74.817 74.816v1.166c0 4.143-3.357 7.5-7.5 7.5z" fill="#97c9f9"/></g><g><path d="m295.735 83.482c-4.142 0-7.5-3.357-7.5-7.5v-1.166c0-8.722-7.095-15.816-15.817-15.816-4.142 0-7.5-3.357-7.5-7.5s3.358-7.5 7.5-7.5c16.993 0 30.817 13.824 30.817 30.816v1.166c0 4.143-3.357 7.5-7.5 7.5z" fill="#97c9f9"/></g></g><path d="m317.851 499.979-37.777-55.567c-2.5-3.54-5.81-6.43-9.66-8.43l-2.23-1.16c-20.24-10.53-37.67-25.74-50.85-44.37l-155.28-219.56c-.808-1.142-1.508-2.327-2.141-3.533-1.591.755-3.142 1.647-4.629 2.699-13.92 9.844-17.223 29.109-7.379 43.029l149.438 211.302c9.744 13.778 22.838 24.887 38.192 32.403l14.231 6.966 25.486 36.037c2.006 2.836 5.395 4.357 8.847 3.97z" fill="#ffe0d1"/></g></svg>