<svg width="100" height="100" viewBox="0 0 100 100" fill="none" xmlns="http://www.w3.org/2000/svg">
<circle cx="50" cy="50" r="49.5" fill="#F5F6FA" stroke="#795CC2"/>
<path d="M28 80.25H71.75V69.3125C71.7454 65.2528 70.1306 61.3607 67.26 58.49C64.3893 55.6194 60.4972 54.0046 56.4375 54H43.3125C39.2528 54.0046 35.3607 55.6194 32.49 58.49C29.6194 61.3607 28.0046 65.2528 28 69.3125V80.25Z" fill="#7353C4"/>
<path d="M34.5625 34.3125C34.5625 37.341 35.4606 40.3015 37.1431 42.8197C38.8257 45.3378 41.2172 47.3004 44.0152 48.4594C46.8132 49.6184 49.892 49.9216 52.8623 49.3308C55.8327 48.7399 58.5611 47.2816 60.7026 45.1401C62.8441 42.9986 64.3024 40.2702 64.8933 37.2998C65.4841 34.3295 65.1809 31.2507 64.0219 28.4527C62.8629 25.6547 60.9003 23.2632 58.3822 21.5806C55.864 19.8981 52.9035 19 49.875 19C45.8139 19 41.9191 20.6133 39.0474 23.4849C36.1758 26.3566 34.5625 30.2514 34.5625 34.3125V34.3125Z" fill="#7353C4"/>
</svg>
