<svg width="100" height="34" viewBox="0 0 100 34" fill="none" xmlns="http://www.w3.org/2000/svg">
<rect width="100" height="34" fill="#C4C4C4"/>
<path d="M28.762 23.002H32.902V25H26.242V12.436H28.762V23.002ZM40.3357 25.126C39.1597 25.126 38.0797 24.85 37.0957 24.298C36.1117 23.746 35.3317 22.984 34.7557 22.012C34.1797 21.028 33.8917 19.918 33.8917 18.682C33.8917 17.458 34.1797 16.36 34.7557 15.388C35.3317 14.404 36.1117 13.636 37.0957 13.084C38.0797 12.532 39.1597 12.256 40.3357 12.256C41.5237 12.256 42.6037 12.532 43.5757 13.084C44.5597 13.636 45.3337 14.404 45.8977 15.388C46.4737 16.36 46.7617 17.458 46.7617 18.682C46.7617 19.918 46.4737 21.028 45.8977 22.012C45.3337 22.984 44.5597 23.746 43.5757 24.298C42.5917 24.85 41.5117 25.126 40.3357 25.126ZM40.3357 22.876C41.0917 22.876 41.7577 22.708 42.3337 22.372C42.9097 22.024 43.3597 21.532 43.6837 20.896C44.0077 20.26 44.1697 19.522 44.1697 18.682C44.1697 17.842 44.0077 17.11 43.6837 16.486C43.3597 15.85 42.9097 15.364 42.3337 15.028C41.7577 14.692 41.0917 14.524 40.3357 14.524C39.5797 14.524 38.9077 14.692 38.3197 15.028C37.7437 15.364 37.2937 15.85 36.9697 16.486C36.6457 17.11 36.4837 17.842 36.4837 18.682C36.4837 19.522 36.6457 20.26 36.9697 20.896C37.2937 21.532 37.7437 22.024 38.3197 22.372C38.9077 22.708 39.5797 22.876 40.3357 22.876ZM57.3845 16.216C57.0965 15.688 56.7005 15.286 56.1965 15.01C55.6925 14.734 55.1045 14.596 54.4325 14.596C53.6885 14.596 53.0285 14.764 52.4525 15.1C51.8765 15.436 51.4265 15.916 51.1025 16.54C50.7785 17.164 50.6165 17.884 50.6165 18.7C50.6165 19.54 50.7785 20.272 51.1025 20.896C51.4385 21.52 51.9005 22 52.4885 22.336C53.0765 22.672 53.7605 22.84 54.5405 22.84C55.5005 22.84 56.2865 22.588 56.8985 22.084C57.5105 21.568 57.9125 20.854 58.1045 19.942H53.7845V18.016H60.5885V20.212C60.4205 21.088 60.0605 21.898 59.5085 22.642C58.9565 23.386 58.2425 23.986 57.3665 24.442C56.5025 24.886 55.5305 25.108 54.4505 25.108C53.2385 25.108 52.1405 24.838 51.1565 24.298C50.1845 23.746 49.4165 22.984 48.8525 22.012C48.3005 21.04 48.0245 19.936 48.0245 18.7C48.0245 17.464 48.3005 16.36 48.8525 15.388C49.4165 14.404 50.1845 13.642 51.1565 13.102C52.1405 12.55 53.2325 12.274 54.4325 12.274C55.8485 12.274 57.0785 12.622 58.1225 13.318C59.1665 14.002 59.8865 14.968 60.2825 16.216H57.3845ZM68.2849 25.126C67.1089 25.126 66.0289 24.85 65.0449 24.298C64.0609 23.746 63.2809 22.984 62.7049 22.012C62.1289 21.028 61.8409 19.918 61.8409 18.682C61.8409 17.458 62.1289 16.36 62.7049 15.388C63.2809 14.404 64.0609 13.636 65.0449 13.084C66.0289 12.532 67.1089 12.256 68.2849 12.256C69.4729 12.256 70.5529 12.532 71.5249 13.084C72.5089 13.636 73.2829 14.404 73.8469 15.388C74.4229 16.36 74.7109 17.458 74.7109 18.682C74.7109 19.918 74.4229 21.028 73.8469 22.012C73.2829 22.984 72.5089 23.746 71.5249 24.298C70.5409 24.85 69.4609 25.126 68.2849 25.126ZM68.2849 22.876C69.0409 22.876 69.7069 22.708 70.2829 22.372C70.8589 22.024 71.3089 21.532 71.6329 20.896C71.9569 20.26 72.1189 19.522 72.1189 18.682C72.1189 17.842 71.9569 17.11 71.6329 16.486C71.3089 15.85 70.8589 15.364 70.2829 15.028C69.7069 14.692 69.0409 14.524 68.2849 14.524C67.5289 14.524 66.8569 14.692 66.2689 15.028C65.6929 15.364 65.2429 15.85 64.9189 16.486C64.5949 17.11 64.4329 17.842 64.4329 18.682C64.4329 19.522 64.5949 20.26 64.9189 20.896C65.2429 21.532 65.6929 22.024 66.2689 22.372C66.8569 22.708 67.5289 22.876 68.2849 22.876Z" fill="black"/>
</svg>
