<svg width="333" height="255" viewBox="0 0 333 255" fill="none" xmlns="http://www.w3.org/2000/svg">
<g clip-path="url(#clip0)">
<path d="M32.7357 7.60667C35.9041 6.80707 39.3607 7.58482 42.1411 9.24157C44.9217 10.8983 47.0856 13.3663 48.8121 16.0273C52.152 21.1759 53.2776 28.0651 53.3675 34.1211C46.3349 33.7846 40.3758 28.4481 37.5308 25.5592C33.0341 20.9924 27.8099 10.1315 32.7357 7.60667Z" fill="#F3F2F1"/>
<path d="M64.6484 38.2739C61.7772 36.1052 60.5221 32.298 61.1611 28.8542C61.7995 25.4111 64.1603 22.3794 67.1997 20.4299C68.6046 19.5283 70.3418 18.819 71.9611 19.2902C73.4748 19.7301 74.5179 21.1501 74.8103 22.6357C75.103 24.1213 74.7558 25.6587 74.2237 27.0824C72.3998 31.9652 69.6966 36.3703 64.6484 38.2739Z" fill="#F3F2F1"/>
<path d="M68.7403 52.9198C68.6626 52.9533 67.8565 51.641 66.7461 49.3973C66.1901 48.2751 65.6843 46.839 65.3424 45.2318C65.0107 43.6275 64.6072 41.8688 64.4714 39.9564C64.1605 36.1448 64.954 32.6624 66.057 30.3968C66.5993 29.2557 67.1916 28.4116 67.6188 27.8502C68.0742 27.304 68.3514 27.0265 68.3883 27.0542C68.4928 27.1263 67.4715 28.3228 66.5197 30.584C65.5669 32.8321 64.8793 36.1994 65.1801 39.9083C65.3091 41.7515 65.6902 43.5109 65.9838 45.1065C66.2879 46.7006 66.7199 48.0763 67.208 49.2094C68.1876 51.4742 68.8421 52.8768 68.7403 52.9198Z" fill="#DADBD8"/>
<path d="M37.4792 15.542C37.5168 15.5114 38.039 16.0321 38.9514 17.0007C39.8645 17.9685 41.1645 19.3856 42.7555 21.1494C45.9361 24.6785 50.2741 29.6006 54.9257 35.1484C59.5764 40.699 63.6387 45.8367 66.4949 49.6119C67.9237 51.4995 69.0606 53.0397 69.8238 54.1197C70.5894 55.1975 70.9935 55.8063 70.9541 55.834C70.9143 55.8617 70.4342 55.3045 69.6002 54.2748C68.694 53.1446 67.5137 51.6721 66.092 49.8981C63.1348 46.2001 59.0163 41.117 54.3709 35.5722C49.7241 30.1068 45.5207 25.1628 42.3705 21.4575C40.8995 19.7206 39.6777 18.278 38.7403 17.1711C37.8925 16.1508 37.442 15.5726 37.4792 15.542Z" fill="#DADBD8"/>
<path d="M59.8603 44.8258C53.5266 40.6129 44.9979 39.5912 37.7711 42.1801C35.9312 42.8392 33.9272 44.0662 33.8685 45.9436C33.8102 47.8232 35.746 49.1668 37.5636 49.8885C45.1272 52.8932 54.5423 50.9619 60.1471 45.2547" fill="#F3F2F1"/>
<path d="M42.6907 45.0345C42.6799 44.9886 43.0563 44.8685 43.7471 44.6893C44.4359 44.5014 45.4489 44.2932 46.7091 44.0681C49.2197 43.6793 52.8234 43.227 56.7291 43.9873C58.6717 44.3703 60.4495 45.0542 61.9315 45.8851C63.4231 46.7138 64.5707 47.7246 65.4715 48.6043C66.3407 49.5161 66.986 50.3004 67.3558 50.8903C67.7454 51.4678 67.9392 51.7969 67.8984 51.8231C67.7823 51.9025 66.9139 50.6281 65.1154 48.9422C64.1929 48.1288 63.0524 47.1915 61.6034 46.4262C60.1615 45.6586 58.4571 45.0214 56.5852 44.6522C52.8269 43.9174 49.2885 44.2764 46.7833 44.5429C44.267 44.8568 42.715 45.1408 42.6907 45.0345Z" fill="#DADBD8"/>
<path d="M70.1791 192.661C92.9105 182.118 101.773 157.481 104.759 134.578C105.258 130.756 106.363 126.813 105.025 123.189C103.687 119.565 99.6486 116.613 95.8179 117.674C92.6406 118.553 90.805 121.642 88.6987 124.108C85.8965 127.388 82.1208 129.88 77.9448 131.206C75.2005 132.077 71.9366 132.369 69.6542 130.67C66.5224 128.338 66.8723 123.746 67.5268 119.966C68.7477 112.924 69.9677 105.883 71.188 98.8422C71.8428 95.0641 72.4976 91.2045 71.8646 87.4278C71.2312 83.6512 69.066 79.9037 65.4685 78.3226C61.8691 76.7424 56.8669 78.1085 55.4549 81.6893C54.8671 83.18 54.9294 84.8287 54.558 86.3813C54.1863 87.9347 53.1316 89.5557 51.4981 89.7553C49.8439 89.9592 48.4381 88.6462 47.4397 87.3586C43.9896 82.9193 42.0362 77.5784 40.2599 72.2928C38.4831 67.0066 36.8022 61.6161 33.7886 56.8877C30.7751 52.1585 26.1965 48.0789 20.5783 46.9094C14.9587 45.7405 8.36143 48.1656 6.04291 53.2647C3.71816 58.3784 6.07299 64.2829 8.89741 69.1374C13.0871 76.3404 18.3629 82.9484 24.5051 88.6891C25.6122 89.7254 26.8123 90.8455 27.0559 92.3187C27.496 94.9709 24.5781 97.0945 21.8341 97.527C18.7267 98.0171 15.5736 97.2379 12.429 97.1156C9.28421 96.9932 5.72369 97.7856 4.09187 100.396C1.82608 104.014 4.53496 108.581 7.42311 111.74C13.2054 118.068 20.1201 123.424 27.7688 127.501C30.5113 128.962 33.4271 130.321 35.4499 132.632C37.4727 134.945 38.3237 138.56 36.4618 141.007C34.5971 143.458 30.8135 143.757 27.8533 142.751C24.894 141.749 22.4264 139.751 19.6942 138.261C14.5805 135.473 7.49487 134.763 3.26167 138.724C0.479829 141.328 -0.406953 145.409 0.165077 149.105C0.736513 152.8 2.58095 156.19 4.61001 159.364C11.7013 170.463 21.5529 180.028 33.4777 186.128C45.4013 192.227 56.9066 195.136 70.1791 192.661Z" fill="#E7E8E5"/>
<path d="M66.9562 193.875C67.5958 184.719 68.0219 189.469 66.4026 177.445C64.808 165.415 61.9157 152.367 58.3995 138.819C57.5077 135.435 56.6259 132.091 55.7577 128.796C54.8825 125.51 54.0147 122.249 52.96 119.111C50.878 112.824 48.3752 106.93 45.8164 101.408C43.2591 95.8812 40.6213 90.7267 38.1188 85.924C35.6035 81.1242 33.1716 76.6928 30.7744 72.7451C26.0046 64.8269 21.375 58.8881 18.0227 54.9345C16.351 52.9515 15.0011 51.4543 14.0721 50.4515C13.6239 49.9738 13.2725 49.5987 13.0078 49.3169C12.7648 49.0642 12.6359 48.9389 12.6267 48.9477C12.6159 48.955 12.7264 49.097 12.951 49.365C13.2014 49.6584 13.5358 50.0488 13.9595 50.5447C14.8508 51.5781 16.164 53.1023 17.8003 55.1086C21.0779 59.1102 25.6258 65.0731 30.3236 72.9992C32.6853 76.9521 35.085 81.3863 37.5715 86.1905C40.049 91.002 42.6629 96.1579 45.1972 101.677C47.7319 107.194 50.2109 113.071 52.2715 119.325C53.3161 122.449 54.1726 125.68 55.0474 128.976C55.9145 132.27 56.7942 135.612 57.6852 138.994C61.1974 152.531 64.1028 165.542 65.7305 177.532C67.3805 189.514 67.0071 184.718 66.4363 193.845" fill="#DADBD8"/>
<path d="M52.7565 119.052C52.8041 119.067 53.0342 118.513 53.4115 117.498C53.7936 116.484 54.2953 115.001 54.8877 113.16C56.0749 109.479 57.5325 104.343 59.117 98.6749C60.702 93.0034 62.2323 87.9021 63.4743 84.2492C64.0904 82.4213 64.6041 80.9459 64.9733 79.9308C65.3366 78.9134 65.5153 78.3417 65.4685 78.3228C65.4209 78.3046 65.1526 78.842 64.7065 79.8324C64.2542 80.8192 63.6631 82.2735 62.9833 84.0868C61.6091 87.7113 59.993 92.8133 58.4068 98.4899C56.8574 104.087 55.4573 109.151 54.3867 113.02C53.8918 114.765 53.4732 116.235 53.1376 117.415C52.8466 118.454 52.7067 119.037 52.7565 119.052Z" fill="#DADBD8"/>
<path d="M3.37167 102.226C3.36244 102.274 4.07323 102.464 5.3635 102.767C6.6505 103.077 8.51638 103.515 10.8021 104.127C15.384 105.317 21.6528 107.172 28.4752 109.507C35.2961 111.855 41.3731 114.231 45.7168 116.07C47.8969 116.975 49.6391 117.753 50.8479 118.284C52.0538 118.82 52.7318 119.095 52.7566 119.052C52.7795 119.007 52.1446 118.649 50.9755 118.035C49.8038 117.428 48.0904 116.578 45.9327 115.61C41.6319 113.648 35.5644 111.19 28.7242 108.834C21.8809 106.493 15.5636 104.707 10.934 103.639C8.62326 103.089 6.73387 102.722 5.42306 102.497C4.11135 102.277 3.38239 102.178 3.37167 102.226Z" fill="#DADBD8"/>
<path d="M65.926 176.455C65.9478 176.468 66.1005 176.282 66.3738 175.915C66.6886 175.475 67.0724 174.938 67.5373 174.288C68.5408 172.871 69.9374 170.785 71.6272 168.185C75.0112 162.989 79.4482 155.67 84.2309 147.53C89.0159 139.387 93.3756 132.039 96.6413 126.782C98.2368 124.228 99.551 122.127 100.528 120.566C100.947 119.887 101.291 119.328 101.575 118.868C101.807 118.476 101.92 118.264 101.898 118.249C101.876 118.237 101.724 118.423 101.45 118.791C101.136 119.231 100.752 119.766 100.287 120.416C99.2827 121.833 97.8862 123.92 96.1969 126.519C92.813 131.716 88.3756 139.035 83.5913 147.178C78.8086 155.319 74.4481 162.666 71.183 167.924C69.5857 170.477 68.2728 172.579 67.297 174.138C66.8777 174.818 66.5323 175.378 66.2491 175.836C66.0166 176.229 65.9043 176.441 65.926 176.455Z" fill="#DADBD8"/>
<path d="M1.75913 145.348C1.74901 145.37 1.96519 145.496 2.38625 145.714C2.88741 145.964 3.50172 146.271 4.24587 146.641C5.96672 147.479 8.28937 148.61 11.1153 149.985C16.9148 152.809 24.8783 156.799 33.6713 161.217C42.4668 165.638 50.477 169.56 56.3394 172.271C59.2704 173.627 61.6529 174.702 63.3157 175.411C64.0848 175.734 64.7197 176.001 65.2349 176.219C65.6774 176.396 65.9156 176.478 65.926 176.455C65.9364 176.433 65.7199 176.307 65.2989 176.088C64.7992 175.839 64.1849 175.533 63.4392 175.161C61.7184 174.323 59.3969 173.194 56.571 171.819C50.7715 168.995 42.8069 165.004 34.0114 160.585C25.2184 156.164 17.2096 152.243 11.3473 149.532C8.41622 148.176 6.03372 147.102 4.36974 146.392C3.60059 146.068 2.96722 145.801 2.45027 145.585C2.00807 145.407 1.77104 145.326 1.75913 145.348Z" fill="#DADBD8"/>
<path d="M326.184 254.81C326.184 254.916 254.018 255 165.017 255C75.9852 255 3.83496 254.916 3.83496 254.81C3.83496 254.706 75.9852 254.621 165.017 254.621C254.018 254.621 326.184 254.706 326.184 254.81Z" fill="#17282F"/>
<path d="M21.5449 134.2C21.5449 134.2 26.8054 130.809 33.3774 142.846C39.9493 154.885 42.4625 161.838 42.4625 161.838C42.4625 161.838 44.193 164.357 45.999 162.685C47.8049 161.012 50.2545 156.29 53.3606 157.108C56.5813 157.957 57.6731 161.373 57.1099 166.411C56.5468 171.449 55.7372 182.531 55.6678 183.532C55.5999 184.517 56.2035 185.959 57.6251 185.008C59.0467 184.057 67.1906 175.227 71.3455 179.17C75.5001 183.112 71.517 196.902 71.112 198.417C70.707 199.933 71.0227 200.576 71.7782 200.943C72.5336 201.311 74.9783 198.096 77.402 195.675C79.8262 193.254 83.0812 190.853 85.279 193.321C87.476 195.787 88.2733 206.099 78.1582 222.952L72.9356 230.469L63.4612 230.051C43.2412 227.978 34.9708 221.307 34.1709 218.159C33.3711 215.012 37.3167 213.905 40.7915 213.451C44.2656 212.998 48.4249 212.995 48.5569 212.196C48.6891 211.395 48.3299 210.774 46.808 210.198C45.2858 209.621 31.2628 204.605 30.3611 199.077C29.4598 193.549 41.7238 192.436 43.3645 191.895C45.0053 191.354 44.1363 190.04 43.2629 189.515C42.3729 188.98 32.5076 183.1 27.9081 180.577C23.308 178.054 21.055 175.205 22.2268 172.215C23.3569 169.333 28.796 170.211 31.2739 169.797C33.752 169.383 32.6332 166.566 32.6332 166.566C32.6332 166.566 28.2168 160.539 21.8748 148.39C15.5331 136.239 21.6566 134.138 21.6566 134.138" fill="#8C3DF0"/>
<path d="M27.4493 144.97C27.4549 144.968 27.4999 145.04 27.5821 145.185C27.6705 145.345 27.7884 145.557 27.9379 145.827C28.253 146.414 28.7011 147.248 29.2735 148.313C30.4342 150.495 32.0973 153.62 34.1484 157.474C38.3045 165.21 44.0301 175.867 50.3547 187.637C56.7095 199.408 62.4104 210.09 66.4689 217.855C68.4762 221.73 70.1038 224.872 71.2398 227.066C71.786 228.143 72.2133 228.987 72.514 229.581C72.6496 229.857 72.7561 230.075 72.8372 230.238C72.9077 230.388 72.9417 230.466 72.9357 230.469C72.93 230.472 72.8853 230.399 72.8035 230.255C72.7144 230.094 72.5968 229.881 72.4476 229.612C72.1329 229.025 71.6847 228.192 71.1121 227.127C69.9517 224.946 68.2886 221.82 66.2375 217.966C62.1204 210.232 56.3838 199.569 50.0288 187.798C43.676 176.031 37.9754 165.35 33.9173 157.586C31.9097 153.71 30.282 150.568 29.146 148.374C28.5999 147.296 28.1723 146.452 27.8715 145.859C27.7361 145.582 27.6292 145.364 27.5485 145.201C27.4773 145.052 27.4439 144.973 27.4493 144.97Z" fill="#17282F"/>
<path d="M50.2119 163.845C50.2631 163.859 50.0454 164.762 49.6905 166.22C49.3192 167.771 48.8468 169.742 48.3252 171.921C47.796 174.15 47.3017 176.166 46.8965 177.615C46.6928 178.34 46.5147 178.922 46.3786 179.322C46.2401 179.72 46.1523 179.937 46.1282 179.931C46.0772 179.917 46.3071 179.017 46.6448 177.556C47.0048 176.003 47.4622 174.028 47.9681 171.843C48.4979 169.614 49.0196 167.604 49.4395 166.159C49.6509 165.437 49.8289 164.855 49.9662 164.456C50.1014 164.056 50.1877 163.839 50.2119 163.845Z" fill="#17282F"/>
<path d="M45.2624 180.098C45.2355 180.192 40.9028 179.125 35.5863 177.716C30.2684 176.308 25.9804 175.09 26.0075 174.997C26.0343 174.904 30.3663 175.971 35.6843 177.379C41.0006 178.788 45.2894 180.005 45.2624 180.098Z" fill="#17282F"/>
<path d="M57.4946 200.359C57.496 200.382 57.2501 200.416 56.8035 200.457C56.357 200.499 55.7097 200.54 54.9096 200.58C53.309 200.654 51.0926 200.706 48.647 200.636C46.1999 200.573 43.9901 200.406 42.3966 200.243C41.5992 200.162 40.9563 200.082 40.5126 200.017C40.0698 199.953 39.826 199.906 39.8286 199.882C39.8346 199.831 40.8229 199.896 42.4184 199.996C44.0142 200.097 46.2192 200.223 48.6571 200.287C51.0941 200.355 53.3028 200.343 54.9021 200.333C56.5012 200.318 57.4919 200.308 57.4946 200.359Z" fill="#17282F"/>
<path d="M65.3583 186.599C65.4023 186.623 64.9938 187.406 64.297 188.652C63.601 189.9 62.6166 191.61 61.5101 193.489C60.4032 195.368 59.383 197.06 58.6288 198.276C57.8745 199.492 57.3865 200.231 57.3421 200.208C57.298 200.185 57.7069 199.402 58.4034 198.154C59.0996 196.908 60.0838 195.196 61.1909 193.317C62.2974 191.439 63.3173 189.747 64.0712 188.531C64.8259 187.315 65.3142 186.575 65.3583 186.599Z" fill="#17282F"/>
<path d="M78.5355 203.174C78.5576 203.186 78.4318 203.44 78.1871 203.89C77.8975 204.4 77.5399 205.031 77.1176 205.776C76.2009 207.361 74.9128 209.54 73.4703 211.935C72.0273 214.331 70.7037 216.489 69.7297 218.043C69.2672 218.767 68.8763 219.379 68.5597 219.875C68.2765 220.303 68.1095 220.534 68.0874 220.522C68.0654 220.51 68.1907 220.255 68.4361 219.806C68.7253 219.296 69.0826 218.666 69.5052 217.92C70.4214 216.334 71.7099 214.156 73.1529 211.76C74.5954 209.365 75.919 207.206 76.8927 205.652C77.3555 204.929 77.7465 204.317 78.0637 203.821C78.3465 203.393 78.5134 203.162 78.5355 203.174Z" fill="#17282F"/>
<path d="M68.2148 220.04C68.2154 220.065 67.9015 220.089 67.3333 220.111C66.7655 220.135 65.943 220.15 64.927 220.158C62.8947 220.168 60.0854 220.127 56.9885 219.96C53.8908 219.798 51.0934 219.545 49.0752 219.317C48.0656 219.205 47.2509 219.1 46.6894 219.017C46.1272 218.935 45.8183 218.877 45.8213 218.853C45.8237 218.829 46.1387 218.841 46.7054 218.882C47.3453 218.933 48.1476 218.996 49.1013 219.071C51.1233 219.236 53.9173 219.449 57.0091 219.611C60.0995 219.778 62.9009 219.857 64.9297 219.911C65.8858 219.936 66.6908 219.957 67.333 219.975C67.9006 219.994 68.2148 220.016 68.2148 220.04Z" fill="#17282F"/>
<path d="M316.09 130.199L290.578 153.926L267.07 196.789L240.628 245.252L208.146 230.707L173.035 213.532L195.494 172.548L209.451 126.655C199.59 132.905 181.285 141.417 159.37 136.978C135.63 132.169 147.026 46.6393 147.026 46.6393L173.111 45.9978L175.71 106.304L205.201 93.8642L205.247 93.9668C207.021 93.2102 208.574 92.5366 209.399 92.1069C225.705 83.6098 236.408 82.5801 253.902 88.5451L279.144 96.5543C285.63 99.4767 309.544 110.724 316.09 130.199Z" fill="#8C3DF0"/>
<path d="M226.797 86.7563C226.815 86.7898 226.205 87.076 225.215 87.7518C224.225 88.4232 222.883 89.5382 221.56 91.1855C220.233 92.8291 218.968 95.0094 217.958 97.5838C216.927 100.152 216.134 103.091 215.27 106.168C213.523 112.3 211.943 117.848 210.784 121.919C210.2 123.895 209.725 125.511 209.379 126.681C209.215 127.21 209.083 127.637 208.979 127.97C208.883 128.264 208.827 128.417 208.813 128.413C208.8 128.409 208.831 128.251 208.901 127.95C208.987 127.613 209.096 127.179 209.231 126.642C209.546 125.464 209.98 123.839 210.512 121.849C211.643 117.771 213.182 112.213 214.886 106.07C215.75 102.995 216.556 100.045 217.616 97.4585C218.654 94.8667 219.964 92.6652 221.338 91.0209C222.709 89.3707 224.1 88.271 225.126 87.6302C225.636 87.3032 226.056 87.084 226.345 86.9471C226.636 86.8109 226.79 86.7447 226.797 86.7563Z" fill="#17282F"/>
<path d="M240.633 245.242V87.1302C243.044 123.995 245.456 160.867 247.867 197.731C246.356 198.21 244.833 198.693 243.304 199.178C242.748 199.355 242.192 199.532 241.679 199.695L241.491 199.754L241.553 199.935C242.355 202.241 243.131 204.534 243.887 206.801L249.686 225.533C249.722 226.101 249.76 226.668 249.797 227.236L240.633 245.242Z" fill="#7C2CBA"/>
<path d="M269.257 134.459C269.149 134.497 268.216 132.266 266.916 129.581C265.622 126.891 264.45 124.765 264.55 124.711C264.597 124.687 264.95 125.187 265.458 126.032C265.967 126.878 266.623 128.07 267.276 129.422C267.927 130.772 268.451 132.024 268.794 132.941C269.137 133.86 269.307 134.442 269.257 134.459Z" fill="#FAFAF9"/>
<path d="M290.023 124.488C290.081 124.577 287.862 125.999 285.067 127.663C282.272 129.327 279.959 130.604 279.902 130.515C279.844 130.426 282.062 129.006 284.857 127.341C287.652 125.677 289.965 124.399 290.023 124.488Z" fill="#FAFAF9"/>
<path d="M281.011 117.309C280.902 117.314 280.717 115.58 280.601 113.437C280.483 111.291 280.477 109.548 280.586 109.543C280.696 109.538 280.88 111.271 280.997 113.416C281.114 115.561 281.121 117.303 281.011 117.309Z" fill="#FAFAF9"/>
<path d="M301.741 115.922C301.683 116.011 300.009 115.123 298 113.938C295.99 112.753 294.409 111.72 294.467 111.631C294.525 111.542 296.2 112.43 298.209 113.615C300.217 114.8 301.798 115.833 301.741 115.922Z" fill="#FAFAF9"/>
<path d="M270.05 155.199C269.948 155.158 270.871 152.903 272.109 150.163C273.347 147.423 274.432 145.235 274.534 145.276C274.634 145.318 273.712 147.573 272.474 150.313C271.236 153.053 270.15 155.241 270.05 155.199Z" fill="#FAFAF9"/>
<path d="M260.818 164.131C260.721 164.178 259.887 162.775 258.956 160.998C258.026 159.219 257.351 157.74 257.449 157.694C257.547 157.647 258.381 159.05 259.311 160.828C260.241 162.605 260.917 164.084 260.818 164.131Z" fill="#FAFAF9"/>
<path d="M268.537 176.147C268.567 176.241 266.841 176.807 264.619 177.102C262.398 177.405 260.575 177.317 260.578 177.219C260.576 177.107 262.374 177.026 264.564 176.727C266.755 176.436 268.506 176.04 268.537 176.147Z" fill="#FAFAF9"/>
<path d="M278.445 163.005C278.344 162.964 278.948 161.381 279.795 159.47C280.643 157.558 281.411 156.041 281.512 156.083C281.613 156.123 281.008 157.706 280.161 159.618C279.314 161.529 278.546 163.046 278.445 163.005Z" fill="#FAFAF9"/>
<path d="M254.359 190.776C254.263 190.838 253.142 189.357 251.601 187.663C250.065 185.962 248.692 184.691 248.77 184.609C248.837 184.534 250.346 185.693 251.901 187.415C253.461 189.131 254.446 190.723 254.359 190.776Z" fill="#FAFAF9"/>
<path d="M249.994 160.915C250.088 160.968 249.196 162.606 248 164.574C246.804 166.543 245.758 168.096 245.663 168.043C245.569 167.991 246.461 166.353 247.657 164.384C248.853 162.415 249.899 160.863 249.994 160.915Z" fill="#FAFAF9"/>
<path d="M253.101 150.626C253.073 150.728 251.166 150.345 248.841 149.772C246.514 149.198 244.652 148.651 244.679 148.549C244.707 148.449 246.614 148.831 248.94 149.404C251.265 149.978 253.128 150.525 253.101 150.626Z" fill="#FAFAF9"/>
<path d="M252.922 129.527C253.018 129.472 253.972 130.837 255.179 132.495C256.383 134.156 257.386 135.487 257.299 135.554C257.216 135.618 256.065 134.384 254.853 132.711C253.637 131.041 252.83 129.58 252.922 129.527Z" fill="#FAFAF9"/>
<path d="M245.897 128.494C245.969 128.574 244.788 129.667 243.26 130.936C241.731 132.206 240.434 133.171 240.362 133.093C240.29 133.013 241.47 131.92 243 130.65C244.528 129.381 245.826 128.415 245.897 128.494Z" fill="#FAFAF9"/>
<path d="M251.444 117.447C251.377 117.521 249.677 116.177 247.921 114.201C246.159 112.23 245.042 110.413 245.129 110.361C245.226 110.299 246.48 112.006 248.224 113.956C249.959 115.91 251.523 117.365 251.444 117.447Z" fill="#FAFAF9"/>
<path d="M270.937 114.045C270.969 114.145 269.055 114.792 266.664 115.49C264.27 116.188 262.305 116.673 262.273 116.572C262.241 116.472 264.154 115.825 266.547 115.127C268.94 114.429 270.905 113.945 270.937 114.045Z" fill="#FAFAF9"/>
<path d="M243.49 96.3066C243.372 96.3 243.425 94.6353 243.154 92.6108C242.895 90.5848 242.415 88.9834 242.528 88.9492C242.622 88.9142 243.283 90.4945 243.548 92.5634C243.824 94.6316 243.59 96.3182 243.49 96.3066Z" fill="#FAFAF9"/>
<path d="M226.143 149.11C226.174 149.157 225.472 149.619 224.347 150.375C223.221 151.129 221.681 152.189 220.032 153.423C218.382 154.659 216.937 155.835 215.902 156.699C214.865 157.561 214.228 158.102 214.187 158.062C214.151 158.027 214.719 157.417 215.712 156.501C216.704 155.584 218.128 154.368 219.787 153.125C221.446 151.884 223.022 150.852 224.191 150.152C225.36 149.45 226.116 149.068 226.143 149.11Z" fill="#FAFAF9"/>
<path d="M225.141 143.264C225.041 143.322 223.759 141.415 221.986 139.197C220.222 136.973 218.641 135.283 218.724 135.206C218.763 135.172 219.209 135.552 219.873 136.219C220.536 136.887 221.411 137.848 222.302 138.967C223.192 140.086 223.929 141.147 224.426 141.937C224.922 142.725 225.186 143.237 225.141 143.264Z" fill="#FAFAF9"/>
<path d="M229.787 120.248C229.84 120.34 228.209 121.297 226.146 122.385C224.082 123.474 222.366 124.281 222.313 124.19C222.261 124.099 223.89 123.142 225.954 122.053C228.017 120.964 229.733 120.157 229.787 120.248Z" fill="#FAFAF9"/>
<path d="M225.189 110.199C225.155 110.236 224.642 109.875 223.882 109.215C223.121 108.556 222.123 107.588 221.127 106.43C220.133 105.27 219.334 104.145 218.806 103.304C218.278 102.462 218.008 101.912 218.052 101.887C218.156 101.829 219.459 103.899 221.434 106.189C223.397 108.487 225.269 110.113 225.189 110.199Z" fill="#FAFAF9"/>
<path d="M233.102 109.987C233.004 109.941 233.632 108.515 234.505 106.801C235.379 105.087 236.166 103.735 236.265 103.781C236.364 103.827 235.736 105.253 234.862 106.967C233.989 108.681 233.201 110.033 233.102 109.987Z" fill="#FAFAF9"/>
<path d="M230.99 98.4848C230.867 98.4797 231.004 96.2215 230.548 93.4913C230.11 90.7568 229.258 88.6478 229.374 88.6063C229.421 88.5888 229.694 89.0942 230.02 89.9572C230.349 90.8194 230.712 92.0465 230.94 93.4331C231.165 94.8196 231.212 96.0933 231.175 97.0094C231.139 97.927 231.04 98.4885 230.99 98.4848Z" fill="#FAFAF9"/>
<path d="M232.942 156.52C232.885 156.515 232.925 155.701 232.972 154.389C233.02 153.076 233.059 151.263 233.008 149.263C232.955 147.261 232.821 145.452 232.705 144.144C232.59 142.835 232.506 142.024 232.564 142.016C232.615 142.009 232.796 142.807 232.984 144.114C233.172 145.421 233.352 147.239 233.405 149.253C233.456 151.267 233.372 153.091 233.253 154.404C233.133 155.719 232.994 156.526 232.942 156.52Z" fill="#FAFAF9"/>
<path d="M231.784 174.614C231.691 174.693 230.429 173.238 228.4 172.016C226.383 170.773 224.469 170.293 224.506 170.18C224.513 170.088 226.528 170.414 228.614 171.696C230.709 172.961 231.868 174.57 231.784 174.614Z" fill="#FAFAF9"/>
<path d="M241.324 185.834C241.375 185.928 239.031 187.182 236.089 188.636C233.146 190.09 230.722 191.194 230.671 191.101C230.621 191.008 232.964 189.754 235.907 188.299C238.848 186.845 241.273 185.742 241.324 185.834Z" fill="#FAFAF9"/>
<path d="M214.475 190.808C214.387 190.871 212.66 188.772 210.619 186.121C208.578 183.471 206.995 181.272 207.085 181.21C207.172 181.148 208.898 183.246 210.94 185.897C212.98 188.547 214.563 190.746 214.475 190.808Z" fill="#FAFAF9"/>
<path d="M206.187 170.099C206.133 170.101 206.062 169.53 206.018 168.604C205.974 167.679 205.964 166.397 206.032 164.985C206.101 163.571 206.233 162.296 206.368 161.379C206.501 160.461 206.628 159.899 206.68 159.905C206.794 159.92 206.561 162.193 206.429 165.002C206.289 167.812 206.301 170.095 206.187 170.099Z" fill="#FAFAF9"/>
<path d="M197.246 205.449C197.176 205.53 195.183 204.057 192.793 202.159C190.404 200.26 188.524 198.656 188.594 198.576C188.664 198.495 190.658 199.969 193.047 201.867C195.437 203.765 197.317 205.369 197.246 205.449Z" fill="#FAFAF9"/>
<path d="M202.612 204.365C202.503 204.367 202.352 201.811 202.275 198.658C202.198 195.503 202.225 192.945 202.334 192.941C202.444 192.939 202.595 195.494 202.672 198.649C202.749 201.803 202.722 204.362 202.612 204.365Z" fill="#FAFAF9"/>
<path d="M213.212 226.295C213.185 226.352 212.261 225.992 210.729 225.525C209.198 225.055 207.046 224.518 204.619 224.198C202.191 223.884 199.966 223.851 198.36 223.911C196.754 223.968 195.761 224.078 195.752 224.016C195.748 223.991 195.993 223.937 196.44 223.862C196.886 223.783 197.536 223.706 198.345 223.643C199.959 223.514 202.215 223.504 204.673 223.823C207.13 224.145 209.3 224.733 210.82 225.271C211.58 225.538 212.186 225.78 212.593 225.971C213.002 226.157 213.223 226.272 213.212 226.295Z" fill="#FAFAF9"/>
<path d="M221.942 230.296C221.973 230.257 222.642 230.674 223.659 231.431C224.676 232.188 226.031 233.298 227.424 234.628C228.816 235.96 229.979 237.254 230.772 238.226C231.564 239.197 232 239.836 231.959 239.866C231.913 239.9 231.399 239.319 230.555 238.396C229.711 237.473 228.526 236.218 227.144 234.896C225.761 233.577 224.447 232.444 223.48 231.638C222.514 230.832 221.907 230.341 221.942 230.296Z" fill="#FAFAF9"/>
<path d="M225.742 192.356C225.64 192.395 224.756 190.494 223.767 188.11C222.778 185.725 222.059 183.762 222.161 183.723C222.263 183.685 223.147 185.586 224.136 187.97C225.126 190.355 225.845 192.318 225.742 192.356Z" fill="#FAFAF9"/>
<path d="M195.122 118.55C195.158 118.583 194.731 119.065 193.955 119.765C193.181 120.463 192.044 121.365 190.689 122.23C189.332 123.092 188.024 123.748 187.05 124.162C186.076 124.577 185.447 124.768 185.427 124.724C185.379 124.615 187.794 123.629 190.469 121.914C193.153 120.215 195.037 118.465 195.122 118.55Z" fill="#FAFAF9"/>
<path d="M197.069 110.833C196.96 110.828 196.944 109.373 197.032 107.583C197.121 105.793 197.281 104.345 197.391 104.35C197.5 104.355 197.518 105.81 197.429 107.6C197.339 109.39 197.178 110.838 197.069 110.833Z" fill="#FAFAF9"/>
<path d="M181.873 117.315C181.828 117.41 180.055 116.727 177.914 115.79C175.772 114.852 174.073 114.014 174.118 113.919C174.164 113.824 175.937 114.507 178.079 115.445C180.22 116.382 181.92 117.219 181.873 117.315Z" fill="#FAFAF9"/>
<path d="M209.006 107.436C208.897 107.428 208.952 105.625 209.129 103.409C209.307 101.192 209.539 99.4018 209.649 99.4098C209.758 99.4179 209.702 101.221 209.525 103.438C209.347 105.654 209.115 107.445 209.006 107.436Z" fill="#FAFAF9"/>
<path d="M173.795 132.749C173.766 132.84 171.705 132.237 169.443 130.932C167.173 129.639 165.646 128.186 165.716 128.119C165.794 128.033 167.415 129.337 169.647 130.608C171.87 131.889 173.838 132.643 173.795 132.749Z" fill="#FAFAF9"/>
<path d="M162.485 117.932C162.566 118.003 161.113 119.649 159.239 121.61C157.364 123.571 155.78 125.102 155.7 125.032C155.618 124.962 157.072 123.315 158.946 121.354C160.819 119.394 162.404 117.862 162.485 117.932Z" fill="#FAFAF9"/>
<path d="M161.516 104.658C161.475 104.747 159.773 104.058 157.962 102.754C156.144 101.459 154.976 100.09 155.053 100.028C155.139 99.9506 156.417 101.181 158.2 102.451C159.976 103.73 161.57 104.558 161.516 104.658Z" fill="#FAFAF9"/>
<path d="M154.407 107.437C154.491 107.505 153.763 108.458 152.782 109.566C151.8 110.674 150.936 111.518 150.852 111.45C150.769 111.382 151.496 110.43 152.478 109.321C153.459 108.213 154.323 107.369 154.407 107.437Z" fill="#FAFAF9"/>
<path d="M169.662 82.7935C169.746 82.8605 168.412 84.5507 166.683 86.5694C164.953 88.588 163.481 90.1705 163.397 90.105C163.312 90.038 164.646 88.3477 166.375 86.3291C168.106 84.3104 169.576 82.7279 169.662 82.7935Z" fill="#FAFAF9"/>
<path d="M156.576 85.5972C156.493 85.6664 155.042 84.2107 153.334 82.3464C151.626 80.4814 150.308 78.9135 150.39 78.845C150.473 78.7758 151.924 80.2308 153.632 82.0966C155.341 83.9609 156.659 85.5288 156.576 85.5972Z" fill="#FAFAF9"/>
<path d="M163.118 69.7844C163.022 69.8354 162.005 68.2879 160.846 66.3267C159.686 64.3656 158.824 62.7343 158.919 62.6834C159.014 62.6317 160.032 64.1792 161.191 66.1403C162.351 68.1007 163.214 69.7327 163.118 69.7844Z" fill="#FAFAF9"/>
<path d="M162.795 59.5796C162.699 59.5075 163.84 58.1267 164.747 56.1663C165.671 54.2124 165.989 52.48 166.109 52.5004C166.207 52.504 166.059 54.3093 165.11 56.3214C164.173 58.3379 162.863 59.6466 162.795 59.5796Z" fill="#FAFAF9"/>
<path d="M150.204 58.972C150.112 58.9931 150.008 56.8521 151.143 54.5152C151.701 53.3573 152.416 52.4164 153.006 51.8069C153.595 51.1952 154.033 50.8922 154.064 50.9257C154.158 51.008 152.572 52.4084 151.504 54.6732C150.406 56.9242 150.331 58.9866 150.204 58.972Z" fill="#FAFAF9"/>
<path d="M260.116 41.6473C259.869 38.6207 259.622 35.5709 260.002 32.5567C260.382 29.5432 261.433 26.5312 263.51 24.2337C265.587 21.9361 268.791 20.4541 271.943 20.8437C273.888 21.0855 275.734 22.0031 277.695 21.9484C279.965 21.8844 281.94 20.5466 284.006 19.645C287.232 18.2381 290.942 17.8688 294.403 18.6095C296.219 18.9983 298.013 19.7149 299.322 20.9799C300.63 22.2448 301.379 24.1266 300.915 25.8489C303.207 25.8489 305.529 25.8533 307.742 26.4206C309.955 26.9886 312.083 28.1967 313.224 30.0945C314.365 31.9923 314.281 34.6343 312.654 36.1746C314.772 35.7638 316.994 37.3245 317.5 39.3315C318.005 41.3392 316.96 43.5342 315.214 44.751C313.468 45.9679 310.213 46.5068 308.09 46.1201C305.966 45.7334 303.539 45.1647 301.816 43.9172" fill="#17282F"/>
<path d="M258.459 110.247C267.214 112.396 276.148 107.396 278.457 99.0456C279.747 94.3827 280.795 90.4728 280.795 90.4728C280.795 90.4728 293.537 92.5577 297.75 81.0392C301.963 69.5214 309.198 42.2889 309.198 42.2889C297.203 32.0404 280.343 28.7953 265.131 33.8078L262.873 34.5521L246.69 90.8638C244.255 99.3311 249.556 108.061 258.459 110.247Z" fill="#C0776A"/>
<path d="M280.873 90.3134C280.873 90.3134 273.013 88.4542 266.595 80.9665C266.595 80.9665 267.402 90.4867 279.85 93.3188L280.873 90.3134Z" fill="#B85549"/>
<path d="M260.156 47.0107C259.98 46.8592 252.663 41.9931 250.149 49.9848C247.635 57.9772 256.553 58.7397 256.64 58.5147C256.726 58.2896 260.156 47.0107 260.156 47.0107Z" fill="#C0776A"/>
<path d="M255.037 54.7536C255.008 54.7172 254.86 54.8089 254.58 54.8468C254.307 54.8825 253.871 54.8366 253.484 54.5555C252.697 53.9918 252.375 52.437 252.788 50.9849C252.995 50.2516 253.372 49.6042 253.822 49.109C254.261 48.597 254.787 48.3028 255.255 48.3545C255.728 48.3837 255.964 48.7288 255.995 48.9837C256.037 49.2386 255.934 49.3835 255.973 49.409C255.991 49.4367 256.194 49.3275 256.231 48.9779C256.247 48.8089 256.208 48.5927 256.06 48.3822C255.908 48.1688 255.638 48.005 255.318 47.9475C254.66 47.8047 253.901 48.2052 253.405 48.75C252.875 49.2867 252.433 50.0091 252.199 50.8327C251.746 52.4582 252.136 54.2132 253.24 54.8948C253.783 55.2094 254.327 55.181 254.639 55.0653C254.96 54.9422 255.061 54.7761 255.037 54.7536Z" fill="#B85549"/>
<path d="M298.929 58.9413C298.656 59.8232 297.647 60.3293 296.677 60.0722C295.708 59.8159 295.143 58.8939 295.418 58.012C295.692 57.1294 296.7 56.6226 297.669 56.8782C298.639 57.1345 299.203 58.0579 298.929 58.9413Z" fill="#17282F"/>
<path d="M301.189 57.8249C300.899 57.9713 299.914 56.6255 298.052 56.0334C296.201 55.4166 294.514 55.8929 294.388 55.611C294.324 55.4821 294.678 55.1639 295.418 54.9411C296.149 54.7168 297.287 54.6367 298.445 55.0124C299.602 55.3911 300.433 56.1106 300.847 56.7078C301.271 57.3108 301.328 57.7623 301.189 57.8249Z" fill="#17282F"/>
<path d="M280.64 53.0761C280.366 53.9587 279.357 54.4641 278.387 54.2078C277.419 53.9514 276.854 53.0295 277.128 52.1468C277.403 51.2649 278.412 50.7574 279.38 51.0137C280.35 51.27 280.914 52.1934 280.64 53.0761Z" fill="#17282F"/>
<path d="M282.783 52.2917C282.493 52.4381 281.507 51.0916 279.646 50.5002C277.795 49.8834 276.107 50.3604 275.982 50.0771C275.917 49.9497 276.27 49.63 277.013 49.4086C277.742 49.1836 278.881 49.1035 280.038 49.48C281.195 49.8579 282.027 50.5774 282.441 51.1746C282.864 51.7768 282.922 52.2291 282.783 52.2917Z" fill="#17282F"/>
<path d="M284.904 67.6386C284.931 67.5345 286.155 67.7151 288.11 68.0872C288.601 68.1921 289.082 68.246 289.271 67.962C289.498 67.6699 289.471 67.1172 289.426 66.515C289.365 65.2741 289.303 63.9727 289.236 62.6087C289.014 57.0624 289.023 52.5634 289.256 52.5568C289.49 52.5503 289.86 57.0406 290.083 62.5869C290.125 63.9508 290.169 65.2515 290.208 66.4953C290.206 67.0684 290.309 67.753 289.828 68.3552C289.58 68.6538 289.145 68.7878 288.813 68.7681C288.477 68.7594 288.208 68.6786 287.969 68.6174C286.049 68.1091 284.875 67.742 284.904 67.6386Z" fill="#17282F"/>
<path d="M278.997 67.1123C279.305 67.1925 278.631 69.1237 279.879 71.047C281.122 72.9747 283.35 73.448 283.272 73.7226C283.256 73.8529 282.66 73.944 281.743 73.676C280.841 73.4189 279.636 72.7285 278.872 71.5517C278.113 70.3734 278.054 69.1077 278.263 68.2943C278.469 67.4626 278.862 67.057 278.997 67.1123Z" fill="#17282F"/>
<path d="M301.604 54.4774C301.135 54.776 300 53.9465 298.466 53.4324C296.95 52.8673 295.524 52.7908 295.372 52.2723C295.313 52.0247 295.66 51.686 296.365 51.4872C297.06 51.2862 298.11 51.2768 299.158 51.6475C300.206 52.0189 300.995 52.6786 301.386 53.2642C301.785 53.854 301.818 54.3274 301.604 54.4774Z" fill="#17282F"/>
<path d="M282.62 45.0906C282.335 45.2413 281.889 45.001 281.312 44.6857C280.733 44.3638 279.991 43.9727 279.118 43.6566C278.239 43.3486 277.411 43.1818 276.752 43.0631C276.1 42.9401 275.598 42.8432 275.485 42.5512C275.377 42.2832 275.734 41.8317 276.562 41.5309C277.376 41.2287 278.653 41.1639 279.915 41.6118C281.176 42.0618 282.097 42.9095 282.505 43.6465C282.925 44.3907 282.886 44.9551 282.62 45.0906Z" fill="#17282F"/>
<path d="M308.55 46.0333C308.55 46.0333 299.532 46.0384 291.19 39.5127C285.716 35.2306 278.862 32.2325 276.994 33.0743C275.125 33.9162 273.346 39.9198 266.809 40.3684C266.809 40.3684 264.475 52.053 259.734 50.5907C254.994 49.1283 262.284 31.8268 262.284 31.8268L275.435 28.8702L288.906 29.3406L301.009 31.9638L311.476 37.7081L308.55 46.0333Z" fill="#17282F"/>
<path d="M69.4736 254.81H240.634V0.192398H69.4736V254.81Z" fill="#FAFAF9"/>
<path d="M240.633 254.81C240.632 253.242 240.559 149.839 240.45 0.193176L240.633 0.367218C188.093 0.371597 130.238 0.376678 69.4939 0.382507H69.4734L69.6717 0.193176C69.6559 96.518 69.6416 185.226 69.63 254.81L69.4734 254.661C174.018 254.752 239.356 254.809 240.633 254.81C239.356 254.812 174.018 254.869 69.4734 254.96L69.3161 254.961V254.81C69.3045 185.226 69.2899 96.518 69.2744 0.193176V0.00309753H69.4734H69.4939C130.238 0.00819397 188.093 0.0132904 240.633 0.0183868H240.816V0.193176C240.709 149.839 240.634 253.244 240.633 254.81Z" fill="#17282F"/>
<path d="M115.344 56.8906H93.4434C91.9302 56.8906 90.7036 55.7189 90.7036 54.2726V25.3157C90.7036 23.8694 91.9302 22.6976 93.4434 22.6976H107.333L118.084 33.2833V54.2726C118.084 55.7189 116.857 56.8906 115.344 56.8906Z" fill="#8C3DF0"/>
<path d="M107.333 22.6975V30.8472C107.333 32.1916 108.474 33.2817 109.881 33.2817L118.084 33.2832L107.333 22.6975Z" fill="#8C3DF0"/>
<path d="M118.01 35.4873C117.254 35.4873 110.968 34.419 109.962 34.2471C109.871 34.2318 109.78 34.2136 109.692 34.1896C107.361 33.5458 107.442 31.6029 107.445 31.5636C107.445 31.5643 107.445 31.565 107.445 31.5658C107.613 32.278 108.09 32.696 108.577 32.9399C108.95 33.1526 109.385 33.2771 109.851 33.2822C109.87 33.2837 109.881 33.2837 109.881 33.2837H118.084V35.4742C118.084 35.4829 118.058 35.4873 118.01 35.4873Z" fill="#4931DA"/>
<path d="M118.084 33.2832L109.881 33.2817C109.87 33.2817 109.86 33.2817 109.85 33.2817C109.713 33.273 109.138 33.2206 108.577 32.9395C108.041 32.6343 107.633 32.1457 107.445 31.5653C107.445 31.5646 107.445 31.5631 107.445 31.5624V31.5631C107.371 31.3366 107.333 31.0963 107.333 30.8472V22.6975L118.084 33.2832Z" fill="#B667F4"/>
<path d="M109.851 33.2822C109.386 33.2771 108.95 33.1526 108.578 32.94C109.138 33.2211 109.713 33.2735 109.851 33.2822ZM107.446 31.5658C107.446 31.5651 107.445 31.5643 107.445 31.5636V31.5629C107.445 31.5636 107.446 31.5651 107.446 31.5658Z" fill="#8562EA"/>
<path d="M105.496 30.5145C105.496 30.6194 103.227 30.7046 100.431 30.7046C97.6321 30.7046 95.3643 30.6194 95.3643 30.5145C95.3643 30.4096 97.6321 30.3252 100.431 30.3252C103.227 30.3252 105.496 30.4096 105.496 30.5145Z" fill="#FAFAF9"/>
<path d="M112.04 35.1231C112.04 35.228 108.306 35.3125 103.702 35.3125C99.0965 35.3125 95.3643 35.228 95.3643 35.1231C95.3643 35.0183 99.0965 34.9331 103.702 34.9331C108.306 34.9331 112.04 35.0183 112.04 35.1231Z" fill="#FAFAF9"/>
<path d="M113.542 38.9701C113.542 39.075 109.472 39.1602 104.453 39.1602C99.4327 39.1602 95.3643 39.075 95.3643 38.9701C95.3643 38.866 99.4327 38.7808 104.453 38.7808C109.472 38.7808 113.542 38.866 113.542 38.9701Z" fill="#FAFAF9"/>
<path d="M113.542 42.6012C113.542 42.7053 109.472 42.7905 104.453 42.7905C99.4327 42.7905 95.3643 42.7053 95.3643 42.6012C95.3643 42.4963 99.4327 42.4111 104.453 42.4111C109.472 42.4111 113.542 42.4963 113.542 42.6012Z" fill="#FAFAF9"/>
<path d="M113.542 46.2308C113.542 46.3364 109.472 46.4209 104.453 46.4209C99.4327 46.4209 95.3643 46.3364 95.3643 46.2308C95.3643 46.1267 99.4327 46.0415 104.453 46.0415C109.472 46.0415 113.542 46.1267 113.542 46.2308Z" fill="#FAFAF9"/>
<path d="M113.542 49.8612C113.542 49.9661 109.472 50.0513 104.453 50.0513C99.4327 50.0513 95.3643 49.9661 95.3643 49.8612C95.3643 49.7571 99.4327 49.6719 104.453 49.6719C109.472 49.6719 113.542 49.7571 113.542 49.8612Z" fill="#FAFAF9"/>
<path d="M131.784 49.8224L129.991 54.9492H129.186L127.722 50.8551L126.258 54.9492H125.437L123.644 49.8224H124.433L125.882 53.9894L127.392 49.8224H128.097L129.577 54.0113L131.056 49.8224H131.784Z" fill="#DADBD8"/>
<path d="M132.668 52.7378H135.275C135.198 52.086 134.685 51.6243 133.972 51.6243C133.267 51.6243 132.745 52.0788 132.668 52.7378ZM135.964 53.2432H132.668C132.76 53.9241 133.335 54.3785 134.14 54.3785C134.616 54.3785 135.015 54.2241 135.313 53.9095L135.719 54.3632C135.352 54.774 134.792 54.9932 134.117 54.9932C132.807 54.9932 131.933 54.1652 131.933 53.0087C131.933 51.8588 132.799 51.0315 133.972 51.0315C135.144 51.0315 135.98 51.837 135.98 53.0306C135.98 53.0888 135.972 53.1769 135.964 53.2432Z" fill="#DADBD8"/>
<path d="M137 49.5151H137.736V54.9492H137V49.5151Z" fill="#DADBD8"/>
<path d="M138.764 53.0087C138.764 51.8515 139.661 51.0315 140.91 51.0315C141.639 51.0315 142.244 51.317 142.566 51.8588L142.006 52.2026C141.746 51.8224 141.348 51.6462 140.903 51.6462C140.106 51.6462 139.508 52.1814 139.508 53.0087C139.508 53.8506 140.106 54.3785 140.903 54.3785C141.348 54.3785 141.746 54.2023 142.006 53.8214L142.566 54.1586C142.244 54.7004 141.639 54.9932 140.91 54.9932C139.661 54.9932 138.764 54.1652 138.764 53.0087Z" fill="#DADBD8"/>
<path d="M146.561 53.0087C146.561 52.1814 145.978 51.6462 145.196 51.6462C144.414 51.6462 143.824 52.1814 143.824 53.0087C143.824 53.836 144.414 54.3785 145.196 54.3785C145.978 54.3785 146.561 53.836 146.561 53.0087ZM143.081 53.0087C143.081 51.8515 143.978 51.0315 145.196 51.0315C146.415 51.0315 147.304 51.8515 147.304 53.0087C147.304 54.1652 146.415 54.9932 145.196 54.9932C143.978 54.9932 143.081 54.1652 143.081 53.0087Z" fill="#DADBD8"/>
<path d="M155.071 52.7157V54.9492H154.336V52.7958C154.336 52.0348 153.952 51.6605 153.285 51.6605C152.549 51.6605 152.066 52.1076 152.066 52.9502V54.9492H151.331V52.7958C151.331 52.0348 150.947 51.6605 150.28 51.6605C149.545 51.6605 149.061 52.1076 149.061 52.9502V54.9492H148.326V51.0677H149.031V51.6459C149.322 51.2505 149.821 51.0313 150.433 51.0313C151.055 51.0313 151.576 51.2651 151.845 51.7486C152.151 51.3095 152.718 51.0313 153.408 51.0313C154.397 51.0313 155.071 51.5731 155.071 52.7157Z" fill="#DADBD8"/>
<path d="M156.814 52.7378H159.42C159.344 52.086 158.83 51.6243 158.116 51.6243C157.411 51.6243 156.89 52.0788 156.814 52.7378ZM160.109 53.2432H156.814C156.905 53.9241 157.481 54.3785 158.285 54.3785C158.76 54.3785 159.159 54.2241 159.458 53.9095L159.864 54.3632C159.497 54.774 158.937 54.9932 158.262 54.9932C156.952 54.9932 156.077 54.1652 156.077 53.0087C156.077 51.8588 156.944 51.0315 158.116 51.0315C159.29 51.0315 160.125 51.837 160.125 53.0306C160.125 53.0888 160.117 53.1769 160.109 53.2432Z" fill="#DADBD8"/>
<path d="M161.046 49.8227H161.912L161.767 53.3306H161.184L161.046 49.8227ZM160.977 54.5249C160.977 54.2606 161.191 54.0559 161.483 54.0559C161.767 54.0559 161.974 54.2606 161.974 54.5249C161.974 54.7805 161.767 54.9932 161.483 54.9932C161.191 54.9932 160.977 54.7805 160.977 54.5249Z" fill="#DADBD8"/>
<path d="M229.648 229.651H228.75C228.19 229.651 227.736 229.218 227.736 228.682V16.834C227.736 16.2988 228.19 15.8655 228.75 15.8655H229.648C230.209 15.8655 230.662 16.2988 230.662 16.834V228.682C230.662 229.218 230.209 229.651 229.648 229.651Z" fill="#DADBD8"/>
<path d="M229.648 126.082H228.75C228.19 126.082 227.736 125.648 227.736 125.113V16.8341C227.736 16.2989 228.19 15.8656 228.75 15.8656H229.648C230.209 15.8656 230.662 16.2989 230.662 16.8341V125.113C230.662 125.648 230.209 126.082 229.648 126.082Z" fill="#8C3DF0"/>
<path d="M96.2633 79.6786V84.8047H95.5048V80.3158H94.2935V79.6786H96.2633Z" fill="#17282F"/>
<path d="M97.4219 84.3432C97.4219 84.0505 97.6597 83.8451 97.9433 83.8451C98.2185 83.8451 98.4487 84.0505 98.4487 84.3432C98.4487 84.636 98.2185 84.8486 97.9433 84.8486C97.6597 84.8486 97.4219 84.636 97.4219 84.3432Z" fill="#17282F"/>
<path d="M98.3715 163.713V164.35H94.5157V163.852L96.6997 161.838C97.2669 161.311 97.3744 160.989 97.3744 160.667C97.3744 160.139 96.9833 159.817 96.2324 159.817C95.6577 159.817 95.1896 159.992 94.8603 160.374L94.3389 159.941C94.7528 159.451 95.4663 159.166 96.3011 159.166C97.4209 159.166 98.1413 159.714 98.1413 160.593C98.1413 161.091 97.988 161.538 97.26 162.204L95.6188 163.713H98.3715Z" fill="#17282F"/>
<path d="M99.0625 163.889C99.0625 163.596 99.3003 163.391 99.5839 163.391C99.8599 163.391 100.09 163.596 100.09 163.889C100.09 164.181 99.8599 164.394 99.5839 164.394C99.3003 164.394 99.0625 164.181 99.0625 163.889Z" fill="#17282F"/>
<path d="M211.741 96.3336C211.741 96.4385 185.434 96.5229 152.99 96.5229C120.534 96.5229 94.2324 96.4385 94.2324 96.3336C94.2324 96.2287 120.534 96.1435 152.99 96.1435C185.434 96.1435 211.741 96.2287 211.741 96.3336Z" fill="#17282F"/>
<path d="M211.741 104.828C211.741 104.933 185.434 105.019 152.99 105.019C120.534 105.019 94.2324 104.933 94.2324 104.828C94.2324 104.724 120.534 104.639 152.99 104.639C185.434 104.639 211.741 104.724 211.741 104.828Z" fill="#17282F"/>
<path d="M211.741 113.324C211.741 113.428 185.434 113.514 152.99 113.514C120.534 113.514 94.2324 113.428 94.2324 113.324C94.2324 113.219 120.534 113.135 152.99 113.135C185.434 113.135 211.741 113.219 211.741 113.324Z" fill="#17282F"/>
<path d="M211.741 121.819C211.741 121.924 185.434 122.008 152.99 122.008C120.534 122.008 94.2324 121.924 94.2324 121.819C94.2324 121.714 120.534 121.63 152.99 121.63C185.434 121.63 211.741 121.714 211.741 121.819Z" fill="#17282F"/>
<path d="M211.741 130.314C211.741 130.419 185.434 130.503 152.99 130.503C120.534 130.503 94.2324 130.419 94.2324 130.314C94.2324 130.21 120.534 130.125 152.99 130.125C185.434 130.125 211.741 130.21 211.741 130.314Z" fill="#17282F"/>
<path d="M211.741 138.809C211.741 138.914 185.434 138.999 152.99 138.999C120.534 138.999 94.2324 138.914 94.2324 138.809C94.2324 138.705 120.534 138.62 152.99 138.62C185.434 138.62 211.741 138.705 211.741 138.809Z" fill="#17282F"/>
<path d="M211.741 171.077C211.741 171.182 185.434 171.267 152.99 171.267C120.534 171.267 94.2324 171.182 94.2324 171.077C94.2324 170.972 120.534 170.888 152.99 170.888C185.434 170.888 211.741 170.972 211.741 171.077Z" fill="#17282F"/>
<path d="M211.741 178.343C211.741 178.447 185.434 178.531 152.99 178.531C120.534 178.531 94.2324 178.447 94.2324 178.343C94.2324 178.237 120.534 178.153 152.99 178.153C185.434 178.153 211.741 178.237 211.741 178.343Z" fill="#DADBD8"/>
<path d="M211.741 185.607C211.741 185.712 185.434 185.797 152.99 185.797C120.534 185.797 94.2324 185.712 94.2324 185.607C94.2324 185.503 120.534 185.417 152.99 185.417C185.434 185.417 211.741 185.503 211.741 185.607Z" fill="#E7E8E5"/>
<path d="M220.318 229.469H158.156V207.346H220.318V229.469Z" fill="#8C3DF0"/>
<path d="M178.574 218.922L177.332 216.228L176.09 218.922H178.574ZM178.862 219.551H175.802L175.169 220.926H174.322L176.929 215.426H177.743L180.358 220.926H179.495L178.862 219.551Z" fill="white"/>
<path d="M180.651 218.844C180.651 217.603 181.613 216.723 182.954 216.723C183.736 216.723 184.384 217.03 184.73 217.61L184.13 217.979C183.85 217.571 183.422 217.383 182.945 217.383C182.09 217.383 181.45 217.956 181.45 218.844C181.45 219.747 182.09 220.313 182.945 220.313C183.422 220.313 183.85 220.125 184.13 219.716L184.73 220.077C184.384 220.659 183.736 220.973 182.954 220.973C181.613 220.973 180.651 220.085 180.651 218.844Z" fill="white"/>
<path d="M185.279 218.844C185.279 217.603 186.241 216.723 187.582 216.723C188.363 216.723 189.013 217.03 189.358 217.61L188.758 217.979C188.477 217.571 188.051 217.383 187.573 217.383C186.718 217.383 186.077 217.956 186.077 218.844C186.077 219.747 186.718 220.313 187.573 220.313C188.051 220.313 188.477 220.125 188.758 219.716L189.358 220.077C189.013 220.659 188.363 220.973 187.582 220.973C186.241 220.973 185.279 220.085 185.279 218.844Z" fill="white"/>
<path d="M190.696 218.553H193.492C193.41 217.854 192.859 217.36 192.094 217.36C191.338 217.36 190.779 217.847 190.696 218.553ZM194.233 219.095H190.696C190.795 219.825 191.412 220.313 192.275 220.313C192.785 220.313 193.213 220.148 193.534 219.81L193.969 220.297C193.575 220.737 192.974 220.973 192.251 220.973C190.844 220.973 189.907 220.085 189.907 218.844C189.907 217.61 190.836 216.723 192.094 216.723C193.353 216.723 194.25 217.587 194.25 218.868C194.25 218.93 194.241 219.025 194.233 219.095Z" fill="white"/>
<path d="M199.057 218.845C199.057 217.964 198.424 217.383 197.586 217.383C196.755 217.383 196.122 217.964 196.122 218.845C196.122 219.732 196.755 220.313 197.586 220.313C198.424 220.313 199.057 219.732 199.057 218.845ZM199.855 218.845C199.855 220.125 198.926 220.973 197.651 220.973C197.034 220.973 196.492 220.745 196.13 220.297V222.45H195.34V216.762H196.097V217.422C196.451 216.959 197.01 216.723 197.651 216.723C198.926 216.723 199.855 217.572 199.855 218.845Z" fill="white"/>
<path d="M203.397 220.683C203.158 220.879 202.797 220.973 202.443 220.973C201.563 220.973 201.061 220.51 201.061 219.67V217.383H200.321V216.762H201.061V215.851H201.85V216.762H203.101V217.383H201.85V219.638C201.85 220.085 202.098 220.337 202.533 220.337C202.764 220.337 202.986 220.266 203.15 220.14L203.397 220.683Z" fill="white"/>
<path d="M91.3233 229.648C91.3218 229.651 91.273 229.62 91.1747 229.549C91.0649 229.469 90.9193 229.362 90.7272 229.221C90.3132 228.91 89.7057 228.454 88.8786 227.833L88.8062 227.778L88.8938 227.746C96.3934 225 120.86 216.233 151.005 205.494L151.11 205.457L151.197 205.524C151.957 206.107 152.781 206.74 153.609 207.377L153.683 207.434V207.524C153.683 209.468 153.683 211.539 153.684 213.632C153.683 219.139 153.681 224.507 153.68 229.647V229.833L153.485 229.833C135.704 229.805 120.158 229.781 109.04 229.764C103.508 229.74 99.0791 229.721 96.0146 229.709C94.5067 229.696 93.3358 229.686 92.5247 229.679C92.1397 229.672 91.8424 229.667 91.6252 229.663C91.4232 229.658 91.3233 229.648 91.3233 229.648C91.3233 229.648 91.4316 229.637 91.6366 229.631C91.8569 229.628 92.158 229.623 92.5476 229.616C93.3633 229.609 94.5403 229.598 96.0565 229.586C99.1248 229.573 103.561 229.555 109.1 229.531C120.203 229.514 135.728 229.49 153.485 229.462L153.292 229.647C153.29 224.507 153.288 219.139 153.287 213.632C153.287 211.539 153.287 209.468 153.288 207.524L153.361 207.671C152.533 207.034 151.709 206.4 150.95 205.817L151.143 205.847C120.99 216.568 96.4841 225.231 88.9296 227.841L88.9441 227.755C89.7522 228.39 90.3453 228.856 90.7493 229.174C90.936 229.325 91.0771 229.439 91.1838 229.525C91.2791 229.603 91.3248 229.643 91.3233 229.648Z" fill="#8C3DF0"/>
<path d="M151.073 227.794H88.9111V205.671H151.073V227.794Z" fill="white"/>
<path d="M151.074 227.794C151.074 227.794 151.065 227.654 151.06 227.396C151.057 227.124 151.052 226.744 151.045 226.251C151.038 225.236 151.026 223.761 151.012 221.862C150.995 218.049 150.97 212.536 150.938 205.671L151.073 205.8C135.658 205.815 113.501 205.836 88.9162 205.86H88.9116L89.1105 205.671C89.1075 213.392 89.1052 220.863 89.1029 227.794L88.9116 227.611C106.851 227.646 122.363 227.676 133.408 227.697C138.93 227.718 143.334 227.736 146.373 227.747C147.879 227.758 149.047 227.766 149.854 227.771C150.242 227.776 150.541 227.779 150.759 227.782C150.964 227.786 151.074 227.794 151.074 227.794C151.074 227.794 150.98 227.802 150.783 227.805C150.57 227.808 150.278 227.811 149.9 227.816C149.103 227.822 147.949 227.83 146.46 227.84C143.43 227.852 139.041 227.869 133.539 227.892C122.462 227.912 106.904 227.942 88.9116 227.977H88.721V227.794C88.7187 220.863 88.7157 213.392 88.7134 205.671V205.481H88.9116H88.9162C113.501 205.504 135.658 205.527 151.073 205.541H151.21V205.671C151.179 212.569 151.153 218.109 151.136 221.94C151.121 223.826 151.11 225.291 151.102 226.3C151.096 226.783 151.091 227.155 151.088 227.422C151.083 227.672 151.074 227.794 151.074 227.794Z" fill="#8C3DF0"/>
<path d="M108.324 219.985C109.748 219.985 110.66 219.152 110.66 217.919C110.66 216.685 109.748 215.852 108.324 215.852H106.77V219.985H108.324ZM105.948 215.169H108.374C110.224 215.169 111.483 216.285 111.483 217.919C111.483 219.552 110.224 220.668 108.374 220.668H105.948V215.169Z" fill="#8C3DF0"/>
<path d="M113.009 218.296H115.805C115.723 217.597 115.172 217.102 114.407 217.102C113.65 217.102 113.091 217.589 113.009 218.296ZM116.545 218.838H113.009C113.107 219.568 113.724 220.055 114.588 220.055C115.098 220.055 115.525 219.89 115.846 219.552L116.282 220.039C115.887 220.48 115.287 220.715 114.563 220.715C113.157 220.715 112.219 219.828 112.219 218.587C112.219 217.353 113.148 216.465 114.407 216.465C115.665 216.465 116.561 217.33 116.561 218.61C116.561 218.673 116.553 218.767 116.545 218.838Z" fill="#8C3DF0"/>
<path d="M117.25 218.587C117.25 217.345 118.212 216.465 119.552 216.465C120.334 216.465 120.983 216.772 121.329 217.353L120.729 217.722C120.449 217.314 120.021 217.125 119.544 217.125C118.689 217.125 118.048 217.698 118.048 218.587C118.048 219.49 118.689 220.055 119.544 220.055C120.021 220.055 120.449 219.867 120.729 219.458L121.329 219.82C120.983 220.401 120.334 220.715 119.552 220.715C118.212 220.715 117.25 219.828 117.25 218.587Z" fill="#8C3DF0"/>
<path d="M122.289 214.839H123.078V220.668H122.289V214.839Z" fill="#8C3DF0"/>
<path d="M124.581 216.504H125.371V220.668H124.581V216.504ZM124.442 215.215C124.442 214.941 124.672 214.722 124.976 214.722C125.28 214.722 125.511 214.934 125.511 215.2C125.511 215.483 125.289 215.703 124.976 215.703C124.672 215.703 124.442 215.491 124.442 215.215Z" fill="#8C3DF0"/>
<path d="M131.011 218.272V220.668H130.222V218.359C130.222 217.541 129.794 217.141 129.045 217.141C128.207 217.141 127.664 217.62 127.664 218.523V220.668H126.875V216.504H127.631V217.133C127.952 216.708 128.511 216.465 129.202 216.465C130.263 216.465 131.011 217.046 131.011 218.272Z" fill="#8C3DF0"/>
<path d="M132.884 218.296H135.68C135.597 217.597 135.046 217.102 134.282 217.102C133.525 217.102 132.966 217.589 132.884 218.296ZM136.419 218.838H132.884C132.982 219.568 133.599 220.055 134.462 220.055C134.972 220.055 135.4 219.89 135.72 219.552L136.156 220.039C135.761 220.48 135.161 220.715 134.438 220.715C133.031 220.715 132.094 219.828 132.094 218.587C132.094 217.353 133.023 216.465 134.282 216.465C135.539 216.465 136.436 217.33 136.436 218.61C136.436 218.673 136.427 218.767 136.419 218.838Z" fill="#8C3DF0"/>
<path d="M151.073 227.433L153.485 229.648L151.073 227.433Z" fill="white"/>
<path d="M153.485 229.648C153.41 229.723 152.807 229.289 152.142 228.677C151.476 228.065 150.998 227.508 151.074 227.433C151.15 227.357 151.751 227.791 152.417 228.404C153.083 229.015 153.561 229.571 153.485 229.648Z" fill="#8C3DF0"/>
<path d="M242.282 224.118L251.158 220.036L246.282 206.263L235.563 203.891C234.561 203.679 233.453 203.422 232.211 203.092C230.762 202.708 229.391 202.084 228.153 201.268C226.654 200.28 224.716 198.889 223.897 197.823C222.885 196.504 220.733 196.995 220.738 198.459C220.744 199.922 223.441 203.619 228.247 206.229C233.055 208.84 224.557 210.107 221.472 210.62C218.385 211.133 208.925 213.148 208.362 214.175C207.539 215.679 209.114 216.83 212.181 216.249C215.287 215.661 224.596 214.541 224.843 216.102L224.813 216.145C223.264 218.437 223.442 221.432 225.22 223.567C226.937 225.629 229.523 228.215 231.424 227.822C235.01 227.083 242.282 224.118 242.282 224.118Z" fill="#C0776A"/>
<path d="M241.742 199.875L250.059 226.736L314.634 207.99C328.529 203.955 336.232 189.791 331.696 176.612L315.863 129.55L281.477 137.705L300.348 181.241L241.742 199.875Z" fill="#8C3DF0"/>
<path d="M316.09 207.521C316.09 207.521 315.985 207.563 315.777 207.627C315.557 207.695 315.249 207.789 314.849 207.911C314.015 208.159 312.804 208.518 311.237 208.983C308.067 209.909 303.465 211.255 297.68 212.946C286.07 216.31 269.715 221.05 250.677 226.566L250.502 226.618L250.443 226.451C247.565 218.243 244.778 209.208 241.553 199.935L241.491 199.754L241.679 199.694C242.192 199.531 242.748 199.355 243.303 199.178C264.831 192.349 284.668 186.056 300.298 181.098L300.202 181.299C295.655 170.736 291.929 162.081 289.335 156.056C288.053 153.052 287.052 150.707 286.365 149.097C286.033 148.306 285.777 147.698 285.6 147.274C285.429 146.862 285.352 146.645 285.352 146.645C285.352 146.645 285.459 146.85 285.643 147.257C285.831 147.676 286.1 148.279 286.451 149.063C287.157 150.666 288.184 153.001 289.5 155.99C292.124 162.005 295.894 170.641 300.494 181.183L300.559 181.333L300.398 181.384C284.775 186.363 264.947 192.681 243.429 199.538C242.873 199.715 242.317 199.891 241.805 200.054L241.931 199.815C245.157 209.098 247.937 218.132 250.801 226.337L250.568 226.222C269.622 220.758 285.992 216.062 297.611 212.731C303.411 211.082 308.024 209.771 311.201 208.867C312.776 208.427 313.993 208.086 314.83 207.852C315.234 207.742 315.545 207.658 315.768 207.597C315.979 207.542 316.09 207.521 316.09 207.521Z" fill="#17282F"/>
<path d="M312.29 189.08C312.229 189.113 311.799 188.4 310.936 187.376C310.077 186.35 308.731 185.047 306.985 183.936C305.234 182.832 303.454 182.154 302.132 181.797C300.808 181.436 299.953 181.334 299.961 181.267C299.965 181.241 300.18 181.245 300.57 181.276C300.96 181.301 301.52 181.387 302.203 181.537C303.566 181.833 305.412 182.488 307.205 183.62C308.993 184.757 310.343 186.127 311.158 187.212C311.568 187.754 311.87 188.213 312.045 188.547C312.225 188.878 312.315 189.067 312.29 189.08Z" fill="#17282F"/>
<path d="M296.636 139.991C296.527 139.991 296.438 138.207 296.438 136.007C296.438 133.805 296.527 132.022 296.636 132.022C296.746 132.022 296.835 133.805 296.835 136.007C296.835 138.207 296.746 139.991 296.636 139.991Z" fill="#FAFAF9"/>
<path d="M309.606 140.627C309.5 140.657 308.873 138.947 308.203 136.808C307.533 134.67 307.076 132.912 307.181 132.882C307.286 132.852 307.914 134.56 308.584 136.7C309.253 138.838 309.711 140.596 309.606 140.627Z" fill="#FAFAF9"/>
<path d="M301.56 151.803C301.556 151.899 299.754 151.846 297.637 151.246C295.515 150.657 293.969 149.772 294.021 149.689C294.073 149.588 295.671 150.306 297.748 150.882C299.823 151.47 301.573 151.691 301.56 151.803Z" fill="#FAFAF9"/>
<path d="M316.227 157.959C316.119 157.942 316.337 156.237 316.715 154.154C317.092 152.069 317.485 150.394 317.593 150.412C317.701 150.429 317.483 152.133 317.106 154.218C316.729 156.302 316.335 157.978 316.227 157.959Z" fill="#FAFAF9"/>
<path d="M310.981 167.981C310.881 168.026 310.034 166.459 309.089 164.484C308.143 162.509 307.458 160.873 307.558 160.829C307.658 160.786 308.505 162.352 309.45 164.326C310.395 166.301 311.08 167.938 310.981 167.981Z" fill="#FAFAF9"/>
<path d="M308.831 176.769C308.784 176.863 307.165 176.208 305.215 175.306C303.265 174.402 301.724 173.594 301.772 173.5C301.82 173.406 303.439 174.061 305.389 174.964C307.338 175.867 308.88 176.674 308.831 176.769Z" fill="#FAFAF9"/>
<path d="M325.328 174.431C325.428 174.484 324.693 175.941 323.877 177.771C323.054 179.6 322.459 181.114 322.351 181.08C322.25 181.05 322.682 179.469 323.512 177.622C324.337 175.773 325.236 174.382 325.328 174.431Z" fill="#FAFAF9"/>
<path d="M320.739 195.581C320.63 195.591 320.351 193.77 320.119 191.512C319.885 189.255 319.784 187.416 319.894 187.407C320.002 187.395 320.281 189.217 320.513 191.475C320.747 193.732 320.848 195.572 320.739 195.581Z" fill="#FAFAF9"/>
<path d="M309.096 202.263C309.022 202.341 307.664 201.264 306.063 199.859C304.463 198.455 303.226 197.253 303.299 197.176C303.374 197.099 304.731 198.175 306.332 199.58C307.933 200.985 309.17 202.186 309.096 202.263Z" fill="#FAFAF9"/>
<path d="M288.967 204.18C289.056 204.242 288.011 205.745 286.634 207.538C285.256 209.332 284.069 210.734 283.98 210.672C283.892 210.61 284.936 209.107 286.314 207.314C287.691 205.521 288.878 204.118 288.967 204.18Z" fill="#FAFAF9"/>
<path d="M295.353 195.166C295.288 195.244 293.809 194.177 292.262 192.58C290.709 190.988 289.705 189.501 289.791 189.444C289.884 189.379 291.019 190.75 292.553 192.322C294.081 193.899 295.427 195.082 295.353 195.166Z" fill="#FAFAF9"/>
<path d="M280.166 197.215C280.196 197.307 278.842 197.697 277.128 197.572C275.412 197.459 274.133 196.884 274.176 196.798C274.215 196.691 275.508 197.086 277.156 197.194C278.804 197.315 280.143 197.103 280.166 197.215Z" fill="#FAFAF9"/>
<path d="M270.558 213.146C270.45 213.163 270.107 211.762 269.794 210.016C269.481 208.269 269.314 206.839 269.422 206.822C269.53 206.804 269.872 208.205 270.186 209.952C270.499 211.697 270.666 213.128 270.558 213.146Z" fill="#FAFAF9"/>
<path d="M259.217 218.642C259.159 218.73 257.437 217.793 255.372 216.547C253.307 215.302 251.681 214.221 251.739 214.133C251.798 214.044 253.519 214.982 255.584 216.227C257.649 217.472 259.275 218.553 259.217 218.642Z" fill="#FAFAF9"/>
<path d="M263.265 199.253C263.35 199.328 262.245 200.579 261.012 202.211C259.773 203.839 258.874 205.232 258.773 205.179C258.681 205.133 259.435 203.639 260.69 201.988C261.94 200.335 263.191 199.184 263.265 199.253Z" fill="#FAFAF9"/>
<path d="M254.495 202.931C254.446 203.025 253.449 202.644 252.268 202.079C251.085 201.515 250.168 200.981 250.217 200.888C250.266 200.794 251.264 201.175 252.445 201.74C253.626 202.304 254.544 202.838 254.495 202.931Z" fill="#FAFAF9"/>
<path d="M313.883 187.714C313.263 187.714 312.623 187.534 312.073 187.249C311.112 186.751 310.341 185.985 309.499 185.318C309.316 185.172 309.129 185.031 308.938 184.894C308.418 184.455 307.839 184.023 307.205 183.62C305.412 182.488 303.566 181.833 302.203 181.537C301.776 181.443 301.398 181.374 301.079 181.33C300.785 181.005 300.58 180.614 300.536 180.209C303.743 180.524 306.95 180.845 310.149 181.229C311.34 181.374 312.549 181.531 313.651 181.987C314.754 182.443 315.753 183.246 316.156 184.327C316.558 185.409 316.22 186.773 315.199 187.378C314.801 187.613 314.348 187.714 313.883 187.714ZM305.392 183.042C305.002 182.903 304.607 182.78 304.207 182.674C303.342 182.445 302.435 182.287 301.678 181.826C301.569 181.759 301.463 181.684 301.363 181.601C301.596 181.656 301.853 181.72 302.132 181.797C303.052 182.045 304.193 182.448 305.392 183.042ZM300.536 180.209C300.374 180.193 300.211 180.177 300.047 180.161C300.028 180.116 300.009 180.071 299.989 180.026L300.582 179.666C300.53 179.846 300.517 180.029 300.536 180.209Z" fill="#4931DA"/>
<path d="M300.047 180.161C299.967 180.153 299.887 180.145 299.806 180.137L299.989 180.026C300.008 180.072 300.028 180.116 300.047 180.161Z" fill="#111D23"/>
<path d="M308.938 184.895C307.856 184.121 306.658 183.496 305.392 183.043C304.193 182.448 303.052 182.045 302.132 181.797C301.854 181.72 301.597 181.656 301.363 181.601C301.262 181.518 301.167 181.427 301.079 181.33C301.399 181.374 301.777 181.444 302.203 181.537C303.567 181.833 305.412 182.488 307.205 183.62C307.839 184.023 308.419 184.456 308.938 184.895Z" fill="#111D23"/>
<path d="M128.508 35.9414C128.508 36.6641 128.26 37.2207 127.766 37.6113C127.274 37.9987 126.569 38.1924 125.651 38.1924H124.812V41H123.981V33.8613H125.832C127.616 33.8613 128.508 34.5547 128.508 35.9414ZM124.812 37.4795H125.559C126.294 37.4795 126.826 37.3607 127.155 37.123C127.484 36.8854 127.648 36.5046 127.648 35.9805C127.648 35.5085 127.494 35.1569 127.185 34.9258C126.875 34.6947 126.394 34.5791 125.739 34.5791H124.812V37.4795ZM132.326 35.5508C132.564 35.5508 132.777 35.5703 132.966 35.6094L132.854 36.3613C132.632 36.3125 132.437 36.2881 132.268 36.2881C131.835 36.2881 131.464 36.4639 131.154 36.8154C130.848 37.167 130.695 37.6048 130.695 38.1289V41H129.885V35.6484H130.554L130.646 36.6396H130.686C130.884 36.2913 131.123 36.0228 131.403 35.834C131.683 35.6452 131.991 35.5508 132.326 35.5508ZM138.586 38.3193C138.586 39.1917 138.366 39.8737 137.927 40.3652C137.487 40.8535 136.88 41.0977 136.105 41.0977C135.627 41.0977 135.202 40.9854 134.831 40.7607C134.46 40.5361 134.174 40.2139 133.972 39.7939C133.77 39.374 133.669 38.8825 133.669 38.3193C133.669 37.4469 133.887 36.7682 134.323 36.2832C134.759 35.7949 135.365 35.5508 136.14 35.5508C136.888 35.5508 137.482 35.7998 137.922 36.2979C138.365 36.7959 138.586 37.4697 138.586 38.3193ZM134.509 38.3193C134.509 39.0029 134.646 39.5238 134.919 39.8818C135.192 40.2399 135.594 40.4189 136.125 40.4189C136.656 40.4189 137.058 40.2415 137.331 39.8867C137.608 39.5286 137.746 39.0062 137.746 38.3193C137.746 37.639 137.608 37.123 137.331 36.7715C137.058 36.4167 136.652 36.2393 136.115 36.2393C135.585 36.2393 135.184 36.4134 134.914 36.7617C134.644 37.11 134.509 37.6292 134.509 38.3193ZM139.362 43.4023C139.053 43.4023 138.802 43.3617 138.61 43.2803V42.6211C138.835 42.6862 139.056 42.7188 139.274 42.7188C139.528 42.7188 139.714 42.6488 139.831 42.5088C139.951 42.3721 140.012 42.1621 140.012 41.8789V35.6484H140.822V41.8203C140.822 42.875 140.336 43.4023 139.362 43.4023ZM139.943 34.1982C139.943 34.0127 139.989 33.8776 140.08 33.793C140.171 33.7051 140.285 33.6611 140.422 33.6611C140.552 33.6611 140.664 33.7051 140.759 33.793C140.853 33.8809 140.9 34.016 140.9 34.1982C140.9 34.3805 140.853 34.5173 140.759 34.6084C140.664 34.6963 140.552 34.7402 140.422 34.7402C140.285 34.7402 140.171 34.6963 140.08 34.6084C139.989 34.5173 139.943 34.3805 139.943 34.1982ZM144.802 41.0977C144.011 41.0977 143.386 40.8568 142.927 40.375C142.471 39.8932 142.243 39.2243 142.243 38.3682C142.243 37.5055 142.455 36.8203 142.878 36.3125C143.304 35.8047 143.876 35.5508 144.592 35.5508C145.262 35.5508 145.793 35.7721 146.184 36.2148C146.574 36.6543 146.77 37.2354 146.77 37.958V38.4707H143.083C143.099 39.099 143.257 39.5758 143.557 39.9014C143.859 40.2269 144.284 40.3896 144.831 40.3896C145.407 40.3896 145.977 40.2692 146.54 40.0283V40.751C146.254 40.8747 145.982 40.9626 145.725 41.0146C145.471 41.07 145.163 41.0977 144.802 41.0977ZM144.582 36.2295C144.152 36.2295 143.809 36.3695 143.552 36.6494C143.298 36.9294 143.148 37.3167 143.103 37.8115H145.9C145.9 37.3005 145.786 36.9098 145.559 36.6396C145.331 36.3662 145.005 36.2295 144.582 36.2295ZM150.295 41.0977C149.52 41.0977 148.92 40.86 148.493 40.3848C148.07 39.9062 147.858 39.2308 147.858 38.3584C147.858 37.4632 148.073 36.7715 148.503 36.2832C148.936 35.7949 149.551 35.5508 150.349 35.5508C150.606 35.5508 150.863 35.5785 151.12 35.6338C151.377 35.6891 151.579 35.7542 151.726 35.8291L151.477 36.5176C151.298 36.446 151.102 36.3874 150.891 36.3418C150.679 36.293 150.492 36.2686 150.329 36.2686C149.242 36.2686 148.698 36.9619 148.698 38.3486C148.698 39.0062 148.83 39.5107 149.094 39.8623C149.361 40.2139 149.755 40.3896 150.275 40.3896C150.721 40.3896 151.179 40.2936 151.647 40.1016V40.8193C151.289 41.0049 150.839 41.0977 150.295 41.0977ZM154.65 40.4287C154.794 40.4287 154.932 40.4189 155.065 40.3994C155.199 40.3766 155.305 40.3538 155.383 40.3311V40.9512C155.295 40.9935 155.165 41.0277 154.992 41.0537C154.823 41.083 154.67 41.0977 154.533 41.0977C153.498 41.0977 152.98 40.5524 152.98 39.4619V36.2783H152.214V35.8877L152.98 35.5508L153.322 34.4082H153.791V35.6484H155.344V36.2783H153.791V39.4277C153.791 39.75 153.868 39.9974 154.021 40.1699C154.174 40.3424 154.383 40.4287 154.65 40.4287ZM163.205 39.1006C163.205 39.7288 162.977 40.2188 162.521 40.5703C162.066 40.9219 161.447 41.0977 160.666 41.0977C159.82 41.0977 159.169 40.9886 158.713 40.7705V39.9697C159.006 40.0934 159.325 40.1911 159.67 40.2627C160.015 40.3343 160.357 40.3701 160.695 40.3701C161.249 40.3701 161.665 40.266 161.945 40.0576C162.225 39.846 162.365 39.5531 162.365 39.1787C162.365 38.9313 162.315 38.7295 162.214 38.5732C162.116 38.4137 161.95 38.2673 161.716 38.1338C161.485 38.0003 161.132 37.849 160.656 37.6797C159.992 37.4421 159.517 37.1605 159.23 36.835C158.947 36.5094 158.806 36.0846 158.806 35.5605C158.806 35.0104 159.012 34.5726 159.426 34.2471C159.839 33.9215 160.386 33.7588 161.066 33.7588C161.776 33.7588 162.429 33.889 163.024 34.1494L162.766 34.8721C162.176 34.6247 161.604 34.501 161.047 34.501C160.607 34.501 160.264 34.5954 160.017 34.7842C159.769 34.973 159.646 35.235 159.646 35.5703C159.646 35.8177 159.691 36.0212 159.782 36.1807C159.873 36.3369 160.026 36.4818 160.241 36.6152C160.459 36.7454 160.791 36.8903 161.237 37.0498C161.986 37.3167 162.5 37.6032 162.78 37.9092C163.063 38.2152 163.205 38.6123 163.205 39.1006ZM166.271 40.4287C166.415 40.4287 166.553 40.4189 166.687 40.3994C166.82 40.3766 166.926 40.3538 167.004 40.3311V40.9512C166.916 40.9935 166.786 41.0277 166.613 41.0537C166.444 41.083 166.291 41.0977 166.154 41.0977C165.119 41.0977 164.602 40.5524 164.602 39.4619V36.2783H163.835V35.8877L164.602 35.5508L164.943 34.4082H165.412V35.6484H166.965V36.2783H165.412V39.4277C165.412 39.75 165.489 39.9974 165.642 40.1699C165.795 40.3424 166.005 40.4287 166.271 40.4287ZM171.369 41L171.208 40.2383H171.169C170.902 40.5736 170.635 40.8014 170.368 40.9219C170.104 41.0391 169.774 41.0977 169.377 41.0977C168.846 41.0977 168.43 40.9609 168.127 40.6875C167.827 40.4141 167.678 40.0251 167.678 39.5205C167.678 38.4398 168.542 37.8734 170.271 37.8213L171.179 37.792V37.46C171.179 37.04 171.088 36.7308 170.905 36.5322C170.726 36.3304 170.438 36.2295 170.041 36.2295C169.595 36.2295 169.09 36.3662 168.527 36.6396L168.278 36.0195C168.542 35.8763 168.83 35.764 169.143 35.6826C169.458 35.6012 169.774 35.5605 170.09 35.5605C170.728 35.5605 171.2 35.7021 171.506 35.9854C171.815 36.2686 171.97 36.7227 171.97 37.3477V41H171.369ZM169.538 40.4287C170.043 40.4287 170.438 40.2904 170.725 40.0137C171.014 39.737 171.159 39.3496 171.159 38.8516V38.3682L170.349 38.4023C169.704 38.4251 169.239 38.526 168.952 38.7051C168.669 38.8809 168.527 39.1559 168.527 39.5303C168.527 39.8232 168.615 40.0462 168.791 40.1992C168.97 40.3522 169.219 40.4287 169.538 40.4287ZM175.373 40.4287C175.516 40.4287 175.655 40.4189 175.788 40.3994C175.922 40.3766 176.027 40.3538 176.105 40.3311V40.9512C176.018 40.9935 175.887 41.0277 175.715 41.0537C175.546 41.083 175.393 41.0977 175.256 41.0977C174.221 41.0977 173.703 40.5524 173.703 39.4619V36.2783H172.937V35.8877L173.703 35.5508L174.045 34.4082H174.514V35.6484H176.066V36.2783H174.514V39.4277C174.514 39.75 174.59 39.9974 174.743 40.1699C174.896 40.3424 175.106 40.4287 175.373 40.4287ZM179.44 41.0977C178.649 41.0977 178.024 40.8568 177.565 40.375C177.11 39.8932 176.882 39.2243 176.882 38.3682C176.882 37.5055 177.093 36.8203 177.517 36.3125C177.943 35.8047 178.514 35.5508 179.23 35.5508C179.901 35.5508 180.432 35.7721 180.822 36.2148C181.213 36.6543 181.408 37.2354 181.408 37.958V38.4707H177.722C177.738 39.099 177.896 39.5758 178.195 39.9014C178.498 40.2269 178.923 40.3896 179.47 40.3896C180.046 40.3896 180.616 40.2692 181.179 40.0283V40.751C180.892 40.8747 180.62 40.9626 180.363 41.0146C180.109 41.07 179.802 41.0977 179.44 41.0977ZM179.221 36.2295C178.791 36.2295 178.448 36.3695 178.19 36.6494C177.937 36.9294 177.787 37.3167 177.741 37.8115H180.539C180.539 37.3005 180.425 36.9098 180.197 36.6396C179.969 36.3662 179.644 36.2295 179.221 36.2295ZM189.616 41V37.5186C189.616 37.0921 189.525 36.7731 189.343 36.5615C189.16 36.3467 188.877 36.2393 188.493 36.2393C187.989 36.2393 187.616 36.3841 187.375 36.6738C187.134 36.9635 187.014 37.4095 187.014 38.0117V41H186.203V37.5186C186.203 37.0921 186.112 36.7731 185.93 36.5615C185.747 36.3467 185.463 36.2393 185.075 36.2393C184.567 36.2393 184.195 36.3923 183.957 36.6982C183.723 37.001 183.605 37.499 183.605 38.1924V41H182.795V35.6484H183.454L183.586 36.3809H183.625C183.778 36.1204 183.993 35.917 184.27 35.7705C184.549 35.624 184.862 35.5508 185.207 35.5508C186.044 35.5508 186.59 35.8535 186.848 36.459H186.887C187.046 36.179 187.277 35.9577 187.58 35.7949C187.883 35.6322 188.228 35.5508 188.615 35.5508C189.221 35.5508 189.673 35.707 189.973 36.0195C190.275 36.3288 190.427 36.8252 190.427 37.5088V41H189.616ZM194.362 41.0977C193.571 41.0977 192.946 40.8568 192.487 40.375C192.032 39.8932 191.804 39.2243 191.804 38.3682C191.804 37.5055 192.015 36.8203 192.438 36.3125C192.865 35.8047 193.436 35.5508 194.152 35.5508C194.823 35.5508 195.354 35.7721 195.744 36.2148C196.135 36.6543 196.33 37.2354 196.33 37.958V38.4707H192.644C192.66 39.099 192.818 39.5758 193.117 39.9014C193.42 40.2269 193.845 40.3896 194.392 40.3896C194.968 40.3896 195.537 40.2692 196.101 40.0283V40.751C195.814 40.8747 195.542 40.9626 195.285 41.0146C195.031 41.07 194.724 41.0977 194.362 41.0977ZM194.143 36.2295C193.713 36.2295 193.369 36.3695 193.112 36.6494C192.858 36.9294 192.709 37.3167 192.663 37.8115H195.461C195.461 37.3005 195.347 36.9098 195.119 36.6396C194.891 36.3662 194.566 36.2295 194.143 36.2295ZM201.379 41V37.5381C201.379 37.1019 201.28 36.7764 201.081 36.5615C200.882 36.3467 200.572 36.2393 200.148 36.2393C199.589 36.2393 199.178 36.3906 198.918 36.6934C198.658 36.9961 198.527 37.4958 198.527 38.1924V41H197.717V35.6484H198.376L198.508 36.3809H198.547C198.713 36.1172 198.946 35.9137 199.245 35.7705C199.545 35.624 199.878 35.5508 200.246 35.5508C200.891 35.5508 201.376 35.707 201.701 36.0195C202.027 36.3288 202.189 36.8252 202.189 37.5088V41H201.379ZM205.588 40.4287C205.731 40.4287 205.869 40.4189 206.003 40.3994C206.136 40.3766 206.242 40.3538 206.32 40.3311V40.9512C206.232 40.9935 206.102 41.0277 205.93 41.0537C205.76 41.083 205.607 41.0977 205.471 41.0977C204.436 41.0977 203.918 40.5524 203.918 39.4619V36.2783H203.151V35.8877L203.918 35.5508L204.26 34.4082H204.729V35.6484H206.281V36.2783H204.729V39.4277C204.729 39.75 204.805 39.9974 204.958 40.1699C205.111 40.3424 205.321 40.4287 205.588 40.4287Z" fill="black"/>
<path d="M105.008 83.4805C105.008 83.9831 104.826 84.375 104.461 84.6562C104.096 84.9375 103.602 85.0781 102.977 85.0781C102.299 85.0781 101.779 84.9909 101.414 84.8164V84.1758C101.648 84.2747 101.904 84.3529 102.18 84.4102C102.456 84.4674 102.729 84.4961 103 84.4961C103.443 84.4961 103.776 84.4128 104 84.2461C104.224 84.0768 104.336 83.8424 104.336 83.543C104.336 83.3451 104.296 83.1836 104.215 83.0586C104.137 82.931 104.004 82.8138 103.816 82.707C103.632 82.6003 103.349 82.4792 102.969 82.3438C102.438 82.1536 102.057 81.9284 101.828 81.668C101.602 81.4076 101.488 81.0677 101.488 80.6484C101.488 80.2083 101.654 79.8581 101.984 79.5977C102.315 79.3372 102.753 79.207 103.297 79.207C103.865 79.207 104.387 79.3112 104.863 79.5195L104.656 80.0977C104.185 79.8997 103.727 79.8008 103.281 79.8008C102.93 79.8008 102.655 79.8763 102.457 80.0273C102.259 80.1784 102.16 80.388 102.16 80.6562C102.16 80.8542 102.197 81.0169 102.27 81.1445C102.342 81.2695 102.465 81.3854 102.637 81.4922C102.811 81.5964 103.077 81.7122 103.434 81.8398C104.033 82.0534 104.444 82.2826 104.668 82.5273C104.895 82.7721 105.008 83.0898 105.008 83.4805ZM107.789 85.0781C107.169 85.0781 106.689 84.888 106.348 84.5078C106.009 84.125 105.84 83.5846 105.84 82.8867C105.84 82.1706 106.012 81.6172 106.355 81.2266C106.702 80.8359 107.194 80.6406 107.832 80.6406C108.038 80.6406 108.243 80.6628 108.449 80.707C108.655 80.7513 108.816 80.8034 108.934 80.8633L108.734 81.4141C108.591 81.3568 108.435 81.3099 108.266 81.2734C108.096 81.2344 107.947 81.2148 107.816 81.2148C106.947 81.2148 106.512 81.7695 106.512 82.8789C106.512 83.4049 106.617 83.8086 106.828 84.0898C107.042 84.3711 107.357 84.5117 107.773 84.5117C108.13 84.5117 108.496 84.4349 108.871 84.2812V84.8555C108.585 85.0039 108.224 85.0781 107.789 85.0781ZM113.586 82.8555C113.586 83.5534 113.41 84.099 113.059 84.4922C112.707 84.8828 112.221 85.0781 111.602 85.0781C111.219 85.0781 110.879 84.9883 110.582 84.8086C110.285 84.6289 110.056 84.3711 109.895 84.0352C109.733 83.6992 109.652 83.306 109.652 82.8555C109.652 82.1576 109.827 81.6146 110.176 81.2266C110.525 80.8359 111.009 80.6406 111.629 80.6406C112.228 80.6406 112.703 80.8398 113.055 81.2383C113.409 81.6367 113.586 82.1758 113.586 82.8555ZM110.324 82.8555C110.324 83.4023 110.434 83.819 110.652 84.1055C110.871 84.3919 111.193 84.5352 111.617 84.5352C112.042 84.5352 112.363 84.3932 112.582 84.1094C112.803 83.8229 112.914 83.4049 112.914 82.8555C112.914 82.3112 112.803 81.8984 112.582 81.6172C112.363 81.3333 112.039 81.1914 111.609 81.1914C111.185 81.1914 110.865 81.3307 110.648 81.6094C110.432 81.888 110.324 82.3034 110.324 82.8555ZM116.719 85.0781C116.44 85.0781 116.185 85.0273 115.953 84.9258C115.724 84.8216 115.531 84.6628 115.375 84.4492H115.328C115.359 84.6992 115.375 84.9362 115.375 85.1602V86.9219H114.727V80.7188H115.254L115.344 81.3047H115.375C115.542 81.0703 115.736 80.901 115.957 80.7969C116.178 80.6927 116.432 80.6406 116.719 80.6406C117.286 80.6406 117.724 80.8346 118.031 81.2227C118.341 81.6107 118.496 82.1549 118.496 82.8555C118.496 83.5586 118.339 84.1055 118.023 84.4961C117.711 84.8841 117.276 85.0781 116.719 85.0781ZM116.625 81.1914C116.188 81.1914 115.871 81.3125 115.676 81.5547C115.48 81.7969 115.38 82.1823 115.375 82.7109V82.8555C115.375 83.457 115.475 83.888 115.676 84.1484C115.876 84.4062 116.198 84.5352 116.641 84.5352C117.01 84.5352 117.299 84.3854 117.508 84.0859C117.719 83.7865 117.824 83.3737 117.824 82.8477C117.824 82.3138 117.719 81.9049 117.508 81.6211C117.299 81.3346 117.005 81.1914 116.625 81.1914ZM121.441 85.0781C120.809 85.0781 120.309 84.8854 119.941 84.5C119.577 84.1146 119.395 83.5794 119.395 82.8945C119.395 82.2044 119.564 81.6562 119.902 81.25C120.243 80.8438 120.701 80.6406 121.273 80.6406C121.81 80.6406 122.234 80.8177 122.547 81.1719C122.859 81.5234 123.016 81.9883 123.016 82.5664V82.9766H120.066C120.079 83.4792 120.206 83.8607 120.445 84.1211C120.688 84.3815 121.027 84.5117 121.465 84.5117C121.926 84.5117 122.382 84.4154 122.832 84.2227V84.8008C122.603 84.8997 122.385 84.9701 122.18 85.0117C121.977 85.056 121.73 85.0781 121.441 85.0781ZM121.266 81.1836C120.922 81.1836 120.647 81.2956 120.441 81.5195C120.238 81.7435 120.118 82.0534 120.082 82.4492H122.32C122.32 82.0404 122.229 81.7279 122.047 81.5117C121.865 81.293 121.604 81.1836 121.266 81.1836ZM130.859 82.0898C130.859 83.0326 130.603 83.7539 130.09 84.2539C129.579 84.7513 128.844 85 127.883 85H126.301V79.2891H128.051C128.939 79.2891 129.629 79.5352 130.121 80.0273C130.613 80.5195 130.859 81.207 130.859 82.0898ZM130.156 82.1133C130.156 81.3685 129.969 80.8073 129.594 80.4297C129.221 80.0521 128.667 79.8633 127.93 79.8633H126.965V84.4258H127.773C128.565 84.4258 129.16 84.2318 129.559 83.8438C129.957 83.4531 130.156 82.8763 130.156 82.1133ZM133.848 85.0781C133.215 85.0781 132.715 84.8854 132.348 84.5C131.983 84.1146 131.801 83.5794 131.801 82.8945C131.801 82.2044 131.97 81.6562 132.309 81.25C132.65 80.8438 133.107 80.6406 133.68 80.6406C134.216 80.6406 134.641 80.8177 134.953 81.1719C135.266 81.5234 135.422 81.9883 135.422 82.5664V82.9766H132.473C132.486 83.4792 132.612 83.8607 132.852 84.1211C133.094 84.3815 133.434 84.5117 133.871 84.5117C134.332 84.5117 134.788 84.4154 135.238 84.2227V84.8008C135.009 84.8997 134.792 84.9701 134.586 85.0117C134.383 85.056 134.137 85.0781 133.848 85.0781ZM133.672 81.1836C133.328 81.1836 133.053 81.2956 132.848 81.5195C132.645 81.7435 132.525 82.0534 132.488 82.4492H134.727C134.727 82.0404 134.635 81.7279 134.453 81.5117C134.271 81.293 134.01 81.1836 133.672 81.1836ZM139.293 83.832C139.293 84.2305 139.145 84.5378 138.848 84.7539C138.551 84.9701 138.134 85.0781 137.598 85.0781C137.03 85.0781 136.587 84.9883 136.27 84.8086V84.207C136.475 84.3112 136.695 84.3932 136.93 84.4531C137.167 84.513 137.395 84.543 137.613 84.543C137.952 84.543 138.212 84.4896 138.395 84.3828C138.577 84.2734 138.668 84.1081 138.668 83.8867C138.668 83.7201 138.595 83.5781 138.449 83.4609C138.306 83.3411 138.025 83.2005 137.605 83.0391C137.207 82.8906 136.923 82.7617 136.754 82.6523C136.587 82.5404 136.462 82.4141 136.379 82.2734C136.298 82.1328 136.258 81.9648 136.258 81.7695C136.258 81.4206 136.4 81.1458 136.684 80.9453C136.967 80.7422 137.357 80.6406 137.852 80.6406C138.312 80.6406 138.763 80.7344 139.203 80.9219L138.973 81.4492C138.543 81.2721 138.154 81.1836 137.805 81.1836C137.497 81.1836 137.266 81.2318 137.109 81.3281C136.953 81.4245 136.875 81.5573 136.875 81.7266C136.875 81.8411 136.904 81.9388 136.961 82.0195C137.021 82.1003 137.116 82.1771 137.246 82.25C137.376 82.3229 137.626 82.4284 137.996 82.5664C138.504 82.7513 138.846 82.9375 139.023 83.125C139.203 83.3125 139.293 83.5482 139.293 83.832ZM142.062 85.0781C141.443 85.0781 140.962 84.888 140.621 84.5078C140.283 84.125 140.113 83.5846 140.113 82.8867C140.113 82.1706 140.285 81.6172 140.629 81.2266C140.975 80.8359 141.467 80.6406 142.105 80.6406C142.311 80.6406 142.517 80.6628 142.723 80.707C142.928 80.7513 143.09 80.8034 143.207 80.8633L143.008 81.4141C142.865 81.3568 142.708 81.3099 142.539 81.2734C142.37 81.2344 142.22 81.2148 142.09 81.2148C141.22 81.2148 140.785 81.7695 140.785 82.8789C140.785 83.4049 140.891 83.8086 141.102 84.0898C141.315 84.3711 141.63 84.5117 142.047 84.5117C142.404 84.5117 142.77 84.4349 143.145 84.2812V84.8555C142.858 85.0039 142.497 85.0781 142.062 85.0781ZM146.117 80.6406C146.307 80.6406 146.478 80.6562 146.629 80.6875L146.539 81.2891C146.362 81.25 146.206 81.2305 146.07 81.2305C145.724 81.2305 145.427 81.3711 145.18 81.6523C144.935 81.9336 144.812 82.2839 144.812 82.7031V85H144.164V80.7188H144.699L144.773 81.5117H144.805C144.964 81.2331 145.155 81.0182 145.379 80.8672C145.603 80.7161 145.849 80.6406 146.117 80.6406ZM148.078 85H147.43V80.7188H148.078V85ZM147.375 79.5586C147.375 79.4102 147.411 79.3021 147.484 79.2344C147.557 79.1641 147.648 79.1289 147.758 79.1289C147.862 79.1289 147.952 79.1641 148.027 79.2344C148.103 79.3047 148.141 79.4128 148.141 79.5586C148.141 79.7044 148.103 79.8138 148.027 79.8867C147.952 79.957 147.862 79.9922 147.758 79.9922C147.648 79.9922 147.557 79.957 147.484 79.8867C147.411 79.8138 147.375 79.7044 147.375 79.5586ZM151.445 85.0781C151.167 85.0781 150.911 85.0273 150.68 84.9258C150.451 84.8216 150.258 84.6628 150.102 84.4492H150.055C150.086 84.6992 150.102 84.9362 150.102 85.1602V86.9219H149.453V80.7188H149.98L150.07 81.3047H150.102C150.268 81.0703 150.462 80.901 150.684 80.7969C150.905 80.6927 151.159 80.6406 151.445 80.6406C152.013 80.6406 152.451 80.8346 152.758 81.2227C153.068 81.6107 153.223 82.1549 153.223 82.8555C153.223 83.5586 153.065 84.1055 152.75 84.4961C152.438 84.8841 152.003 85.0781 151.445 85.0781ZM151.352 81.1914C150.914 81.1914 150.598 81.3125 150.402 81.5547C150.207 81.7969 150.107 82.1823 150.102 82.7109V82.8555C150.102 83.457 150.202 83.888 150.402 84.1484C150.603 84.4062 150.924 84.5352 151.367 84.5352C151.737 84.5352 152.026 84.3854 152.234 84.0859C152.445 83.7865 152.551 83.3737 152.551 82.8477C152.551 82.3138 152.445 81.9049 152.234 81.6211C152.026 81.3346 151.732 81.1914 151.352 81.1914ZM155.742 84.543C155.857 84.543 155.967 84.5352 156.074 84.5195C156.181 84.5013 156.266 84.4831 156.328 84.4648V84.9609C156.258 84.9948 156.154 85.0221 156.016 85.043C155.88 85.0664 155.758 85.0781 155.648 85.0781C154.82 85.0781 154.406 84.6419 154.406 83.7695V81.2227H153.793V80.9102L154.406 80.6406L154.68 79.7266H155.055V80.7188H156.297V81.2227H155.055V83.7422C155.055 84 155.116 84.1979 155.238 84.3359C155.361 84.474 155.529 84.543 155.742 84.543ZM157.836 85H157.188V80.7188H157.836V85ZM157.133 79.5586C157.133 79.4102 157.169 79.3021 157.242 79.2344C157.315 79.1641 157.406 79.1289 157.516 79.1289C157.62 79.1289 157.71 79.1641 157.785 79.2344C157.861 79.3047 157.898 79.4128 157.898 79.5586C157.898 79.7044 157.861 79.8138 157.785 79.8867C157.71 79.957 157.62 79.9922 157.516 79.9922C157.406 79.9922 157.315 79.957 157.242 79.8867C157.169 79.8138 157.133 79.7044 157.133 79.5586ZM162.906 82.8555C162.906 83.5534 162.73 84.099 162.379 84.4922C162.027 84.8828 161.542 85.0781 160.922 85.0781C160.539 85.0781 160.199 84.9883 159.902 84.8086C159.605 84.6289 159.376 84.3711 159.215 84.0352C159.053 83.6992 158.973 83.306 158.973 82.8555C158.973 82.1576 159.147 81.6146 159.496 81.2266C159.845 80.8359 160.329 80.6406 160.949 80.6406C161.548 80.6406 162.023 80.8398 162.375 81.2383C162.729 81.6367 162.906 82.1758 162.906 82.8555ZM159.645 82.8555C159.645 83.4023 159.754 83.819 159.973 84.1055C160.191 84.3919 160.513 84.5352 160.938 84.5352C161.362 84.5352 161.684 84.3932 161.902 84.1094C162.124 83.8229 162.234 83.4049 162.234 82.8555C162.234 82.3112 162.124 81.8984 161.902 81.6172C161.684 81.3333 161.359 81.1914 160.93 81.1914C160.505 81.1914 160.185 81.3307 159.969 81.6094C159.753 81.888 159.645 82.3034 159.645 82.8555ZM166.977 85V82.2305C166.977 81.8815 166.897 81.6211 166.738 81.4492C166.579 81.2773 166.331 81.1914 165.992 81.1914C165.544 81.1914 165.216 81.3125 165.008 81.5547C164.799 81.7969 164.695 82.1966 164.695 82.7539V85H164.047V80.7188H164.574L164.68 81.3047H164.711C164.844 81.0938 165.03 80.931 165.27 80.8164C165.509 80.6992 165.776 80.6406 166.07 80.6406C166.586 80.6406 166.974 80.7656 167.234 81.0156C167.495 81.263 167.625 81.6602 167.625 82.207V85H166.977Z" fill="black"/>
<path d="M105.23 158.801C104.603 158.801 104.107 159.01 103.742 159.43C103.38 159.846 103.199 160.418 103.199 161.145C103.199 161.892 103.374 162.47 103.723 162.879C104.074 163.285 104.574 163.488 105.223 163.488C105.621 163.488 106.076 163.417 106.586 163.273V163.855C106.19 164.004 105.702 164.078 105.121 164.078C104.28 164.078 103.63 163.823 103.172 163.312C102.716 162.802 102.488 162.077 102.488 161.137C102.488 160.548 102.598 160.033 102.816 159.59C103.038 159.147 103.355 158.806 103.77 158.566C104.186 158.327 104.676 158.207 105.238 158.207C105.837 158.207 106.361 158.316 106.809 158.535L106.527 159.105C106.095 158.902 105.663 158.801 105.23 158.801ZM111.43 161.855C111.43 162.553 111.254 163.099 110.902 163.492C110.551 163.883 110.065 164.078 109.445 164.078C109.062 164.078 108.723 163.988 108.426 163.809C108.129 163.629 107.9 163.371 107.738 163.035C107.577 162.699 107.496 162.306 107.496 161.855C107.496 161.158 107.671 160.615 108.02 160.227C108.368 159.836 108.853 159.641 109.473 159.641C110.072 159.641 110.547 159.84 110.898 160.238C111.253 160.637 111.43 161.176 111.43 161.855ZM108.168 161.855C108.168 162.402 108.277 162.819 108.496 163.105C108.715 163.392 109.036 163.535 109.461 163.535C109.885 163.535 110.207 163.393 110.426 163.109C110.647 162.823 110.758 162.405 110.758 161.855C110.758 161.311 110.647 160.898 110.426 160.617C110.207 160.333 109.883 160.191 109.453 160.191C109.029 160.191 108.708 160.331 108.492 160.609C108.276 160.888 108.168 161.303 108.168 161.855ZM115.5 164V161.23C115.5 160.882 115.421 160.621 115.262 160.449C115.103 160.277 114.854 160.191 114.516 160.191C114.068 160.191 113.74 160.312 113.531 160.555C113.323 160.797 113.219 161.197 113.219 161.754V164H112.57V159.719H113.098L113.203 160.305H113.234C113.367 160.094 113.553 159.931 113.793 159.816C114.033 159.699 114.299 159.641 114.594 159.641C115.109 159.641 115.497 159.766 115.758 160.016C116.018 160.263 116.148 160.66 116.148 161.207V164H115.5ZM120.246 162.832C120.246 163.23 120.098 163.538 119.801 163.754C119.504 163.97 119.087 164.078 118.551 164.078C117.983 164.078 117.54 163.988 117.223 163.809V163.207C117.428 163.311 117.648 163.393 117.883 163.453C118.12 163.513 118.348 163.543 118.566 163.543C118.905 163.543 119.165 163.49 119.348 163.383C119.53 163.273 119.621 163.108 119.621 162.887C119.621 162.72 119.548 162.578 119.402 162.461C119.259 162.341 118.978 162.201 118.559 162.039C118.16 161.891 117.876 161.762 117.707 161.652C117.54 161.54 117.415 161.414 117.332 161.273C117.251 161.133 117.211 160.965 117.211 160.77C117.211 160.421 117.353 160.146 117.637 159.945C117.921 159.742 118.31 159.641 118.805 159.641C119.266 159.641 119.716 159.734 120.156 159.922L119.926 160.449C119.496 160.272 119.107 160.184 118.758 160.184C118.451 160.184 118.219 160.232 118.062 160.328C117.906 160.424 117.828 160.557 117.828 160.727C117.828 160.841 117.857 160.939 117.914 161.02C117.974 161.1 118.069 161.177 118.199 161.25C118.329 161.323 118.579 161.428 118.949 161.566C119.457 161.751 119.799 161.938 119.977 162.125C120.156 162.312 120.246 162.548 120.246 162.832ZM122.688 163.543C122.802 163.543 122.913 163.535 123.02 163.52C123.126 163.501 123.211 163.483 123.273 163.465V163.961C123.203 163.995 123.099 164.022 122.961 164.043C122.826 164.066 122.703 164.078 122.594 164.078C121.766 164.078 121.352 163.642 121.352 162.77V160.223H120.738V159.91L121.352 159.641L121.625 158.727H122V159.719H123.242V160.223H122V162.742C122 163 122.061 163.198 122.184 163.336C122.306 163.474 122.474 163.543 122.688 163.543ZM126.086 159.641C126.276 159.641 126.447 159.656 126.598 159.688L126.508 160.289C126.331 160.25 126.174 160.23 126.039 160.23C125.693 160.23 125.396 160.371 125.148 160.652C124.904 160.934 124.781 161.284 124.781 161.703V164H124.133V159.719H124.668L124.742 160.512H124.773C124.932 160.233 125.124 160.018 125.348 159.867C125.572 159.716 125.818 159.641 126.086 159.641ZM130.031 164L129.902 163.391H129.871C129.658 163.659 129.444 163.841 129.23 163.938C129.02 164.031 128.755 164.078 128.438 164.078C128.013 164.078 127.68 163.969 127.438 163.75C127.198 163.531 127.078 163.22 127.078 162.816C127.078 161.952 127.77 161.499 129.152 161.457L129.879 161.434V161.168C129.879 160.832 129.806 160.585 129.66 160.426C129.517 160.264 129.286 160.184 128.969 160.184C128.612 160.184 128.208 160.293 127.758 160.512L127.559 160.016C127.77 159.901 128 159.811 128.25 159.746C128.503 159.681 128.755 159.648 129.008 159.648C129.518 159.648 129.896 159.762 130.141 159.988C130.388 160.215 130.512 160.578 130.512 161.078V164H130.031ZM128.566 163.543C128.97 163.543 129.286 163.432 129.516 163.211C129.747 162.99 129.863 162.68 129.863 162.281V161.895L129.215 161.922C128.699 161.94 128.327 162.021 128.098 162.164C127.871 162.305 127.758 162.525 127.758 162.824C127.758 163.059 127.828 163.237 127.969 163.359C128.112 163.482 128.311 163.543 128.566 163.543ZM132.5 164H131.852V159.719H132.5V164ZM131.797 158.559C131.797 158.41 131.833 158.302 131.906 158.234C131.979 158.164 132.07 158.129 132.18 158.129C132.284 158.129 132.374 158.164 132.449 158.234C132.525 158.305 132.562 158.413 132.562 158.559C132.562 158.704 132.525 158.814 132.449 158.887C132.374 158.957 132.284 158.992 132.18 158.992C132.07 158.992 131.979 158.957 131.906 158.887C131.833 158.814 131.797 158.704 131.797 158.559ZM136.805 164V161.23C136.805 160.882 136.725 160.621 136.566 160.449C136.408 160.277 136.159 160.191 135.82 160.191C135.372 160.191 135.044 160.312 134.836 160.555C134.628 160.797 134.523 161.197 134.523 161.754V164H133.875V159.719H134.402L134.508 160.305H134.539C134.672 160.094 134.858 159.931 135.098 159.816C135.337 159.699 135.604 159.641 135.898 159.641C136.414 159.641 136.802 159.766 137.062 160.016C137.323 160.263 137.453 160.66 137.453 161.207V164H136.805ZM140.172 163.543C140.286 163.543 140.397 163.535 140.504 163.52C140.611 163.501 140.695 163.483 140.758 163.465V163.961C140.688 163.995 140.583 164.022 140.445 164.043C140.31 164.066 140.188 164.078 140.078 164.078C139.25 164.078 138.836 163.642 138.836 162.77V160.223H138.223V159.91L138.836 159.641L139.109 158.727H139.484V159.719H140.727V160.223H139.484V162.742C139.484 163 139.546 163.198 139.668 163.336C139.79 163.474 139.958 163.543 140.172 163.543ZM144.379 162.832C144.379 163.23 144.23 163.538 143.934 163.754C143.637 163.97 143.22 164.078 142.684 164.078C142.116 164.078 141.673 163.988 141.355 163.809V163.207C141.561 163.311 141.781 163.393 142.016 163.453C142.253 163.513 142.48 163.543 142.699 163.543C143.038 163.543 143.298 163.49 143.48 163.383C143.663 163.273 143.754 163.108 143.754 162.887C143.754 162.72 143.681 162.578 143.535 162.461C143.392 162.341 143.111 162.201 142.691 162.039C142.293 161.891 142.009 161.762 141.84 161.652C141.673 161.54 141.548 161.414 141.465 161.273C141.384 161.133 141.344 160.965 141.344 160.77C141.344 160.421 141.486 160.146 141.77 159.945C142.053 159.742 142.443 159.641 142.938 159.641C143.398 159.641 143.849 159.734 144.289 159.922L144.059 160.449C143.629 160.272 143.24 160.184 142.891 160.184C142.583 160.184 142.352 160.232 142.195 160.328C142.039 160.424 141.961 160.557 141.961 160.727C141.961 160.841 141.99 160.939 142.047 161.02C142.107 161.1 142.202 161.177 142.332 161.25C142.462 161.323 142.712 161.428 143.082 161.566C143.59 161.751 143.932 161.938 144.109 162.125C144.289 162.312 144.379 162.548 144.379 162.832Z" fill="black"/>
</g>
<defs>
<clipPath id="clip0">
<rect width="333" height="255" fill="white"/>
</clipPath>
</defs>
</svg>
