<svg width="11" height="10" viewBox="0 0 11 10" fill="none" xmlns="http://www.w3.org/2000/svg">
<path d="M2.50013 3.98798C2.37785 3.98798 2.2605 4.01069 2.14369 4.0314C2.18153 3.87642 2.22047 3.71877 2.28298 3.57715C2.34549 3.37141 2.4431 3.19305 2.54016 3.01336C2.62132 2.81897 2.76445 2.68737 2.86973 2.52104C2.97996 2.35938 3.13021 2.25184 3.2492 2.11757C3.36601 1.97729 3.519 1.90715 3.64074 1.80828C3.76796 1.71944 3.87873 1.62124 3.99718 1.57448L4.29275 1.42619L4.55267 1.29459L4.28672 0L3.95934 0.0961921C3.8546 0.128256 3.72683 0.165664 3.58151 0.210421C3.43291 0.243821 3.27443 0.335337 3.09785 0.418838C2.92347 0.513694 2.72167 0.577822 2.53413 0.730127C2.34549 0.875751 2.12779 0.997328 1.93586 1.19238C1.74997 1.39345 1.52568 1.5678 1.36008 1.82365C1.17912 2.06279 1.00035 2.31396 0.861611 2.59987C0.700939 2.87241 0.591813 3.17168 0.476656 3.4676C0.372466 3.76353 0.288566 4.06613 0.22002 4.36005C0.090057 4.94923 0.03193 5.50902 0.00944687 5.98798C-0.00919763 6.4676 0.00176972 6.8664 0.0248012 7.15498C0.0330267 7.29125 0.048381 7.42351 0.0593484 7.51503L0.0730575 7.62725L0.0873151 7.62325C0.184848 8.17824 0.409374 8.68826 0.734917 9.09431C1.06046 9.50035 1.47372 9.78583 1.92689 9.91772C2.38006 10.0496 2.85462 10.0225 3.29568 9.83957C3.73674 9.65663 4.12627 9.32531 4.41921 8.88396C4.71215 8.4426 4.89653 7.90923 4.95102 7.34555C5.00551 6.78188 4.92789 6.21093 4.72713 5.69874C4.52637 5.18656 4.21068 4.75408 3.81657 4.45133C3.42247 4.14858 2.96606 3.98794 2.50013 3.98798V3.98798ZM8.53218 3.98798C8.40989 3.98798 8.29254 4.01069 8.17574 4.0314C8.21358 3.87642 8.25251 3.71877 8.31503 3.57715C8.37754 3.37141 8.47515 3.19305 8.57221 3.01336C8.65337 2.81897 8.79649 2.68737 8.90178 2.52104C9.012 2.35938 9.16225 2.25184 9.28125 2.11757C9.39805 1.97729 9.55105 1.90715 9.67278 1.80828C9.80001 1.71944 9.91078 1.62124 10.0292 1.57448L10.3248 1.42619L10.5847 1.29459L10.3188 0L9.99139 0.0961921C9.88665 0.128256 9.75888 0.165664 9.61356 0.210421C9.46495 0.243821 9.30647 0.335337 9.1299 0.418838C8.95607 0.514362 8.75372 0.577822 8.56618 0.730795C8.37754 0.876419 8.15984 0.997996 7.96791 1.19305C7.78201 1.39412 7.55773 1.56847 7.39212 1.82365C7.21116 2.06279 7.03239 2.31396 6.89366 2.59987C6.73298 2.87241 6.62386 3.17168 6.5087 3.4676C6.40451 3.76353 6.32061 4.06613 6.25207 4.36005C6.1221 4.94923 6.06398 5.50902 6.04149 5.98798C6.02285 6.4676 6.03382 6.8664 6.05685 7.15498C6.06507 7.29125 6.08043 7.42351 6.09139 7.51503L6.1051 7.62725L6.11936 7.62325C6.21689 8.17824 6.44142 8.68826 6.76696 9.09431C7.09251 9.50035 7.50577 9.78583 7.95894 9.91772C8.41211 10.0496 8.88667 10.0225 9.32773 9.83957C9.76878 9.65663 10.1583 9.32531 10.4513 8.88396C10.7442 8.4426 10.9286 7.90923 10.9831 7.34555C11.0376 6.78188 10.9599 6.21093 10.7592 5.69874C10.5584 5.18656 10.2427 4.75408 9.84862 4.45133C9.45452 4.14858 8.9981 3.98794 8.53218 3.98798V3.98798Z" fill="#FEFEFE"/>
</svg>
