<svg width="11" height="10" viewBox="0 0 11 10" fill="none" xmlns="http://www.w3.org/2000/svg">
<path d="M10.9407 2.48547L10.9269 2.37326L10.9127 2.37726C10.8152 1.82221 10.5908 1.31211 10.2653 0.905985C9.93974 0.499856 9.52646 0.214297 9.07326 0.0823482C8.62005 -0.0496006 8.14544 -0.0225461 7.70433 0.160382C7.26323 0.34331 6.87365 0.674634 6.58069 1.11602C6.28773 1.5574 6.10335 2.09081 6.04889 2.65452C5.99444 3.21822 6.07212 3.78919 6.27296 4.30136C6.4738 4.81353 6.78959 5.24596 7.18378 5.54863C7.57798 5.85129 8.03447 6.01181 8.50044 6.01162C8.62273 6.01162 8.74008 5.98891 8.85688 5.96821C8.81904 6.12317 8.78011 6.28081 8.71759 6.42242C8.65508 6.62815 8.55747 6.80649 8.46041 6.98617C8.37925 7.18055 8.23613 7.31214 8.13085 7.47846C8.02063 7.6401 7.87037 7.74764 7.75138 7.8819C7.63458 8.02218 7.48159 8.09231 7.35985 8.19117C7.23263 8.28001 7.12186 8.3782 7.00341 8.42496L6.70785 8.57324L6.44792 8.70483L6.71333 10L7.0407 9.90381C7.14544 9.87175 7.27321 9.83435 7.41852 9.78959C7.56713 9.75619 7.72561 9.66468 7.90218 9.58119C8.07601 9.48567 8.27836 9.42222 8.4659 9.26925C8.65453 9.12364 8.87223 9.00207 9.06416 8.80703C9.25005 8.60597 9.47433 8.43163 9.63994 8.17647C9.8209 7.93734 9.99966 7.68619 10.1384 7.40031C10.2991 7.12778 10.4082 6.82853 10.5233 6.53263C10.6275 6.23672 10.7114 5.93414 10.78 5.64024C10.9099 5.0511 10.9681 4.49135 10.9906 4.01242C11.0092 3.53283 10.9982 3.13406 10.9752 2.8455C10.9675 2.72499 10.956 2.60489 10.9407 2.48547V2.48547ZM4.90867 2.48547L4.89496 2.37326L4.8807 2.37726C4.78326 1.82221 4.5588 1.31211 4.23328 0.905985C3.90775 0.499856 3.49448 0.214297 3.04128 0.0823482C2.58807 -0.0496006 2.11346 -0.0225461 1.67235 0.160382C1.23124 0.34331 0.841671 0.674634 0.54871 1.11602C0.255748 1.5574 0.0713709 2.09081 0.0169121 2.65452C-0.0375468 3.21822 0.0401383 3.78919 0.240979 4.30136C0.441819 4.81353 0.757606 5.24596 1.1518 5.54863C1.546 5.85129 2.00249 6.01181 2.46846 6.01162C2.59074 6.01162 2.70809 5.98891 2.8249 5.96821C2.78706 6.12317 2.74812 6.28081 2.68561 6.42242C2.6231 6.62815 2.52549 6.80649 2.42843 6.98617C2.34727 7.18055 2.20415 7.31214 2.09886 7.47846C1.98864 7.6401 1.83839 7.74764 1.7194 7.8819C1.6026 8.02218 1.4496 8.09231 1.32787 8.19117C1.20065 8.28001 1.08988 8.3782 0.971432 8.42496L0.675865 8.57324C0.510808 8.6554 0.41649 8.70349 0.41649 8.70349L0.681897 9.99866L1.00927 9.90248C1.11401 9.87042 1.24177 9.83301 1.38709 9.78826C1.5357 9.75486 1.69417 9.66335 1.87075 9.57985C2.04458 9.48434 2.24692 9.42088 2.43446 9.26792C2.6231 9.1223 2.8408 9.00073 3.03272 8.80569C3.21862 8.60464 3.4429 8.4303 3.6085 8.17514C3.78946 7.93601 3.96823 7.68486 4.10697 7.39897C4.26764 7.12644 4.37676 6.8272 4.49192 6.53129C4.5961 6.23539 4.68 5.9328 4.74855 5.6389C4.87851 5.04976 4.93664 4.49001 4.95912 4.01109C4.97776 3.53149 4.9668 3.13272 4.94377 2.84417C4.93558 2.72413 4.92387 2.60449 4.90867 2.48547V2.48547Z" fill="#FEFEFE"/>
</svg>
