<svg width="36" height="37" viewBox="0 0 36 37" fill="none" xmlns="http://www.w3.org/2000/svg">
<g clip-path="url(#clip0)">
<path d="M22.9051 23.661C26.8163 25.4295 29.7328 29.5123 31.4475 36.9999H34.4924C35.1697 36.9999 35.7188 36.4356 35.7188 35.7395V25.7369C35.7188 25.307 35.5045 24.907 35.1513 24.677C33.1263 23.3409 30.7782 22.6134 28.3722 22.5762C26.8308 22.5942 25.313 22.9671 23.9301 23.6675C23.6041 23.8191 23.2295 23.8168 22.9051 23.661Z" fill="#F5A585"/>
<path d="M0.560822 29.556C1.65286 31.5377 5.61288 37 16.1323 37C18.5059 37.0056 20.8658 36.6268 23.1248 35.8773C23.3451 35.8014 23.5884 35.8595 23.7532 36.028L24.1622 36.4481C24.508 36.8004 24.9749 36.9985 25.4616 37H31.4475C29.7328 29.5123 26.8162 25.4295 22.9051 23.661C22.899 23.661 22.893 23.6548 22.8867 23.6548C22.7038 23.567 22.5145 23.4919 22.3256 23.4166C22.2959 23.4101 22.2671 23.3993 22.2401 23.3852C21.8301 23.2331 21.4126 23.1032 20.9891 22.9965L20.9037 22.9776C20.7023 22.9274 20.501 22.8836 20.2997 22.8396C20.2813 22.8396 20.2692 22.8334 20.2571 22.8334C20.0679 22.7958 19.8726 22.7645 19.6833 22.7393C19.6103 22.7266 19.5309 22.7142 19.4576 22.708C19.3112 22.6829 19.1588 22.6702 19.006 22.6516L18.8047 22.6326C18.5913 22.6137 18.3716 22.6013 18.1519 22.5951C17.908 22.5824 17.6638 22.5762 17.4136 22.5762C17.0667 22.577 16.7203 22.6002 16.3762 22.6453C16.2422 22.6578 16.1078 22.6767 15.9735 22.7015C15.8332 22.7204 15.6868 22.7456 15.5404 22.7769C15.2781 22.8271 15.0034 22.896 14.7167 22.9714C14.564 23.0151 14.4055 23.0592 14.2407 23.1091C14.2149 23.1185 14.1885 23.125 14.1613 23.1281C14.1457 23.1346 14.1292 23.1388 14.1125 23.1408C13.7082 23.2113 13.2962 23.0685 13.016 22.7605C12.7361 22.4525 12.6255 22.0204 12.7213 21.6105C12.9388 20.6942 13.0575 19.7564 13.0753 18.8136C13.0753 15.7468 11.9037 12.0782 14.7167 8.98658C14.856 8.83443 15.0301 8.7201 15.2232 8.65433C16.5138 8.2755 17.8539 8.10641 19.1953 8.15242C20.9344 8.15242 22.0753 6.73534 22.7466 5.51247C23.2383 4.62044 23.2613 3.5342 22.8076 2.62128C22.1652 1.39305 20.9182 0.626922 19.5614 0.627204H19.0794C18.3559 0.625793 17.6484 0.846259 17.0475 1.26037L12.8251 4.14535C11.4093 5.10993 10.2362 6.40591 9.40207 7.92688C8.95657 8.72942 8.48691 9.55737 8.17572 10.0339C6.95541 11.9153 3.28214 16.3052 2.05551 21.322L0.383667 28.1765C0.269409 28.6425 0.332855 29.1363 0.560822 29.556Z" fill="#FEDEBB"/>
<path d="M5.2103 3.76261C5.5473 3.76261 5.82031 3.48202 5.82031 3.13565V0.627243C5.82031 0.280876 5.5473 0 5.2103 0C4.87329 0 4.60001 0.280876 4.60001 0.627243V3.13565C4.60001 3.48202 4.87329 3.76261 5.2103 3.76261Z" fill="#F6AB27"/>
<path d="M3.99011 2.50835H6.43073C6.76773 2.50835 7.04102 2.22776 7.04102 1.88139C7.04102 1.53503 6.76773 1.25415 6.43073 1.25415H3.99011C3.65311 1.25415 3.37982 1.53503 3.37982 1.88139C3.37982 2.22776 3.65311 2.50835 3.99011 2.50835Z" fill="#F6AB27"/>
<path d="M25.9561 15.6779C26.2931 15.6779 26.5664 15.397 26.5664 15.0507V12.5422C26.5664 12.1959 26.2931 11.9153 25.9561 11.9153C25.6191 11.9153 25.3458 12.1959 25.3458 12.5422V15.0507C25.3458 15.397 25.6191 15.6779 25.9561 15.6779Z" fill="#D77EB0"/>
<path d="M24.7357 14.4239H27.1763C27.5133 14.4239 27.7866 14.143 27.7866 13.7966C27.7866 13.4503 27.5133 13.1697 27.1763 13.1697H24.7357C24.3987 13.1697 24.1254 13.4503 24.1254 13.7966C24.1254 14.143 24.3987 14.4239 24.7357 14.4239Z" fill="#D77EB0"/>
<path d="M9.48145 26.1007C9.60312 26.1007 9.72205 26.0631 9.82312 25.9934C11.1928 25.0238 12.6936 24.2655 14.2773 23.7433C14.3033 23.7379 14.3292 23.7309 14.3542 23.7221C14.5201 23.6668 14.6947 23.6216 14.8571 23.581C15.1449 23.4994 15.4061 23.4404 15.6503 23.393C15.7936 23.3622 15.9249 23.3402 16.0504 23.3233C16.1977 23.2962 16.3136 23.2801 16.43 23.2693C16.9906 23.2005 17.5561 23.1841 18.1194 23.2205C18.3405 23.2273 18.5468 23.2391 18.7512 23.2569L18.9481 23.2756C19.0909 23.2874 19.2258 23.3038 19.3551 23.3258C19.462 23.3371 19.5254 23.3478 19.5839 23.3577C19.7877 23.3842 19.9635 23.4136 20.1398 23.4486C20.1527 23.4486 20.1667 23.4537 20.1802 23.4551L20.2027 23.4588C20.3857 23.4926 20.5609 23.5316 20.7408 23.5841C20.7507 23.5872 20.8018 23.5985 20.8105 23.601L20.8715 23.6143C21.2536 23.7083 21.6301 23.8255 21.999 23.9649C22.0438 23.9861 22.0902 24.0036 22.1374 24.0174C22.3022 24.0801 22.4659 24.1487 22.6258 24.2252C22.6513 24.2376 22.6779 24.248 22.7049 24.2565C22.8919 24.3186 23.0963 24.2861 23.2561 24.1687C23.416 24.0516 23.5121 23.863 23.5154 23.6612C23.5154 23.3961 23.3531 23.1595 23.1103 23.0706C22.9271 22.9834 22.7362 22.9075 22.545 22.8315C22.5263 22.8242 22.5074 22.8177 22.4871 22.8115L22.4566 22.7991C22.0251 22.6342 21.5837 22.497 21.1357 22.3883L21.066 22.3745C20.8471 22.3118 20.6342 22.2641 20.4076 22.2232C20.3942 22.2232 20.3802 22.219 20.3667 22.2175C20.1678 22.178 19.969 22.1456 19.7641 22.1193C19.6974 22.1072 19.6023 22.0928 19.5144 22.0846C19.4005 22.0634 19.2302 22.0428 19.0599 22.029L18.8671 22.0101C18.6364 21.99 18.4054 21.9768 18.1738 21.97C17.5506 21.9319 16.9255 21.9502 16.3056 22.025C16.1738 22.0372 16.0219 22.0583 15.8692 22.088C15.7472 22.1035 15.583 22.1317 15.4215 22.1662C15.1548 22.217 14.8636 22.2836 14.5585 22.37C14.391 22.4115 14.1924 22.464 13.9924 22.53C13.9735 22.5343 13.9551 22.5393 13.937 22.545C12.2327 23.1031 10.6177 23.9161 9.14389 24.9574C8.92554 25.1124 8.82941 25.3947 8.90659 25.6558C8.98376 25.9169 9.21613 26.0967 9.48145 26.1007Z" fill="#F5A585"/>
</g>
<defs>
<clipPath id="clip0">
<rect width="36" height="37" fill="white" transform="matrix(-1 0 0 1 36 0)"/>
</clipPath>
</defs>
</svg>
