<svg width="25" height="26" viewBox="0 0 25 26" fill="none" xmlns="http://www.w3.org/2000/svg">
<path d="M0 13.8125C-4.71612e-09 13.4924 0.0623382 13.1754 0.183455 12.8797C0.304572 12.584 0.482095 12.3153 0.70589 12.0889C0.929684 11.8626 1.19537 11.683 1.48777 11.5605C1.78017 11.438 2.09356 11.375 2.41006 11.375C2.72655 11.375 3.03995 11.438 3.33235 11.5605C3.62475 11.683 3.89043 11.8626 4.11423 12.0889C4.33802 12.3153 4.51554 12.584 4.63666 12.8797C4.75778 13.1754 4.82012 13.4924 4.82012 13.8125V23.5625C4.82012 24.209 4.5662 24.829 4.11423 25.2861C3.66225 25.7432 3.04924 26 2.41006 26C1.77087 26 1.15786 25.7432 0.70589 25.2861C0.253916 24.829 9.52463e-09 24.209 0 23.5625V13.8125Z" fill="#F03658"/>
<path d="M6.42676 13.5411V22.3649C6.42648 22.9688 6.5926 23.5609 6.90649 24.0747C7.22037 24.5885 7.6696 25.0037 8.20377 25.2736L8.28411 25.3142C9.17565 25.7649 10.1586 25.9997 11.1553 26H19.8572C20.6004 26.0003 21.3206 25.7401 21.8954 25.2636C22.4702 24.7872 22.8639 24.124 23.0096 23.387L24.9376 13.637C25.0308 13.1655 25.0194 12.679 24.9042 12.2126C24.789 11.7461 24.573 11.3113 24.2716 10.9395C23.9702 10.5677 23.591 10.2682 23.1613 10.0625C22.7317 9.85677 22.2622 9.75005 21.7869 9.75H16.067V3.25C16.067 2.38805 15.7284 1.5614 15.1258 0.951903C14.5232 0.34241 13.7058 0 12.8536 0C12.4275 0 12.0188 0.171205 11.7175 0.475951C11.4162 0.780698 11.2469 1.19402 11.2469 1.625V2.70888C11.2469 4.11528 10.7959 5.48375 9.96151 6.60887L7.71212 9.64112C6.87778 10.7663 6.42676 12.1347 6.42676 13.5411Z" fill="#F03658"/>
</svg>
