<svg width="308" height="318" viewBox="0 0 308 318" fill="none" xmlns="http://www.w3.org/2000/svg">
<path d="M275.968 213.915C246.787 281.726 169.762 310.853 109.411 305.886C92.9321 304.53 59.7777 301.802 33.8904 277.463C-15.8247 230.72 -8.16806 133.015 39.4235 75.4918C45.5523 68.0836 87.9756 18.4528 154.083 19.1161C202.484 19.6033 236.455 46.7866 240.586 50.1722C245.805 54.4504 257.315 64.6162 267.687 80.7445C292.061 118.639 294.202 171.539 275.968 213.915Z" fill="url(#paint0_linear)"/>
<path d="M260.749 152.141C260.683 152.333 260.51 152.48 260.298 152.502C259.596 152.575 258.882 152.634 258.174 152.678C257.884 152.697 257.637 152.473 257.623 152.179C257.586 151.467 258.307 151.638 260.205 151.44C260.494 151.41 260.751 151.623 260.776 151.916C260.783 151.995 260.773 152.071 260.749 152.141Z" fill="#91B3FA"/>
<path d="M209.09 78.8115C207.442 82.4764 207.644 83.1749 206.891 82.9057C206.414 82.7354 206.573 82.1618 206.577 82.2254C207.046 80.9273 207.569 79.6337 208.132 78.3799C208.253 78.1107 208.566 77.9892 208.83 78.1073C209.083 78.2209 209.215 78.5241 209.09 78.8115ZM204.37 93.3589C204.082 93.3191 203.885 93.0511 203.928 92.7592C204.128 91.4009 204.385 90.0312 204.689 88.6888C204.845 87.9983 205.872 88.2243 205.716 88.9137C205.418 90.2288 205.166 91.5712 204.97 92.9023C204.925 93.1976 204.656 93.3986 204.37 93.3589ZM214.415 69.5895C212.058 72.8547 212.12 73.5713 211.441 73.1533C211.194 73.0011 211.12 72.6741 211.273 72.4208C211.989 71.2465 212.76 70.0846 213.567 68.9682C213.979 68.3947 214.829 69.0137 214.415 69.5895ZM203.991 104.08C203.701 104.102 203.452 103.88 203.435 103.586C203.358 102.219 203.334 100.83 203.363 99.4554C203.38 98.7478 204.431 98.7592 204.416 99.4633C204.387 100.809 204.411 102.171 204.488 103.51C204.505 103.803 204.282 104.06 203.991 104.08ZM206.149 114.278C206.093 114.439 205.963 114.572 205.789 114.622C205.507 114.702 205.218 114.538 205.142 114.254C204.791 112.935 204.486 111.584 204.237 110.239C204.182 109.951 204.37 109.669 204.657 109.611C204.944 109.553 205.219 109.739 205.273 110.029C205.516 111.346 205.815 112.669 206.16 113.962C206.189 114.07 206.183 114.179 206.149 114.278ZM209.932 124.238C209.889 124.364 209.8 124.474 209.673 124.54C209.412 124.676 209.096 124.576 208.965 124.314C208.353 123.096 207.782 121.84 207.268 120.58C207.157 120.308 207.285 119.996 207.555 119.879C207.825 119.764 208.133 119.889 208.244 120.161C208.748 121.396 209.306 122.627 209.906 123.821C209.973 123.955 209.978 124.105 209.932 124.238ZM215.473 133.433C215.245 133.619 214.914 133.586 214.732 133.358C213.889 132.293 213.077 131.184 212.32 130.057C211.931 129.477 212.803 128.868 213.193 129.448C213.936 130.552 214.731 131.64 215.558 132.682C215.738 132.91 215.701 133.246 215.473 133.433ZM222.954 140.924C222.768 141.153 222.436 141.188 222.212 141.003C221.17 140.14 220.15 139.222 219.178 138.278C218.679 137.791 219.414 137.018 219.914 137.503C220.866 138.43 221.866 139.328 222.887 140.174C223.111 140.359 223.141 140.695 222.954 140.924ZM231.1 146.917C229.903 146.291 228.716 145.609 227.572 144.887C226.982 144.516 227.55 143.61 228.137 143.979C229.259 144.685 230.422 145.354 231.594 145.967C232.211 146.29 231.715 147.238 231.1 146.917ZM241.017 150.848C239.708 150.481 238.388 150.054 237.143 149.594C236.473 149.348 236.873 148.355 237.515 148.591C238.758 149.049 240.03 149.46 241.311 149.82C241.591 149.898 241.751 150.192 241.67 150.476C241.587 150.764 241.293 150.926 241.017 150.848ZM251.542 152.664C250.191 152.573 248.825 152.426 247.487 152.229C247.2 152.187 247.003 151.915 247.05 151.624C247.181 150.829 247.643 151.331 251.626 151.598C251.917 151.618 252.132 151.872 252.11 152.166C252.086 152.465 251.829 152.683 251.542 152.664Z" fill="#91B3FA"/>
<path d="M220.094 62.958C218.816 64.221 218.393 64.9944 217.876 64.5004C217.667 64.2993 217.658 63.962 217.861 63.7462C219.13 62.3868 219.632 61.7088 220.109 62.2028C220.252 62.3516 220.303 62.7513 220.094 62.958Z" fill="#91B3FA"/>
<path d="M258.079 47.559C258.004 47.7748 257.798 47.9281 257.562 47.9225C256.868 47.9054 256.167 47.9032 255.476 47.9156C255.185 47.9202 254.948 47.6862 254.947 47.391C254.947 47.0979 255.181 46.8537 255.472 46.8492C256.177 46.8367 256.894 46.839 257.602 46.8549C257.892 46.8628 258.119 47.107 258.108 47.4012C258.107 47.4568 258.096 47.5091 258.079 47.559Z" fill="#91B3FA"/>
<path d="M269.358 49.1023C269.268 49.3635 268.994 49.5179 268.727 49.4498C267.338 49.0989 265.921 48.8047 264.52 48.5742C264.233 48.5265 264.041 48.2527 264.092 47.962C264.144 47.6701 264.416 47.4736 264.702 47.5202C266.134 47.7553 267.578 48.0563 268.996 48.414C269.277 48.4856 269.445 48.7752 269.371 49.0603C269.368 49.075 269.363 49.0886 269.358 49.1023ZM279.973 53.1579C279.597 53.8995 279.315 53.2204 275.358 51.6167C274.717 51.3567 275.117 50.3629 275.761 50.6253C277.111 51.1715 278.452 51.7837 279.747 52.4424C280.009 52.5764 280.105 52.9012 279.973 53.1579ZM289.399 59.5304C288.871 60.1721 288.74 59.4384 285.244 56.9909C284.676 56.5923 285.283 55.711 285.853 56.1108C287.046 56.9455 288.217 57.8439 289.334 58.7797C289.556 58.9648 289.586 59.301 289.399 59.5304ZM297.356 67.6122C297.323 67.7076 297.263 67.795 297.178 67.862C296.946 68.0437 296.616 68.0028 296.439 67.7712C295.573 66.6309 294.648 65.5156 293.69 64.4537C293.494 64.2379 293.511 63.9006 293.727 63.7008C293.943 63.4997 294.277 63.5122 294.472 63.728C295.45 64.8115 296.395 65.9495 297.279 67.1136C297.389 67.2601 297.412 67.4486 297.356 67.6122ZM303.228 77.4225C303.182 77.5542 303.086 77.6689 302.951 77.7336C302.686 77.8608 302.373 77.7484 302.252 77.4827C301.654 76.1766 300.995 74.8796 300.29 73.6292C300.147 73.3748 300.236 73.0488 300.489 72.8989C300.742 72.7513 301.064 72.8364 301.207 73.0908C301.926 74.3674 302.6 75.6894 303.21 77.0227C303.269 77.1533 303.271 77.2964 303.228 77.4225ZM306.827 88.3185C306.769 88.4889 306.627 88.6263 306.44 88.6694C306.157 88.7353 305.876 88.5559 305.815 88.2685C305.516 86.858 305.154 85.444 304.737 84.0641C304.652 83.7836 304.809 83.4826 305.088 83.3929C305.366 83.3043 305.661 83.4588 305.745 83.7393C306.17 85.1476 306.541 86.5911 306.846 88.03C306.867 88.13 306.859 88.2288 306.827 88.3185ZM307.967 99.7801C307.894 99.9902 307.697 100.142 307.465 100.144C307.173 100.145 306.94 99.9062 306.943 99.6121C306.959 98.1618 306.913 96.6967 306.808 95.2577C306.786 94.9624 307.004 94.7046 307.294 94.6785C307.585 94.6524 307.837 94.8693 307.859 95.1635C307.966 96.6331 308.013 98.1277 307.997 99.6086C307.996 99.6677 307.986 99.7268 307.967 99.7801ZM299.21 128.573C298.4 129.813 297.529 131.035 296.618 132.205C296.438 132.438 296.106 132.481 295.878 132.3C295.236 131.793 295.962 131.628 298.333 127.994C298.494 127.746 298.822 127.674 299.064 127.835C299.306 127.995 299.371 128.325 299.21 128.573ZM305.966 111.605C305.17 111.426 305.759 110.942 306.386 106.677C306.429 106.384 306.698 106.18 306.985 106.22C307.274 106.258 307.472 106.527 307.429 106.819C307.214 108.279 306.936 109.753 306.6 111.199C306.533 111.488 306.248 111.668 305.966 111.605ZM304.498 118.136C303.975 119.525 303.388 120.907 302.753 122.246C302.626 122.513 302.311 122.628 302.049 122.504C301.311 122.153 301.984 121.83 303.515 117.768C303.619 117.492 303.924 117.35 304.195 117.451C304.669 117.629 304.503 118.2 304.498 118.136Z" fill="#91B3FA"/>
<path d="M291.773 137.63C290.441 138.932 289.911 139.584 289.457 139.067C288.986 138.53 289.682 138.199 291.046 136.868C291.256 136.662 291.59 136.665 291.791 136.876C291.991 137.086 291.983 137.425 291.773 137.63Z" fill="#91B3FA"/>
<path d="M278.274 132.197L277.103 124.649C279.765 122.259 282.076 119.429 283.907 116.224C291.245 115.71 291.797 116.191 292.035 115.403L294.698 106.584C294.776 106.328 294.684 106.051 294.47 105.895L288.362 101.474C288.607 97.7984 288.246 94.1766 287.347 90.7309L292.511 85.0614C292.691 84.8626 292.73 84.5707 292.605 84.3357L288.355 76.2811C288.23 76.0461 287.972 75.9188 287.709 75.9643L280.237 77.2556C277.913 74.5946 275.15 72.2959 272.008 70.4867L271.75 62.8422C271.741 62.5742 271.565 62.3437 271.312 62.2687L262.638 59.6963C262.385 59.6214 262.109 59.7179 261.953 59.9371L257.5 66.1835C253.872 65.9859 250.289 66.4027 246.872 67.3624C241.366 62.4493 241.34 61.7361 240.628 62.1279C232.841 66.5969 232.16 66.3766 232.288 67.2022L233.46 74.7502C230.797 77.1398 228.488 79.9711 226.657 83.1761C219.322 83.6894 218.767 83.2079 218.528 83.9972C216.033 92.8035 215.436 93.0295 216.092 93.5043L222.202 97.9256C221.955 101.601 222.316 105.224 223.216 108.669C218.344 114.244 217.574 114.338 217.957 115.065C222.304 122.96 222.046 123.576 222.853 123.436L230.327 122.144C232.649 124.806 235.413 127.104 238.554 128.914C238.951 136.206 238.459 136.897 239.25 137.132C247.877 139.522 248.127 140.139 248.609 139.463L253.063 133.216C256.69 133.413 260.275 132.998 263.69 132.038C269.178 136.934 269.219 137.665 269.935 137.271C277.721 132.802 278.402 133.024 278.274 132.197Z" fill="#91B3FA"/>
<path d="M248.024 99.4316C247.823 103.437 250.852 106.901 254.914 107.051C258.915 107.199 262.336 104.022 262.539 99.9688C262.741 95.9154 259.651 92.4969 255.649 92.3493C251.641 92.2005 248.225 95.385 248.024 99.4316ZM263.328 99.9983L263.33 99.9926L263.328 99.9983ZM254.834 108.65C249.961 108.47 246.198 104.308 246.445 99.3725C246.694 94.4379 250.856 90.5685 255.729 90.749C260.601 90.9296 264.364 95.092 264.117 100.027C263.871 104.964 259.704 108.831 254.834 108.65Z" fill="#BDD0FB"/>
<path d="M276.573 106.864C276.139 108.119 275.6 109.335 274.967 110.49C274.776 110.838 274.372 110.99 274.015 110.869C273.973 110.855 273.931 110.836 273.891 110.814C273.509 110.604 273.375 110.116 273.587 109.729C274.316 108.399 274.909 106.983 275.352 105.52C278.682 94.4924 272.802 82.9183 262.194 79.2897C261.923 79.1977 261.649 79.1102 261.371 79.0273C250.179 75.7088 238.415 82.2641 235.002 93.5543C231.597 104.83 237.821 116.731 248.983 120.047C255.628 122.016 259.986 119.993 260.671 120.228C261.411 120.48 261.358 121.56 260.599 121.76C256.451 122.856 251.941 122.774 247.635 121.301C229.054 114.947 227.155 88.9842 244.551 79.401C249.905 76.4515 256.042 75.7735 261.835 77.4907C262.135 77.5804 262.432 77.6747 262.726 77.7746C268.115 79.6179 272.528 83.3953 275.219 88.4958C278.058 93.8745 278.642 100.079 276.863 105.968C276.772 106.269 276.676 106.567 276.573 106.864Z" fill="#BDD0FB"/>
<path d="M219.494 63.8814C219.454 63.9984 219.349 64.087 219.221 64.1006C218.795 64.1449 218.362 64.1801 217.933 64.2073C217.756 64.2187 217.606 64.0824 217.598 63.9041C217.575 63.4725 218.013 63.5759 219.164 63.4566C219.34 63.4373 219.495 63.5668 219.511 63.7451C219.515 63.7928 219.509 63.8382 219.494 63.8814Z" fill="#91B3FA"/>
<path d="M188.155 19.3943C187.156 21.6192 187.278 22.0417 186.821 21.8793C186.532 21.7759 186.628 21.4273 186.631 21.4659C186.915 20.6788 187.232 19.8941 187.574 19.1331C187.647 18.9696 187.836 18.8958 187.997 18.9684C188.151 19.0366 188.231 19.2206 188.155 19.3943ZM185.293 28.22C185.118 28.1961 184.997 28.0337 185.023 27.8566C185.145 27.032 185.301 26.2018 185.486 25.3875C185.58 24.9684 186.203 25.1059 186.108 25.5238C185.928 26.3222 185.775 27.1354 185.656 27.9429C185.628 28.1223 185.465 28.2438 185.293 28.22ZM191.386 13.7998C189.955 15.7816 189.993 16.2166 189.582 15.9622C189.431 15.8702 189.387 15.6715 189.479 15.5182C189.914 14.8061 190.383 14.1008 190.87 13.4239C191.122 13.0752 191.637 13.4511 191.386 13.7998ZM185.062 34.7254C184.886 34.7379 184.735 34.6027 184.725 34.4244C184.678 33.5953 184.663 32.7526 184.68 31.919C184.691 31.4897 185.329 31.4965 185.32 31.9236C185.303 32.7401 185.316 33.5658 185.363 34.379C185.374 34.5561 185.239 34.7117 185.062 34.7254ZM186.371 40.9105C186.337 41.0093 186.258 41.0888 186.152 41.1194C185.981 41.1683 185.807 41.0683 185.76 40.8968C185.546 40.0962 185.361 39.2773 185.21 38.4607C185.177 38.2858 185.292 38.1155 185.466 38.0803C185.64 38.0451 185.807 38.1575 185.839 38.3335C185.987 39.1331 186.169 39.936 186.378 40.7197C186.395 40.7844 186.391 40.8514 186.371 40.9105ZM188.666 46.9536C188.639 47.0297 188.586 47.0967 188.508 47.1365C188.35 47.2194 188.159 47.158 188.079 47.0002C187.708 46.2608 187.362 45.4988 187.049 44.7344C186.983 44.5697 187.061 44.3801 187.224 44.3097C187.387 44.2392 187.575 44.3153 187.641 44.48C187.947 45.2296 188.286 45.9758 188.65 46.7003C188.691 46.7821 188.694 46.873 188.666 46.9536ZM192.028 52.5311C191.889 52.6447 191.688 52.6242 191.579 52.4857C191.067 51.8406 190.573 51.1671 190.114 50.4834C189.879 50.1325 190.408 49.7622 190.644 50.1143C191.094 50.7844 191.577 51.4442 192.079 52.0757C192.189 52.2142 192.166 52.4187 192.028 52.5311ZM196.566 57.0762C196.453 57.2159 196.252 57.2375 196.116 57.1239C195.484 56.6004 194.865 56.0439 194.276 55.4703C193.972 55.1762 194.418 54.706 194.721 55.0013C195.299 55.5635 195.906 56.1086 196.525 56.6219C196.661 56.7332 196.679 56.9377 196.566 57.0762ZM201.508 60.7116C200.781 60.3323 200.061 59.9178 199.367 59.4806C199.009 59.2557 199.354 58.706 199.711 58.9297C200.39 59.3579 201.096 59.7645 201.807 60.1358C202.182 60.3323 201.881 60.907 201.508 60.7116ZM207.523 63.0966C206.729 62.874 205.929 62.6151 205.173 62.3369C204.768 62.187 205.01 61.5839 205.399 61.7281C206.153 62.0052 206.926 62.2551 207.702 62.4732C207.873 62.5209 207.97 62.6992 207.919 62.8707C207.87 63.0456 207.691 63.1443 207.523 63.0966ZM213.908 64.1983C213.089 64.1438 212.261 64.0541 211.449 63.9348C211.274 63.9087 211.156 63.744 211.184 63.568C211.263 63.0864 211.544 63.3897 213.96 63.5521C214.136 63.5646 214.267 63.7179 214.253 63.8962C214.239 64.0779 214.083 64.2096 213.908 64.1983Z" fill="#91B3FA"/>
<path d="M194.831 9.77731C194.055 10.5439 193.799 11.013 193.485 10.7131C193.358 10.5916 193.352 10.3861 193.476 10.2554C194.246 9.43092 194.55 9.01978 194.84 9.31961C194.927 9.40933 194.957 9.65239 194.831 9.77731Z" fill="#91B3FA"/>
<path d="M217.875 0.435826C217.83 0.566434 217.704 0.659567 217.562 0.656159C217.14 0.645938 216.715 0.644798 216.296 0.651612C216.119 0.655019 215.976 0.511919 215.975 0.333612C215.975 0.155305 216.117 0.00766176 216.294 0.00425458C216.721 -0.00255972 217.156 -0.00141954 217.584 0.00880188C217.761 0.0122091 217.9 0.160983 217.893 0.339291C217.892 0.373362 217.885 0.405162 217.875 0.435826Z" fill="#91B3FA"/>
<path d="M224.718 1.37179C224.663 1.53079 224.496 1.62391 224.334 1.58303C223.491 1.36951 222.632 1.1912 221.782 1.0515C221.608 1.02311 221.492 0.856167 221.523 0.680134C221.554 0.50296 221.72 0.383717 221.893 0.412109C222.761 0.555206 223.637 0.736908 224.498 0.954967C224.668 0.996986 224.771 1.17302 224.725 1.34679C224.723 1.35587 224.72 1.36384 224.718 1.37179ZM231.157 3.83174C230.929 4.28262 230.757 3.86921 228.357 2.89704C227.968 2.73917 228.21 2.13725 228.602 2.29511C229.421 2.62787 230.234 2.99811 231.02 3.39788C231.179 3.47966 231.237 3.67615 231.157 3.83174ZM236.875 7.69772C236.555 8.08727 236.476 7.64206 234.356 6.15767C234.01 5.91577 234.379 5.38084 234.724 5.62389C235.448 6.13042 236.158 6.67442 236.836 7.24228C236.97 7.35472 236.99 7.55917 236.875 7.69772ZM241.703 12.6017C241.683 12.6596 241.646 12.7119 241.595 12.7528C241.454 12.8629 241.253 12.838 241.147 12.6971C240.621 12.0055 240.059 11.3297 239.478 10.6858C239.36 10.554 239.369 10.3496 239.501 10.2281C239.632 10.1066 239.834 10.1134 239.953 10.2451C240.546 10.9016 241.119 11.5921 241.655 12.2985C241.724 12.3871 241.737 12.5018 241.703 12.6017ZM245.265 18.5529C245.237 18.6324 245.179 18.7016 245.097 18.7414C244.937 18.8186 244.746 18.7505 244.673 18.5892C244.31 17.7965 243.91 17.0094 243.483 16.2508C243.396 16.0963 243.45 15.8987 243.603 15.809C243.757 15.7181 243.952 15.7704 244.039 15.9248C244.475 16.6994 244.883 17.5012 245.253 18.3098C245.29 18.3893 245.291 18.4756 245.265 18.5529ZM247.449 25.1627C247.413 25.2661 247.327 25.3501 247.214 25.3751C247.041 25.416 246.871 25.307 246.834 25.1321C246.653 24.2769 246.433 23.4194 246.18 22.5813C246.128 22.4109 246.224 22.2292 246.393 22.1747C246.562 22.1202 246.741 22.2144 246.792 22.3848C247.05 23.2388 247.274 24.1145 247.459 24.9878C247.473 25.048 247.467 25.1082 247.449 25.1627ZM248.14 32.1156C248.095 32.2439 247.976 32.3359 247.835 32.3371C247.658 32.3371 247.516 32.1928 247.519 32.0134C247.528 31.1343 247.5 30.2451 247.436 29.3717C247.424 29.1934 247.555 29.0367 247.731 29.0219C247.908 29.006 248.061 29.1377 248.074 29.3149C248.139 30.2064 248.167 31.1139 248.158 32.0122C248.157 32.0486 248.151 32.0838 248.14 32.1156ZM242.827 49.584C242.337 50.3359 241.808 51.0775 241.255 51.7873C241.146 51.9281 240.945 51.9543 240.806 51.8452C240.417 51.5363 240.857 51.4375 242.295 49.2319C242.393 49.082 242.592 49.0389 242.739 49.1354C242.885 49.2331 242.925 49.433 242.827 49.584ZM246.926 39.2899C246.443 39.1809 246.801 38.8878 247.182 36.2995C247.207 36.1224 247.37 35.9986 247.545 36.0225C247.72 36.0463 247.84 36.2098 247.813 36.3859C247.683 37.2717 247.514 38.1655 247.311 39.0435C247.27 39.2195 247.097 39.3274 246.926 39.2899ZM246.036 43.2524C245.718 44.094 245.362 44.9333 244.977 45.7453C244.9 45.9066 244.709 45.977 244.55 45.9009C244.102 45.6885 244.51 45.4932 245.438 43.0287C245.502 42.8606 245.686 42.7743 245.852 42.8367C246.14 42.9446 246.038 43.291 246.036 43.2524Z" fill="#91B3FA"/>
<path d="M238.315 55.0786C237.507 55.8679 237.185 56.2632 236.911 55.9497C236.624 55.6238 237.047 55.4239 237.874 54.6152C238.002 54.4903 238.204 54.4926 238.326 54.6209C238.448 54.7481 238.443 54.9537 238.315 55.0786Z" fill="#91B3FA"/>
<path d="M230.127 51.7827L229.416 47.2035C231.03 45.7532 232.432 44.036 233.543 42.0916C237.995 41.7804 238.33 42.0723 238.475 41.5942L240.09 36.2438C240.137 36.0882 240.082 35.9201 239.952 35.8259L236.246 33.1433C236.396 30.9139 236.176 28.7163 235.63 26.6266L238.763 23.1865C238.872 23.0661 238.896 22.889 238.821 22.7459L236.242 17.86C236.166 17.718 236.01 17.6397 235.851 17.6681L231.317 18.4517C229.908 16.8367 228.231 15.4421 226.325 14.345L226.169 9.7067C226.163 9.5443 226.057 9.40461 225.903 9.35918L220.64 7.7987C220.487 7.75327 220.32 7.8112 220.225 7.94521L217.524 11.734C215.323 11.6147 213.149 11.8668 211.075 12.4495C207.735 9.4682 207.719 9.0355 207.288 9.274C202.564 11.985 202.151 11.8509 202.228 12.3529L202.939 16.9321C201.325 18.3813 199.923 20.0985 198.812 22.0429C194.362 22.354 194.025 22.0622 193.88 22.5414C192.367 27.8838 192.005 28.0201 192.403 28.3086L196.109 30.9912C195.959 33.2206 196.179 35.4182 196.725 37.509C193.769 40.89 193.302 40.948 193.534 41.3886C196.172 46.1791 196.015 46.5516 196.504 46.4675L201.038 45.6839C202.448 47.2977 204.124 48.6924 206.03 49.7906C206.271 54.2142 205.972 54.6333 206.452 54.7753C211.687 56.2256 211.837 56.6004 212.13 56.1904L214.831 52.4005C217.033 52.5198 219.206 52.2676 221.28 51.6861C224.608 54.656 224.632 55.1001 225.068 54.8605C229.791 52.1495 230.205 52.2835 230.127 51.7827Z" fill="#91B3FA"/>
<path d="M211.775 31.9042C211.653 34.3346 213.49 36.4357 215.954 36.5265C218.382 36.6163 220.458 34.689 220.581 32.2301C220.703 29.7713 218.828 27.6975 216.401 27.6078C213.969 27.5181 211.897 29.4499 211.775 31.9042ZM221.059 32.2483L221.06 32.2449L221.059 32.2483ZM215.906 37.4976C212.95 37.3874 210.668 34.8627 210.817 31.869C210.968 28.8752 213.494 26.5277 216.449 26.6367C219.405 26.7469 221.687 29.2716 221.538 32.2653C221.388 35.2602 218.861 37.6066 215.906 37.4976Z" fill="#BDD0FB"/>
<path d="M229.094 36.4131C228.83 37.1751 228.505 37.9122 228.12 38.6141C228.004 38.8242 227.759 38.9173 227.543 38.8435C227.517 38.8344 227.492 38.8231 227.468 38.8094C227.236 38.6822 227.153 38.387 227.282 38.1519C227.725 37.3455 228.084 36.4858 228.354 35.5977C230.374 28.9083 226.806 21.8862 220.37 19.6852C220.206 19.6295 220.04 19.5761 219.872 19.5262C213.082 17.5125 205.945 21.4898 203.875 28.3393C201.809 35.1797 205.585 42.3994 212.357 44.4108C216.387 45.6056 219.032 44.379 219.447 44.521C219.896 44.6743 219.863 45.3285 219.403 45.45C216.887 46.1155 214.152 46.0655 211.539 45.1717C200.267 41.3171 199.114 25.567 209.668 19.7521C212.916 17.9634 216.64 17.5523 220.153 18.5937C220.335 18.6482 220.515 18.7062 220.695 18.7664C223.963 19.8839 226.641 22.1758 228.273 25.2706C229.995 28.5335 230.35 32.2973 229.27 35.8702C229.215 36.0519 229.156 36.2336 229.094 36.4131Z" fill="#BDD0FB"/>
<path d="M217.413 200.972C220.006 205.105 222.72 211.004 222.061 216.902C220.856 227.684 204.224 232.476 189.647 226.486C179.255 222.216 183.679 208.206 187.077 200.512C188.153 198.074 186.372 195.339 183.694 195.339H146.151V153.295C146.151 149.624 150.06 147.263 153.333 148.962C157.256 150.997 162.412 153.158 167.84 154.009C179.286 155.807 190.733 143.228 189.528 131.248C188.323 119.269 176.877 110.284 164.828 110.883C160.68 111.09 157.226 112.807 154.479 114.969C151.286 117.484 146.576 115.143 146.576 111.094V74.3457H251.077C254.019 74.3457 256.407 76.7137 256.414 79.6393L256.7 195.339H220.528C217.62 195.339 215.873 198.518 217.413 200.972Z" fill="url(#paint1_linear)"/>
<path d="M146.924 194.571H183.694C185.209 194.571 186.607 195.323 187.434 196.583C188.266 197.848 188.397 199.433 187.784 200.821C185.63 205.697 182.382 214.771 184.808 220.764C185.742 223.075 187.47 224.76 189.942 225.775C198.564 229.319 208.736 229.126 215.252 225.293C218.819 223.195 220.907 220.265 221.293 216.818C221.936 211.058 219.181 205.243 216.757 201.379C215.879 199.979 215.833 198.284 216.635 196.846C217.431 195.422 218.885 194.571 220.528 194.571H255.925L255.641 79.6405C255.635 77.1454 253.588 75.1136 251.077 75.1136H147.348V111.093C147.348 112.693 148.254 114.122 149.711 114.823C151.152 115.517 152.756 115.346 153.999 114.367C157.34 111.736 160.97 110.306 164.789 110.116C170.865 109.815 176.884 111.816 181.733 115.754C186.657 119.753 189.699 125.228 190.297 131.172C190.938 137.537 188.107 144.523 182.911 149.403C178.418 153.623 172.878 155.579 167.72 154.769C163.089 154.042 158.128 152.317 152.975 149.644C151.681 148.971 150.165 149.019 148.919 149.77C147.67 150.522 146.924 151.84 146.924 153.295V194.571ZM202.794 229.877C198.36 229.877 193.712 228.988 189.352 227.196C186.481 226.017 184.47 224.046 183.373 221.338C180.869 215.149 183.619 206.429 186.368 200.203C186.77 199.293 186.686 198.253 186.14 197.423C185.592 196.587 184.699 196.108 183.694 196.108H146.151C145.725 196.108 145.379 195.764 145.379 195.339V153.295C145.379 151.298 146.402 149.489 148.118 148.456C149.83 147.423 151.914 147.359 153.69 148.281C158.695 150.878 163.496 152.55 167.96 153.251C172.645 153.987 177.707 152.178 181.849 148.285C186.705 143.726 189.353 137.227 188.759 131.325C188.203 125.79 185.36 120.683 180.755 116.944C176.269 113.301 170.477 111.371 164.866 111.651C161.376 111.824 158.043 113.143 154.958 115.572C153.265 116.906 150.998 117.149 149.038 116.206C147.042 115.246 145.803 113.287 145.803 111.093V74.3458C145.803 73.9211 146.149 73.577 146.576 73.577H251.077C254.437 73.577 257.178 76.2959 257.187 79.6371L257.473 195.337C257.473 195.541 257.391 195.738 257.248 195.882C257.102 196.026 256.905 196.108 256.7 196.108H220.528C219.455 196.108 218.506 196.662 217.987 197.592C217.461 198.535 217.492 199.646 218.069 200.566C220.623 204.636 223.521 210.788 222.83 216.987C222.388 220.934 220.04 224.262 216.039 226.616C212.349 228.785 207.703 229.877 202.794 229.877Z" fill="#BDD0FB"/>
<path d="M146.151 310.343V275.134C146.151 271.629 142.56 269.228 139.314 270.594C135.74 272.099 130.871 273.537 124.97 273.806C111.811 274.404 101.794 263.623 103.79 248.649C105.786 233.673 118.597 230.08 124.844 231.876C128.105 232.816 133.768 236.413 138.437 239.637C141.696 241.888 146.151 239.565 146.151 235.62V195.339H183.694C186.372 195.339 188.153 198.074 187.077 200.513C183.679 208.206 179.255 222.216 189.647 226.486C204.224 232.476 220.856 227.685 222.061 216.902C222.72 211.004 220.006 205.105 217.413 200.973C215.873 198.518 217.62 195.339 220.528 195.339H256.7L257.29 306.48C257.3 308.61 255.567 310.343 253.424 310.343H146.151Z" fill="url(#paint2_linear)"/>
<path d="M146.924 309.575H253.424C254.253 309.575 255.031 309.253 255.616 308.669C256.201 308.084 256.521 307.308 256.516 306.484L255.932 196.108H220.528C219.455 196.108 218.506 196.662 217.987 197.593C217.461 198.535 217.492 199.646 218.069 200.566C220.623 204.636 223.521 210.788 222.829 216.987C222.388 220.934 220.04 224.263 216.039 226.616C209.017 230.744 198.541 230.971 189.352 227.196C186.481 226.017 184.47 224.046 183.373 221.338C180.869 215.15 183.619 206.43 186.368 200.204C186.77 199.293 186.686 198.254 186.14 197.423C185.592 196.587 184.699 196.108 183.694 196.108H146.924V235.62C146.924 237.766 145.783 239.64 143.871 240.634C141.962 241.628 139.764 241.49 137.996 240.268C131.814 235.999 127.191 233.353 124.629 232.615C121.725 231.78 116.887 232.174 112.629 234.941C109.516 236.961 105.59 240.998 104.556 248.75C103.601 255.909 105.415 262.386 109.662 266.99C113.513 271.163 118.939 273.31 124.935 273.038C129.84 272.814 134.576 271.754 139.013 269.886C140.767 269.148 142.764 269.335 144.356 270.384C145.965 271.442 146.924 273.218 146.924 275.132V309.575ZM253.424 311.112H146.151C145.725 311.112 145.379 310.768 145.379 310.343V275.132C145.379 273.734 144.677 272.438 143.503 271.664C142.327 270.889 140.909 270.756 139.616 271.302C135.01 273.24 130.095 274.341 125.006 274.574C118.545 274.867 112.689 272.543 108.523 268.028C103.961 263.085 102.008 256.166 103.024 248.548C104.135 240.218 108.4 235.85 111.784 233.654C116.771 230.414 122.052 230.274 125.058 231.139C127.819 231.933 132.468 234.581 138.877 239.005C140.166 239.896 141.765 239.994 143.155 239.273C144.547 238.549 145.379 237.184 145.379 235.62V195.339C145.379 194.915 145.725 194.572 146.151 194.572H183.694C185.209 194.572 186.607 195.323 187.434 196.583C188.266 197.848 188.397 199.434 187.784 200.821C185.63 205.697 182.382 214.771 184.808 220.765C185.742 223.075 187.47 224.76 189.941 225.775C198.564 229.319 208.736 229.126 215.252 225.293C218.819 223.195 220.907 220.265 221.293 216.818C221.936 211.058 219.181 205.243 216.757 201.379C215.879 199.979 215.833 198.284 216.635 196.846C217.431 195.422 218.885 194.572 220.528 194.572H256.7C257.125 194.572 257.47 194.912 257.473 195.335L258.062 306.476C258.069 307.713 257.589 308.876 256.712 309.752C255.836 310.629 254.668 311.112 253.424 311.112Z" fill="white"/>
<path d="M42.9358 310.521C40.6552 310.526 38.8044 308.688 38.8044 306.421V276.79C38.8044 272.969 38.8805 237.485 38.8805 233.598V194.441H75.2433C78.2407 194.441 79.9976 191.053 78.2259 188.65C69.7157 177.109 77.1418 160.683 83.4953 157.904C91.0266 154.608 106.389 153.71 110.907 170.482C113.262 179.218 111.102 185.598 108.491 189.706C106.937 192.152 108.676 195.339 111.586 195.339H146.151V235.62C146.151 239.565 141.696 241.888 138.437 239.637C133.768 236.412 128.105 232.816 124.843 231.876C118.597 230.08 105.786 233.673 103.79 248.649C101.794 263.623 111.811 274.404 124.97 273.806C130.871 273.537 135.74 272.099 139.314 270.594C142.56 269.228 146.151 271.629 146.151 275.133V310.343L42.9358 310.521Z" fill="url(#paint3_linear)"/>
<path d="M39.6537 195.209V233.598C39.6537 235.549 39.6344 245.469 39.6152 255.345C39.5962 265.137 39.5774 274.887 39.5774 276.79V306.421C39.5774 307.312 39.9268 308.15 40.5613 308.779C41.1941 309.407 42.0345 309.753 42.9285 309.753C42.9303 309.753 42.9326 309.753 42.9344 309.753L145.379 309.576V275.132C145.379 273.734 144.678 272.438 143.503 271.664C142.327 270.889 140.909 270.756 139.616 271.302C135.01 273.24 130.095 274.341 125.006 274.574C118.542 274.865 112.688 272.543 108.524 268.028C103.961 263.085 102.008 256.166 103.024 248.547C104.135 240.218 108.4 235.85 111.784 233.654C116.771 230.413 122.052 230.274 125.058 231.139C127.819 231.933 132.469 234.58 138.877 239.005C140.167 239.896 141.765 239.994 143.155 239.273C144.547 238.549 145.379 237.184 145.379 235.62V196.108H111.586C109.942 196.108 108.488 195.255 107.696 193.826C106.898 192.385 106.951 190.692 107.838 189.295C110.189 185.596 112.5 179.362 110.162 170.681C108.555 164.72 105.437 160.599 100.893 158.431C95.0009 155.621 88.0065 156.769 83.8074 158.607C80.7026 159.965 77.5064 164.724 76.0351 170.181C74.9887 174.064 73.9618 181.569 78.8498 188.196C79.8367 189.535 79.9795 191.289 79.2221 192.776C78.4568 194.277 76.9318 195.209 75.2435 195.209H39.6537ZM42.928 311.29C41.622 311.29 40.394 310.785 39.4691 309.867C38.5424 308.947 38.0317 307.723 38.0317 306.421V276.79C38.0317 274.887 38.0507 265.136 38.0695 255.341C38.0887 245.466 38.1079 235.549 38.1079 233.598V194.441C38.1079 194.016 38.4541 193.672 38.8808 193.672H75.2435C76.3629 193.672 77.335 193.078 77.8434 192.081C78.3437 191.1 78.2535 189.987 77.6023 189.104C72.334 181.96 73.4238 173.932 74.5432 169.783C76.1265 163.907 79.6802 158.733 83.1848 157.2C87.6844 155.233 95.1962 154.011 101.561 157.045C106.53 159.415 109.926 163.87 111.655 170.283C114.138 179.502 111.66 186.157 109.145 190.116C108.562 191.033 108.528 192.142 109.05 193.085C109.566 194.015 110.515 194.571 111.586 194.571H146.151C146.578 194.571 146.925 194.914 146.925 195.339V235.62C146.925 237.766 145.783 239.64 143.871 240.634C141.962 241.628 139.765 241.49 137.996 240.268C131.814 235.999 127.191 233.353 124.629 232.615C121.725 231.78 116.887 232.174 112.629 234.94C109.516 236.961 105.59 240.998 104.556 248.75C103.601 255.909 105.415 262.386 109.662 266.99C113.513 271.163 118.939 273.309 124.935 273.038C129.84 272.814 134.576 271.754 139.013 269.886C140.767 269.148 142.764 269.334 144.357 270.384C145.965 271.442 146.925 273.217 146.925 275.132V310.343C146.925 310.768 146.58 311.111 146.153 311.112L42.9375 311.29C42.9344 311.29 42.9311 311.29 42.928 311.29Z" fill="#BDD0FB"/>
<path d="M125.515 137.405C128.171 133.226 130.369 126.735 127.975 117.846C123.377 100.782 107.747 101.696 100.085 105.049C93.6197 107.877 86.0644 124.589 94.7231 136.331C96.5268 138.775 94.738 142.222 91.688 142.222H54.6927L53.5508 24.136C53.5237 21.333 55.8154 19.0537 58.6353 19.0798L164.263 20.0361V57.4238C164.263 61.5442 169.054 63.9247 172.303 61.367C175.098 59.166 178.613 57.4204 182.833 57.2103C195.091 56.6004 206.737 65.7418 207.964 77.9303C209.189 90.1177 197.544 102.916 185.898 101.088C180.375 100.221 175.128 98.0222 171.138 95.9518C167.808 94.2233 163.832 96.6253 163.832 100.361V143.136H128.665C125.704 143.136 123.934 139.894 125.515 137.405Z" fill="url(#paint4_linear)"/>
<path d="M109.714 102.324C112.617 102.324 115.648 102.848 118.459 104.188C123.512 106.598 126.964 111.126 128.721 117.647C131.246 127.021 128.727 133.789 126.17 137.815H126.169C125.575 138.751 125.538 139.886 126.073 140.849C126.599 141.799 127.568 142.368 128.665 142.368H163.058V100.361C163.058 98.3333 164.098 96.4969 165.839 95.4475C167.577 94.4003 169.692 94.3345 171.496 95.2714C176.588 97.9131 181.475 99.6155 186.018 100.329C190.79 101.077 195.942 99.2339 200.161 95.2737C205.103 90.6309 207.798 84.0142 207.194 78.0063C206.627 72.3709 203.734 67.1716 199.047 63.3658C194.479 59.6577 188.588 57.6918 182.871 57.9768C179.318 58.154 175.924 59.4975 172.783 61.97C171.065 63.3226 168.762 63.5691 166.774 62.6128C164.749 61.6395 163.49 59.6508 163.49 57.4237V20.7969L58.6274 19.8474C57.4554 19.8293 56.3873 20.2779 55.5719 21.091C54.7557 21.902 54.3122 22.9809 54.3236 24.1291L55.4583 141.454H91.6881C92.8327 141.454 93.8265 140.847 94.3451 139.828C94.8569 138.824 94.7655 137.687 94.0995 136.785C88.7432 129.521 89.8513 121.358 90.989 117.138C92.5985 111.165 96.2117 105.904 99.7734 104.345C102.362 103.213 105.93 102.324 109.714 102.324ZM163.832 143.905H128.665C126.997 143.905 125.522 143.04 124.719 141.59C123.908 140.129 123.962 138.412 124.863 136.994H124.862C127.255 133.227 129.608 126.882 127.228 118.045C125.593 111.977 122.419 107.781 117.791 105.574C111.79 102.714 104.67 103.882 100.396 105.752C97.234 107.135 93.9784 111.981 92.482 117.537C91.4162 121.491 90.371 129.129 95.3469 135.876C96.3487 137.234 96.4927 139.015 95.7239 140.523C94.9483 142.045 93.4016 142.991 91.6881 142.991H54.6929C54.2693 142.991 53.9243 142.651 53.9202 142.23L52.7779 24.1439C52.7628 22.58 53.3666 21.1104 54.4786 20.0042C55.5775 18.9105 57.035 18.3108 58.5874 18.3108C58.6057 18.3108 58.624 18.3108 58.6422 18.3108L164.27 19.2682C164.694 19.2716 165.036 19.6146 165.036 20.036V57.4237C165.036 59.0569 165.96 60.5151 167.447 61.2295C168.918 61.9371 170.554 61.7633 171.823 60.765C175.222 58.0893 178.913 56.6355 182.794 56.4425C188.971 56.1313 195.092 58.1721 200.025 62.1755C205.031 66.2414 208.125 71.8098 208.733 77.853C209.384 84.3254 206.505 91.4282 201.222 96.3913C196.653 100.682 191.021 102.671 185.777 101.846C181.068 101.107 176.022 99.3532 170.78 96.6331C169.46 95.9483 167.912 95.9949 166.64 96.7615C165.365 97.5304 164.604 98.8751 164.604 100.361V143.136C164.604 143.561 164.258 143.905 163.832 143.905Z" fill="white"/>
<path d="M124.752 73.5656C124.752 78.5684 123.481 82.4003 120.941 85.0601C118.4 87.7211 114.737 89.051 109.949 89.051C105.26 89.051 101.271 88.1356 97.9824 86.3049V76.4571C102.008 79.0692 105.702 80.3742 109.066 80.3742C110.981 80.3742 112.422 79.8495 113.392 78.8001C114.362 77.7518 114.846 76.3242 114.846 74.5173C114.846 72.7354 114.269 71.1067 113.116 69.6303C111.962 68.1539 110.06 66.5128 107.409 64.7058C105.101 63.1192 103.352 61.6008 102.162 60.1482C100.971 58.6968 100.05 57.067 99.4 55.2612C98.7501 53.4555 98.4245 51.3555 98.4245 48.9637C98.4245 44.3754 99.7073 40.74 102.272 38.054C104.837 35.3703 108.28 34.0268 112.601 34.0268C116.724 34.0268 120.689 35.175 124.494 37.4691L121.18 45.4487C120.002 44.7661 118.768 44.1562 117.479 43.619C116.191 43.083 114.81 42.8138 113.337 42.8138C111.716 42.8138 110.47 43.3442 109.6 44.4061C108.728 45.468 108.293 46.9137 108.293 48.7445C108.293 50.5503 108.814 52.1255 109.858 53.4668C110.901 54.8092 112.723 56.3345 115.325 58.0426C118.835 60.3867 121.284 62.7785 122.671 65.2192C124.058 67.6598 124.752 70.4412 124.752 73.5656Z" fill="white"/>
<path d="M234.756 154.068H224.944L220.817 132.09C220.182 129.088 219.73 125.54 219.461 121.446L219.23 123.569L218.047 132.205L214.035 154.068H204.224L196.576 112.121H204.281L208.062 135.792C208.428 138.163 208.918 141.885 209.533 146.952C210.014 141.827 210.467 138.163 210.89 135.964L215.392 112.121H223.53L228.032 135.964C228.628 139.502 229.1 143.185 229.446 147.01C230.119 141.349 230.61 137.609 230.917 135.792L234.583 112.121H242.345L234.756 154.068Z" fill="white"/>
<path d="M69.6076 248.823C69.6076 254.23 70.293 258.35 71.6626 261.184C73.0334 264.017 75.0461 265.434 77.6997 265.434C83.0514 265.434 85.7279 259.897 85.7279 248.823C85.7279 237.748 83.0732 232.212 77.7648 232.212C75.0679 232.212 73.0334 233.623 71.6626 236.446C70.293 239.268 69.6076 243.394 69.6076 248.823ZM94.8321 248.823C94.8321 256.674 93.3528 262.709 90.3942 266.926C87.4356 271.144 83.2034 273.253 77.6997 273.253C72.1744 273.253 67.9319 271.15 64.9733 266.942C62.0147 262.736 60.5354 256.674 60.5354 248.758C60.5354 240.907 62.0147 234.888 64.9733 230.702C67.9319 226.517 72.1961 224.425 77.7648 224.425C83.2685 224.425 87.4893 226.528 90.4262 230.735C93.3631 234.943 94.8321 240.971 94.8321 248.823Z" fill="white"/>
<path d="M209.115 291.906H199.931V250.697H190.442V242.643H218.606V250.697H209.115V291.906Z" fill="white"/>
<path d="M56.745 143.671C56.745 143.671 67.9031 171.643 40.6757 188.835L33.2175 185.888C33.2175 185.888 54.9342 166.631 53.9049 145.929L50.5763 144.685C49.5101 144.287 48.9181 143.152 49.2044 142.056L52.5286 129.327C52.639 128.903 53.2606 128.962 53.2885 129.397C53.6834 135.597 54.0181 141.911 56.745 143.671Z" fill="url(#paint5_linear)"/>
<path d="M35.053 257.122C35.053 257.122 19.9584 289.832 12.0388 303.38C12.0388 303.38 10.4658 311.904 12.0388 314.585L13.3793 315.177L7.1231 314.992C7.1231 314.992 6.56737 303.525 7.00144 302.886C7.43541 302.245 8.30356 302.287 8.30356 302.287C8.30356 302.287 10.9862 281.156 18.755 276.647L26.284 250.864L35.053 257.122Z" fill="url(#paint6_linear)"/>
<path d="M16.0513 316.784C16.0606 316.934 11.166 316.865 8.50727 316.817C7.52546 316.798 6.6886 316.112 6.47933 315.158L4.47149 304.671C4.28073 303.674 4.91722 302.706 5.91206 302.48L7.03278 302.226C7.03278 302.226 8.63156 304.407 8.12826 306.459C7.62495 308.512 7.17717 313.83 8.4489 314.45C9.72075 315.07 13.3793 315.178 13.3793 315.178C13.3793 315.178 15.9676 315.433 16.0513 316.784Z" fill="url(#paint7_linear)"/>
<path d="M49.36 316.973C49.855 317.254 49.6509 318.006 49.0812 318C44.6318 317.956 34.6617 317.816 33.7758 317.449C32.632 316.977 34.1926 312.89 35.835 311.507L44.9039 314.45L49.36 316.973Z" fill="url(#paint8_linear)"/>
<path d="M52.175 255.037C52.175 255.037 42.4205 301.953 39.6611 311.105L46.189 315.177C46.189 315.177 42.9176 314.624 40.4919 314.449C38.0662 314.275 35.835 311.507 35.835 311.507L36.617 310.267C36.617 310.267 39.0631 263.606 38.4676 258.308L52.175 255.037Z" fill="url(#paint9_linear)"/>
<path d="M76.3893 145.604C76.3893 145.604 77.7349 170.01 55.386 182.481L60.7671 194.682C60.7671 194.682 80.9951 182.517 80.2526 149.341C80.2309 148.384 80.5736 147.453 81.2018 146.729L85.5026 141.769C87.1407 139.879 87.753 137.315 87.1441 134.894L86.5775 132.645C86.3879 131.892 85.5255 131.529 84.8504 131.92L84.4003 132.179C82.969 133.006 81.8347 134.26 81.1584 135.762L79.0474 140.455C78.2581 142.207 76.4395 143.271 74.5159 143.107L73.4124 143.315C72.9692 143.399 72.895 143.998 73.305 144.187L76.3893 145.604Z" fill="url(#paint10_linear)"/>
<path d="M56.164 180.652C52.4251 181.682 39.7582 184.995 31.8506 184.86L36.7057 212.1L36.3193 216.543L52.1492 216.473C52.1492 216.473 56.6057 206.183 60.1217 201.054C61.1372 199.572 60.381 197.805 59.8053 196.106L60.5958 195.582C61.4011 195.05 61.7495 194.049 61.4491 193.136L57.5949 181.41C57.3939 180.818 56.7679 180.485 56.164 180.652Z" fill="url(#paint11_linear)"/>
<path d="M53.4176 214.148L53.1062 216.84C53.1062 216.84 57.58 230.159 50.8693 261.27C50.8693 261.27 36.3364 265.363 24.3918 255.567C24.3918 255.567 27.7613 226.205 28.6816 224.837C33.2656 218.024 36.3193 216.543 36.3193 216.543L36.4569 213.603C36.4569 213.603 49.2324 215.899 53.4176 214.148Z" fill="url(#paint12_linear)"/>
<path d="M47.2208 182.847C47.2765 182.774 43.9161 172.76 43.9161 172.76L39.1028 173.195L37.2224 184.554C37.2224 184.554 44.7659 186.068 47.2208 182.847Z" fill="url(#paint13_linear)"/>
<path d="M40.255 156.968C40.576 157.167 50.5406 161.261 48.3997 171.547C48.2732 172.155 47.8652 172.669 47.295 172.923C45.8328 173.571 42.6848 174.682 38.9195 174.301C33.6994 173.773 30.2789 164.717 30.4244 162.081C30.5698 159.446 37.074 154.999 40.255 156.968Z" fill="url(#paint14_linear)"/>
<path d="M37.2224 152.969C37.4843 153.004 42.9808 154.907 40.255 158.867C37.5293 162.827 36.5067 165.157 37.7961 166.896C38.9706 168.481 41.5725 167.578 41.3454 170.874C41.3 171.533 41.587 172.174 42.1379 172.545C44.5897 174.195 50.5716 179.274 44.645 186.517C44.1633 187.106 44.064 187.918 44.4357 188.582C46.1716 191.678 49.8177 200.745 36.6171 205.776C23.5727 210.746 18.863 202.269 17.5472 198.88C17.2626 198.148 16.5368 197.699 15.7474 197.735C14.3142 197.804 12.2831 197.566 12.3764 195.662C12.4332 194.505 13.1591 193.469 14.017 192.637C14.866 191.815 14.6982 190.375 13.6675 189.792C12.8889 189.353 12.1998 188.666 11.9089 187.595C11.1185 184.682 12.6967 175.974 21.0922 174.498C21.7925 174.375 22.5258 173.722 22.6278 173.022C22.6294 173.012 22.631 173.002 22.6327 172.99C22.7452 172.314 22.5149 171.622 21.9586 171.216C20.6181 170.239 18.899 168.27 20.2952 165.113C21.5337 162.314 23.9089 161.37 25.6733 161.069C26.7092 160.892 27.3902 159.917 27.1719 158.895C26.5768 156.11 27.0955 151.649 37.2224 152.969Z" fill="url(#paint15_linear)"/>
<defs>
<linearGradient id="paint0_linear" x1="305.562" y1="343.783" x2="94.5219" y2="114.672" gradientUnits="userSpaceOnUse">
<stop stop-color="#DAE3FE"/>
<stop offset="1" stop-color="#E9EFFD"/>
</linearGradient>
<linearGradient id="paint1_linear" x1="165.502" y1="70.4014" x2="407.415" y2="524.747" gradientUnits="userSpaceOnUse">
<stop stop-color="#FF4FE3"/>
<stop offset="1" stop-color="#4042E2"/>
</linearGradient>
<linearGradient id="paint2_linear" x1="313.235" y1="672.952" x2="105.471" y2="-33.2259" gradientUnits="userSpaceOnUse">
<stop stop-color="#8EAEFF"/>
<stop offset="1" stop-color="#6272FE"/>
</linearGradient>
<linearGradient id="paint3_linear" x1="29.1618" y1="133.848" x2="283.214" y2="610.994" gradientUnits="userSpaceOnUse">
<stop stop-color="#FF4FE3"/>
<stop offset="1" stop-color="#4042E2"/>
</linearGradient>
<linearGradient id="paint4_linear" x1="220.282" y1="-40.0557" x2="104.327" y2="88.9309" gradientUnits="userSpaceOnUse">
<stop stop-color="#908EFF"/>
<stop offset="1" stop-color="#627BFE"/>
</linearGradient>
<linearGradient id="paint5_linear" x1="44.8325" y1="128.618" x2="46.3184" y2="178.611" gradientUnits="userSpaceOnUse">
<stop stop-color="#FEBBBA"/>
<stop offset="1" stop-color="#FF928E"/>
</linearGradient>
<linearGradient id="paint6_linear" x1="35.053" y1="283.021" x2="6.83569" y2="283.021" gradientUnits="userSpaceOnUse">
<stop stop-color="#FEBBBA"/>
<stop offset="1" stop-color="#FF928E"/>
</linearGradient>
<linearGradient id="paint7_linear" x1="-10.8737" y1="-1.3664" x2="-5.52591" y2="78.549" gradientUnits="userSpaceOnUse">
<stop stop-color="#09005D"/>
<stop offset="1" stop-color="#1A0F91"/>
</linearGradient>
<linearGradient id="paint8_linear" x1="19.8173" y1="-3.41998" x2="25.1651" y2="76.4951" gradientUnits="userSpaceOnUse">
<stop stop-color="#09005D"/>
<stop offset="1" stop-color="#1A0F91"/>
</linearGradient>
<linearGradient id="paint9_linear" x1="52.175" y1="285.107" x2="35.835" y2="285.107" gradientUnits="userSpaceOnUse">
<stop stop-color="#FEBBBA"/>
<stop offset="1" stop-color="#FF928E"/>
</linearGradient>
<linearGradient id="paint10_linear" x1="87.3749" y1="163.221" x2="55.3862" y2="163.221" gradientUnits="userSpaceOnUse">
<stop stop-color="#FEBBBA"/>
<stop offset="1" stop-color="#FF928E"/>
</linearGradient>
<linearGradient id="paint11_linear" x1="-6.55305" y1="236.871" x2="55.016" y2="190.426" gradientUnits="userSpaceOnUse">
<stop stop-color="#FF8E8E"/>
<stop offset="1" stop-color="#FE62AD"/>
</linearGradient>
<linearGradient id="paint12_linear" x1="66.602" y1="211.715" x2="14.5388" y2="270.772" gradientUnits="userSpaceOnUse">
<stop stop-color="#09005D"/>
<stop offset="1" stop-color="#1A0F91"/>
</linearGradient>
<linearGradient id="paint13_linear" x1="47.2216" y1="178.835" x2="37.2224" y2="178.835" gradientUnits="userSpaceOnUse">
<stop stop-color="#FEBBBA"/>
<stop offset="1" stop-color="#FF928E"/>
</linearGradient>
<linearGradient id="paint14_linear" x1="31.3297" y1="165.988" x2="-41.4478" y2="170.966" gradientUnits="userSpaceOnUse">
<stop stop-color="#FEBBBA"/>
<stop offset="1" stop-color="#FF928E"/>
</linearGradient>
<linearGradient id="paint15_linear" x1="19.367" y1="161.627" x2="44.7495" y2="212.686" gradientUnits="userSpaceOnUse">
<stop stop-color="#09005D"/>
<stop offset="1" stop-color="#1A0F91"/>
</linearGradient>
</defs>
</svg>
