<svg width="36" height="36" viewBox="0 0 36 36" fill="none" xmlns="http://www.w3.org/2000/svg">
<g clip-path="url(#clip0)">
<path d="M18 36C27.9411 36 36 27.9411 36 18C36 8.05887 27.9411 0 18 0C8.05887 0 0 8.05887 0 18C0 27.9411 8.05887 36 18 36Z" fill="#54C0EB"/>
<path d="M18 31.5C10.575 31.5 4.5 25.425 4.5 18C4.5 10.575 10.575 4.5 18 4.5C25.425 4.5 31.5 10.575 31.5 18C31.5 25.425 25.425 31.5 18 31.5Z" fill="#F2F2F2"/>
<path d="M18 27C13.05 27 9 22.95 9 18C9 13.05 13.05 9 18 9C22.95 9 27 13.05 27 18C27 22.95 22.95 27 18 27Z" fill="#FF7058"/>
<path d="M18 22.5C15.525 22.5 13.5 20.475 13.5 18C13.5 15.525 15.525 13.5 18 13.5C20.475 13.5 22.5 15.525 22.5 18C22.5 20.475 20.475 22.5 18 22.5Z" fill="#CDD6E0"/>
<path d="M18 22.5C15.525 22.5 13.5 20.475 13.5 18C13.5 15.525 15.525 13.5 18 13.5C20.475 13.5 22.5 15.525 22.5 18C22.5 20.475 20.475 22.5 18 22.5Z" fill="#FFD15C"/>
<path opacity="0.2" d="M35.8501 20.25C35.5501 22.5 34.8751 24.6 33.8251 26.55L32.8501 26.175L31.5751 23.475L18.0751 18.6C17.4752 18.375 17.1751 17.7 17.4001 17.1C17.6251 16.5001 18.3001 16.2 18.9001 16.425L32.4001 21.3L35.1001 20.025L35.8501 20.25Z" fill="#334A5E"/>
<path d="M30.3001 7.27505L19.2751 18.3C18.8251 18.7501 18.0751 18.7501 17.6251 18.3C17.1751 17.85 17.1751 17.1 17.6251 16.65L28.7251 5.70005C29.1751 5.25005 29.9251 5.25005 30.3751 5.70005C30.7501 6.15005 30.7501 6.82505 30.3001 7.27505Z" fill="#40596B"/>
<path d="M31.35 4.64998L27.825 8.17502V3.52498L31.35 0V4.64998Z" fill="#FF7058"/>
<path d="M32.475 8.17519L36 4.65015H31.35L27.825 8.17519H32.475Z" fill="#F1543F"/>
</g>
<defs>
<clipPath id="clip0">
<rect width="36" height="36" fill="white"/>
</clipPath>
</defs>
</svg>
