<svg width="36" height="36" viewBox="0 0 36 36" fill="none" xmlns="http://www.w3.org/2000/svg">
<g clip-path="url(#clip0)">
<path d="M35.2587 25.9393L22.5403 4.65522C21.5689 3.05047 19.8798 2.0791 18.0005 2.0791C16.1212 2.0791 14.432 3.05047 13.4606 4.65522L0.742253 25.9393C-0.228905 27.6075 -0.250069 29.5924 0.700136 31.2605C1.65027 32.9285 3.36048 33.9209 5.28206 33.9209H30.7188C32.6404 33.9209 34.3506 32.9285 35.3007 31.2605C36.251 29.5924 36.2299 27.6075 35.2587 25.9393Z" fill="#E50027"/>
<path d="M35.3004 31.2606C34.3502 32.9287 32.64 33.9211 30.7184 33.9211H18V2.07935C19.8792 2.07935 21.5685 3.05071 22.5399 4.65546L35.2582 25.9396C36.2294 27.6077 36.2506 29.5925 35.3004 31.2606Z" fill="#C1001F"/>
<path d="M5.28118 31.8094C4.11202 31.8094 3.11196 31.2279 2.53456 30.2155C1.95722 29.202 1.96748 28.0296 2.56753 27.0008L15.2741 5.73386C15.8556 4.77297 16.8783 4.19043 18 4.19043C19.1217 4.19043 20.1446 4.7729 20.7343 5.74835L33.4429 27.0172C34.0327 28.0297 34.043 29.202 33.4656 30.2154C32.8882 31.2279 31.8881 31.8093 30.719 31.8093H5.28118V31.8094Z" fill="#FD003A"/>
<path d="M30.719 31.8092C31.8882 31.8092 32.8882 31.2277 33.4656 30.2153C34.043 29.2018 34.0327 28.0295 33.443 27.0171L20.7342 5.7481C20.1445 4.7728 19.1218 4.19019 18 4.19019V31.8092H30.719Z" fill="#E50027"/>
<path d="M20.1115 10.6943V19.1404C20.1115 20.3018 19.1613 21.2519 18 21.2519C16.8387 21.2519 15.8884 20.3017 15.8884 19.1404V10.6943C15.8884 9.53297 16.8386 8.58276 18 8.58276C19.1613 8.58276 20.1115 9.53297 20.1115 10.6943Z" fill="#E1E4FB"/>
<path d="M20.1115 10.6943V19.1404C20.1115 20.3018 19.1613 21.2519 18 21.2519V8.58276C19.1613 8.58276 20.1115 9.53297 20.1115 10.6943Z" fill="#C5C9F7"/>
<path d="M17.9998 23.3635C16.2472 23.3635 14.8325 24.7781 14.8325 26.5308C14.8325 28.2833 16.2471 29.6981 17.9998 29.6981C19.7525 29.6981 21.1671 28.2834 21.1671 26.5308C21.1671 24.7782 19.7524 23.3635 17.9998 23.3635Z" fill="#E1E4FB"/>
<path d="M21.1673 26.5308C21.1673 28.2832 19.7527 29.6981 18 29.6981V23.3635C19.7525 23.3635 21.1673 24.7782 21.1673 26.5308Z" fill="#C5C9F7"/>
</g>
<defs>
<clipPath id="clip0">
<rect width="36" height="36" fill="white"/>
</clipPath>
</defs>
</svg>
