<svg width="36" height="37" viewBox="0 0 36 37" fill="none" xmlns="http://www.w3.org/2000/svg">
<g clip-path="url(#clip0)">
<path d="M29.3995 23.3076C29.3995 23.3076 27.1544 22.4212 24.7479 21.7147C22.3417 21.0079 17.5291 24.5413 17.5291 24.5413C17.5291 24.5413 9.53494 24.5413 8.84757 24.5413C8.15984 24.5413 10.3099 14.6486 9.6225 9.3486L11.513 9.5254C11.513 9.5254 13.5758 9.5254 13.9195 8.81857L15.2942 9.87863L19.4195 5.63874L16.3256 1.75244L7.04431 5.63874C7.04431 5.63874 1.62907 17.4621 0.597656 29.4749C0.597656 29.4749 0.856539 32.0471 8.07538 32.4007C15.2946 32.7539 24.3201 32.1459 28.0828 35.4069L29.3995 23.3076Z" fill="#FFD578"/>
<path d="M29.6149 22.7322C29.6057 22.7286 27.3506 21.8376 24.9128 21.122C24.6292 21.0387 24.3353 21.0048 24.0373 21.0048C23.2929 21.0069 22.5159 21.2112 21.7468 21.4985C19.4516 22.3645 17.2037 24.0258 17.1803 24.0392L17.5292 24.5414V23.9245C17.5292 23.9245 9.53505 23.9245 8.84767 23.9245V24.4708L9.11068 23.9958C9.03548 23.9507 8.93454 23.9231 8.84767 23.9245V24.4708L9.11068 23.9958L8.87583 24.4204L9.30947 24.2093C9.29059 24.1712 9.24561 24.0781 9.11068 23.9958L8.87617 24.4204L9.30982 24.2093L9.11857 24.3021L9.32561 24.252L9.30947 24.2093L9.11857 24.3021L9.32527 24.252C9.32252 24.246 9.30913 24.1395 9.31016 23.9916C9.30947 23.5995 9.37231 22.9022 9.47016 22.0402C9.76303 19.4398 10.3591 15.2877 10.3601 11.8242C10.3601 10.9155 10.3193 10.052 10.2176 9.26756L9.62261 9.34872L9.56836 9.96309L11.4592 10.1399L11.5134 10.1424C11.5313 10.1416 12.0669 10.1427 12.6791 10.0467C12.9864 9.99732 13.3122 9.92603 13.6216 9.7997C13.7767 9.73583 13.9288 9.65749 14.0737 9.54845C14.2173 9.43941 14.3587 9.29437 14.4566 9.09429L13.9196 8.81869L13.5598 9.31202L14.9348 10.3721C15.1738 10.5563 15.5079 10.5319 15.7191 10.3146L19.8443 6.07467C20.062 5.85094 20.0795 5.49312 19.8845 5.24822L16.7906 1.36192C16.6241 1.15266 16.3429 1.07926 16.0998 1.18124L6.81781 5.06789C6.67807 5.12647 6.5658 5.23587 6.50159 5.37631C6.48958 5.41054 1.04892 17.2625 0 29.4207L0.00103004 29.5382C0.00789695 29.6106 0.046695 29.859 0.230042 30.1882C0.503688 30.6844 1.09871 31.3397 2.29355 31.8831C3.49045 32.429 5.2889 32.8811 8.04699 33.0169C11.6834 33.1941 15.739 33.1309 19.3273 33.428C21.1206 33.5759 22.7954 33.8141 24.2302 34.2072C25.6661 34.5989 26.8548 35.1473 27.6963 35.8785C27.9497 36.098 28.3281 36.0648 28.5416 35.8044C28.7552 35.5439 28.7229 35.1551 28.4699 34.9356C27.4295 34.0361 26.0788 33.4376 24.5389 33.0152C22.2275 32.3842 19.4704 32.1495 16.6104 32.031C13.7513 31.9138 10.7907 31.9163 8.10433 31.7847C4.561 31.6128 2.80033 30.8908 1.97115 30.298C1.55433 30.0012 1.36377 29.7404 1.2721 29.5763C1.22643 29.4941 1.20583 29.4348 1.1969 29.4052L1.19107 29.3836L0.903342 29.4422L1.19484 29.4112L1.19107 29.3836L0.903342 29.4422L1.19484 29.4112L0.597765 29.4747L1.19553 29.529C1.70368 23.5985 3.3023 17.6785 4.77559 13.2516C5.51207 11.038 6.21662 9.19663 6.7361 7.91037C6.99601 7.26741 7.20957 6.7635 7.3579 6.42085C7.43206 6.2497 7.48974 6.11878 7.52854 6.03127C7.56768 5.94375 7.58691 5.9014 7.58725 5.9014L7.04442 5.63886L7.27069 6.20982L16.1421 2.49502L18.6117 5.59722L15.2384 9.06429L14.2797 8.32536C14.1373 8.21561 13.9549 8.17644 13.7816 8.21843C13.6085 8.26078 13.4622 8.37935 13.3829 8.54309L13.4636 8.58473L13.3895 8.53144L13.3829 8.54309L13.4636 8.58437L13.3895 8.53144L13.3973 8.53709L13.3898 8.53038L13.3895 8.53144L13.3973 8.53709L13.3898 8.53038C13.386 8.54309 13.2621 8.63272 13.0719 8.69341C12.7872 8.79116 12.3824 8.85256 12.0631 8.88009C11.9028 8.8942 11.762 8.90126 11.6631 8.90479L11.5491 8.90797L11.5134 8.90832V9.52516L11.5677 8.91079L9.67685 8.73435C9.49522 8.71741 9.31565 8.78622 9.1893 8.92173C9.0633 9.05688 9.00355 9.24426 9.02759 9.42988C9.11995 10.1399 9.15978 10.9536 9.15978 11.8238C9.16046 14.0399 8.90089 16.6153 8.63926 18.8582C8.50845 19.9804 8.37729 21.02 8.27806 21.8976C8.17918 22.7773 8.1112 23.4845 8.11017 23.9909C8.11154 24.1938 8.11772 24.3607 8.15995 24.5453C8.18399 24.6381 8.21214 24.7418 8.30484 24.8738C8.35188 24.9387 8.42055 25.0111 8.51738 25.0679C8.61317 25.1254 8.73677 25.1589 8.84767 25.1575H17.5292C17.6548 25.1575 17.776 25.1176 17.878 25.0428L17.9185 25.0135C18.1283 24.8625 19.135 24.1525 20.3625 23.4905C20.9757 23.1595 21.6445 22.8405 22.2876 22.609C22.9303 22.3765 23.549 22.236 24.0376 22.2378C24.246 22.2378 24.4294 22.2621 24.5832 22.3076C25.7705 22.6559 26.9238 23.0508 27.7784 23.3582C28.2055 23.5117 28.5581 23.6433 28.8033 23.7365C29.0488 23.8296 29.184 23.8829 29.1844 23.8833C29.4937 24.0054 29.8409 23.8466 29.9597 23.5286C30.0785 23.211 29.9243 22.8543 29.6149 22.7322Z" fill="#54596E"/>
<path d="M20.3985 25.7744C20.2934 25.7744 20.187 25.803 20.0905 25.8626C19.8062 26.038 19.7138 26.4167 19.8845 26.7088C19.9061 26.7452 20.3998 27.5847 21.4367 28.57C22.4726 29.5541 24.0589 30.6862 26.248 31.2727C26.2988 31.2861 26.3497 31.2928 26.3998 31.2928C26.6662 31.2928 26.9097 31.1089 26.98 30.8316C27.0638 30.5016 26.8715 30.165 26.5509 30.0792C24.5924 29.5545 23.1782 28.5442 22.2508 27.6641C21.788 27.2244 21.4481 26.8179 21.2269 26.5257C21.116 26.3796 21.035 26.2621 20.9832 26.1838L20.9269 26.0959L20.9148 26.0761L20.9131 26.073C20.8002 25.881 20.6017 25.7744 20.3985 25.7744Z" fill="#DDBC76"/>
<path d="M35.3999 10.3571C35.3999 14.1036 32.4448 17.1409 28.7995 17.1409C25.1542 17.1409 22.199 14.1036 22.199 10.3571C22.199 6.61051 25.1542 3.57324 28.7995 3.57324C32.4448 3.57324 35.3999 6.61051 35.3999 10.3571Z" fill="#ADF2A2"/>
<path d="M35.3999 10.3569H36.0001C35.9994 6.26941 32.7764 2.9569 28.7994 2.95654C24.8224 2.9569 21.5991 6.26941 21.5991 10.3569C21.5995 14.4443 24.8224 17.7568 28.7994 17.7575C32.7764 17.7568 35.9994 14.4443 36.0001 10.3569H34.7997C34.7994 12.062 34.1292 13.5998 33.0425 14.7178C31.9548 15.8347 30.4581 16.5238 28.7994 16.5238C27.1404 16.5238 25.6444 15.8347 24.5567 14.7178C23.4697 13.5998 22.7995 12.062 22.7991 10.3569C22.7995 8.65172 23.4697 7.11421 24.5567 5.99628C25.6444 4.87905 27.1407 4.19022 28.7994 4.18987C30.4581 4.19022 31.9548 4.87905 33.0425 5.99628C34.1292 7.11421 34.7994 8.65207 34.7997 10.3569H35.3999Z" fill="#54596E"/>
<path d="M8.39767 27.6243C8.08351 27.6243 7.81947 27.8759 7.79956 28.2026C7.77861 28.5428 8.03029 28.8354 8.36093 28.8565L17.9616 29.4734C17.9743 29.4741 17.987 29.4748 17.9997 29.4748C18.3138 29.4748 18.5779 29.2232 18.5978 28.8964C18.6187 28.5562 18.3671 28.2637 18.0364 28.2422L8.43578 27.6257C8.42307 27.625 8.41037 27.6243 8.39767 27.6243Z" fill="#DDBC76"/>
<path d="M27.643 13.8548C27.8116 13.6525 28.2587 13.4348 28.795 13.4401C29.3254 13.4348 29.7697 13.6476 29.9414 13.8488C30.167 14.0982 30.5467 14.1127 30.7895 13.8805C31.0322 13.6487 31.0463 13.2584 30.8207 13.0089C30.3349 12.4831 29.6042 12.2117 28.795 12.2068C27.9775 12.2117 27.2396 12.488 26.7548 13.0255C26.532 13.2774 26.5502 13.6677 26.7953 13.8967C27.0408 14.1258 27.4206 14.1071 27.643 13.8548Z" fill="#54596E"/>
<path d="M26.9994 9.43185C26.9994 9.94283 26.5966 10.3568 26.0995 10.3568C25.6023 10.3568 25.1992 9.94283 25.1992 9.43185C25.1992 8.92088 25.6023 8.50659 26.0995 8.50659C26.5966 8.50659 26.9994 8.92088 26.9994 9.43185Z" fill="#54596E"/>
<path d="M32.3998 9.43185C32.3998 9.94283 31.9967 10.3568 31.4995 10.3568C31.0027 10.3568 30.5996 9.94283 30.5996 9.43185C30.5996 8.92088 31.0027 8.50659 31.4995 8.50659C31.9967 8.50659 32.3998 8.92088 32.3998 9.43185Z" fill="#54596E"/>
</g>
<defs>
<clipPath id="clip0">
<rect width="36" height="37" fill="white"/>
</clipPath>
</defs>
</svg>
