<svg width="63" height="100" viewBox="0 0 63 100" fill="none" xmlns="http://www.w3.org/2000/svg">
<path fill-rule="evenodd" clip-rule="evenodd" d="M60.7275 90.6686C60.7275 92.0535 60.652 93.2119 60.501 94.1688C60.3498 95.1256 60.1484 95.9062 59.8715 96.4604C59.6197 97.0395 59.2922 97.4424 58.9648 97.6689C58.6123 97.9209 58.2094 98.0467 57.7813 98.0467H4.975C4.59727 98.0467 4.21953 97.9207 3.86699 97.6689C3.53965 97.4424 3.2375 97.0395 2.96035 96.4604C2.6834 95.9062 2.48203 95.1256 2.33086 94.1688C2.17969 93.2119 2.1043 92.0535 2.1043 90.6686C2.1043 89.2584 2.15469 88.0748 2.28047 87.0928C2.40644 86.1359 2.60781 85.3805 2.88476 84.776C3.16172 84.1967 3.46406 83.7687 3.8166 83.4916C4.14395 83.2146 4.54688 83.0887 4.975 83.0887H22.8037V20.9904L7.46797 29.4516C6.35996 29.9805 5.42832 30.3328 4.72305 30.4588C3.99277 30.5596 3.43887 30.4336 3.01074 30.0055C2.60781 29.5773 2.33086 28.8723 2.17969 27.8398C2.02871 26.8074 1.95312 25.3469 1.95312 23.4834C1.95312 22.2998 1.97832 21.3178 2.02871 20.5623C2.0791 19.8068 2.20508 19.1521 2.40645 18.6232C2.58281 18.0693 2.85977 17.6412 3.2123 17.2887C3.53965 16.9361 4.01816 16.5836 4.59726 16.1807L25.0953 2.90996C25.3471 2.70859 25.6492 2.55742 26.002 2.43164C26.3797 2.30566 26.8582 2.20508 27.4625 2.12949C28.0416 2.05391 28.8223 2.00352 29.7791 1.97852C30.7361 1.95313 31.9699 1.95312 33.5061 1.95312C35.3695 1.95312 36.8805 1.97832 38.0389 2.05391C39.1973 2.12949 40.0785 2.25527 40.6578 2.43164C41.2623 2.60781 41.64 2.83457 41.8414 3.13672C42.0428 3.43887 42.1436 3.79141 42.1436 4.24473V83.0889H57.7562C58.2094 83.0889 58.6123 83.2148 58.9902 83.4918C59.368 83.7688 59.6701 84.1969 59.9471 84.7762C60.224 85.3805 60.4256 86.1359 60.5516 87.093C60.6771 88.0748 60.7275 89.2584 60.7275 90.6686Z" fill="#EEEEEE" fill-opacity="0.3"/>
<path d="M62.4877 86.8379C62.3377 85.6998 62.0875 84.759 61.7225 83.9623C61.7182 83.9523 61.7135 83.9426 61.7088 83.933C61.2717 83.0189 60.7748 82.3783 60.1447 81.9164C59.4379 81.3984 58.6344 81.1357 57.7561 81.1357H44.0963V4.24453C44.0963 3.41719 43.8842 2.67949 43.4664 2.05352C43.002 1.35664 42.2656 0.867773 41.2156 0.559766C40.4889 0.340039 39.491 0.191211 38.1662 0.104883C37.0566 0.0324219 35.6193 0 33.5059 0C31.9441 0 30.7103 0 29.7275 0.0257812C28.6988 0.0527344 27.8518 0.108984 27.2199 0.191406C26.4943 0.282031 25.8939 0.408789 25.3842 0.578516C25.3711 0.582812 25.358 0.5875 25.3449 0.591992C24.8053 0.78457 24.3525 1.02168 23.9648 1.31484L3.53574 14.541C3.51738 14.5529 3.49941 14.565 3.48164 14.5775C2.76758 15.0744 2.23594 15.4764 1.80566 15.9334C1.23769 16.509 0.819531 17.1967 0.562304 17.9785C0.304296 18.6744 0.141992 19.4996 0.0798821 20.4326C0.0269525 21.2301 0 22.2564 0 23.4834C0 25.4678 0.0808591 26.9854 0.247265 28.1229C0.456836 29.5539 0.895507 30.6078 1.58848 31.3439C1.60215 31.3584 1.61602 31.3727 1.62988 31.3869C2.4875 32.2441 3.61777 32.5828 4.99004 32.3936C5.01562 32.39 5.04101 32.3859 5.06641 32.3814C5.92363 32.2283 6.98438 31.8465 8.30937 31.2139C8.34395 31.1975 8.37793 31.1799 8.41133 31.1613L20.8504 24.2984L20.851 43.2502C20.851 44.3289 21.7256 45.2033 22.8041 45.2033C23.8826 45.2033 24.7572 44.3287 24.7572 43.2502L24.7566 20.99C24.7566 20.299 24.3914 19.6594 23.7965 19.3082C23.2012 18.9568 22.4648 18.9461 21.86 19.2799L6.57559 27.7127C5.41895 28.2617 4.76836 28.4602 4.41875 28.5283C4.39727 28.5311 4.37773 28.5328 4.35996 28.5342C4.2916 28.3838 4.19004 28.0887 4.11211 27.5568C3.97539 26.6219 3.90605 25.2512 3.90605 23.483C3.90605 22.342 3.93008 21.4029 3.97734 20.6918C4.02441 19.9842 4.1416 19.5541 4.23145 19.318C4.24434 19.2842 4.25625 19.2498 4.26738 19.2154C4.33848 18.992 4.43887 18.8236 4.59297 18.6697C4.61016 18.6525 4.62695 18.635 4.64336 18.6172C4.84629 18.3986 5.2623 18.0971 5.68613 17.8016L26.1562 4.54883C26.2107 4.51348 26.2633 4.47559 26.3139 4.43516C26.3482 4.40762 26.4355 4.35137 26.6379 4.27754C26.8959 4.19375 27.2547 4.12305 27.7145 4.06543C28.2234 3.99902 28.9354 3.95352 29.8297 3.93008C30.7613 3.90625 31.9725 3.90625 33.5059 3.90625C35.5311 3.90625 36.8898 3.93594 37.9117 4.00273C39.2414 4.08945 39.8465 4.22637 40.0887 4.2998C40.0961 4.30215 40.1033 4.3041 40.1107 4.30645C40.1395 4.31484 40.1658 4.32285 40.1898 4.33066V83.0887C40.1898 84.1672 41.0645 85.0418 42.143 85.0418H57.7559C57.7832 85.0418 57.798 85.0441 57.8 85.0445C57.8031 85.0459 57.8154 85.0521 57.835 85.0666C57.8402 85.0705 57.967 85.1666 58.1777 85.6035C58.3721 86.0332 58.5191 86.6197 58.6139 87.341C58.7219 88.183 58.7742 89.2713 58.7742 90.6684C58.7742 91.9369 58.7059 93.0121 58.5715 93.8641C58.4135 94.8645 58.2412 95.3529 58.1244 95.5863C58.1088 95.6176 58.0939 95.6494 58.0799 95.6814C57.9584 95.9604 57.8512 96.0623 57.8525 96.0629C57.8447 96.0684 57.8371 96.0736 57.8293 96.0793C57.8145 96.09 57.8098 96.0932 57.7812 96.0932H5.02285C5.01719 96.0897 5.01035 96.0852 5.00215 96.0795C4.97617 96.0514 4.8709 95.9281 4.72227 95.6174C4.71738 95.6072 4.7125 95.5971 4.70742 95.5871C4.59043 95.3531 4.41797 94.8643 4.25996 93.8639C4.12539 93.0117 4.05703 91.9367 4.05703 90.6684C4.05703 89.2717 4.10957 88.1832 4.2168 87.3475C4.3125 86.6197 4.45957 86.0332 4.65371 85.6035C4.83418 85.2295 4.96309 85.0844 5.00703 85.0418H22.8035C23.8822 85.0418 24.7566 84.1672 24.7566 83.0887V60.8287C24.7566 59.7502 23.8822 58.8756 22.8035 58.8756C21.7248 58.8756 20.8504 59.7502 20.8504 60.8287V81.1357H4.9748C4.07305 81.1357 3.24668 81.4266 2.58242 81.9775C2.01094 82.4348 1.5332 83.0748 1.12266 83.9334C1.11816 83.9432 1.11348 83.9527 1.10898 83.9625C0.743946 84.7592 0.493749 85.7 0.343163 86.8443C0.212109 87.8668 0.150976 89.082 0.150976 90.6686C0.150976 92.1611 0.233008 93.4059 0.401562 94.4734C0.594922 95.6973 0.85039 96.6016 1.20527 97.3178C1.63105 98.2035 2.13418 98.8414 2.74297 99.2666C3.41953 99.7465 4.19102 100 4.975 100H57.7814C58.6147 100 59.4121 99.7465 60.0887 99.2666C60.7275 98.8205 61.2635 98.1369 61.6416 97.2863C61.9885 96.5756 62.2396 95.6797 62.4301 94.4736C62.5984 93.4059 62.6805 92.1613 62.6805 90.6687C62.6805 89.0818 62.6193 87.8666 62.4877 86.8379Z" fill="#EEEEEE" fill-opacity="0.3"/>
<path d="M22.8053 53.9929C23.884 53.9929 24.7584 53.1183 24.7584 52.0398C24.7584 50.9613 23.884 50.0867 22.8053 50.0867H22.8039C21.7252 50.0867 20.8516 50.9613 20.8516 52.0398C20.8516 53.1183 21.7266 53.9929 22.8053 53.9929Z" fill="#EEEEEE" fill-opacity="0.3"/>
</svg>
