<svg width="50" height="50" viewBox="0 0 50 50" fill="none" xmlns="http://www.w3.org/2000/svg">
<path d="M38.2381 44.1154C39.0468 44.1154 39.7032 43.459 39.7032 42.6503C39.7032 28.1495 39.7676 29.1165 39.526 28.7136C39.3202 28.302 38.8212 27.9475 38.2381 27.9475H11.7629C11.2569 27.9475 10.7937 28.2062 10.5253 28.6308C10.1988 29.1443 10.2978 28.2889 10.2978 42.6502C10.2978 43.4589 10.9541 44.1153 11.7629 44.1153C12.5291 44.1154 37.4688 44.1154 38.2381 44.1154V44.1154ZM19.1167 37.4961C18.3079 37.4961 17.6516 36.8407 17.6516 36.031C17.6516 35.2223 18.3079 34.5659 19.1167 34.5659H30.8843C31.693 34.5659 32.3494 35.2223 32.3494 36.031C32.3494 36.8407 31.693 37.4961 30.8843 37.4961H19.1167Z" fill="#EDE9F5"/>
<path d="M46.532 41.9149L49.8138 36.0067C50.3543 35.0345 49.6526 33.8306 48.5333 33.8306H42.6329V42.6504C42.6329 45.0737 40.6609 47.0457 38.2376 47.0457H27.9478V48.5333C27.9478 49.342 28.6041 49.9984 29.4128 49.9984H48.5333C49.6491 49.9984 50.3558 48.7981 49.8138 47.8212L46.532 41.9149Z" fill="#EDE9F5"/>
<path d="M7.36725 42.6504V33.8306H1.46683C0.352485 33.8306 -0.356619 35.0303 0.186344 36.0067L3.46815 41.9149L0.186344 47.8212C-0.354959 48.797 0.34975 49.9984 1.46683 49.9984H20.5873C21.396 49.9984 22.0524 49.342 22.0524 48.5333V47.0457H11.7625C9.33927 47.0457 7.36725 45.0737 7.36725 42.6504Z" fill="#EDE9F5"/>
<path d="M23.1542 14.8898L22.5457 16.7631L24.1387 15.6057C24.6534 15.2319 25.3472 15.2321 25.8617 15.6057L27.4547 16.7631L26.8462 14.8898C26.6499 14.2861 26.8648 13.6249 27.3785 13.2518L28.9716 12.0944H27.0025C26.3676 12.0944 25.805 11.6861 25.6087 11.0825L25.0002 9.20911L24.3917 11.0825C24.1954 11.6861 23.6328 12.0944 22.9979 12.0944H21.0288L22.6219 13.2518C23.1356 13.6249 23.3505 14.2861 23.1542 14.8898V14.8898Z" fill="#EDE9F5"/>
<path d="M11.7628 25.0176H38.238C39.5332 25.0176 40.6984 25.5802 41.5032 26.4739C47.4793 14.2887 38.569 0.00158691 25.0004 0.00158691C11.4291 0.00158691 2.52309 14.2915 8.49764 26.4739C9.30246 25.5802 10.4677 25.0176 11.7628 25.0176ZM16.5195 9.16428H21.9335L23.6067 4.01496C24.0443 2.66933 25.9567 2.66962 26.3942 4.01496L28.0674 9.16428H33.4814C34.8928 9.16428 35.4892 10.9819 34.3419 11.8151L29.9622 14.9973L31.6354 20.1466C32.0741 21.4957 30.5226 22.6143 29.3801 21.7846L25.0004 18.6024L20.6208 21.7846C19.4751 22.6166 17.9279 21.4924 18.3655 20.1466L20.0387 14.9973L15.659 11.8151C14.5121 10.9822 15.1072 9.16428 16.5195 9.16428V9.16428Z" fill="#EDE9F5"/>
</svg>
