<svg width="50" height="50" viewBox="0 0 50 50" fill="none" xmlns="http://www.w3.org/2000/svg">
<path d="M13.1836 0C5.91377 0 0 5.91377 0 13.1836C0 20.4534 5.91377 26.3672 13.1836 26.3672C20.4178 26.3672 26.3672 20.5255 26.3672 13.1836C26.3672 6.00107 20.5137 0 13.1836 0ZM14.6484 20.238V21.9727C14.6484 22.7823 13.9933 23.4375 13.1836 23.4375C12.3739 23.4375 11.7188 22.7823 11.7188 21.9727V20.2235C10.9159 19.936 10.1897 19.4455 9.66885 18.7512C9.18389 18.1031 9.31406 17.1848 9.96064 16.6998C10.613 16.2191 11.5299 16.3437 12.012 16.9916C12.2909 17.3649 12.7187 17.5781 13.1836 17.5781C13.9918 17.5781 14.6484 16.9215 14.6484 16.1133C14.6484 15.3051 13.9918 14.6484 13.1836 14.6484C10.7604 14.6484 8.78906 12.6771 8.78906 10.2539C8.78906 8.34668 10.0174 6.73594 11.7188 6.1292V4.39453C11.7188 3.58486 12.3739 2.92969 13.1836 2.92969C13.9933 2.92969 14.6484 3.58486 14.6484 4.39453V6.14365C15.4513 6.43115 16.1774 6.92168 16.6983 7.61602C17.1833 8.26406 17.0531 9.18242 16.4065 9.66738C15.7585 10.1537 14.843 10.0235 14.3552 9.37559C13.5898 8.35273 11.7188 8.98076 11.7188 10.2539C11.7188 11.0621 12.3754 11.7188 13.1836 11.7188C15.6068 11.7188 17.5781 13.69 17.5781 16.1133C17.5781 18.0205 16.3498 19.6312 14.6484 20.238Z" fill="#EDE9F5"/>
<path d="M48.5352 5.85938H27.4882C28.4286 7.69795 29.0083 9.68711 29.2052 11.7188H42.4805C43.2901 11.7188 43.9453 12.3739 43.9453 13.1836V24.9023C43.9453 25.712 43.2901 26.3672 42.4805 26.3672H22.4088C19.9778 28.0651 17.4086 28.9642 14.6484 29.2062V48.5352C14.6484 49.3448 15.3036 50 16.1133 50H48.5352C49.3448 50 50 49.3448 50 48.5352V7.32422C50 6.51455 49.3448 5.85938 48.5352 5.85938ZM30.7617 29.2969H33.6914C34.5011 29.2969 35.1562 29.9521 35.1562 30.7617C35.1562 31.5714 34.5011 32.2266 33.6914 32.2266H30.7617C29.9521 32.2266 29.2969 31.5714 29.2969 30.7617C29.2969 29.9521 29.9521 29.2969 30.7617 29.2969ZM30.7617 35.1562H33.6914C34.5011 35.1562 35.1562 35.8114 35.1562 36.6211C35.1562 37.4308 34.5011 38.0859 33.6914 38.0859H30.7617C29.9521 38.0859 29.2969 37.4308 29.2969 36.6211C29.2969 35.8114 29.9521 35.1562 30.7617 35.1562ZM24.9023 43.9453H21.9727C21.163 43.9453 20.5078 43.2901 20.5078 42.4805C20.5078 41.6708 21.163 41.0156 21.9727 41.0156H24.9023C25.712 41.0156 26.3672 41.6708 26.3672 42.4805C26.3672 43.2901 25.712 43.9453 24.9023 43.9453ZM24.9023 38.0859H21.9727C21.163 38.0859 20.5078 37.4308 20.5078 36.6211C20.5078 35.8114 21.163 35.1562 21.9727 35.1562H24.9023C25.712 35.1562 26.3672 35.8114 26.3672 36.6211C26.3672 37.4308 25.712 38.0859 24.9023 38.0859ZM24.9023 32.2266H21.9727C21.163 32.2266 20.5078 31.5714 20.5078 30.7617C20.5078 29.9521 21.163 29.2969 21.9727 29.2969H24.9023C25.712 29.2969 26.3672 29.9521 26.3672 30.7617C26.3672 31.5714 25.712 32.2266 24.9023 32.2266ZM42.4805 43.9453H30.7617C29.9521 43.9453 29.2969 43.2901 29.2969 42.4805C29.2969 41.6708 29.9521 41.0156 30.7617 41.0156H42.4805C43.2901 41.0156 43.9453 41.6708 43.9453 42.4805C43.9453 43.2901 43.2901 43.9453 42.4805 43.9453ZM42.4805 38.0859H39.5508C38.7411 38.0859 38.0859 37.4308 38.0859 36.6211C38.0859 35.8114 38.7411 35.1562 39.5508 35.1562H42.4805C43.2901 35.1562 43.9453 35.8114 43.9453 36.6211C43.9453 37.4308 43.2901 38.0859 42.4805 38.0859ZM42.4805 32.2266H39.5508C38.7411 32.2266 38.0859 31.5714 38.0859 30.7617C38.0859 29.9521 38.7411 29.2969 39.5508 29.2969H42.4805C43.2901 29.2969 43.9453 29.9521 43.9453 30.7617C43.9453 31.5714 43.2901 32.2266 42.4805 32.2266Z" fill="#EDE9F5"/>
<path d="M41.0156 23.4375V14.6484H29.1738C28.8729 17.947 27.6057 20.9874 25.5791 23.4375H41.0156Z" fill="#EDE9F5"/>
</svg>
