<svg width="38" height="50" viewBox="0 0 38 50" fill="none" xmlns="http://www.w3.org/2000/svg">
<path d="M19.0002 0C10.9377 0 4.37807 6.55936 4.37807 14.6222V22.9733C4.37807 23.0682 4.26096 23.2281 4.16897 23.2587C3.37825 23.5223 2.73607 23.7508 2.14823 23.9775C1.4472 24.2477 0.918457 25.0246 0.918457 25.7847V44.9731C0.918457 45.728 1.44378 46.5055 2.14037 46.7816C7.53001 48.9173 13.2025 50 19.0002 50C24.7979 50 30.4703 48.9171 35.8602 46.7813C36.5565 46.5054 37.0816 45.728 37.0816 44.9731V25.7847C37.0816 25.0246 36.553 24.2477 35.8516 23.9772C35.2635 23.7506 34.6214 23.5221 33.8313 23.2584C33.7395 23.2278 33.6224 23.0678 33.6224 22.9729V14.6219C33.622 6.55936 27.0628 0 19.0002 0ZM15.0175 31.6288C15.0175 29.4277 16.8006 27.6464 19 27.6464C21.1992 27.6464 22.9823 29.4275 22.9823 31.6288C22.9823 33.0873 22.1598 34.3085 20.9911 35.0007V41.5848C20.9911 42.6855 20.1005 43.576 18.9999 43.576C17.8992 43.576 17.0087 42.6855 17.0087 41.5848V35.0007C15.8401 34.3085 15.0175 33.0873 15.0175 31.6288ZM28.5945 14.6219V21.8274C25.4482 21.1504 22.2204 20.8075 19.0015 20.8072C15.7842 20.8072 12.557 21.1502 9.4058 21.8266V14.6219C9.4058 9.33153 13.7097 5.02773 19 5.02773C24.2902 5.02764 28.5945 9.33153 28.5945 14.6219Z" fill="#EDE9F5"/>
</svg>
