<svg width="50" height="50" viewBox="0 0 50 50" fill="none" xmlns="http://www.w3.org/2000/svg">
<g clip-path="url(#clip0)">
<path d="M28.9125 5.35714L31.591 0H18.4092L21.0878 5.35714H28.9125Z" fill="#EDE9F5"/>
<path d="M28.0635 34.6741C27.9171 34.77 27.7462 34.821 27.5713 34.8214H20.5357C19.0565 34.8214 17.8571 36.0208 17.8571 37.5C17.8571 38.9792 19.0565 40.1786 20.5357 40.1786H32.1429V41.9643H18.75C18.6114 41.9643 18.4745 41.932 18.3511 41.8697L4.43944 34.9056C3.42277 34.3925 2.20294 34.5014 1.29395 35.1877C0.486543 35.7771 0.00654522 36.7148 5.73768e-06 37.7145V37.8126C-0.00217408 38.9452 0.616897 39.9876 1.61264 40.5278L16.7751 48.7963C18.2186 49.5854 19.8369 49.9996 21.4822 50H42.8572V35.2544C41.9403 34.5398 40.9271 33.9582 39.8481 33.5258C35.9711 31.941 31.5617 32.3704 28.0635 34.6741Z" fill="#EDE9F5"/>
<path d="M16.0715 37.5C16.0746 35.0355 18.0713 33.0387 20.5358 33.0357H27.3081C30.8769 30.7822 35.2514 30.1993 39.2858 31.4392V16.9643C39.2897 14.3585 38.256 11.8578 36.4132 10.0154C34.5708 8.17258 32.0701 7.13891 29.4644 7.14283H20.5358C15.1141 7.14937 10.7209 11.5426 10.7144 16.9643V36.05L16.276 38.8393C16.1395 38.4059 16.0706 37.9543 16.0715 37.5ZM23.2144 15.1785H24.1072V13.3928H25.8929V15.1785H29.4644V16.9643H23.2144C22.2282 16.9643 21.4286 17.7638 21.4286 18.75C21.4286 19.7361 22.2282 20.5357 23.2144 20.5357H26.7858C28.7581 20.5357 30.3572 22.1348 30.3572 24.1071C30.3572 26.0794 28.7581 27.6785 26.7858 27.6785H25.8929V29.4643H24.1072V27.6785H20.5358V25.8928H26.7858C27.7719 25.8928 28.5715 25.0933 28.5715 24.1071C28.5715 23.121 27.7719 22.3214 26.7858 22.3214H23.2144C21.242 22.3214 19.6429 20.7223 19.6429 18.75C19.6429 16.7777 21.242 15.1785 23.2144 15.1785ZM18.526 9.18315L18.9724 10.9118C18.4248 11.053 17.8995 11.2688 17.4108 11.5526L16.5179 10.0071C17.147 9.6431 17.8223 9.36582 18.526 9.18315ZM14.2858 20.5357H12.5001V16.9643C12.494 14.791 13.3755 12.7097 14.9402 11.2017L16.184 12.4821C14.9668 13.6548 14.2814 15.274 14.2858 16.9643V20.5357Z" fill="#EDE9F5"/>
<path d="M44.6431 35.7142V49.9999H50.0002V35.7142H44.6431ZM48.2145 47.3214H46.4288V45.5357H48.2145V47.3214Z" fill="#EDE9F5"/>
</g>
<defs>
<clipPath id="clip0">
<rect width="50" height="50" fill="white"/>
</clipPath>
</defs>
</svg>
