<svg width="50" height="50" viewBox="0 0 50 50" fill="none" xmlns="http://www.w3.org/2000/svg">
<path d="M47.8971 2.09677C45.1033 -0.679555 40.5574 -0.679555 37.7635 2.09677C37.0632 2.79273 36.5268 3.60787 36.1704 4.49544C33.3615 2.32352 29.2881 2.51757 26.7078 5.08159C25.3515 6.42949 24.6044 8.22229 24.6045 10.1297C24.6045 12.0372 25.3516 13.8299 26.7078 15.1777C27.4516 15.9169 28.3203 16.4573 29.2464 16.8028L0.432474 45.4867C-0.143523 46.0593 -0.143523 46.9913 0.432572 47.5638L2.34319 49.56C2.9146 50.1278 3.83741 50.1274 4.40823 49.559L8.84198 44.9523L12.4954 48.5829C12.781 48.8668 13.1543 49.0085 13.5275 49.0085C13.9036 49.0085 14.2799 48.8643 14.566 48.5764C15.1361 48.0027 15.1331 47.0757 14.5596 46.5058L13.5526 45.5051L15.3558 43.7131C15.3591 43.7165 15.3618 43.7202 15.3652 43.7235L16.3852 44.7371C16.6708 45.0209 17.044 45.1626 17.4172 45.1626C17.7935 45.1626 18.1697 45.0185 18.4558 44.7305C19.0258 44.157 19.0229 43.23 18.4493 42.6599L14.799 39.0324L33.1798 20.8141C33.5363 21.6888 34.0683 22.492 34.7599 23.1792C36.1568 24.5673 37.9918 25.2614 39.8267 25.2614C41.6616 25.2614 43.4966 24.5673 44.8936 23.1792C46.25 21.8313 46.997 20.0385 46.9969 18.1311C46.9969 16.5291 46.4681 15.0092 45.4959 13.7646C46.3705 13.418 47.1903 12.8954 47.8972 12.1929C49.2536 10.845 50.0005 9.05217 50.0005 7.14477C50.0004 5.23747 49.2534 3.44467 47.8971 2.09677V2.09677ZM27.5327 10.1298C27.5327 9.00796 27.9728 7.95289 28.7719 7.15873C29.5998 6.33598 30.6871 5.92465 31.7747 5.92465C32.862 5.92465 33.9496 6.33607 34.7774 7.15863C35.5764 7.95279 36.0165 9.00786 36.0165 10.1297C36.0164 11.2514 35.5764 12.3066 34.7774 13.1007C33.1216 14.746 30.4277 14.746 28.7719 13.1007C27.9729 12.3067 27.5327 11.2515 27.5327 10.1298ZM42.8293 21.1023C41.1736 22.7476 38.4796 22.7476 36.8239 21.1023C36.0248 20.3082 35.5847 19.2531 35.5847 18.1313C35.5847 17.0095 36.0248 15.9544 36.8239 15.1603C37.6518 14.3377 38.7392 13.9263 39.8266 13.9263C40.9141 13.9263 42.0015 14.3377 42.8293 15.1603C43.6284 15.9544 44.0685 17.0095 44.0685 18.1313C44.0685 19.253 43.6284 20.3082 42.8293 21.1023ZM45.833 10.1158C44.1773 11.7611 41.4833 11.7611 39.8275 10.1158C39.0285 9.32168 38.5884 8.26661 38.5884 7.14487C38.5884 6.02314 39.0285 4.96797 39.8275 4.17382C40.6555 3.35106 41.7427 2.93983 42.8303 2.93983C43.9176 2.93983 45.0053 3.35125 45.8331 4.17382C46.6321 4.96797 47.0722 6.02304 47.0722 7.14487C47.0721 8.26661 46.632 9.32177 45.833 10.1158V10.1158Z" fill="#EDE9F5"/>
</svg>
