<svg width="52" height="51" viewBox="0 0 52 51" fill="none" xmlns="http://www.w3.org/2000/svg">
<path d="M19.4361 16.6907L16.273 13.6895C16.6414 13.0175 16.8693 12.2567 16.8693 11.4359C16.8693 8.83457 14.7705 6.72754 12.1783 6.72754C9.58601 6.72754 7.48389 8.83346 7.48389 11.4359C7.48389 14.0383 9.58601 16.1464 12.1783 16.1464C13.0921 16.1464 13.9374 15.8732 14.6588 15.42L17.8175 18.4178C18.2955 17.7836 18.8343 17.2027 19.4361 16.6907Z" fill="#EDE9F5"/>
<path d="M32.8153 16.3153L37.0185 9.21451C37.4323 9.33336 37.8615 9.41888 38.3118 9.41888C40.9085 9.41888 43.0073 7.31074 43.0073 4.70833C43.0073 2.10703 40.9085 0 38.3118 0C35.7196 0 33.6219 2.10592 33.6219 4.70833C33.6219 6.0001 34.1408 7.16746 34.9794 8.01938L30.7896 15.1002C31.5098 15.4279 32.1891 15.8366 32.8153 16.3153Z" fill="#EDE9F5"/>
<path d="M47.3112 22.2599C45.2931 22.2599 43.5838 23.5472 42.9211 25.3421L37.0816 24.7634C37.0816 24.8079 37.0882 24.8501 37.0882 24.8934C37.0882 25.6576 37.0041 26.404 36.8525 27.1248L42.6898 27.7035C43.0428 29.9516 44.9712 31.6754 47.3112 31.6754C49.9023 31.6754 52 29.5695 52 26.9682C52 24.368 49.9023 22.2599 47.3112 22.2599Z" fill="#EDE9F5"/>
<path d="M31.1967 40.7778L29.8912 35.0509C29.1543 35.3086 28.3876 35.493 27.5877 35.5852L28.8954 41.3131C27.3963 42.1006 26.3618 43.6567 26.3618 45.4739C26.3618 48.0752 28.4595 50.18 31.0562 50.18C33.6473 50.18 35.745 48.0741 35.745 45.4739C35.7484 42.9203 33.7215 40.8533 31.1967 40.7778Z" fill="#EDE9F5"/>
<path d="M15.8843 27.167L8.6154 29.6117C7.77677 28.3255 6.33294 27.4724 4.68996 27.4724C2.0977 27.4724 0 29.5795 0 32.1808C0 34.7854 2.0977 36.8924 4.68996 36.8924C7.28 36.8924 9.38323 34.7854 9.38323 32.1808C9.38323 32.0719 9.36 31.972 9.35115 31.8653L16.6433 29.414C16.3147 28.702 16.0536 27.9523 15.8843 27.167Z" fill="#EDE9F5"/>
<path d="M26.3653 32.9696C30.8082 32.9696 34.4098 29.3538 34.4098 24.8935C34.4098 20.4333 30.8082 16.8175 26.3653 16.8175C21.9225 16.8175 18.3208 20.4333 18.3208 24.8935C18.3208 29.3538 21.9225 32.9696 26.3653 32.9696Z" fill="#EDE9F5"/>
</svg>
