<svg width="50" height="50" viewBox="0 0 50 50" fill="none" xmlns="http://www.w3.org/2000/svg">
<path d="M25 19.4745C29.6923 19.4745 33.4961 15.115 33.4961 9.73725C33.4961 4.35952 29.6923 0 25 0C20.3077 0 16.5039 4.35952 16.5039 9.73725C16.5039 15.115 20.3077 19.4745 25 19.4745Z" fill="#EDE9F5"/>
<path d="M42.1875 19.4744C45.1539 19.4744 47.5586 16.7184 47.5586 13.3187C47.5586 9.91898 45.1539 7.16296 42.1875 7.16296C39.2211 7.16296 36.8164 9.91898 36.8164 13.3187C36.8164 16.7184 39.2211 19.4744 42.1875 19.4744Z" fill="#EDE9F5"/>
<path d="M7.8125 19.4744C10.7789 19.4744 13.1836 16.7184 13.1836 13.3187C13.1836 9.91898 10.7789 7.16296 7.8125 7.16296C4.84613 7.16296 2.44141 9.91898 2.44141 13.3187C2.44141 16.7184 4.84613 19.4744 7.8125 19.4744Z" fill="#EDE9F5"/>
<path d="M13.1045 25.0023C10.9902 23.017 9.07549 23.2798 6.63086 23.2798C2.97461 23.2798 0 26.6688 0 30.8335V43.0565C0 44.8652 1.28809 46.3358 2.87207 46.3358C9.71055 46.3358 8.88672 46.4777 8.88672 45.9978C8.88672 37.3366 7.9916 30.9849 13.1045 25.0023V25.0023Z" fill="#EDE9F5"/>
<path d="M27.3252 23.3246C23.0553 22.9164 19.3439 23.3293 16.1426 26.3577C10.7855 31.2755 11.8164 37.8972 11.8164 45.9978C11.8164 48.141 13.3379 49.9173 15.2364 49.9173C35.8498 49.9173 36.6703 50.6794 37.8926 47.577C38.2935 46.5279 38.1836 46.8613 38.1836 36.8247C38.1836 28.8529 32.1609 23.3246 27.3252 23.3246V23.3246Z" fill="#EDE9F5"/>
<path d="M43.3691 23.2798C40.9111 23.2798 39.0069 23.0197 36.8955 25.0023C41.9702 30.9404 41.1133 36.8588 41.1133 45.9978C41.1133 46.4806 40.4294 46.3358 47.0254 46.3358C48.666 46.3358 50 44.8125 50 42.9401V30.8334C50 26.6688 47.0254 23.2798 43.3691 23.2798Z" fill="#EDE9F5"/>
</svg>
