<svg width="44" height="50" viewBox="0 0 44 50" fill="none" xmlns="http://www.w3.org/2000/svg">
<path d="M13.4937 29.4796L18.9666 50.0002L0.871582 29.4796H13.4937Z" fill="#EDE9F5"/>
<path d="M13.5983 26.548H0.871582L9.23715 18.1824C9.51271 17.9078 9.88501 17.7534 10.2739 17.7534H18.6239L13.5983 26.548Z" fill="#EDE9F5"/>
<path d="M27.0258 26.548H16.9746L22.0002 17.7534L27.0258 26.548Z" fill="#EDE9F5"/>
<path d="M27.4721 29.4796L22 50.0002L16.5278 29.4796H27.4721Z" fill="#EDE9F5"/>
<path d="M30.4016 26.548L25.376 17.7534H33.7259C34.1148 17.7534 34.4871 17.9078 34.7627 18.1824L43.1282 26.548H30.4016Z" fill="#EDE9F5"/>
<path d="M30.5061 29.4796H43.1283L25.0332 50.0002L30.5061 29.4796Z" fill="#EDE9F5"/>
<path d="M21.9999 8.35794C21.1904 8.35794 20.5342 7.70167 20.5342 6.89219V1.46576C20.5342 0.656268 21.1904 0 21.9999 0C22.8094 0 23.4657 0.656268 23.4657 1.46576V6.89219C23.4657 7.70167 22.8095 8.35794 21.9999 8.35794V8.35794Z" fill="#EDE9F5"/>
<path d="M7.42942 11.3845L4.71621 6.68507C4.31137 5.98404 4.55156 5.08759 5.25268 4.68284C5.9537 4.2781 6.85025 4.51819 7.2549 5.21931L9.96811 9.91872C10.373 10.6197 10.1328 11.5162 9.43165 11.9209C8.73355 12.324 7.83593 12.0887 7.42942 11.3845V11.3845Z" fill="#EDE9F5"/>
<path d="M34.5681 11.921C33.867 11.5162 33.6268 10.6198 34.0316 9.91876L36.7449 5.21935C37.1497 4.51823 38.046 4.27804 38.7471 4.68289C39.4482 5.08763 39.6884 5.98409 39.2835 6.68511L36.5703 11.3845C36.1643 12.0877 35.267 12.3246 34.5681 11.921Z" fill="#EDE9F5"/>
</svg>
